<?xml version="1.0" encoding="utf-8" standalone="no"?>
<!DOCTYPE svg PUBLIC "-//W3C//DTD SVG 1.1//EN"
  "http://www.w3.org/Graphics/SVG/1.1/DTD/svg11.dtd">
<svg xmlns:xlink="http://www.w3.org/1999/xlink" width="302.4pt" height="216pt" viewBox="0 0 302.4 216" xmlns="http://www.w3.org/2000/svg" version="1.1">
 <metadata>
  <rdf:RDF xmlns:dc="http://purl.org/dc/elements/1.1/" xmlns:cc="http://creativecommons.org/ns#" xmlns:rdf="http://www.w3.org/1999/02/22-rdf-syntax-ns#">
   <cc:Work>
    <dc:type rdf:resource="http://purl.org/dc/dcmitype/StillImage"/>
    <dc:date>2025-11-07T13:43:40.020246</dc:date>
    <dc:format>image/svg+xml</dc:format>
    <dc:creator>
     <cc:Agent>
      <dc:title>Matplotlib v3.10.7, https://matplotlib.org/</dc:title>
     </cc:Agent>
    </dc:creator>
   </cc:Work>
  </rdf:RDF>
 </metadata>
 <defs>
  <style type="text/css">*{stroke-linejoin: round; stroke-linecap: butt}</style>
 </defs>
 <g id="figure_1">
  <g id="patch_1">
   <path d="M 0 216 
L 302.4 216 
L 302.4 0 
L 0 0 
z
" style="fill: #ffffff"/>
  </g>
  <g id="axes_1">
   <g id="patch_2">
    <path d="M 53.942857 188.428571 
L 211.68 188.428571 
L 211.68 10.8 
L 53.942857 10.8 
z
" style="fill: #ffffff"/>
   </g>
   <g id="matplotlib.axis_1">
    <g id="xtick_1">
     <g id="line2d_1">
      <defs>
       <path id="md0d84ab098" d="M 0 0 
L 0 3.5 
" style="stroke: #000000; stroke-width: 0.8"/>
      </defs>
      <g>
       <use xlink:href="#md0d84ab098" x="53.942857" y="188.428571" style="stroke: #000000; stroke-width: 0.8"/>
      </g>
     </g>
     <g id="text_1">
      <!-- $\Gamma$ -->
      <g transform="translate(51.142857 203.027009) scale(0.1 -0.1)">
       <defs>
        <path id="DejaVuSans-393" d="M 628 0 
L 628 4666 
L 3531 4666 
L 3531 4134 
L 1259 4134 
L 1259 0 
L 628 0 
z
" transform="scale(0.015625)"/>
       </defs>
       <use xlink:href="#DejaVuSans-393" transform="translate(0 0.09375)"/>
      </g>
     </g>
    </g>
    <g id="xtick_2">
     <g id="line2d_2">
      <g>
       <use xlink:href="#md0d84ab098" x="89.094404" y="188.428571" style="stroke: #000000; stroke-width: 0.8"/>
      </g>
     </g>
     <g id="text_2">
      <!-- X -->
      <g transform="translate(85.669404 203.027009) scale(0.1 -0.1)">
       <defs>
        <path id="DejaVuSans-58" d="M 403 4666 
L 1081 4666 
L 2241 2931 
L 3406 4666 
L 4084 4666 
L 2584 2425 
L 4184 0 
L 3506 0 
L 2194 1984 
L 872 0 
L 191 0 
L 1856 2491 
L 403 4666 
z
" transform="scale(0.015625)"/>
       </defs>
       <use xlink:href="#DejaVuSans-58"/>
      </g>
     </g>
    </g>
    <g id="xtick_3">
     <g id="line2d_3">
      <g>
       <use xlink:href="#md0d84ab098" x="101.522352" y="188.428571" style="stroke: #000000; stroke-width: 0.8"/>
      </g>
     </g>
     <g id="text_3">
      <!-- K -->
      <g transform="translate(98.243446 203.027009) scale(0.1 -0.1)">
       <defs>
        <path id="DejaVuSans-4b" d="M 628 4666 
L 1259 4666 
L 1259 2694 
L 3353 4666 
L 4166 4666 
L 1850 2491 
L 4331 0 
L 3500 0 
L 1259 2247 
L 1259 0 
L 628 0 
L 628 4666 
z
" transform="scale(0.015625)"/>
       </defs>
       <use xlink:href="#DejaVuSans-4b"/>
      </g>
     </g>
    </g>
    <g id="xtick_4">
     <g id="line2d_4">
      <g>
       <use xlink:href="#md0d84ab098" x="101.522352" y="188.428571" style="stroke: #000000; stroke-width: 0.8"/>
      </g>
     </g>
     <g id="text_4">
      <!-- K -->
      <g transform="translate(98.243446 203.027009) scale(0.1 -0.1)">
       <use xlink:href="#DejaVuSans-4b"/>
      </g>
     </g>
    </g>
    <g id="xtick_5">
     <g id="line2d_5">
      <g>
       <use xlink:href="#md0d84ab098" x="138.806198" y="188.428571" style="stroke: #000000; stroke-width: 0.8"/>
      </g>
     </g>
     <g id="text_5">
      <!-- $\Gamma$ -->
      <g transform="translate(136.006198 203.027009) scale(0.1 -0.1)">
       <use xlink:href="#DejaVuSans-393" transform="translate(0 0.09375)"/>
      </g>
     </g>
    </g>
    <g id="xtick_6">
     <g id="line2d_6">
      <g>
       <use xlink:href="#md0d84ab098" x="169.24833" y="188.428571" style="stroke: #000000; stroke-width: 0.8"/>
      </g>
     </g>
     <g id="text_6">
      <!-- L -->
      <g transform="translate(166.462392 203.027009) scale(0.1 -0.1)">
       <defs>
        <path id="DejaVuSans-4c" d="M 628 4666 
L 1259 4666 
L 1259 531 
L 3531 531 
L 3531 0 
L 628 0 
L 628 4666 
z
" transform="scale(0.015625)"/>
       </defs>
       <use xlink:href="#DejaVuSans-4c"/>
      </g>
     </g>
    </g>
    <g id="xtick_7">
     <g id="line2d_7">
      <g>
       <use xlink:href="#md0d84ab098" x="194.104227" y="188.428571" style="stroke: #000000; stroke-width: 0.8"/>
      </g>
     </g>
     <g id="text_7">
      <!-- W -->
      <g transform="translate(189.160477 203.027009) scale(0.1 -0.1)">
       <defs>
        <path id="DejaVuSans-57" d="M 213 4666 
L 850 4666 
L 1831 722 
L 2809 4666 
L 3519 4666 
L 4500 722 
L 5478 4666 
L 6119 4666 
L 4947 0 
L 4153 0 
L 3169 4050 
L 2175 0 
L 1381 0 
L 213 4666 
z
" transform="scale(0.015625)"/>
       </defs>
       <use xlink:href="#DejaVuSans-57"/>
      </g>
     </g>
    </g>
    <g id="xtick_8">
     <g id="line2d_8">
      <g>
       <use xlink:href="#md0d84ab098" x="211.68" y="188.428571" style="stroke: #000000; stroke-width: 0.8"/>
      </g>
     </g>
     <g id="text_8">
      <!-- X -->
      <g transform="translate(208.255 203.027009) scale(0.1 -0.1)">
       <use xlink:href="#DejaVuSans-58"/>
      </g>
     </g>
    </g>
   </g>
   <g id="matplotlib.axis_2">
    <g id="ytick_1">
     <g id="line2d_9">
      <defs>
       <path id="m136fbc2c0f" d="M 0 0 
L -3.5 0 
" style="stroke: #000000; stroke-width: 0.8"/>
      </defs>
      <g>
       <use xlink:href="#m136fbc2c0f" x="53.942857" y="180.354542" style="stroke: #000000; stroke-width: 0.8"/>
      </g>
     </g>
     <g id="text_9">
      <!-- 0.0 -->
      <g transform="translate(31.039732 184.15376) scale(0.1 -0.1)">
       <defs>
        <path id="DejaVuSans-30" d="M 2034 4250 
Q 1547 4250 1301 3770 
Q 1056 3291 1056 2328 
Q 1056 1369 1301 889 
Q 1547 409 2034 409 
Q 2525 409 2770 889 
Q 3016 1369 3016 2328 
Q 3016 3291 2770 3770 
Q 2525 4250 2034 4250 
z
M 2034 4750 
Q 2819 4750 3233 4129 
Q 3647 3509 3647 2328 
Q 3647 1150 3233 529 
Q 2819 -91 2034 -91 
Q 1250 -91 836 529 
Q 422 1150 422 2328 
Q 422 3509 836 4129 
Q 1250 4750 2034 4750 
z
" transform="scale(0.015625)"/>
        <path id="DejaVuSans-2e" d="M 684 794 
L 1344 794 
L 1344 0 
L 684 0 
L 684 794 
z
" transform="scale(0.015625)"/>
       </defs>
       <use xlink:href="#DejaVuSans-30"/>
       <use xlink:href="#DejaVuSans-2e" transform="translate(63.623047 0)"/>
       <use xlink:href="#DejaVuSans-30" transform="translate(95.410156 0)"/>
      </g>
     </g>
    </g>
    <g id="ytick_2">
     <g id="line2d_10">
      <g>
       <use xlink:href="#m136fbc2c0f" x="53.942857" y="152.961089" style="stroke: #000000; stroke-width: 0.8"/>
      </g>
     </g>
     <g id="text_10">
      <!-- 2.5 -->
      <g transform="translate(31.039732 156.760308) scale(0.1 -0.1)">
       <defs>
        <path id="DejaVuSans-32" d="M 1228 531 
L 3431 531 
L 3431 0 
L 469 0 
L 469 531 
Q 828 903 1448 1529 
Q 2069 2156 2228 2338 
Q 2531 2678 2651 2914 
Q 2772 3150 2772 3378 
Q 2772 3750 2511 3984 
Q 2250 4219 1831 4219 
Q 1534 4219 1204 4116 
Q 875 4013 500 3803 
L 500 4441 
Q 881 4594 1212 4672 
Q 1544 4750 1819 4750 
Q 2544 4750 2975 4387 
Q 3406 4025 3406 3419 
Q 3406 3131 3298 2873 
Q 3191 2616 2906 2266 
Q 2828 2175 2409 1742 
Q 1991 1309 1228 531 
z
" transform="scale(0.015625)"/>
        <path id="DejaVuSans-35" d="M 691 4666 
L 3169 4666 
L 3169 4134 
L 1269 4134 
L 1269 2991 
Q 1406 3038 1543 3061 
Q 1681 3084 1819 3084 
Q 2600 3084 3056 2656 
Q 3513 2228 3513 1497 
Q 3513 744 3044 326 
Q 2575 -91 1722 -91 
Q 1428 -91 1123 -41 
Q 819 9 494 109 
L 494 744 
Q 775 591 1075 516 
Q 1375 441 1709 441 
Q 2250 441 2565 725 
Q 2881 1009 2881 1497 
Q 2881 1984 2565 2268 
Q 2250 2553 1709 2553 
Q 1456 2553 1204 2497 
Q 953 2441 691 2322 
L 691 4666 
z
" transform="scale(0.015625)"/>
       </defs>
       <use xlink:href="#DejaVuSans-32"/>
       <use xlink:href="#DejaVuSans-2e" transform="translate(63.623047 0)"/>
       <use xlink:href="#DejaVuSans-35" transform="translate(95.410156 0)"/>
      </g>
     </g>
    </g>
    <g id="ytick_3">
     <g id="line2d_11">
      <g>
       <use xlink:href="#m136fbc2c0f" x="53.942857" y="125.567637" style="stroke: #000000; stroke-width: 0.8"/>
      </g>
     </g>
     <g id="text_11">
      <!-- 5.0 -->
      <g transform="translate(31.039732 129.366856) scale(0.1 -0.1)">
       <use xlink:href="#DejaVuSans-35"/>
       <use xlink:href="#DejaVuSans-2e" transform="translate(63.623047 0)"/>
       <use xlink:href="#DejaVuSans-30" transform="translate(95.410156 0)"/>
      </g>
     </g>
    </g>
    <g id="ytick_4">
     <g id="line2d_12">
      <g>
       <use xlink:href="#m136fbc2c0f" x="53.942857" y="98.174185" style="stroke: #000000; stroke-width: 0.8"/>
      </g>
     </g>
     <g id="text_12">
      <!-- 7.5 -->
      <g transform="translate(31.039732 101.973404) scale(0.1 -0.1)">
       <defs>
        <path id="DejaVuSans-37" d="M 525 4666 
L 3525 4666 
L 3525 4397 
L 1831 0 
L 1172 0 
L 2766 4134 
L 525 4134 
L 525 4666 
z
" transform="scale(0.015625)"/>
       </defs>
       <use xlink:href="#DejaVuSans-37"/>
       <use xlink:href="#DejaVuSans-2e" transform="translate(63.623047 0)"/>
       <use xlink:href="#DejaVuSans-35" transform="translate(95.410156 0)"/>
      </g>
     </g>
    </g>
    <g id="ytick_5">
     <g id="line2d_13">
      <g>
       <use xlink:href="#m136fbc2c0f" x="53.942857" y="70.780733" style="stroke: #000000; stroke-width: 0.8"/>
      </g>
     </g>
     <g id="text_13">
      <!-- 10.0 -->
      <g transform="translate(24.677232 74.579951) scale(0.1 -0.1)">
       <defs>
        <path id="DejaVuSans-31" d="M 794 531 
L 1825 531 
L 1825 4091 
L 703 3866 
L 703 4441 
L 1819 4666 
L 2450 4666 
L 2450 531 
L 3481 531 
L 3481 0 
L 794 0 
L 794 531 
z
" transform="scale(0.015625)"/>
       </defs>
       <use xlink:href="#DejaVuSans-31"/>
       <use xlink:href="#DejaVuSans-30" transform="translate(63.623047 0)"/>
       <use xlink:href="#DejaVuSans-2e" transform="translate(127.246094 0)"/>
       <use xlink:href="#DejaVuSans-30" transform="translate(159.033203 0)"/>
      </g>
     </g>
    </g>
    <g id="ytick_6">
     <g id="line2d_14">
      <g>
       <use xlink:href="#m136fbc2c0f" x="53.942857" y="43.38728" style="stroke: #000000; stroke-width: 0.8"/>
      </g>
     </g>
     <g id="text_14">
      <!-- 12.5 -->
      <g transform="translate(24.677232 47.186499) scale(0.1 -0.1)">
       <use xlink:href="#DejaVuSans-31"/>
       <use xlink:href="#DejaVuSans-32" transform="translate(63.623047 0)"/>
       <use xlink:href="#DejaVuSans-2e" transform="translate(127.246094 0)"/>
       <use xlink:href="#DejaVuSans-35" transform="translate(159.033203 0)"/>
      </g>
     </g>
    </g>
    <g id="ytick_7">
     <g id="line2d_15">
      <g>
       <use xlink:href="#m136fbc2c0f" x="53.942857" y="15.993828" style="stroke: #000000; stroke-width: 0.8"/>
      </g>
     </g>
     <g id="text_15">
      <!-- 15.0 -->
      <g transform="translate(24.677232 19.793047) scale(0.1 -0.1)">
       <use xlink:href="#DejaVuSans-31"/>
       <use xlink:href="#DejaVuSans-35" transform="translate(63.623047 0)"/>
       <use xlink:href="#DejaVuSans-2e" transform="translate(127.246094 0)"/>
       <use xlink:href="#DejaVuSans-30" transform="translate(159.033203 0)"/>
      </g>
     </g>
    </g>
    <g id="text_16">
     <!-- Frequency (THz) -->
     <g transform="translate(18.597545 140.372879) rotate(-90) scale(0.1 -0.1)">
      <defs>
       <path id="DejaVuSans-46" d="M 628 4666 
L 3309 4666 
L 3309 4134 
L 1259 4134 
L 1259 2759 
L 3109 2759 
L 3109 2228 
L 1259 2228 
L 1259 0 
L 628 0 
L 628 4666 
z
" transform="scale(0.015625)"/>
       <path id="DejaVuSans-72" d="M 2631 2963 
Q 2534 3019 2420 3045 
Q 2306 3072 2169 3072 
Q 1681 3072 1420 2755 
Q 1159 2438 1159 1844 
L 1159 0 
L 581 0 
L 581 3500 
L 1159 3500 
L 1159 2956 
Q 1341 3275 1631 3429 
Q 1922 3584 2338 3584 
Q 2397 3584 2469 3576 
Q 2541 3569 2628 3553 
L 2631 2963 
z
" transform="scale(0.015625)"/>
       <path id="DejaVuSans-65" d="M 3597 1894 
L 3597 1613 
L 953 1613 
Q 991 1019 1311 708 
Q 1631 397 2203 397 
Q 2534 397 2845 478 
Q 3156 559 3463 722 
L 3463 178 
Q 3153 47 2828 -22 
Q 2503 -91 2169 -91 
Q 1331 -91 842 396 
Q 353 884 353 1716 
Q 353 2575 817 3079 
Q 1281 3584 2069 3584 
Q 2775 3584 3186 3129 
Q 3597 2675 3597 1894 
z
M 3022 2063 
Q 3016 2534 2758 2815 
Q 2500 3097 2075 3097 
Q 1594 3097 1305 2825 
Q 1016 2553 972 2059 
L 3022 2063 
z
" transform="scale(0.015625)"/>
       <path id="DejaVuSans-71" d="M 947 1747 
Q 947 1113 1208 752 
Q 1469 391 1925 391 
Q 2381 391 2643 752 
Q 2906 1113 2906 1747 
Q 2906 2381 2643 2742 
Q 2381 3103 1925 3103 
Q 1469 3103 1208 2742 
Q 947 2381 947 1747 
z
M 2906 525 
Q 2725 213 2448 61 
Q 2172 -91 1784 -91 
Q 1150 -91 751 415 
Q 353 922 353 1747 
Q 353 2572 751 3078 
Q 1150 3584 1784 3584 
Q 2172 3584 2448 3432 
Q 2725 3281 2906 2969 
L 2906 3500 
L 3481 3500 
L 3481 -1331 
L 2906 -1331 
L 2906 525 
z
" transform="scale(0.015625)"/>
       <path id="DejaVuSans-75" d="M 544 1381 
L 544 3500 
L 1119 3500 
L 1119 1403 
Q 1119 906 1312 657 
Q 1506 409 1894 409 
Q 2359 409 2629 706 
Q 2900 1003 2900 1516 
L 2900 3500 
L 3475 3500 
L 3475 0 
L 2900 0 
L 2900 538 
Q 2691 219 2414 64 
Q 2138 -91 1772 -91 
Q 1169 -91 856 284 
Q 544 659 544 1381 
z
M 1991 3584 
L 1991 3584 
z
" transform="scale(0.015625)"/>
       <path id="DejaVuSans-6e" d="M 3513 2113 
L 3513 0 
L 2938 0 
L 2938 2094 
Q 2938 2591 2744 2837 
Q 2550 3084 2163 3084 
Q 1697 3084 1428 2787 
Q 1159 2491 1159 1978 
L 1159 0 
L 581 0 
L 581 3500 
L 1159 3500 
L 1159 2956 
Q 1366 3272 1645 3428 
Q 1925 3584 2291 3584 
Q 2894 3584 3203 3211 
Q 3513 2838 3513 2113 
z
" transform="scale(0.015625)"/>
       <path id="DejaVuSans-63" d="M 3122 3366 
L 3122 2828 
Q 2878 2963 2633 3030 
Q 2388 3097 2138 3097 
Q 1578 3097 1268 2742 
Q 959 2388 959 1747 
Q 959 1106 1268 751 
Q 1578 397 2138 397 
Q 2388 397 2633 464 
Q 2878 531 3122 666 
L 3122 134 
Q 2881 22 2623 -34 
Q 2366 -91 2075 -91 
Q 1284 -91 818 406 
Q 353 903 353 1747 
Q 353 2603 823 3093 
Q 1294 3584 2113 3584 
Q 2378 3584 2631 3529 
Q 2884 3475 3122 3366 
z
" transform="scale(0.015625)"/>
       <path id="DejaVuSans-79" d="M 2059 -325 
Q 1816 -950 1584 -1140 
Q 1353 -1331 966 -1331 
L 506 -1331 
L 506 -850 
L 844 -850 
Q 1081 -850 1212 -737 
Q 1344 -625 1503 -206 
L 1606 56 
L 191 3500 
L 800 3500 
L 1894 763 
L 2988 3500 
L 3597 3500 
L 2059 -325 
z
" transform="scale(0.015625)"/>
       <path id="DejaVuSans-20" transform="scale(0.015625)"/>
       <path id="DejaVuSans-28" d="M 1984 4856 
Q 1566 4138 1362 3434 
Q 1159 2731 1159 2009 
Q 1159 1288 1364 580 
Q 1569 -128 1984 -844 
L 1484 -844 
Q 1016 -109 783 600 
Q 550 1309 550 2009 
Q 550 2706 781 3412 
Q 1013 4119 1484 4856 
L 1984 4856 
z
" transform="scale(0.015625)"/>
       <path id="DejaVuSans-54" d="M -19 4666 
L 3928 4666 
L 3928 4134 
L 2272 4134 
L 2272 0 
L 1638 0 
L 1638 4134 
L -19 4134 
L -19 4666 
z
" transform="scale(0.015625)"/>
       <path id="DejaVuSans-48" d="M 628 4666 
L 1259 4666 
L 1259 2753 
L 3553 2753 
L 3553 4666 
L 4184 4666 
L 4184 0 
L 3553 0 
L 3553 2222 
L 1259 2222 
L 1259 0 
L 628 0 
L 628 4666 
z
" transform="scale(0.015625)"/>
       <path id="DejaVuSans-7a" d="M 353 3500 
L 3084 3500 
L 3084 2975 
L 922 459 
L 3084 459 
L 3084 0 
L 275 0 
L 275 525 
L 2438 3041 
L 353 3041 
L 353 3500 
z
" transform="scale(0.015625)"/>
       <path id="DejaVuSans-29" d="M 513 4856 
L 1013 4856 
Q 1481 4119 1714 3412 
Q 1947 2706 1947 2009 
Q 1947 1309 1714 600 
Q 1481 -109 1013 -844 
L 513 -844 
Q 928 -128 1133 580 
Q 1338 1288 1338 2009 
Q 1338 2731 1133 3434 
Q 928 4138 513 4856 
z
" transform="scale(0.015625)"/>
      </defs>
      <use xlink:href="#DejaVuSans-46"/>
      <use xlink:href="#DejaVuSans-72" transform="translate(50.269531 0)"/>
      <use xlink:href="#DejaVuSans-65" transform="translate(89.132812 0)"/>
      <use xlink:href="#DejaVuSans-71" transform="translate(150.65625 0)"/>
      <use xlink:href="#DejaVuSans-75" transform="translate(214.132812 0)"/>
      <use xlink:href="#DejaVuSans-65" transform="translate(277.511719 0)"/>
      <use xlink:href="#DejaVuSans-6e" transform="translate(339.035156 0)"/>
      <use xlink:href="#DejaVuSans-63" transform="translate(402.414062 0)"/>
      <use xlink:href="#DejaVuSans-79" transform="translate(457.394531 0)"/>
      <use xlink:href="#DejaVuSans-20" transform="translate(516.574219 0)"/>
      <use xlink:href="#DejaVuSans-28" transform="translate(548.361328 0)"/>
      <use xlink:href="#DejaVuSans-54" transform="translate(587.375 0)"/>
      <use xlink:href="#DejaVuSans-48" transform="translate(648.458984 0)"/>
      <use xlink:href="#DejaVuSans-7a" transform="translate(723.654297 0)"/>
      <use xlink:href="#DejaVuSans-29" transform="translate(776.144531 0)"/>
     </g>
    </g>
   </g>
   <g id="line2d_16">
    <path d="M 53.942857 180.354544 
L 60.334047 165.691263 
L 64.328541 157.093432 
L 67.524136 150.822546 
L 69.920833 146.60306 
L 72.317529 142.882128 
L 74.714226 139.716055 
L 76.312023 137.928916 
L 77.909821 136.401791 
L 79.507618 135.128125 
L 81.105416 134.095518 
L 82.703213 133.28734 
L 84.301011 132.684949 
L 85.898809 132.270231 
L 87.496606 132.028091 
L 89.922934 131.94259 
L 94.065583 131.76519 
L 99.036762 131.558288 
L 101.522352 131.690399 
L 101.522352 131.690399 
L 103.902172 132.099119 
L 105.488719 132.56726 
L 107.075265 133.21552 
L 108.661812 134.059043 
L 110.248359 135.108113 
L 111.834905 136.368111 
L 113.421452 137.839669 
L 115.801272 140.434312 
L 118.181092 143.466707 
L 120.560911 146.892633 
L 122.940731 150.657621 
L 126.113825 156.102278 
L 130.080191 163.397082 
L 135.633104 174.11847 
L 138.806198 180.354544 
L 144.413959 168.827556 
L 147.618394 162.741137 
L 150.02172 158.593432 
L 152.425046 154.898059 
L 154.828372 151.71961 
L 156.43059 149.907445 
L 158.032807 148.345347 
L 159.635025 147.030181 
L 161.237242 145.953295 
L 162.83946 145.101953 
L 164.441677 144.461289 
L 166.043895 144.016543 
L 167.646112 143.755258 
L 170.851936 143.473103 
L 172.455542 142.894386 
L 174.059149 141.95931 
L 175.662755 140.706432 
L 177.266361 139.180463 
L 179.67177 136.477224 
L 182.07718 133.39399 
L 185.284392 128.866467 
L 190.095211 121.56863 
L 194.104227 115.621628 
L 194.941168 115.719077 
L 195.77811 116.008377 
L 196.615051 116.480651 
L 197.451993 117.121882 
L 199.125876 118.83547 
L 200.799759 120.972851 
L 205.821409 127.943052 
L 207.495292 129.805659 
L 209.169175 131.151816 
L 210.006117 131.590808 
L 210.843058 131.858555 
L 211.68 131.948541 
L 211.68 131.948541 
" clip-path="url(#pd523a4d1b2)" style="fill: none; stroke: #1f77b4; stroke-opacity: 0.8; stroke-width: 1.5; stroke-linecap: square"/>
   </g>
   <g id="line2d_17">
    <path d="M 53.942857 180.354541 
L 60.334047 165.691263 
L 64.328541 157.093432 
L 67.524136 150.822546 
L 69.920833 146.60306 
L 72.317529 142.882128 
L 74.714226 139.716055 
L 76.312023 137.928916 
L 77.909821 136.401791 
L 79.507618 135.128125 
L 81.105416 134.095518 
L 82.703213 133.28734 
L 84.301011 132.684949 
L 85.898809 132.270231 
L 87.496606 132.028091 
L 89.922934 131.778276 
L 90.751463 131.273334 
L 91.579993 130.450711 
L 92.408523 129.337006 
L 93.237053 127.966283 
L 94.894113 124.613887 
L 97.379703 118.711606 
L 99.865292 112.827731 
L 101.522352 109.506326 
L 102.315625 108.207283 
L 103.108899 107.142318 
L 103.902172 106.338195 
L 104.695445 105.813751 
L 105.488719 105.578294 
L 106.281992 105.63111 
L 107.075265 105.962278 
L 107.868539 106.554563 
L 108.661812 107.385855 
L 109.455085 108.431568 
L 111.041632 111.066753 
L 112.628178 114.274158 
L 115.007998 119.826817 
L 118.181092 128.034964 
L 129.286918 157.545356 
L 134.046558 169.193676 
L 138.806198 180.354541 
L 144.413959 168.827556 
L 147.618394 162.741137 
L 150.02172 158.593432 
L 152.425046 154.898059 
L 154.828372 151.71961 
L 156.43059 149.907445 
L 158.032807 148.345347 
L 159.635025 147.030181 
L 161.237242 145.953295 
L 162.83946 145.101953 
L 164.441677 144.461289 
L 166.043895 144.016543 
L 167.646112 143.755258 
L 170.050133 143.467157 
L 170.851936 142.870131 
L 171.653739 141.903395 
L 172.455542 140.605138 
L 174.059149 137.203443 
L 175.662755 133.062218 
L 180.473574 119.74629 
L 182.07718 116.004573 
L 183.680786 113.045449 
L 184.482589 111.923588 
L 185.284392 111.062507 
L 186.086195 110.468204 
L 186.887999 110.137039 
L 187.689802 110.056382 
L 188.491605 110.206483 
L 189.293408 110.562998 
L 190.095211 111.09953 
L 191.698817 112.608479 
L 193.302424 114.543421 
L 194.104227 115.621628 
L 194.941168 115.719077 
L 195.77811 116.008377 
L 196.615051 116.480651 
L 197.451993 117.121882 
L 199.125876 118.83547 
L 200.799759 120.972851 
L 205.821409 127.943052 
L 207.495292 129.805659 
L 209.169175 131.151816 
L 210.006117 131.590808 
L 210.843058 131.858555 
L 211.68 131.948541 
L 211.68 131.948541 
" clip-path="url(#pd523a4d1b2)" style="fill: none; stroke: #1f77b4; stroke-opacity: 0.8; stroke-width: 1.5; stroke-linecap: square"/>
   </g>
   <g id="line2d_18">
    <path d="M 53.942857 180.35454 
L 61.132946 146.784283 
L 65.12744 129.270688 
L 68.323035 116.192282 
L 71.51863 104.069877 
L 74.714226 92.946176 
L 77.909821 82.802571 
L 81.105416 73.577076 
L 84.301011 65.187704 
L 87.496606 57.556162 
L 89.094404 54.005848 
L 89.922934 54.080866 
L 90.751463 54.304328 
L 91.579993 54.671662 
L 93.237053 55.808392 
L 94.894113 57.419795 
L 96.551173 59.428594 
L 98.208233 61.76252 
L 100.693822 65.733564 
L 103.902172 71.423739 
L 108.661812 80.42838 
L 113.421452 89.785787 
L 116.594545 96.516014 
L 118.974365 102.125669 
L 121.354185 108.446679 
L 123.734005 115.642496 
L 126.113825 123.799427 
L 128.493645 132.915389 
L 130.873464 142.90759 
L 134.046558 157.333461 
L 138.806198 180.35454 
L 145.215067 149.060982 
L 149.220611 130.688227 
L 152.425046 117.067946 
L 155.629481 104.594055 
L 158.032807 96.061103 
L 160.436134 88.287648 
L 162.83946 81.372482 
L 164.441677 77.357108 
L 166.043895 74.009914 
L 166.845004 72.683629 
L 167.646112 71.66428 
L 168.447221 71.016487 
L 169.24833 70.793519 
L 170.851936 70.885603 
L 172.455542 71.157225 
L 174.860952 71.865513 
L 178.068164 73.178273 
L 180.473574 74.127325 
L 182.07718 74.522218 
L 183.680786 74.548252 
L 184.482589 74.378341 
L 185.284392 74.070925 
L 186.086195 73.623058 
L 187.689802 72.334576 
L 189.293408 70.63533 
L 192.50062 66.702174 
L 194.104227 64.755672 
L 194.941168 64.687383 
L 195.77811 64.485046 
L 197.451993 63.711664 
L 199.125876 62.537521 
L 201.636701 60.323506 
L 204.984467 57.245929 
L 206.65835 55.926964 
L 208.332234 54.89408 
L 210.006117 54.233477 
L 211.68 54.005848 
L 211.68 54.005848 
" clip-path="url(#pd523a4d1b2)" style="fill: none; stroke: #1f77b4; stroke-opacity: 0.8; stroke-width: 1.5; stroke-linecap: square"/>
   </g>
   <g id="line2d_19">
    <path d="M 53.942857 18.874026 
L 55.540655 18.972558 
L 57.138452 19.265313 
L 58.73625 19.743837 
L 60.334047 20.394272 
L 62.730744 21.649666 
L 65.12744 23.166189 
L 69.920833 26.577781 
L 73.915327 29.30258 
L 74.714226 29.792885 
L 77.110922 32.826833 
L 79.507618 36.276724 
L 81.904315 40.129125 
L 84.301011 44.37319 
L 86.697707 48.999868 
L 89.094404 54.005848 
L 90.751463 54.154314 
L 92.408523 54.589096 
L 94.065583 55.277102 
L 96.551173 56.645268 
L 99.036762 58.094342 
L 100.693822 58.834141 
L 101.522352 59.056659 
L 102.315625 59.142016 
L 103.108899 59.078524 
L 103.902172 58.846736 
L 104.695445 58.433635 
L 105.488719 57.834388 
L 106.281992 57.052974 
L 107.868539 54.998371 
L 109.455085 52.428633 
L 111.834905 48.016914 
L 116.594545 38.936176 
L 118.974365 34.81525 
L 121.354185 31.139737 
L 123.734005 27.951613 
L 126.113825 25.260506 
L 127.700371 23.739563 
L 129.286918 22.43274 
L 130.873464 21.33574 
L 132.460011 20.444415 
L 134.046558 19.755118 
L 135.633104 19.264905 
L 137.219651 18.971638 
L 138.806198 18.874026 
L 140.408415 18.989151 
L 142.010633 19.334455 
L 143.61285 19.909661 
L 145.215067 20.714098 
L 146.817285 21.746411 
L 148.419502 23.00419 
L 150.02172 24.483557 
L 152.425046 27.104782 
L 154.828372 30.180844 
L 157.231699 33.664783 
L 160.436134 38.812088 
L 165.242786 46.746682 
L 166.845004 48.874871 
L 167.646112 49.654532 
L 168.447221 50.158861 
L 169.24833 50.334067 
L 171.653739 50.501118 
L 174.059149 50.991828 
L 176.464558 51.777338 
L 178.869967 52.817841 
L 181.275377 54.07465 
L 184.482589 56.051809 
L 186.887999 57.777496 
L 189.293408 59.766021 
L 191.698817 62.082353 
L 194.104227 64.755672 
L 194.941168 64.687383 
L 195.77811 64.485046 
L 197.451993 63.711664 
L 199.125876 62.537521 
L 201.636701 60.323506 
L 204.984467 57.245929 
L 206.65835 55.926964 
L 208.332234 54.89408 
L 210.006117 54.233477 
L 211.68 54.005848 
L 211.68 54.005848 
" clip-path="url(#pd523a4d1b2)" style="fill: none; stroke: #1f77b4; stroke-opacity: 0.8; stroke-width: 1.5; stroke-linecap: square"/>
   </g>
   <g id="line2d_20">
    <path d="M 53.942857 18.874026 
L 55.540655 18.972558 
L 57.138452 19.265313 
L 58.73625 19.743837 
L 60.334047 20.394272 
L 62.730744 21.649666 
L 65.12744 23.166189 
L 69.920833 26.577781 
L 73.915327 29.30258 
L 76.312023 30.69854 
L 78.708719 31.847036 
L 81.105416 32.728155 
L 83.502112 33.348553 
L 85.898809 33.730491 
L 88.295505 33.898 
L 90.751463 33.871542 
L 94.065583 33.575791 
L 97.379703 33.004622 
L 100.693822 32.192648 
L 104.695445 30.947557 
L 108.661812 29.485369 
L 114.214725 27.230332 
L 117.387818 26.789407 
L 119.767638 26.239565 
L 122.147458 25.434653 
L 124.527278 24.381924 
L 128.493645 22.297723 
L 131.666738 20.682153 
L 134.046558 19.717608 
L 135.633104 19.257025 
L 137.219651 18.970999 
L 138.806198 18.874026 
L 141.209524 19.025881 
L 143.61285 19.465723 
L 146.016176 20.148331 
L 149.220611 21.314609 
L 156.43059 24.045799 
L 159.635025 24.939107 
L 162.83946 25.53991 
L 166.043895 25.87042 
L 172.455542 26.245515 
L 174.860952 26.775527 
L 178.068164 27.798543 
L 185.284392 30.342335 
L 187.689802 30.920487 
L 190.095211 31.235062 
L 192.50062 31.249385 
L 194.941168 31.104832 
L 197.451993 31.284934 
L 199.962818 31.665723 
L 203.310584 32.41208 
L 208.332234 33.590489 
L 210.843058 33.887885 
L 211.68 33.90902 
L 211.68 33.90902 
" clip-path="url(#pd523a4d1b2)" style="fill: none; stroke: #1f77b4; stroke-opacity: 0.8; stroke-width: 1.5; stroke-linecap: square"/>
   </g>
   <g id="line2d_21">
    <path d="M 53.942857 18.874026 
L 56.339553 18.992389 
L 58.73625 19.353636 
L 61.132946 19.975312 
L 63.529643 20.883719 
L 65.926339 22.11006 
L 68.323035 23.686044 
L 70.719732 25.63968 
L 73.116428 27.991959 
L 74.714226 29.787951 
L 77.110922 31.11048 
L 79.507618 32.170585 
L 81.904315 32.963015 
L 84.301011 33.501078 
L 86.697707 33.809171 
L 89.094404 33.90902 
L 90.751463 33.782113 
L 92.408523 33.422956 
L 94.894113 32.570262 
L 103.902172 28.994316 
L 106.281992 28.34826 
L 109.455085 27.760589 
L 114.214725 27.148978 
L 128.493645 20.880021 
L 131.666738 19.875958 
L 134.046558 19.329024 
L 136.426378 18.989272 
L 138.806198 18.874026 
L 141.209524 19.025881 
L 143.61285 19.465723 
L 146.016176 20.148331 
L 149.220611 21.314609 
L 156.43059 24.045799 
L 159.635025 24.939107 
L 162.83946 25.53991 
L 166.043895 25.87042 
L 169.24833 25.973789 
L 172.455542 26.08821 
L 175.662755 26.431658 
L 178.869967 27.002515 
L 182.07718 27.787671 
L 186.887999 29.249063 
L 190.897014 30.441756 
L 193.302424 30.968408 
L 194.104227 31.092678 
L 196.615051 31.201406 
L 199.125876 31.518358 
L 202.473643 32.207411 
L 208.332234 33.590489 
L 210.843058 33.887885 
L 211.68 33.90902 
L 211.68 33.90902 
" clip-path="url(#pd523a4d1b2)" style="fill: none; stroke: #1f77b4; stroke-opacity: 0.8; stroke-width: 1.5; stroke-linecap: square"/>
   </g>
   <g id="line2d_22">
    <path d="M 53.942857 180.354545 
L 60.334047 165.445675 
L 64.328541 156.732218 
L 67.524136 150.383483 
L 69.920833 146.102415 
L 72.317529 142.307102 
L 74.714226 139.04726 
L 76.312023 137.186022 
L 77.909821 135.577069 
L 79.507618 134.216901 
L 81.105416 133.097507 
L 82.703213 132.207551 
L 84.301011 131.534012 
L 85.898809 131.064056 
L 87.496606 130.78689 
L 89.094404 130.69534 
L 99.036762 130.737835 
L 101.522352 131.05072 
L 101.522352 131.05072 
L 103.902172 131.627391 
L 105.488719 132.198574 
L 107.075265 132.939602 
L 108.661812 133.863815 
L 110.248359 134.980454 
L 111.834905 136.294566 
L 114.214725 138.636968 
L 116.594545 141.412074 
L 118.974365 144.590569 
L 121.354185 148.130559 
L 124.527278 153.325773 
L 127.700371 158.947312 
L 132.460011 167.914724 
L 138.806198 180.354545 
L 144.413959 168.718769 
L 147.618394 162.565808 
L 150.02172 158.359852 
L 152.425046 154.593592 
L 154.828372 151.328094 
L 156.43059 149.44885 
L 158.032807 147.813926 
L 159.635025 146.422779 
L 161.237242 145.270389 
L 162.83946 144.348374 
L 164.441677 143.646495 
L 166.043895 143.154353 
L 167.646112 142.863064 
L 170.851936 142.584397 
L 172.455542 142.045347 
L 174.059149 141.171402 
L 175.662755 139.994871 
L 177.266361 138.553661 
L 179.67177 135.979917 
L 182.07718 133.015755 
L 185.284392 128.619628 
L 190.095211 121.475083 
L 193.302424 116.75908 
L 194.104227 115.655229 
L 194.941168 115.745375 
L 195.77811 116.013024 
L 196.615051 116.450017 
L 197.451993 117.043441 
L 199.125876 118.629434 
L 200.799759 120.606885 
L 205.821409 127.032145 
L 207.495292 128.738999 
L 209.169175 129.968967 
L 210.006117 130.369348 
L 210.843058 130.613362 
L 211.68 130.69534 
L 211.68 130.69534 
" clip-path="url(#pd523a4d1b2)" style="fill: none; stroke: #8c564b; stroke-opacity: 0.8; stroke-width: 1.5; stroke-linecap: square"/>
   </g>
   <g id="line2d_23">
    <path d="M 53.942857 180.354545 
L 60.334047 165.445675 
L 64.328541 156.732218 
L 67.524136 150.383483 
L 69.920833 146.102415 
L 72.317529 142.307102 
L 74.714226 139.04726 
L 76.312023 137.186022 
L 77.909821 135.577069 
L 79.507618 134.216901 
L 81.105416 133.097507 
L 82.703213 132.207551 
L 84.301011 131.534012 
L 85.898809 131.064056 
L 87.496606 130.78689 
L 89.922934 130.537146 
L 90.751463 130.067723 
L 91.579993 129.302107 
L 92.408523 128.263985 
L 93.237053 126.983963 
L 94.894113 123.844125 
L 97.379703 118.293152 
L 99.865292 112.747184 
L 101.522352 109.620552 
L 101.522352 109.620552 
L 102.315625 108.400819 
L 103.108899 107.403667 
L 103.902172 106.654235 
L 104.695445 106.17022 
L 105.488719 105.960534 
L 106.281992 106.024925 
L 107.075265 106.354715 
L 107.868539 106.93446 
L 108.661812 107.744092 
L 109.455085 108.761052 
L 111.041632 111.324493 
L 112.628178 114.450108 
L 115.007998 119.876423 
L 118.181092 127.930082 
L 130.873464 161.23211 
L 136.426378 174.710545 
L 138.806198 180.354545 
L 144.413959 168.718769 
L 147.618394 162.565808 
L 150.02172 158.359852 
L 152.425046 154.593592 
L 154.828372 151.328094 
L 156.43059 149.44885 
L 158.032807 147.813926 
L 159.635025 146.422779 
L 161.237242 145.270389 
L 162.83946 144.348374 
L 164.441677 143.646495 
L 166.043895 143.154353 
L 167.646112 142.863064 
L 170.050133 142.574712 
L 170.851936 142.00689 
L 171.653739 141.086177 
L 172.455542 139.847445 
L 174.059149 136.590997 
L 175.662755 132.60989 
L 181.275377 117.842593 
L 182.878983 114.564159 
L 183.680786 113.235191 
L 184.482589 112.142822 
L 185.284392 111.301222 
L 186.086195 110.716176 
L 186.887999 110.384512 
L 187.689802 110.294708 
L 188.491605 110.428565 
L 189.293408 110.763473 
L 190.095211 111.274701 
L 191.698817 112.727439 
L 193.302424 114.604901 
L 194.104227 115.655229 
L 194.941168 115.745375 
L 195.77811 116.013024 
L 196.615051 116.450017 
L 197.451993 117.043441 
L 199.125876 118.629434 
L 200.799759 120.606885 
L 205.821409 127.032145 
L 207.495292 128.738999 
L 209.169175 129.968967 
L 210.006117 130.369348 
L 210.843058 130.613362 
L 211.68 130.69534 
L 211.68 130.69534 
" clip-path="url(#pd523a4d1b2)" style="fill: none; stroke: #8c564b; stroke-opacity: 0.8; stroke-width: 1.5; stroke-linecap: square"/>
   </g>
   <g id="line2d_24">
    <path d="M 53.942857 180.354545 
L 60.334047 150.384709 
L 64.328541 132.632687 
L 67.524136 119.316748 
L 70.719732 106.929026 
L 73.915327 95.522995 
L 77.110922 85.088324 
L 80.306517 75.569358 
L 83.502112 66.889952 
L 86.697707 58.97897 
L 89.094404 53.520912 
L 89.922934 53.595102 
L 90.751463 53.816115 
L 91.579993 54.17949 
L 93.237053 55.304417 
L 94.894113 56.899981 
L 96.551173 58.890001 
L 98.208233 61.20292 
L 100.693822 65.13953 
L 103.902172 70.784773 
L 108.661812 79.749492 
L 113.421452 89.148889 
L 116.594545 95.960713 
L 118.974365 101.647958 
L 121.354185 108.047986 
L 123.734005 115.315418 
L 126.113825 123.533268 
L 128.493645 132.701303 
L 130.873464 142.741155 
L 134.046558 157.230734 
L 138.806198 180.354545 
L 145.215067 148.905832 
L 149.220611 130.482418 
L 152.425046 116.848893 
L 155.629481 104.372381 
L 158.032807 95.832812 
L 160.436134 88.039456 
L 162.83946 81.084634 
L 164.441677 77.030399 
L 166.043895 73.636376 
L 166.845004 72.286135 
L 167.646112 71.245476 
L 168.447221 70.582521 
L 169.24833 70.353997 
L 170.851936 70.443933 
L 172.455542 70.708845 
L 174.860952 71.396716 
L 178.068164 72.656546 
L 180.473574 73.543636 
L 182.07718 73.890176 
L 183.680786 73.869833 
L 184.482589 73.680347 
L 185.284392 73.357088 
L 186.086195 72.897568 
L 187.689802 71.597245 
L 189.293408 69.895312 
L 192.50062 65.955743 
L 194.104227 64.002423 
L 194.941168 63.936762 
L 195.77811 63.742108 
L 197.451993 62.996765 
L 199.125876 61.861488 
L 201.636701 59.710397 
L 204.984467 56.702746 
L 206.65835 55.40902 
L 208.332234 54.394371 
L 210.006117 53.744828 
L 211.68 53.520912 
L 211.68 53.520912 
" clip-path="url(#pd523a4d1b2)" style="fill: none; stroke: #8c564b; stroke-opacity: 0.8; stroke-width: 1.5; stroke-linecap: square"/>
   </g>
   <g id="line2d_25">
    <path d="M 53.942857 19.922049 
L 55.540655 20.009036 
L 57.138452 20.267655 
L 58.73625 20.690929 
L 61.132946 21.608388 
L 63.529643 22.813781 
L 66.725238 24.740026 
L 75.513124 30.385805 
L 77.909821 33.452434 
L 80.306517 36.970455 
L 82.703213 40.928638 
L 85.09991 45.31135 
L 87.496606 50.103606 
L 89.094404 53.520912 
L 90.751463 53.665387 
L 92.408523 54.087868 
L 94.065583 54.754362 
L 96.551173 56.070454 
L 99.036762 57.442912 
L 100.693822 58.123099 
L 101.522352 58.316542 
L 101.522352 58.316542 
L 102.315625 58.376714 
L 103.108899 58.292482 
L 103.902172 58.046139 
L 104.695445 57.626039 
L 105.488719 57.028067 
L 106.281992 56.256146 
L 107.868539 54.241658 
L 109.455085 51.731207 
L 111.834905 47.424168 
L 116.594545 38.577421 
L 118.974365 34.595154 
L 121.354185 31.080516 
L 123.734005 28.075501 
L 125.320551 26.357985 
L 126.907098 24.863889 
L 128.493645 23.585482 
L 130.080191 22.513583 
L 131.666738 21.638584 
L 133.253284 20.951289 
L 134.839831 20.44566 
L 136.426378 20.113682 
L 138.012924 19.943517 
L 139.607306 19.947016 
L 141.209524 20.147022 
L 142.811741 20.548426 
L 144.413959 21.153787 
L 146.016176 21.966396 
L 147.618394 22.989681 
L 149.220611 24.226486 
L 150.822829 25.678292 
L 152.425046 27.344402 
L 154.828372 30.236217 
L 157.231699 33.570557 
L 159.635025 37.285971 
L 166.043895 47.660336 
L 166.845004 48.666212 
L 167.646112 49.461848 
L 168.447221 49.978174 
L 169.24833 50.157887 
L 171.653739 50.310191 
L 174.059149 50.757519 
L 176.464558 51.473964 
L 178.869967 52.42556 
L 181.275377 53.582866 
L 183.680786 54.935441 
L 186.086195 56.503619 
L 188.491605 58.340484 
L 190.897014 60.515182 
L 193.302424 63.070578 
L 194.104227 64.002423 
L 194.941168 63.936762 
L 195.77811 63.742108 
L 197.451993 62.996765 
L 199.125876 61.861488 
L 201.636701 59.710397 
L 204.984467 56.702746 
L 206.65835 55.40902 
L 208.332234 54.394371 
L 210.006117 53.744828 
L 211.68 53.520912 
L 211.68 53.520912 
" clip-path="url(#pd523a4d1b2)" style="fill: none; stroke: #8c564b; stroke-opacity: 0.8; stroke-width: 1.5; stroke-linecap: square"/>
   </g>
   <g id="line2d_26">
    <path d="M 53.942857 19.922049 
L 55.540655 20.009036 
L 57.138452 20.267655 
L 58.73625 20.690929 
L 61.132946 21.608388 
L 63.529643 22.813781 
L 66.725238 24.740026 
L 75.513124 30.299877 
L 77.909821 31.508718 
L 80.306517 32.488439 
L 82.703213 33.224018 
L 85.09991 33.717279 
L 87.496606 33.978031 
L 89.922934 34.017657 
L 92.408523 33.874609 
L 95.722643 33.426084 
L 99.036762 32.707925 
L 102.315625 31.76959 
L 106.281992 30.393511 
L 111.041632 28.498378 
L 112.628178 27.900076 
L 116.594545 27.329883 
L 118.974365 26.822124 
L 121.354185 26.113767 
L 123.734005 25.195684 
L 127.700371 23.347314 
L 131.666738 21.522328 
L 134.046558 20.667513 
L 136.426378 20.108921 
L 138.012924 19.942763 
L 140.408415 19.978757 
L 142.811741 20.269794 
L 145.215067 20.781335 
L 148.419502 21.720167 
L 158.032807 24.82985 
L 161.237242 25.54043 
L 164.441677 26.000081 
L 167.646112 26.221101 
L 171.653739 26.391175 
L 174.059149 26.803961 
L 176.464558 27.440347 
L 180.473574 28.80142 
L 185.284392 30.432683 
L 187.689802 31.045097 
L 190.095211 31.424713 
L 192.50062 31.524653 
L 195.77811 31.472073 
L 198.288935 31.699156 
L 201.636701 32.267699 
L 210.006117 33.949019 
L 211.68 34.027243 
L 211.68 34.027243 
" clip-path="url(#pd523a4d1b2)" style="fill: none; stroke: #8c564b; stroke-opacity: 0.8; stroke-width: 1.5; stroke-linecap: square"/>
   </g>
   <g id="line2d_27">
    <path d="M 53.942857 19.922049 
L 56.339553 20.00863 
L 58.73625 20.27744 
L 61.132946 20.754378 
L 63.529643 21.478496 
L 65.926339 22.496623 
L 68.323035 23.857197 
L 69.920833 24.976612 
L 71.51863 26.278978 
L 73.915327 28.593808 
L 75.513124 30.299877 
L 77.909821 31.508718 
L 80.306517 32.488439 
L 82.703213 33.224018 
L 85.09991 33.717279 
L 87.496606 33.978031 
L 89.922934 33.997969 
L 91.579993 33.771708 
L 94.065583 33.09617 
L 97.379703 31.868751 
L 102.315625 30.047914 
L 105.488719 29.130328 
L 108.661812 28.467244 
L 112.628178 27.829088 
L 123.734005 23.171284 
L 127.700371 21.785454 
L 130.873464 20.904769 
L 134.046558 20.283918 
L 136.426378 20.013395 
L 138.806198 19.922049 
L 141.209524 20.049066 
L 143.61285 20.417831 
L 146.016176 20.992939 
L 149.220611 21.985123 
L 157.231699 24.614686 
L 160.436134 25.386207 
L 163.640569 25.908357 
L 166.845004 26.187063 
L 174.059149 26.536038 
L 177.266361 27.043348 
L 180.473574 27.785798 
L 184.482589 28.969951 
L 190.095211 30.680556 
L 192.50062 31.207636 
L 194.104227 31.428063 
L 196.615051 31.526754 
L 199.125876 31.815284 
L 202.473643 32.446639 
L 209.169175 33.854824 
L 211.68 34.027243 
L 211.68 34.027243 
" clip-path="url(#pd523a4d1b2)" style="fill: none; stroke: #8c564b; stroke-opacity: 0.8; stroke-width: 1.5; stroke-linecap: square"/>
   </g>
   <g id="line2d_28">
    <path d="M 53.942857 180.354538 
L 60.334047 165.58061 
L 64.328541 156.907499 
L 67.524136 150.551308 
L 69.920833 146.238108 
L 72.317529 142.387982 
L 74.714226 139.05327 
L 76.312023 137.133526 
L 77.909821 135.461811 
L 79.507618 134.037447 
L 81.105416 132.855626 
L 82.703213 131.908411 
L 84.301011 131.186115 
L 85.898809 130.678898 
L 87.496606 130.378351 
L 89.094404 130.278831 
L 97.379703 130.352793 
L 99.865292 130.590548 
L 102.315625 131.064258 
L 104.695445 131.828538 
L 106.281992 132.536174 
L 107.868539 133.419381 
L 109.455085 134.488489 
L 111.041632 135.749747 
L 113.421452 138.005568 
L 115.801272 140.688752 
L 118.181092 143.773191 
L 120.560911 147.219288 
L 123.734005 152.291723 
L 126.907098 157.79395 
L 131.666738 166.587946 
L 138.806198 180.354538 
L 144.413959 168.858695 
L 147.618394 162.750949 
L 150.02172 158.553391 
L 152.425046 154.771778 
L 154.828372 151.468597 
L 156.43059 149.553912 
L 158.032807 147.877604 
L 159.635025 146.441678 
L 161.237242 145.24402 
L 162.83946 144.279335 
L 164.441677 143.540418 
L 166.043895 143.0196 
L 167.646112 142.710167 
L 170.851936 142.428979 
L 172.455542 141.90089 
L 174.059149 141.044888 
L 175.662755 139.892829 
L 177.266361 138.482037 
L 179.67177 135.963561 
L 182.07718 133.063931 
L 185.284392 128.76365 
L 190.095211 121.771846 
L 193.302424 117.154249 
L 194.104227 116.073198 
L 194.941168 116.158297 
L 195.77811 116.410993 
L 196.615051 116.823676 
L 198.288935 118.077008 
L 199.962818 119.782667 
L 202.473643 122.818829 
L 204.984467 125.89337 
L 206.65835 127.679784 
L 208.332234 129.07933 
L 209.169175 129.595076 
L 210.006117 129.972026 
L 210.843058 130.201688 
L 211.68 130.278831 
L 211.68 130.278831 
" clip-path="url(#pd523a4d1b2)" style="fill: none; stroke: #17becf; stroke-opacity: 0.8; stroke-width: 1.5; stroke-linecap: square"/>
   </g>
   <g id="line2d_29">
    <path d="M 53.942857 180.354537 
L 60.334047 165.58061 
L 64.328541 156.907499 
L 67.524136 150.551308 
L 69.920833 146.238108 
L 72.317529 142.387982 
L 74.714226 139.05327 
L 76.312023 137.133526 
L 77.909821 135.461811 
L 79.507618 134.037447 
L 81.105416 132.855626 
L 82.703213 131.908411 
L 84.301011 131.186115 
L 85.898809 130.678898 
L 87.496606 130.378351 
L 89.922934 130.128795 
L 90.751463 129.683418 
L 91.579993 128.956518 
L 92.408523 127.969942 
L 93.237053 126.752067 
L 94.894113 123.758814 
L 97.379703 118.450644 
L 99.865292 113.132114 
L 101.522352 110.127783 
L 101.522352 110.127783 
L 102.315625 108.953884 
L 103.108899 107.992588 
L 103.902172 107.268106 
L 104.695445 106.797708 
L 105.488719 106.590523 
L 106.281992 106.647184 
L 107.075265 106.960448 
L 107.868539 107.516652 
L 108.661812 108.297617 
L 109.455085 109.282584 
L 111.041632 111.778102 
L 112.628178 114.837867 
L 115.007998 120.180286 
L 118.181092 128.158639 
L 131.666738 163.338952 
L 137.219651 176.632931 
L 138.806198 180.354537 
L 144.413959 168.858695 
L 147.618394 162.750949 
L 150.02172 158.553391 
L 152.425046 154.771778 
L 154.828372 151.468597 
L 156.43059 149.553912 
L 158.032807 147.877604 
L 159.635025 146.441678 
L 161.237242 145.24402 
L 162.83946 144.279335 
L 164.441677 143.540418 
L 166.043895 143.0196 
L 167.646112 142.710167 
L 170.050133 142.419871 
L 170.851936 141.86455 
L 171.653739 140.963764 
L 172.455542 139.751232 
L 174.059149 136.560928 
L 175.662755 132.656907 
L 181.275377 118.174057 
L 182.878983 114.967603 
L 183.680786 113.670239 
L 184.482589 112.605437 
L 185.284392 111.786565 
L 186.086195 111.218784 
L 186.887999 110.898587 
L 187.689802 110.814454 
L 188.491605 110.948498 
L 189.293408 111.278641 
L 190.095211 111.780804 
L 191.698817 113.205168 
L 193.302424 115.044465 
L 194.104227 116.073198 
L 194.941168 116.158297 
L 195.77811 116.410993 
L 196.615051 116.823676 
L 198.288935 118.077008 
L 199.962818 119.782667 
L 202.473643 122.818829 
L 204.984467 125.89337 
L 206.65835 127.679784 
L 208.332234 129.07933 
L 209.169175 129.595076 
L 210.006117 129.972026 
L 210.843058 130.201688 
L 211.68 130.278831 
L 211.68 130.278831 
" clip-path="url(#pd523a4d1b2)" style="fill: none; stroke: #17becf; stroke-opacity: 0.8; stroke-width: 1.5; stroke-linecap: square"/>
   </g>
   <g id="line2d_30">
    <path d="M 53.942857 180.354536 
L 60.334047 150.176276 
L 64.328541 132.367668 
L 67.524136 119.067463 
L 70.719732 106.750804 
L 73.915327 95.461637 
L 77.110922 85.171544 
L 80.306517 75.801519 
L 83.502112 67.251523 
L 86.697707 59.431089 
L 89.094404 54.008617 
L 89.922934 54.081461 
L 90.751463 54.298551 
L 91.579993 54.655737 
L 93.237053 55.763314 
L 94.894113 57.337992 
L 96.551173 59.306229 
L 98.208233 61.597473 
L 100.693822 65.500848 
L 103.902172 71.095851 
L 108.661812 79.954104 
L 113.421452 89.206204 
L 116.594545 95.910337 
L 118.974365 101.52149 
L 121.354185 107.856574 
L 123.734005 115.076353 
L 126.113825 123.268999 
L 128.493645 132.437668 
L 130.873464 142.504863 
L 134.046558 157.068407 
L 138.806198 180.354536 
L 145.215067 148.712205 
L 148.419502 133.831909 
L 151.623937 119.961907 
L 154.828372 107.270493 
L 157.231699 98.577839 
L 159.635025 90.619447 
L 162.038351 83.448193 
L 163.640569 79.179435 
L 165.242786 75.452747 
L 166.845004 72.518923 
L 167.646112 71.480918 
L 168.447221 70.818842 
L 169.24833 70.590457 
L 170.851936 70.682238 
L 172.455542 70.952261 
L 174.860952 71.651022 
L 178.869967 73.241564 
L 180.473574 73.799895 
L 182.07718 74.132566 
L 183.680786 74.093027 
L 184.482589 73.893224 
L 185.284392 73.559974 
L 186.086195 73.091269 
L 187.689802 71.775727 
L 189.293408 70.061529 
L 192.50062 66.094166 
L 194.104227 64.122489 
L 194.941168 64.059635 
L 195.77811 63.873241 
L 197.451993 63.158715 
L 199.125876 62.068134 
L 201.636701 59.995627 
L 204.984467 57.088595 
L 206.65835 55.836342 
L 208.332234 54.854045 
L 210.006117 54.225315 
L 211.68 54.008617 
L 211.68 54.008617 
" clip-path="url(#pd523a4d1b2)" style="fill: none; stroke: #17becf; stroke-opacity: 0.8; stroke-width: 1.5; stroke-linecap: square"/>
   </g>
   <g id="line2d_31">
    <path d="M 53.942857 20.05646 
L 55.540655 20.146801 
L 57.138452 20.415334 
L 58.73625 20.854654 
L 61.132946 21.806131 
L 63.529643 23.054677 
L 66.725238 25.046431 
L 74.714226 30.315707 
L 75.513124 30.776942 
L 77.110922 32.701806 
L 79.507618 36.129944 
L 81.904315 39.996698 
L 84.301011 44.279658 
L 86.697707 48.956011 
L 89.094404 54.008617 
L 90.751463 54.144233 
L 92.408523 54.540335 
L 94.065583 55.163586 
L 96.551173 56.386323 
L 99.036762 57.640465 
L 100.693822 58.238063 
L 101.522352 58.392822 
L 101.522352 58.392822 
L 102.315625 58.419517 
L 103.108899 58.306677 
L 103.902172 58.037735 
L 104.695445 57.601744 
L 105.488719 56.994707 
L 106.281992 56.220046 
L 107.868539 54.214652 
L 109.455085 51.723582 
L 111.834905 47.445248 
L 116.594545 38.617389 
L 118.974365 34.631168 
L 121.354185 31.112766 
L 123.734005 28.109552 
L 125.320551 26.397732 
L 126.907098 24.913034 
L 128.493645 23.647188 
L 130.080191 22.590007 
L 131.666738 21.730556 
L 134.046558 20.831719 
L 135.633104 20.407957 
L 137.219651 20.145386 
L 138.806198 20.05646 
L 140.408415 20.153243 
L 142.010633 20.444681 
L 143.61285 20.933887 
L 145.215067 21.62556 
L 146.817285 22.525294 
L 148.419502 23.638704 
L 150.02172 24.970435 
L 151.623937 26.523121 
L 153.226155 28.296352 
L 155.629481 31.358463 
L 158.032807 34.866554 
L 161.237242 40.090115 
L 165.242786 46.781457 
L 166.845004 48.974843 
L 167.646112 49.783624 
L 168.447221 50.308671 
L 169.24833 50.491465 
L 171.653739 50.633025 
L 174.059149 51.049744 
L 176.464558 51.720384 
L 178.869967 52.618148 
L 181.275377 53.722382 
L 183.680786 55.031784 
L 186.086195 56.57441 
L 188.491605 58.407359 
L 190.897014 60.597912 
L 193.302424 63.180821 
L 194.104227 64.122489 
L 194.941168 64.059635 
L 195.77811 63.873241 
L 197.451993 63.158715 
L 199.125876 62.068134 
L 201.636701 59.995627 
L 204.984467 57.088595 
L 206.65835 55.836342 
L 208.332234 54.854045 
L 210.006117 54.225315 
L 211.68 54.008617 
L 211.68 54.008617 
" clip-path="url(#pd523a4d1b2)" style="fill: none; stroke: #17becf; stroke-opacity: 0.8; stroke-width: 1.5; stroke-linecap: square"/>
   </g>
   <g id="line2d_32">
    <path d="M 53.942857 20.05646 
L 55.540655 20.146801 
L 57.138452 20.415334 
L 58.73625 20.854654 
L 61.132946 21.806131 
L 63.529643 23.054677 
L 66.725238 25.046431 
L 74.714226 30.315707 
L 77.110922 31.631329 
L 79.507618 32.721696 
L 81.904315 33.564331 
L 84.301011 34.155921 
L 86.697707 34.504275 
L 89.094404 34.619017 
L 91.579993 34.526636 
L 94.065583 34.25396 
L 97.379703 33.63279 
L 100.693822 32.760376 
L 104.695445 31.448896 
L 109.455085 29.634537 
L 111.041632 29.007758 
L 116.594545 28.044885 
L 118.974365 27.438679 
L 121.354185 26.631812 
L 123.734005 25.62118 
L 127.700371 23.642219 
L 131.666738 21.723582 
L 134.046558 20.789011 
L 135.633104 20.379687 
L 137.219651 20.136908 
L 138.806198 20.05646 
L 141.209524 20.193734 
L 143.61285 20.592189 
L 146.016176 21.213362 
L 149.220611 22.284441 
L 157.231699 25.122069 
L 160.436134 25.955921 
L 163.640569 26.521477 
L 166.845004 26.824059 
L 172.455542 27.13248 
L 174.860952 27.607127 
L 178.068164 28.535773 
L 186.887999 31.430305 
L 189.293408 31.930911 
L 191.698817 32.181814 
L 198.288935 32.408311 
L 201.636701 32.948766 
L 210.006117 34.544949 
L 211.68 34.619017 
L 211.68 34.619017 
" clip-path="url(#pd523a4d1b2)" style="fill: none; stroke: #17becf; stroke-opacity: 0.8; stroke-width: 1.5; stroke-linecap: square"/>
   </g>
   <g id="line2d_33">
    <path d="M 53.942857 20.05646 
L 56.339553 20.141478 
L 58.73625 20.406498 
L 61.132946 20.879923 
L 63.529643 21.604364 
L 65.926339 22.630476 
L 68.323035 24.009919 
L 69.920833 25.148935 
L 71.51863 26.476653 
L 73.915327 28.839332 
L 75.513124 30.668383 
L 77.110922 31.631329 
L 79.507618 32.721696 
L 81.904315 33.564331 
L 84.301011 34.155921 
L 86.697707 34.504275 
L 89.094404 34.619017 
L 90.751463 34.51425 
L 92.408523 34.217828 
L 94.894113 33.514439 
L 105.488719 30.089606 
L 108.661812 29.412787 
L 111.041632 28.987199 
L 120.560911 24.911376 
L 126.113825 22.675777 
L 129.286918 21.602529 
L 132.460011 20.768591 
L 134.839831 20.339637 
L 137.219651 20.10221 
L 139.607306 20.071824 
L 142.010633 20.298948 
L 144.413959 20.777047 
L 147.618394 21.72281 
L 152.425046 23.475133 
L 156.43059 24.875137 
L 159.635025 25.772009 
L 162.83946 26.405461 
L 166.043895 26.771925 
L 169.24833 26.890509 
L 172.455542 27.037121 
L 175.662755 27.469417 
L 178.869967 28.162661 
L 182.878983 29.31587 
L 190.095211 31.501902 
L 192.50062 31.973577 
L 194.104227 32.150672 
L 196.615051 32.244457 
L 199.125876 32.518694 
L 202.473643 33.118861 
L 209.169175 34.455726 
L 211.68 34.619017 
L 211.68 34.619017 
" clip-path="url(#pd523a4d1b2)" style="fill: none; stroke: #17becf; stroke-opacity: 0.8; stroke-width: 1.5; stroke-linecap: square"/>
   </g>
   <g id="line2d_34">
    <path d="M 53.942857 188.428571 
L 53.942857 10.8 
" clip-path="url(#pd523a4d1b2)" style="fill: none; stroke: #cccccc; stroke-width: 1.5; stroke-linecap: square"/>
   </g>
   <g id="line2d_35">
    <path d="M 89.094404 188.428571 
L 89.094404 10.8 
" clip-path="url(#pd523a4d1b2)" style="fill: none; stroke: #cccccc; stroke-width: 1.5; stroke-linecap: square"/>
   </g>
   <g id="line2d_36">
    <path d="M 101.522352 188.428571 
L 101.522352 10.8 
" clip-path="url(#pd523a4d1b2)" style="fill: none; stroke: #cccccc; stroke-width: 1.5; stroke-linecap: square"/>
   </g>
   <g id="line2d_37">
    <path d="M 101.522352 188.428571 
L 101.522352 10.8 
" clip-path="url(#pd523a4d1b2)" style="fill: none; stroke: #cccccc; stroke-width: 1.5; stroke-linecap: square"/>
   </g>
   <g id="line2d_38">
    <path d="M 138.806198 188.428571 
L 138.806198 10.8 
" clip-path="url(#pd523a4d1b2)" style="fill: none; stroke: #cccccc; stroke-width: 1.5; stroke-linecap: square"/>
   </g>
   <g id="line2d_39">
    <path d="M 169.24833 188.428571 
L 169.24833 10.8 
" clip-path="url(#pd523a4d1b2)" style="fill: none; stroke: #cccccc; stroke-width: 1.5; stroke-linecap: square"/>
   </g>
   <g id="line2d_40">
    <path d="M 194.104227 188.428571 
L 194.104227 10.8 
" clip-path="url(#pd523a4d1b2)" style="fill: none; stroke: #cccccc; stroke-width: 1.5; stroke-linecap: square"/>
   </g>
   <g id="line2d_41">
    <path d="M 211.68 188.428571 
L 211.68 10.8 
" clip-path="url(#pd523a4d1b2)" style="fill: none; stroke: #cccccc; stroke-width: 1.5; stroke-linecap: square"/>
   </g>
   <g id="patch_3">
    <path d="M 53.942857 188.428571 
L 53.942857 10.8 
" style="fill: none; stroke: #000000; stroke-width: 0.8; stroke-linejoin: miter; stroke-linecap: square"/>
   </g>
   <g id="patch_4">
    <path d="M 211.68 188.428571 
L 211.68 10.8 
" style="fill: none; stroke: #000000; stroke-width: 0.8; stroke-linejoin: miter; stroke-linecap: square"/>
   </g>
   <g id="patch_5">
    <path d="M 53.942857 188.428571 
L 211.68 188.428571 
" style="fill: none; stroke: #000000; stroke-width: 0.8; stroke-linejoin: miter; stroke-linecap: square"/>
   </g>
   <g id="patch_6">
    <path d="M 53.942857 10.8 
L 211.68 10.8 
" style="fill: none; stroke: #000000; stroke-width: 0.8; stroke-linejoin: miter; stroke-linecap: square"/>
   </g>
   <g id="legend_1">
    <g id="patch_7">
     <path d="M 221.834743 123.548661 
L 386.631618 123.548661 
Q 388.631618 123.548661 388.631618 121.548661 
L 388.631618 77.679911 
Q 388.631618 75.679911 386.631618 75.679911 
L 221.834743 75.679911 
Q 219.834743 75.679911 219.834743 77.679911 
L 219.834743 121.548661 
Q 219.834743 123.548661 221.834743 123.548661 
z
" style="fill: #ffffff; opacity: 0.8; stroke: #cccccc; stroke-linejoin: miter"/>
    </g>
    <g id="line2d_42">
     <path d="M 223.834743 83.778348 
L 233.834743 83.778348 
L 243.834743 83.778348 
" style="fill: none; stroke: #1f77b4; stroke-width: 2; stroke-linecap: square"/>
    </g>
    <g id="text_17">
     <!-- 10.0_FORCE_CONSTANTS -->
     <g transform="translate(251.834743 87.278348) scale(0.1 -0.1)">
      <defs>
       <path id="DejaVuSans-5f" d="M 3263 -1063 
L 3263 -1509 
L -63 -1509 
L -63 -1063 
L 3263 -1063 
z
" transform="scale(0.015625)"/>
       <path id="DejaVuSans-4f" d="M 2522 4238 
Q 1834 4238 1429 3725 
Q 1025 3213 1025 2328 
Q 1025 1447 1429 934 
Q 1834 422 2522 422 
Q 3209 422 3611 934 
Q 4013 1447 4013 2328 
Q 4013 3213 3611 3725 
Q 3209 4238 2522 4238 
z
M 2522 4750 
Q 3503 4750 4090 4092 
Q 4678 3434 4678 2328 
Q 4678 1225 4090 567 
Q 3503 -91 2522 -91 
Q 1538 -91 948 565 
Q 359 1222 359 2328 
Q 359 3434 948 4092 
Q 1538 4750 2522 4750 
z
" transform="scale(0.015625)"/>
       <path id="DejaVuSans-52" d="M 2841 2188 
Q 3044 2119 3236 1894 
Q 3428 1669 3622 1275 
L 4263 0 
L 3584 0 
L 2988 1197 
Q 2756 1666 2539 1819 
Q 2322 1972 1947 1972 
L 1259 1972 
L 1259 0 
L 628 0 
L 628 4666 
L 2053 4666 
Q 2853 4666 3247 4331 
Q 3641 3997 3641 3322 
Q 3641 2881 3436 2590 
Q 3231 2300 2841 2188 
z
M 1259 4147 
L 1259 2491 
L 2053 2491 
Q 2509 2491 2742 2702 
Q 2975 2913 2975 3322 
Q 2975 3731 2742 3939 
Q 2509 4147 2053 4147 
L 1259 4147 
z
" transform="scale(0.015625)"/>
       <path id="DejaVuSans-43" d="M 4122 4306 
L 4122 3641 
Q 3803 3938 3442 4084 
Q 3081 4231 2675 4231 
Q 1875 4231 1450 3742 
Q 1025 3253 1025 2328 
Q 1025 1406 1450 917 
Q 1875 428 2675 428 
Q 3081 428 3442 575 
Q 3803 722 4122 1019 
L 4122 359 
Q 3791 134 3420 21 
Q 3050 -91 2638 -91 
Q 1578 -91 968 557 
Q 359 1206 359 2328 
Q 359 3453 968 4101 
Q 1578 4750 2638 4750 
Q 3056 4750 3426 4639 
Q 3797 4528 4122 4306 
z
" transform="scale(0.015625)"/>
       <path id="DejaVuSans-45" d="M 628 4666 
L 3578 4666 
L 3578 4134 
L 1259 4134 
L 1259 2753 
L 3481 2753 
L 3481 2222 
L 1259 2222 
L 1259 531 
L 3634 531 
L 3634 0 
L 628 0 
L 628 4666 
z
" transform="scale(0.015625)"/>
       <path id="DejaVuSans-4e" d="M 628 4666 
L 1478 4666 
L 3547 763 
L 3547 4666 
L 4159 4666 
L 4159 0 
L 3309 0 
L 1241 3903 
L 1241 0 
L 628 0 
L 628 4666 
z
" transform="scale(0.015625)"/>
       <path id="DejaVuSans-53" d="M 3425 4513 
L 3425 3897 
Q 3066 4069 2747 4153 
Q 2428 4238 2131 4238 
Q 1616 4238 1336 4038 
Q 1056 3838 1056 3469 
Q 1056 3159 1242 3001 
Q 1428 2844 1947 2747 
L 2328 2669 
Q 3034 2534 3370 2195 
Q 3706 1856 3706 1288 
Q 3706 609 3251 259 
Q 2797 -91 1919 -91 
Q 1588 -91 1214 -16 
Q 841 59 441 206 
L 441 856 
Q 825 641 1194 531 
Q 1563 422 1919 422 
Q 2459 422 2753 634 
Q 3047 847 3047 1241 
Q 3047 1584 2836 1778 
Q 2625 1972 2144 2069 
L 1759 2144 
Q 1053 2284 737 2584 
Q 422 2884 422 3419 
Q 422 4038 858 4394 
Q 1294 4750 2059 4750 
Q 2388 4750 2728 4690 
Q 3069 4631 3425 4513 
z
" transform="scale(0.015625)"/>
       <path id="DejaVuSans-41" d="M 2188 4044 
L 1331 1722 
L 3047 1722 
L 2188 4044 
z
M 1831 4666 
L 2547 4666 
L 4325 0 
L 3669 0 
L 3244 1197 
L 1141 1197 
L 716 0 
L 50 0 
L 1831 4666 
z
" transform="scale(0.015625)"/>
      </defs>
      <use xlink:href="#DejaVuSans-31"/>
      <use xlink:href="#DejaVuSans-30" transform="translate(63.623047 0)"/>
      <use xlink:href="#DejaVuSans-2e" transform="translate(127.246094 0)"/>
      <use xlink:href="#DejaVuSans-30" transform="translate(159.033203 0)"/>
      <use xlink:href="#DejaVuSans-5f" transform="translate(222.65625 0)"/>
      <use xlink:href="#DejaVuSans-46" transform="translate(272.65625 0)"/>
      <use xlink:href="#DejaVuSans-4f" transform="translate(330.175781 0)"/>
      <use xlink:href="#DejaVuSans-52" transform="translate(408.886719 0)"/>
      <use xlink:href="#DejaVuSans-43" transform="translate(473.369141 0)"/>
      <use xlink:href="#DejaVuSans-45" transform="translate(543.193359 0)"/>
      <use xlink:href="#DejaVuSans-5f" transform="translate(606.376953 0)"/>
      <use xlink:href="#DejaVuSans-43" transform="translate(656.376953 0)"/>
      <use xlink:href="#DejaVuSans-4f" transform="translate(726.201172 0)"/>
      <use xlink:href="#DejaVuSans-4e" transform="translate(804.912109 0)"/>
      <use xlink:href="#DejaVuSans-53" transform="translate(879.716797 0)"/>
      <use xlink:href="#DejaVuSans-54" transform="translate(943.193359 0)"/>
      <use xlink:href="#DejaVuSans-41" transform="translate(996.527344 0)"/>
      <use xlink:href="#DejaVuSans-4e" transform="translate(1064.935547 0)"/>
      <use xlink:href="#DejaVuSans-54" transform="translate(1139.740234 0)"/>
      <use xlink:href="#DejaVuSans-53" transform="translate(1200.824219 0)"/>
     </g>
    </g>
    <g id="line2d_43">
     <path d="M 223.834743 98.734598 
L 233.834743 98.734598 
L 243.834743 98.734598 
" style="fill: none; stroke: #8c564b; stroke-width: 2; stroke-linecap: square"/>
    </g>
    <g id="text_18">
     <!-- 300.0_FORCE_CONSTANTS -->
     <g transform="translate(251.834743 102.234598) scale(0.1 -0.1)">
      <defs>
       <path id="DejaVuSans-33" d="M 2597 2516 
Q 3050 2419 3304 2112 
Q 3559 1806 3559 1356 
Q 3559 666 3084 287 
Q 2609 -91 1734 -91 
Q 1441 -91 1130 -33 
Q 819 25 488 141 
L 488 750 
Q 750 597 1062 519 
Q 1375 441 1716 441 
Q 2309 441 2620 675 
Q 2931 909 2931 1356 
Q 2931 1769 2642 2001 
Q 2353 2234 1838 2234 
L 1294 2234 
L 1294 2753 
L 1863 2753 
Q 2328 2753 2575 2939 
Q 2822 3125 2822 3475 
Q 2822 3834 2567 4026 
Q 2313 4219 1838 4219 
Q 1578 4219 1281 4162 
Q 984 4106 628 3988 
L 628 4550 
Q 988 4650 1302 4700 
Q 1616 4750 1894 4750 
Q 2613 4750 3031 4423 
Q 3450 4097 3450 3541 
Q 3450 3153 3228 2886 
Q 3006 2619 2597 2516 
z
" transform="scale(0.015625)"/>
      </defs>
      <use xlink:href="#DejaVuSans-33"/>
      <use xlink:href="#DejaVuSans-30" transform="translate(63.623047 0)"/>
      <use xlink:href="#DejaVuSans-30" transform="translate(127.246094 0)"/>
      <use xlink:href="#DejaVuSans-2e" transform="translate(190.869141 0)"/>
      <use xlink:href="#DejaVuSans-30" transform="translate(222.65625 0)"/>
      <use xlink:href="#DejaVuSans-5f" transform="translate(286.279297 0)"/>
      <use xlink:href="#DejaVuSans-46" transform="translate(336.279297 0)"/>
      <use xlink:href="#DejaVuSans-4f" transform="translate(393.798828 0)"/>
      <use xlink:href="#DejaVuSans-52" transform="translate(472.509766 0)"/>
      <use xlink:href="#DejaVuSans-43" transform="translate(536.992188 0)"/>
      <use xlink:href="#DejaVuSans-45" transform="translate(606.816406 0)"/>
      <use xlink:href="#DejaVuSans-5f" transform="translate(670 0)"/>
      <use xlink:href="#DejaVuSans-43" transform="translate(720 0)"/>
      <use xlink:href="#DejaVuSans-4f" transform="translate(789.824219 0)"/>
      <use xlink:href="#DejaVuSans-4e" transform="translate(868.535156 0)"/>
      <use xlink:href="#DejaVuSans-53" transform="translate(943.339844 0)"/>
      <use xlink:href="#DejaVuSans-54" transform="translate(1006.816406 0)"/>
      <use xlink:href="#DejaVuSans-41" transform="translate(1060.150391 0)"/>
      <use xlink:href="#DejaVuSans-4e" transform="translate(1128.558594 0)"/>
      <use xlink:href="#DejaVuSans-54" transform="translate(1203.363281 0)"/>
      <use xlink:href="#DejaVuSans-53" transform="translate(1264.447266 0)"/>
     </g>
    </g>
    <g id="line2d_44">
     <path d="M 223.834743 113.690848 
L 233.834743 113.690848 
L 243.834743 113.690848 
" style="fill: none; stroke: #17becf; stroke-width: 2; stroke-linecap: square"/>
    </g>
    <g id="text_19">
     <!-- 600.0_FORCE_CONSTANTS -->
     <g transform="translate(251.834743 117.190848) scale(0.1 -0.1)">
      <defs>
       <path id="DejaVuSans-36" d="M 2113 2584 
Q 1688 2584 1439 2293 
Q 1191 2003 1191 1497 
Q 1191 994 1439 701 
Q 1688 409 2113 409 
Q 2538 409 2786 701 
Q 3034 994 3034 1497 
Q 3034 2003 2786 2293 
Q 2538 2584 2113 2584 
z
M 3366 4563 
L 3366 3988 
Q 3128 4100 2886 4159 
Q 2644 4219 2406 4219 
Q 1781 4219 1451 3797 
Q 1122 3375 1075 2522 
Q 1259 2794 1537 2939 
Q 1816 3084 2150 3084 
Q 2853 3084 3261 2657 
Q 3669 2231 3669 1497 
Q 3669 778 3244 343 
Q 2819 -91 2113 -91 
Q 1303 -91 875 529 
Q 447 1150 447 2328 
Q 447 3434 972 4092 
Q 1497 4750 2381 4750 
Q 2619 4750 2861 4703 
Q 3103 4656 3366 4563 
z
" transform="scale(0.015625)"/>
      </defs>
      <use xlink:href="#DejaVuSans-36"/>
      <use xlink:href="#DejaVuSans-30" transform="translate(63.623047 0)"/>
      <use xlink:href="#DejaVuSans-30" transform="translate(127.246094 0)"/>
      <use xlink:href="#DejaVuSans-2e" transform="translate(190.869141 0)"/>
      <use xlink:href="#DejaVuSans-30" transform="translate(222.65625 0)"/>
      <use xlink:href="#DejaVuSans-5f" transform="translate(286.279297 0)"/>
      <use xlink:href="#DejaVuSans-46" transform="translate(336.279297 0)"/>
      <use xlink:href="#DejaVuSans-4f" transform="translate(393.798828 0)"/>
      <use xlink:href="#DejaVuSans-52" transform="translate(472.509766 0)"/>
      <use xlink:href="#DejaVuSans-43" transform="translate(536.992188 0)"/>
      <use xlink:href="#DejaVuSans-45" transform="translate(606.816406 0)"/>
      <use xlink:href="#DejaVuSans-5f" transform="translate(670 0)"/>
      <use xlink:href="#DejaVuSans-43" transform="translate(720 0)"/>
      <use xlink:href="#DejaVuSans-4f" transform="translate(789.824219 0)"/>
      <use xlink:href="#DejaVuSans-4e" transform="translate(868.535156 0)"/>
      <use xlink:href="#DejaVuSans-53" transform="translate(943.339844 0)"/>
      <use xlink:href="#DejaVuSans-54" transform="translate(1006.816406 0)"/>
      <use xlink:href="#DejaVuSans-41" transform="translate(1060.150391 0)"/>
      <use xlink:href="#DejaVuSans-4e" transform="translate(1128.558594 0)"/>
      <use xlink:href="#DejaVuSans-54" transform="translate(1203.363281 0)"/>
      <use xlink:href="#DejaVuSans-53" transform="translate(1264.447266 0)"/>
     </g>
    </g>
   </g>
  </g>
 </g>
 <defs>
  <clipPath id="pd523a4d1b2">
   <rect x="53.942857" y="10.8" width="157.737143" height="177.628571"/>
  </clipPath>
 </defs>
</svg>
