<?xml version="1.0" encoding="utf-8" standalone="no"?>
<!DOCTYPE svg PUBLIC "-//W3C//DTD SVG 1.1//EN"
  "http://www.w3.org/Graphics/SVG/1.1/DTD/svg11.dtd">
<svg xmlns:xlink="http://www.w3.org/1999/xlink" width="576pt" height="252pt" viewBox="0 0 576 252" xmlns="http://www.w3.org/2000/svg" version="1.1">
 <metadata>
  <rdf:RDF xmlns:dc="http://purl.org/dc/elements/1.1/" xmlns:cc="http://creativecommons.org/ns#" xmlns:rdf="http://www.w3.org/1999/02/22-rdf-syntax-ns#">
   <cc:Work>
    <dc:type rdf:resource="http://purl.org/dc/dcmitype/StillImage"/>
    <dc:date>2025-11-07T13:43:16.838152</dc:date>
    <dc:format>image/svg+xml</dc:format>
    <dc:creator>
     <cc:Agent>
      <dc:title>Matplotlib v3.10.7, https://matplotlib.org/</dc:title>
     </cc:Agent>
    </dc:creator>
   </cc:Work>
  </rdf:RDF>
 </metadata>
 <defs>
  <style type="text/css">*{stroke-linejoin: round; stroke-linecap: butt}</style>
 </defs>
 <g id="figure_1">
  <g id="patch_1">
   <path d="M 0 252 
L 576 252 
L 576 0 
L 0 0 
z
" style="fill: #ffffff"/>
  </g>
  <g id="axes_1">
   <g id="patch_2">
    <path d="M 56.09 210.04 
L 268.8445 210.04 
L 268.8445 10.8 
L 56.09 10.8 
z
" style="fill: #ffffff"/>
   </g>
   <g id="matplotlib.axis_1">
    <g id="xtick_1">
     <g id="line2d_1">
      <defs>
       <path id="m469d4ec700" d="M 0 0 
L 0 3.5 
" style="stroke: #000000; stroke-width: 0.8"/>
      </defs>
      <g>
       <use xlink:href="#m469d4ec700" x="56.09" y="210.04" style="stroke: #000000; stroke-width: 0.8"/>
      </g>
     </g>
     <g id="text_1">
      <!-- 0 -->
      <g transform="translate(52.90875 224.638438) scale(0.1 -0.1)">
       <defs>
        <path id="DejaVuSans-30" d="M 2034 4250 
Q 1547 4250 1301 3770 
Q 1056 3291 1056 2328 
Q 1056 1369 1301 889 
Q 1547 409 2034 409 
Q 2525 409 2770 889 
Q 3016 1369 3016 2328 
Q 3016 3291 2770 3770 
Q 2525 4250 2034 4250 
z
M 2034 4750 
Q 2819 4750 3233 4129 
Q 3647 3509 3647 2328 
Q 3647 1150 3233 529 
Q 2819 -91 2034 -91 
Q 1250 -91 836 529 
Q 422 1150 422 2328 
Q 422 3509 836 4129 
Q 1250 4750 2034 4750 
z
" transform="scale(0.015625)"/>
       </defs>
       <use xlink:href="#DejaVuSans-30"/>
      </g>
     </g>
    </g>
    <g id="xtick_2">
     <g id="line2d_2">
      <g>
       <use xlink:href="#m469d4ec700" x="98.219604" y="210.04" style="stroke: #000000; stroke-width: 0.8"/>
      </g>
     </g>
     <g id="text_2">
      <!-- 20 -->
      <g transform="translate(91.857104 224.638438) scale(0.1 -0.1)">
       <defs>
        <path id="DejaVuSans-32" d="M 1228 531 
L 3431 531 
L 3431 0 
L 469 0 
L 469 531 
Q 828 903 1448 1529 
Q 2069 2156 2228 2338 
Q 2531 2678 2651 2914 
Q 2772 3150 2772 3378 
Q 2772 3750 2511 3984 
Q 2250 4219 1831 4219 
Q 1534 4219 1204 4116 
Q 875 4013 500 3803 
L 500 4441 
Q 881 4594 1212 4672 
Q 1544 4750 1819 4750 
Q 2544 4750 2975 4387 
Q 3406 4025 3406 3419 
Q 3406 3131 3298 2873 
Q 3191 2616 2906 2266 
Q 2828 2175 2409 1742 
Q 1991 1309 1228 531 
z
" transform="scale(0.015625)"/>
       </defs>
       <use xlink:href="#DejaVuSans-32"/>
       <use xlink:href="#DejaVuSans-30" transform="translate(63.623047 0)"/>
      </g>
     </g>
    </g>
    <g id="xtick_3">
     <g id="line2d_3">
      <g>
       <use xlink:href="#m469d4ec700" x="140.349208" y="210.04" style="stroke: #000000; stroke-width: 0.8"/>
      </g>
     </g>
     <g id="text_3">
      <!-- 40 -->
      <g transform="translate(133.986708 224.638438) scale(0.1 -0.1)">
       <defs>
        <path id="DejaVuSans-34" d="M 2419 4116 
L 825 1625 
L 2419 1625 
L 2419 4116 
z
M 2253 4666 
L 3047 4666 
L 3047 1625 
L 3713 1625 
L 3713 1100 
L 3047 1100 
L 3047 0 
L 2419 0 
L 2419 1100 
L 313 1100 
L 313 1709 
L 2253 4666 
z
" transform="scale(0.015625)"/>
       </defs>
       <use xlink:href="#DejaVuSans-34"/>
       <use xlink:href="#DejaVuSans-30" transform="translate(63.623047 0)"/>
      </g>
     </g>
    </g>
    <g id="xtick_4">
     <g id="line2d_4">
      <g>
       <use xlink:href="#m469d4ec700" x="182.478812" y="210.04" style="stroke: #000000; stroke-width: 0.8"/>
      </g>
     </g>
     <g id="text_4">
      <!-- 60 -->
      <g transform="translate(176.116312 224.638438) scale(0.1 -0.1)">
       <defs>
        <path id="DejaVuSans-36" d="M 2113 2584 
Q 1688 2584 1439 2293 
Q 1191 2003 1191 1497 
Q 1191 994 1439 701 
Q 1688 409 2113 409 
Q 2538 409 2786 701 
Q 3034 994 3034 1497 
Q 3034 2003 2786 2293 
Q 2538 2584 2113 2584 
z
M 3366 4563 
L 3366 3988 
Q 3128 4100 2886 4159 
Q 2644 4219 2406 4219 
Q 1781 4219 1451 3797 
Q 1122 3375 1075 2522 
Q 1259 2794 1537 2939 
Q 1816 3084 2150 3084 
Q 2853 3084 3261 2657 
Q 3669 2231 3669 1497 
Q 3669 778 3244 343 
Q 2819 -91 2113 -91 
Q 1303 -91 875 529 
Q 447 1150 447 2328 
Q 447 3434 972 4092 
Q 1497 4750 2381 4750 
Q 2619 4750 2861 4703 
Q 3103 4656 3366 4563 
z
" transform="scale(0.015625)"/>
       </defs>
       <use xlink:href="#DejaVuSans-36"/>
       <use xlink:href="#DejaVuSans-30" transform="translate(63.623047 0)"/>
      </g>
     </g>
    </g>
    <g id="xtick_5">
     <g id="line2d_5">
      <g>
       <use xlink:href="#m469d4ec700" x="224.608416" y="210.04" style="stroke: #000000; stroke-width: 0.8"/>
      </g>
     </g>
     <g id="text_5">
      <!-- 80 -->
      <g transform="translate(218.245916 224.638438) scale(0.1 -0.1)">
       <defs>
        <path id="DejaVuSans-38" d="M 2034 2216 
Q 1584 2216 1326 1975 
Q 1069 1734 1069 1313 
Q 1069 891 1326 650 
Q 1584 409 2034 409 
Q 2484 409 2743 651 
Q 3003 894 3003 1313 
Q 3003 1734 2745 1975 
Q 2488 2216 2034 2216 
z
M 1403 2484 
Q 997 2584 770 2862 
Q 544 3141 544 3541 
Q 544 4100 942 4425 
Q 1341 4750 2034 4750 
Q 2731 4750 3128 4425 
Q 3525 4100 3525 3541 
Q 3525 3141 3298 2862 
Q 3072 2584 2669 2484 
Q 3125 2378 3379 2068 
Q 3634 1759 3634 1313 
Q 3634 634 3220 271 
Q 2806 -91 2034 -91 
Q 1263 -91 848 271 
Q 434 634 434 1313 
Q 434 1759 690 2068 
Q 947 2378 1403 2484 
z
M 1172 3481 
Q 1172 3119 1398 2916 
Q 1625 2713 2034 2713 
Q 2441 2713 2670 2916 
Q 2900 3119 2900 3481 
Q 2900 3844 2670 4047 
Q 2441 4250 2034 4250 
Q 1625 4250 1398 4047 
Q 1172 3844 1172 3481 
z
" transform="scale(0.015625)"/>
       </defs>
       <use xlink:href="#DejaVuSans-38"/>
       <use xlink:href="#DejaVuSans-30" transform="translate(63.623047 0)"/>
      </g>
     </g>
    </g>
    <g id="xtick_6">
     <g id="line2d_6">
      <g>
       <use xlink:href="#m469d4ec700" x="266.73802" y="210.04" style="stroke: #000000; stroke-width: 0.8"/>
      </g>
     </g>
     <g id="text_6">
      <!-- 100 -->
      <g transform="translate(257.19427 224.638438) scale(0.1 -0.1)">
       <defs>
        <path id="DejaVuSans-31" d="M 794 531 
L 1825 531 
L 1825 4091 
L 703 3866 
L 703 4441 
L 1819 4666 
L 2450 4666 
L 2450 531 
L 3481 531 
L 3481 0 
L 794 0 
L 794 531 
z
" transform="scale(0.015625)"/>
       </defs>
       <use xlink:href="#DejaVuSans-31"/>
       <use xlink:href="#DejaVuSans-30" transform="translate(63.623047 0)"/>
       <use xlink:href="#DejaVuSans-30" transform="translate(127.246094 0)"/>
      </g>
     </g>
    </g>
    <g id="text_7">
     <!-- SCPH iteration 600.0 K -->
     <g transform="translate(105.543813 238.316563) scale(0.1 -0.1)">
      <defs>
       <path id="DejaVuSans-53" d="M 3425 4513 
L 3425 3897 
Q 3066 4069 2747 4153 
Q 2428 4238 2131 4238 
Q 1616 4238 1336 4038 
Q 1056 3838 1056 3469 
Q 1056 3159 1242 3001 
Q 1428 2844 1947 2747 
L 2328 2669 
Q 3034 2534 3370 2195 
Q 3706 1856 3706 1288 
Q 3706 609 3251 259 
Q 2797 -91 1919 -91 
Q 1588 -91 1214 -16 
Q 841 59 441 206 
L 441 856 
Q 825 641 1194 531 
Q 1563 422 1919 422 
Q 2459 422 2753 634 
Q 3047 847 3047 1241 
Q 3047 1584 2836 1778 
Q 2625 1972 2144 2069 
L 1759 2144 
Q 1053 2284 737 2584 
Q 422 2884 422 3419 
Q 422 4038 858 4394 
Q 1294 4750 2059 4750 
Q 2388 4750 2728 4690 
Q 3069 4631 3425 4513 
z
" transform="scale(0.015625)"/>
       <path id="DejaVuSans-43" d="M 4122 4306 
L 4122 3641 
Q 3803 3938 3442 4084 
Q 3081 4231 2675 4231 
Q 1875 4231 1450 3742 
Q 1025 3253 1025 2328 
Q 1025 1406 1450 917 
Q 1875 428 2675 428 
Q 3081 428 3442 575 
Q 3803 722 4122 1019 
L 4122 359 
Q 3791 134 3420 21 
Q 3050 -91 2638 -91 
Q 1578 -91 968 557 
Q 359 1206 359 2328 
Q 359 3453 968 4101 
Q 1578 4750 2638 4750 
Q 3056 4750 3426 4639 
Q 3797 4528 4122 4306 
z
" transform="scale(0.015625)"/>
       <path id="DejaVuSans-50" d="M 1259 4147 
L 1259 2394 
L 2053 2394 
Q 2494 2394 2734 2622 
Q 2975 2850 2975 3272 
Q 2975 3691 2734 3919 
Q 2494 4147 2053 4147 
L 1259 4147 
z
M 628 4666 
L 2053 4666 
Q 2838 4666 3239 4311 
Q 3641 3956 3641 3272 
Q 3641 2581 3239 2228 
Q 2838 1875 2053 1875 
L 1259 1875 
L 1259 0 
L 628 0 
L 628 4666 
z
" transform="scale(0.015625)"/>
       <path id="DejaVuSans-48" d="M 628 4666 
L 1259 4666 
L 1259 2753 
L 3553 2753 
L 3553 4666 
L 4184 4666 
L 4184 0 
L 3553 0 
L 3553 2222 
L 1259 2222 
L 1259 0 
L 628 0 
L 628 4666 
z
" transform="scale(0.015625)"/>
       <path id="DejaVuSans-20" transform="scale(0.015625)"/>
       <path id="DejaVuSans-69" d="M 603 3500 
L 1178 3500 
L 1178 0 
L 603 0 
L 603 3500 
z
M 603 4863 
L 1178 4863 
L 1178 4134 
L 603 4134 
L 603 4863 
z
" transform="scale(0.015625)"/>
       <path id="DejaVuSans-74" d="M 1172 4494 
L 1172 3500 
L 2356 3500 
L 2356 3053 
L 1172 3053 
L 1172 1153 
Q 1172 725 1289 603 
Q 1406 481 1766 481 
L 2356 481 
L 2356 0 
L 1766 0 
Q 1100 0 847 248 
Q 594 497 594 1153 
L 594 3053 
L 172 3053 
L 172 3500 
L 594 3500 
L 594 4494 
L 1172 4494 
z
" transform="scale(0.015625)"/>
       <path id="DejaVuSans-65" d="M 3597 1894 
L 3597 1613 
L 953 1613 
Q 991 1019 1311 708 
Q 1631 397 2203 397 
Q 2534 397 2845 478 
Q 3156 559 3463 722 
L 3463 178 
Q 3153 47 2828 -22 
Q 2503 -91 2169 -91 
Q 1331 -91 842 396 
Q 353 884 353 1716 
Q 353 2575 817 3079 
Q 1281 3584 2069 3584 
Q 2775 3584 3186 3129 
Q 3597 2675 3597 1894 
z
M 3022 2063 
Q 3016 2534 2758 2815 
Q 2500 3097 2075 3097 
Q 1594 3097 1305 2825 
Q 1016 2553 972 2059 
L 3022 2063 
z
" transform="scale(0.015625)"/>
       <path id="DejaVuSans-72" d="M 2631 2963 
Q 2534 3019 2420 3045 
Q 2306 3072 2169 3072 
Q 1681 3072 1420 2755 
Q 1159 2438 1159 1844 
L 1159 0 
L 581 0 
L 581 3500 
L 1159 3500 
L 1159 2956 
Q 1341 3275 1631 3429 
Q 1922 3584 2338 3584 
Q 2397 3584 2469 3576 
Q 2541 3569 2628 3553 
L 2631 2963 
z
" transform="scale(0.015625)"/>
       <path id="DejaVuSans-61" d="M 2194 1759 
Q 1497 1759 1228 1600 
Q 959 1441 959 1056 
Q 959 750 1161 570 
Q 1363 391 1709 391 
Q 2188 391 2477 730 
Q 2766 1069 2766 1631 
L 2766 1759 
L 2194 1759 
z
M 3341 1997 
L 3341 0 
L 2766 0 
L 2766 531 
Q 2569 213 2275 61 
Q 1981 -91 1556 -91 
Q 1019 -91 701 211 
Q 384 513 384 1019 
Q 384 1609 779 1909 
Q 1175 2209 1959 2209 
L 2766 2209 
L 2766 2266 
Q 2766 2663 2505 2880 
Q 2244 3097 1772 3097 
Q 1472 3097 1187 3025 
Q 903 2953 641 2809 
L 641 3341 
Q 956 3463 1253 3523 
Q 1550 3584 1831 3584 
Q 2591 3584 2966 3190 
Q 3341 2797 3341 1997 
z
" transform="scale(0.015625)"/>
       <path id="DejaVuSans-6f" d="M 1959 3097 
Q 1497 3097 1228 2736 
Q 959 2375 959 1747 
Q 959 1119 1226 758 
Q 1494 397 1959 397 
Q 2419 397 2687 759 
Q 2956 1122 2956 1747 
Q 2956 2369 2687 2733 
Q 2419 3097 1959 3097 
z
M 1959 3584 
Q 2709 3584 3137 3096 
Q 3566 2609 3566 1747 
Q 3566 888 3137 398 
Q 2709 -91 1959 -91 
Q 1206 -91 779 398 
Q 353 888 353 1747 
Q 353 2609 779 3096 
Q 1206 3584 1959 3584 
z
" transform="scale(0.015625)"/>
       <path id="DejaVuSans-6e" d="M 3513 2113 
L 3513 0 
L 2938 0 
L 2938 2094 
Q 2938 2591 2744 2837 
Q 2550 3084 2163 3084 
Q 1697 3084 1428 2787 
Q 1159 2491 1159 1978 
L 1159 0 
L 581 0 
L 581 3500 
L 1159 3500 
L 1159 2956 
Q 1366 3272 1645 3428 
Q 1925 3584 2291 3584 
Q 2894 3584 3203 3211 
Q 3513 2838 3513 2113 
z
" transform="scale(0.015625)"/>
       <path id="DejaVuSans-2e" d="M 684 794 
L 1344 794 
L 1344 0 
L 684 0 
L 684 794 
z
" transform="scale(0.015625)"/>
       <path id="DejaVuSans-4b" d="M 628 4666 
L 1259 4666 
L 1259 2694 
L 3353 4666 
L 4166 4666 
L 1850 2491 
L 4331 0 
L 3500 0 
L 1259 2247 
L 1259 0 
L 628 0 
L 628 4666 
z
" transform="scale(0.015625)"/>
      </defs>
      <use xlink:href="#DejaVuSans-53"/>
      <use xlink:href="#DejaVuSans-43" transform="translate(63.476562 0)"/>
      <use xlink:href="#DejaVuSans-50" transform="translate(133.300781 0)"/>
      <use xlink:href="#DejaVuSans-48" transform="translate(193.603516 0)"/>
      <use xlink:href="#DejaVuSans-20" transform="translate(268.798828 0)"/>
      <use xlink:href="#DejaVuSans-69" transform="translate(300.585938 0)"/>
      <use xlink:href="#DejaVuSans-74" transform="translate(328.369141 0)"/>
      <use xlink:href="#DejaVuSans-65" transform="translate(367.578125 0)"/>
      <use xlink:href="#DejaVuSans-72" transform="translate(429.101562 0)"/>
      <use xlink:href="#DejaVuSans-61" transform="translate(470.214844 0)"/>
      <use xlink:href="#DejaVuSans-74" transform="translate(531.494141 0)"/>
      <use xlink:href="#DejaVuSans-69" transform="translate(570.703125 0)"/>
      <use xlink:href="#DejaVuSans-6f" transform="translate(598.486328 0)"/>
      <use xlink:href="#DejaVuSans-6e" transform="translate(659.667969 0)"/>
      <use xlink:href="#DejaVuSans-20" transform="translate(723.046875 0)"/>
      <use xlink:href="#DejaVuSans-36" transform="translate(754.833984 0)"/>
      <use xlink:href="#DejaVuSans-30" transform="translate(818.457031 0)"/>
      <use xlink:href="#DejaVuSans-30" transform="translate(882.080078 0)"/>
      <use xlink:href="#DejaVuSans-2e" transform="translate(945.703125 0)"/>
      <use xlink:href="#DejaVuSans-30" transform="translate(977.490234 0)"/>
      <use xlink:href="#DejaVuSans-20" transform="translate(1041.113281 0)"/>
      <use xlink:href="#DejaVuSans-4b" transform="translate(1072.900391 0)"/>
     </g>
    </g>
   </g>
   <g id="matplotlib.axis_2">
    <g id="ytick_1">
     <g id="line2d_7">
      <defs>
       <path id="m165f658aff" d="M 0 0 
L -3.5 0 
" style="stroke: #000000; stroke-width: 0.8"/>
      </defs>
      <g>
       <use xlink:href="#m165f658aff" x="56.09" y="201.124891" style="stroke: #000000; stroke-width: 0.8"/>
      </g>
     </g>
     <g id="text_8">
      <!-- −2.5 -->
      <g transform="translate(24.807188 204.924109) scale(0.1 -0.1)">
       <defs>
        <path id="DejaVuSans-2212" d="M 678 2272 
L 4684 2272 
L 4684 1741 
L 678 1741 
L 678 2272 
z
" transform="scale(0.015625)"/>
        <path id="DejaVuSans-35" d="M 691 4666 
L 3169 4666 
L 3169 4134 
L 1269 4134 
L 1269 2991 
Q 1406 3038 1543 3061 
Q 1681 3084 1819 3084 
Q 2600 3084 3056 2656 
Q 3513 2228 3513 1497 
Q 3513 744 3044 326 
Q 2575 -91 1722 -91 
Q 1428 -91 1123 -41 
Q 819 9 494 109 
L 494 744 
Q 775 591 1075 516 
Q 1375 441 1709 441 
Q 2250 441 2565 725 
Q 2881 1009 2881 1497 
Q 2881 1984 2565 2268 
Q 2250 2553 1709 2553 
Q 1456 2553 1204 2497 
Q 953 2441 691 2322 
L 691 4666 
z
" transform="scale(0.015625)"/>
       </defs>
       <use xlink:href="#DejaVuSans-2212"/>
       <use xlink:href="#DejaVuSans-32" transform="translate(83.789062 0)"/>
       <use xlink:href="#DejaVuSans-2e" transform="translate(147.412109 0)"/>
       <use xlink:href="#DejaVuSans-35" transform="translate(179.199219 0)"/>
      </g>
     </g>
    </g>
    <g id="ytick_2">
     <g id="line2d_8">
      <g>
       <use xlink:href="#m165f658aff" x="56.09" y="165.793726" style="stroke: #000000; stroke-width: 0.8"/>
      </g>
     </g>
     <g id="text_9">
      <!-- −2.0 -->
      <g transform="translate(24.807188 169.592945) scale(0.1 -0.1)">
       <use xlink:href="#DejaVuSans-2212"/>
       <use xlink:href="#DejaVuSans-32" transform="translate(83.789062 0)"/>
       <use xlink:href="#DejaVuSans-2e" transform="translate(147.412109 0)"/>
       <use xlink:href="#DejaVuSans-30" transform="translate(179.199219 0)"/>
      </g>
     </g>
    </g>
    <g id="ytick_3">
     <g id="line2d_9">
      <g>
       <use xlink:href="#m165f658aff" x="56.09" y="130.462562" style="stroke: #000000; stroke-width: 0.8"/>
      </g>
     </g>
     <g id="text_10">
      <!-- −1.5 -->
      <g transform="translate(24.807188 134.26178) scale(0.1 -0.1)">
       <use xlink:href="#DejaVuSans-2212"/>
       <use xlink:href="#DejaVuSans-31" transform="translate(83.789062 0)"/>
       <use xlink:href="#DejaVuSans-2e" transform="translate(147.412109 0)"/>
       <use xlink:href="#DejaVuSans-35" transform="translate(179.199219 0)"/>
      </g>
     </g>
    </g>
    <g id="ytick_4">
     <g id="line2d_10">
      <g>
       <use xlink:href="#m165f658aff" x="56.09" y="95.131397" style="stroke: #000000; stroke-width: 0.8"/>
      </g>
     </g>
     <g id="text_11">
      <!-- −1.0 -->
      <g transform="translate(24.807188 98.930616) scale(0.1 -0.1)">
       <use xlink:href="#DejaVuSans-2212"/>
       <use xlink:href="#DejaVuSans-31" transform="translate(83.789062 0)"/>
       <use xlink:href="#DejaVuSans-2e" transform="translate(147.412109 0)"/>
       <use xlink:href="#DejaVuSans-30" transform="translate(179.199219 0)"/>
      </g>
     </g>
    </g>
    <g id="ytick_5">
     <g id="line2d_11">
      <g>
       <use xlink:href="#m165f658aff" x="56.09" y="59.800233" style="stroke: #000000; stroke-width: 0.8"/>
      </g>
     </g>
     <g id="text_12">
      <!-- −0.5 -->
      <g transform="translate(24.807188 63.599452) scale(0.1 -0.1)">
       <use xlink:href="#DejaVuSans-2212"/>
       <use xlink:href="#DejaVuSans-30" transform="translate(83.789062 0)"/>
       <use xlink:href="#DejaVuSans-2e" transform="translate(147.412109 0)"/>
       <use xlink:href="#DejaVuSans-35" transform="translate(179.199219 0)"/>
      </g>
     </g>
    </g>
    <g id="ytick_6">
     <g id="line2d_12">
      <g>
       <use xlink:href="#m165f658aff" x="56.09" y="24.469068" style="stroke: #000000; stroke-width: 0.8"/>
      </g>
     </g>
     <g id="text_13">
      <!-- 0.0 -->
      <g transform="translate(33.186875 28.268287) scale(0.1 -0.1)">
       <use xlink:href="#DejaVuSans-30"/>
       <use xlink:href="#DejaVuSans-2e" transform="translate(63.623047 0)"/>
       <use xlink:href="#DejaVuSans-30" transform="translate(95.410156 0)"/>
      </g>
     </g>
    </g>
    <g id="text_14">
     <!-- Parameters -->
     <g transform="translate(18.7275 139.037188) rotate(-90) scale(0.1 -0.1)">
      <defs>
       <path id="DejaVuSans-6d" d="M 3328 2828 
Q 3544 3216 3844 3400 
Q 4144 3584 4550 3584 
Q 5097 3584 5394 3201 
Q 5691 2819 5691 2113 
L 5691 0 
L 5113 0 
L 5113 2094 
Q 5113 2597 4934 2840 
Q 4756 3084 4391 3084 
Q 3944 3084 3684 2787 
Q 3425 2491 3425 1978 
L 3425 0 
L 2847 0 
L 2847 2094 
Q 2847 2600 2669 2842 
Q 2491 3084 2119 3084 
Q 1678 3084 1418 2786 
Q 1159 2488 1159 1978 
L 1159 0 
L 581 0 
L 581 3500 
L 1159 3500 
L 1159 2956 
Q 1356 3278 1631 3431 
Q 1906 3584 2284 3584 
Q 2666 3584 2933 3390 
Q 3200 3197 3328 2828 
z
" transform="scale(0.015625)"/>
       <path id="DejaVuSans-73" d="M 2834 3397 
L 2834 2853 
Q 2591 2978 2328 3040 
Q 2066 3103 1784 3103 
Q 1356 3103 1142 2972 
Q 928 2841 928 2578 
Q 928 2378 1081 2264 
Q 1234 2150 1697 2047 
L 1894 2003 
Q 2506 1872 2764 1633 
Q 3022 1394 3022 966 
Q 3022 478 2636 193 
Q 2250 -91 1575 -91 
Q 1294 -91 989 -36 
Q 684 19 347 128 
L 347 722 
Q 666 556 975 473 
Q 1284 391 1588 391 
Q 1994 391 2212 530 
Q 2431 669 2431 922 
Q 2431 1156 2273 1281 
Q 2116 1406 1581 1522 
L 1381 1569 
Q 847 1681 609 1914 
Q 372 2147 372 2553 
Q 372 3047 722 3315 
Q 1072 3584 1716 3584 
Q 2034 3584 2315 3537 
Q 2597 3491 2834 3397 
z
" transform="scale(0.015625)"/>
      </defs>
      <use xlink:href="#DejaVuSans-50"/>
      <use xlink:href="#DejaVuSans-61" transform="translate(55.802734 0)"/>
      <use xlink:href="#DejaVuSans-72" transform="translate(117.082031 0)"/>
      <use xlink:href="#DejaVuSans-61" transform="translate(158.195312 0)"/>
      <use xlink:href="#DejaVuSans-6d" transform="translate(219.474609 0)"/>
      <use xlink:href="#DejaVuSans-65" transform="translate(316.886719 0)"/>
      <use xlink:href="#DejaVuSans-74" transform="translate(378.410156 0)"/>
      <use xlink:href="#DejaVuSans-65" transform="translate(417.619141 0)"/>
      <use xlink:href="#DejaVuSans-72" transform="translate(479.142578 0)"/>
      <use xlink:href="#DejaVuSans-73" transform="translate(520.255859 0)"/>
     </g>
    </g>
   </g>
   <g id="line2d_13">
    <path d="M 56.09 138.172102 
L 58.19648 137.486082 
L 60.30296 137.31233 
L 62.409441 137.08657 
L 64.515921 136.809692 
L 66.622401 136.582203 
L 68.728881 136.426589 
L 70.835361 136.379385 
L 72.941842 136.375683 
L 75.048322 136.284859 
L 77.154802 136.204866 
L 79.261282 136.002057 
L 81.367762 135.959448 
L 83.474243 135.816199 
L 85.580723 135.613105 
L 87.687203 135.61692 
L 89.793683 135.531921 
L 91.900163 135.741342 
L 94.006644 135.755851 
L 96.113124 135.689507 
L 98.219604 135.501125 
L 100.326084 135.57796 
L 102.432564 135.64779 
L 104.539045 135.610808 
L 106.645525 135.654727 
L 108.752005 135.951356 
L 110.858485 135.806208 
L 112.964965 135.799097 
L 115.071446 135.700952 
L 117.177926 135.558643 
L 119.284406 135.639677 
L 121.390886 135.659468 
L 123.497366 135.669045 
L 125.603847 135.681113 
L 127.710327 135.706819 
L 129.816807 135.658761 
L 131.923287 135.752434 
L 134.029767 135.805607 
L 136.136248 135.775928 
L 138.242728 135.637131 
L 140.349208 135.570271 
L 142.455688 135.626693 
L 144.562169 135.610232 
L 146.668649 135.524624 
L 148.775129 135.383756 
L 150.881609 135.493027 
L 152.988089 135.511855 
L 155.09457 135.61164 
L 157.20105 135.580439 
L 159.30753 135.610816 
L 161.41401 135.649818 
L 163.52049 135.649327 
L 165.626971 135.824333 
L 167.733451 135.775782 
L 169.839931 135.698987 
L 171.946411 135.793035 
L 174.052891 135.864442 
L 176.159372 135.670676 
L 178.265852 135.873618 
L 180.372332 135.786717 
L 182.478812 135.774172 
L 184.585292 135.888665 
L 186.691773 135.816783 
L 188.798253 135.931032 
L 190.904733 136.038435 
L 193.011213 136.133966 
L 195.117693 136.044299 
L 197.224174 135.77565 
L 199.330654 135.952287 
L 201.437134 135.986592 
L 203.543614 135.89882 
L 205.650094 135.992759 
L 207.756575 136.231909 
L 209.863055 136.095117 
L 211.969535 135.937741 
L 214.076015 135.911771 
L 216.182495 135.910978 
L 218.288976 135.844062 
L 220.395456 135.83076 
L 222.501936 135.579316 
L 224.608416 135.640604 
L 226.714896 135.610062 
L 228.821377 135.753198 
L 230.927857 135.734862 
L 233.034337 135.673972 
L 235.140817 135.637172 
L 237.247297 135.682864 
L 239.353778 135.748203 
L 241.460258 135.95584 
L 243.566738 136.084913 
L 245.673218 135.990324 
L 247.779698 135.956011 
L 249.886179 136.131676 
L 251.992659 135.920634 
L 254.099139 135.749777 
L 256.205619 135.79276 
L 258.312099 135.767456 
L 260.41858 135.83604 
L 262.52506 135.735251 
L 264.63154 135.6933 
L 266.73802 135.770293 
" clip-path="url(#p49eff5afe8)" style="fill: none; stroke: #1f77b4; stroke-width: 1.5; stroke-linecap: square"/>
   </g>
   <g id="line2d_14">
    <path d="M 56.09 200.983636 
L 58.19648 199.897512 
L 60.30296 199.58011 
L 62.409441 199.311522 
L 64.515921 198.861556 
L 66.622401 198.488195 
L 68.728881 198.287927 
L 70.835361 198.247358 
L 72.941842 198.181456 
L 75.048322 198.03484 
L 77.154802 197.921622 
L 79.261282 197.556089 
L 81.367762 197.494163 
L 83.474243 197.268041 
L 85.580723 197.012685 
L 87.687203 197.108474 
L 89.793683 196.959378 
L 91.900163 197.25625 
L 94.006644 197.275326 
L 96.113124 197.172984 
L 98.219604 196.830354 
L 100.326084 196.964585 
L 102.432564 197.058795 
L 104.539045 197.057131 
L 106.645525 197.06021 
L 108.752005 197.460017 
L 110.858485 197.201011 
L 112.964965 197.167113 
L 115.071446 197.010814 
L 117.177926 196.891133 
L 119.284406 196.92607 
L 121.390886 197.021875 
L 123.497366 197.025699 
L 125.603847 197.006521 
L 127.710327 197.071051 
L 129.816807 197.072361 
L 131.923287 197.231562 
L 134.029767 197.284335 
L 136.136248 197.233131 
L 138.242728 196.969712 
L 140.349208 196.88005 
L 142.455688 197.004962 
L 144.562169 196.97733 
L 146.668649 196.847515 
L 148.775129 196.674439 
L 150.881609 196.873577 
L 152.988089 196.770581 
L 155.09457 196.910317 
L 157.20105 196.908648 
L 159.30753 196.983102 
L 161.41401 197.013487 
L 163.52049 196.986512 
L 165.626971 197.237347 
L 167.733451 197.200026 
L 169.839931 197.044889 
L 171.946411 197.13568 
L 174.052891 197.262249 
L 176.159372 196.927736 
L 178.265852 197.257802 
L 180.372332 197.12056 
L 182.478812 197.139117 
L 184.585292 197.273125 
L 186.691773 197.235928 
L 188.798253 197.418581 
L 190.904733 197.602107 
L 193.011213 197.794497 
L 195.117693 197.654872 
L 197.224174 197.277655 
L 199.330654 197.49344 
L 201.437134 197.521741 
L 203.543614 197.323575 
L 205.650094 197.38686 
L 207.756575 197.750757 
L 209.863055 197.619088 
L 211.969535 197.368721 
L 214.076015 197.415048 
L 216.182495 197.364176 
L 218.288976 197.261459 
L 220.395456 197.265877 
L 222.501936 196.95641 
L 224.608416 197.06526 
L 226.714896 197.015195 
L 228.821377 197.228934 
L 230.927857 197.180628 
L 233.034337 197.15095 
L 235.140817 197.058355 
L 237.247297 197.075714 
L 239.353778 197.094666 
L 241.460258 197.493265 
L 243.566738 197.612922 
L 245.673218 197.4702 
L 247.779698 197.39504 
L 249.886179 197.70307 
L 251.992659 197.340442 
L 254.099139 197.13319 
L 256.205619 197.23276 
L 258.312099 197.224554 
L 260.41858 197.292519 
L 262.52506 197.126227 
L 264.63154 197.069426 
L 266.73802 197.248402 
" clip-path="url(#p49eff5afe8)" style="fill: none; stroke: #ff7f0e; stroke-width: 1.5; stroke-linecap: square"/>
   </g>
   <g id="line2d_15">
    <path d="M 56.09 22.514208 
L 58.19648 22.523162 
L 60.30296 22.538476 
L 62.409441 22.538646 
L 64.515921 22.559271 
L 66.622401 22.574208 
L 68.728881 22.559509 
L 70.835361 22.546994 
L 72.941842 22.587877 
L 75.048322 22.582143 
L 77.154802 22.554157 
L 79.261282 22.558251 
L 81.367762 22.569922 
L 83.474243 22.558754 
L 85.580723 22.580111 
L 87.687203 22.559165 
L 89.793683 22.596747 
L 91.900163 22.569144 
L 94.006644 22.567432 
L 96.113124 22.55946 
L 98.219604 22.601053 
L 100.326084 22.584054 
L 102.432564 22.602242 
L 104.539045 22.597352 
L 106.645525 22.60406 
L 108.752005 22.622675 
L 110.858485 22.619817 
L 112.964965 22.668353 
L 115.071446 22.635139 
L 117.177926 22.639117 
L 119.284406 22.698671 
L 121.390886 22.635595 
L 123.497366 22.641007 
L 125.603847 22.673975 
L 127.710327 22.666088 
L 129.816807 22.63799 
L 131.923287 22.616788 
L 134.029767 22.652297 
L 136.136248 22.677422 
L 138.242728 22.691188 
L 140.349208 22.69635 
L 142.455688 22.692491 
L 144.562169 22.69189 
L 146.668649 22.642371 
L 148.775129 22.608856 
L 150.881609 22.607688 
L 152.988089 22.664466 
L 155.09457 22.655032 
L 157.20105 22.63168 
L 159.30753 22.583925 
L 161.41401 22.551477 
L 163.52049 22.586259 
L 165.626971 22.5934 
L 167.733451 22.539727 
L 169.839931 22.535735 
L 171.946411 22.532653 
L 174.052891 22.548121 
L 176.159372 22.559586 
L 178.265852 22.568895 
L 180.372332 22.648221 
L 182.478812 22.639591 
L 184.585292 22.648239 
L 186.691773 22.594517 
L 188.798253 22.583667 
L 190.904733 22.589347 
L 193.011213 22.490639 
L 195.117693 22.484472 
L 197.224174 22.528489 
L 199.330654 22.57827 
L 201.437134 22.591786 
L 203.543614 22.641594 
L 205.650094 22.630848 
L 207.756575 22.631994 
L 209.863055 22.615539 
L 211.969535 22.619823 
L 214.076015 22.567017 
L 216.182495 22.589639 
L 218.288976 22.637174 
L 220.395456 22.637511 
L 222.501936 22.580994 
L 224.608416 22.589048 
L 226.714896 22.60435 
L 228.821377 22.632944 
L 230.927857 22.647244 
L 233.034337 22.629268 
L 235.140817 22.646355 
L 237.247297 22.63283 
L 239.353778 22.655899 
L 241.460258 22.614143 
L 243.566738 22.628919 
L 245.673218 22.593462 
L 247.779698 22.596107 
L 249.886179 22.568903 
L 251.992659 22.654594 
L 254.099139 22.651649 
L 256.205619 22.606994 
L 258.312099 22.588244 
L 260.41858 22.567647 
L 262.52506 22.582293 
L 264.63154 22.602587 
L 266.73802 22.580689 
" clip-path="url(#p49eff5afe8)" style="fill: none; stroke: #2ca02c; stroke-width: 1.5; stroke-linecap: square"/>
   </g>
   <g id="line2d_16">
    <path d="M 56.09 19.856364 
L 58.19648 20.019978 
L 60.30296 20.138679 
L 62.409441 20.065071 
L 64.515921 20.130059 
L 66.622401 20.087054 
L 68.728881 20.011708 
L 70.835361 20.052584 
L 72.941842 20.170964 
L 75.048322 20.255327 
L 77.154802 20.28422 
L 79.261282 20.469009 
L 81.367762 20.487256 
L 83.474243 20.462489 
L 85.580723 20.405298 
L 87.687203 20.220354 
L 89.793683 20.227314 
L 91.900163 20.174804 
L 94.006644 20.095278 
L 96.113124 20.163817 
L 98.219604 20.296016 
L 100.326084 20.214779 
L 102.432564 20.289248 
L 104.539045 20.249404 
L 106.645525 20.248419 
L 108.752005 20.326722 
L 110.858485 20.296801 
L 112.964965 20.256387 
L 115.071446 20.405852 
L 117.177926 20.394143 
L 119.284406 20.540447 
L 121.390886 20.44131 
L 123.497366 20.329504 
L 125.603847 20.488734 
L 127.710327 20.562961 
L 129.816807 20.527297 
L 131.923287 20.318472 
L 134.029767 20.393135 
L 136.136248 20.472213 
L 138.242728 20.407819 
L 140.349208 20.574665 
L 142.455688 20.50236 
L 144.562169 20.502035 
L 146.668649 20.528877 
L 148.775129 20.473676 
L 150.881609 20.371123 
L 152.988089 20.535379 
L 155.09457 20.529599 
L 157.20105 20.45926 
L 159.30753 20.35646 
L 161.41401 20.317799 
L 163.52049 20.54881 
L 165.626971 20.543339 
L 167.733451 20.32552 
L 169.839931 20.324832 
L 171.946411 20.330546 
L 174.052891 20.395279 
L 176.159372 20.350559 
L 178.265852 20.409121 
L 180.372332 20.565646 
L 182.478812 20.512893 
L 184.585292 20.503697 
L 186.691773 20.320871 
L 188.798253 20.368083 
L 190.904733 20.360879 
L 193.011213 20.146718 
L 195.117693 20.122955 
L 197.224174 20.218509 
L 199.330654 20.370485 
L 201.437134 20.491863 
L 203.543614 20.65786 
L 205.650094 20.669501 
L 207.756575 20.665909 
L 209.863055 20.613092 
L 211.969535 20.684175 
L 214.076015 20.506112 
L 216.182495 20.615684 
L 218.288976 20.649645 
L 220.395456 20.538695 
L 222.501936 20.425959 
L 224.608416 20.320747 
L 226.714896 20.362393 
L 228.821377 20.335636 
L 230.927857 20.385289 
L 233.034337 20.329483 
L 235.140817 20.324253 
L 237.247297 20.359859 
L 239.353778 20.480319 
L 241.460258 20.330998 
L 243.566738 20.356673 
L 245.673218 20.203124 
L 247.779698 20.283652 
L 249.886179 20.221481 
L 251.992659 20.510178 
L 254.099139 20.539666 
L 256.205619 20.400721 
L 258.312099 20.217891 
L 260.41858 20.361355 
L 262.52506 20.423617 
L 264.63154 20.341322 
L 266.73802 20.172191 
" clip-path="url(#p49eff5afe8)" style="fill: none; stroke: #d62728; stroke-width: 1.5; stroke-linecap: square"/>
   </g>
   <g id="line2d_17">
    <path d="M 56.09 25.409662 
L 58.19648 25.459535 
L 60.30296 25.511183 
L 62.409441 25.558108 
L 64.515921 25.609214 
L 66.622401 25.629065 
L 68.728881 25.658496 
L 70.835361 25.682854 
L 72.941842 25.691743 
L 75.048322 25.702776 
L 77.154802 25.712853 
L 79.261282 25.714473 
L 81.367762 25.728428 
L 83.474243 25.730711 
L 85.580723 25.730875 
L 87.687203 25.750729 
L 89.793683 25.775501 
L 91.900163 25.751312 
L 94.006644 25.749774 
L 96.113124 25.750755 
L 98.219604 25.745273 
L 100.326084 25.773726 
L 102.432564 25.772664 
L 104.539045 25.795352 
L 106.645525 25.818481 
L 108.752005 25.800684 
L 110.858485 25.775668 
L 112.964965 25.796632 
L 115.071446 25.79373 
L 117.177926 25.808361 
L 119.284406 25.821813 
L 121.390886 25.81522 
L 123.497366 25.785805 
L 125.603847 25.792291 
L 127.710327 25.790497 
L 129.816807 25.814687 
L 131.923287 25.785012 
L 134.029767 25.794097 
L 136.136248 25.797583 
L 138.242728 25.790806 
L 140.349208 25.825497 
L 142.455688 25.811816 
L 144.562169 25.800886 
L 146.668649 25.837139 
L 148.775129 25.828504 
L 150.881609 25.813973 
L 152.988089 25.807999 
L 155.09457 25.794139 
L 157.20105 25.78768 
L 159.30753 25.79183 
L 161.41401 25.791809 
L 163.52049 25.79908 
L 165.626971 25.779467 
L 167.733451 25.754463 
L 169.839931 25.73372 
L 171.946411 25.762134 
L 174.052891 25.770398 
L 176.159372 25.781084 
L 178.265852 25.791484 
L 180.372332 25.807353 
L 182.478812 25.798194 
L 184.585292 25.807446 
L 186.691773 25.787766 
L 188.798253 25.766709 
L 190.904733 25.734691 
L 193.011213 25.717622 
L 195.117693 25.720791 
L 197.224174 25.735565 
L 199.330654 25.721797 
L 201.437134 25.764677 
L 203.543614 25.77442 
L 205.650094 25.771056 
L 207.756575 25.746756 
L 209.863055 25.75937 
L 211.969535 25.812003 
L 214.076015 25.79122 
L 216.182495 25.798992 
L 218.288976 25.820339 
L 220.395456 25.817452 
L 222.501936 25.789095 
L 224.608416 25.808536 
L 226.714896 25.831933 
L 228.821377 25.82272 
L 230.927857 25.83644 
L 233.034337 25.815208 
L 235.140817 25.813205 
L 237.247297 25.803774 
L 239.353778 25.783622 
L 241.460258 25.764949 
L 243.566738 25.742335 
L 245.673218 25.742559 
L 247.779698 25.739896 
L 249.886179 25.744111 
L 251.992659 25.76993 
L 254.099139 25.768657 
L 256.205619 25.767864 
L 258.312099 25.756717 
L 260.41858 25.736542 
L 262.52506 25.751996 
L 264.63154 25.785756 
L 266.73802 25.792156 
" clip-path="url(#p49eff5afe8)" style="fill: none; stroke: #9467bd; stroke-width: 1.5; stroke-linecap: square"/>
   </g>
   <g id="line2d_18">
    <path d="M 56.09 29.632561 
L 58.19648 29.64423 
L 60.30296 29.640884 
L 62.409441 29.623401 
L 64.515921 29.683903 
L 66.622401 29.690309 
L 68.728881 29.691946 
L 70.835361 29.707544 
L 72.941842 29.714094 
L 75.048322 29.689257 
L 77.154802 29.682347 
L 79.261282 29.666619 
L 81.367762 29.709393 
L 83.474243 29.734147 
L 85.580723 29.680265 
L 87.687203 29.693975 
L 89.793683 29.730316 
L 91.900163 29.70358 
L 94.006644 29.693315 
L 96.113124 29.68391 
L 98.219604 29.686273 
L 100.326084 29.721053 
L 102.432564 29.698354 
L 104.539045 29.695849 
L 106.645525 29.755341 
L 108.752005 29.73039 
L 110.858485 29.715198 
L 112.964965 29.775828 
L 115.071446 29.813353 
L 117.177926 29.811656 
L 119.284406 29.831897 
L 121.390886 29.788024 
L 123.497366 29.739892 
L 125.603847 29.776947 
L 127.710327 29.776697 
L 129.816807 29.797135 
L 131.923287 29.73363 
L 134.029767 29.72305 
L 136.136248 29.755349 
L 138.242728 29.752905 
L 140.349208 29.808265 
L 142.455688 29.773488 
L 144.562169 29.783352 
L 146.668649 29.824189 
L 148.775129 29.806929 
L 150.881609 29.799009 
L 152.988089 29.815878 
L 155.09457 29.774806 
L 157.20105 29.766162 
L 159.30753 29.75674 
L 161.41401 29.780598 
L 163.52049 29.791919 
L 165.626971 29.800065 
L 167.733451 29.773033 
L 169.839931 29.689675 
L 171.946411 29.725647 
L 174.052891 29.700335 
L 176.159372 29.734213 
L 178.265852 29.781295 
L 180.372332 29.842564 
L 182.478812 29.792914 
L 184.585292 29.803681 
L 186.691773 29.780518 
L 188.798253 29.713296 
L 190.904733 29.65331 
L 193.011213 29.634821 
L 195.117693 29.646104 
L 197.224174 29.640454 
L 199.330654 29.666976 
L 201.437134 29.687863 
L 203.543614 29.727949 
L 205.650094 29.733483 
L 207.756575 29.684288 
L 209.863055 29.682698 
L 211.969535 29.771432 
L 214.076015 29.737487 
L 216.182495 29.77729 
L 218.288976 29.830625 
L 220.395456 29.821248 
L 222.501936 29.740719 
L 224.608416 29.772381 
L 226.714896 29.777407 
L 228.821377 29.786527 
L 230.927857 29.806104 
L 233.034337 29.728231 
L 235.140817 29.725494 
L 237.247297 29.730963 
L 239.353778 29.666864 
L 241.460258 29.627482 
L 243.566738 29.631965 
L 245.673218 29.654487 
L 247.779698 29.675777 
L 249.886179 29.675128 
L 251.992659 29.7378 
L 254.099139 29.720145 
L 256.205619 29.693569 
L 258.312099 29.70745 
L 260.41858 29.670901 
L 262.52506 29.747876 
L 264.63154 29.797503 
L 266.73802 29.773357 
" clip-path="url(#p49eff5afe8)" style="fill: none; stroke: #8c564b; stroke-width: 1.5; stroke-linecap: square"/>
   </g>
   <g id="line2d_19">
    <path d="M 56.09 25.416613 
L 58.19648 25.443274 
L 60.30296 25.468202 
L 62.409441 25.454844 
L 64.515921 25.47841 
L 66.622401 25.463644 
L 68.728881 25.481903 
L 70.835361 25.469629 
L 72.941842 25.478419 
L 75.048322 25.456626 
L 77.154802 25.469331 
L 79.261282 25.504524 
L 81.367762 25.525262 
L 83.474243 25.522107 
L 85.580723 25.46748 
L 87.687203 25.447729 
L 89.793683 25.419554 
L 91.900163 25.374706 
L 94.006644 25.351968 
L 96.113124 25.327322 
L 98.219604 25.360323 
L 100.326084 25.333083 
L 102.432564 25.38849 
L 104.539045 25.371446 
L 106.645525 25.384798 
L 108.752005 25.391179 
L 110.858485 25.392946 
L 112.964965 25.417803 
L 115.071446 25.459385 
L 117.177926 25.457778 
L 119.284406 25.475528 
L 121.390886 25.469289 
L 123.497366 25.499592 
L 125.603847 25.437941 
L 127.710327 25.408814 
L 129.816807 25.424763 
L 131.923287 25.398094 
L 134.029767 25.409477 
L 136.136248 25.456782 
L 138.242728 25.461065 
L 140.349208 25.437043 
L 142.455688 25.404005 
L 144.562169 25.411836 
L 146.668649 25.37216 
L 148.775129 25.443464 
L 150.881609 25.462689 
L 152.988089 25.429206 
L 155.09457 25.432826 
L 157.20105 25.435595 
L 159.30753 25.437457 
L 161.41401 25.434638 
L 163.52049 25.422663 
L 165.626971 25.377939 
L 167.733451 25.423526 
L 169.839931 25.367092 
L 171.946411 25.376677 
L 174.052891 25.385604 
L 176.159372 25.404075 
L 178.265852 25.4178 
L 180.372332 25.413625 
L 182.478812 25.446132 
L 184.585292 25.42178 
L 186.691773 25.448707 
L 188.798253 25.46098 
L 190.904733 25.464269 
L 193.011213 25.512248 
L 195.117693 25.54866 
L 197.224174 25.498556 
L 199.330654 25.490181 
L 201.437134 25.444863 
L 203.543614 25.475017 
L 205.650094 25.443825 
L 207.756575 25.415518 
L 209.863055 25.424733 
L 211.969535 25.413507 
L 214.076015 25.451844 
L 216.182495 25.459622 
L 218.288976 25.426497 
L 220.395456 25.450877 
L 222.501936 25.468924 
L 224.608416 25.441027 
L 226.714896 25.46419 
L 228.821377 25.452531 
L 230.927857 25.44416 
L 233.034337 25.437197 
L 235.140817 25.433011 
L 237.247297 25.441759 
L 239.353778 25.443916 
L 241.460258 25.408183 
L 243.566738 25.411832 
L 245.673218 25.462925 
L 247.779698 25.459741 
L 249.886179 25.446064 
L 251.992659 25.419514 
L 254.099139 25.436677 
L 256.205619 25.425163 
L 258.312099 25.475064 
L 260.41858 25.447052 
L 262.52506 25.444869 
L 264.63154 25.452912 
L 266.73802 25.427487 
" clip-path="url(#p49eff5afe8)" style="fill: none; stroke: #e377c2; stroke-width: 1.5; stroke-linecap: square"/>
   </g>
   <g id="line2d_20">
    <path d="M 56.09 26.737052 
L 58.19648 26.829179 
L 60.30296 26.909705 
L 62.409441 26.832444 
L 64.515921 26.834595 
L 66.622401 26.829354 
L 68.728881 26.894465 
L 70.835361 26.898793 
L 72.941842 26.962884 
L 75.048322 26.958303 
L 77.154802 27.013879 
L 79.261282 27.061203 
L 81.367762 27.099456 
L 83.474243 27.004657 
L 85.580723 26.870316 
L 87.687203 26.870745 
L 89.793683 26.844735 
L 91.900163 26.602905 
L 94.006644 26.616525 
L 96.113124 26.59391 
L 98.219604 26.667466 
L 100.326084 26.663334 
L 102.432564 26.822784 
L 104.539045 26.699547 
L 106.645525 26.762122 
L 108.752005 26.813429 
L 110.858485 26.760007 
L 112.964965 26.888746 
L 115.071446 26.937655 
L 117.177926 27.006334 
L 119.284406 27.067207 
L 121.390886 27.025604 
L 123.497366 27.182511 
L 125.603847 27.013145 
L 127.710327 26.940376 
L 129.816807 26.958498 
L 131.923287 26.923862 
L 134.029767 26.955583 
L 136.136248 27.068762 
L 138.242728 27.065673 
L 140.349208 27.080782 
L 142.455688 27.065411 
L 144.562169 26.978763 
L 146.668649 26.702175 
L 148.775129 26.916396 
L 150.881609 26.920455 
L 152.988089 26.886049 
L 155.09457 26.824426 
L 157.20105 26.798348 
L 159.30753 26.822409 
L 161.41401 26.889919 
L 163.52049 26.885098 
L 165.626971 26.797655 
L 167.733451 26.802944 
L 169.839931 26.718824 
L 171.946411 26.724333 
L 174.052891 26.913482 
L 176.159372 26.849141 
L 178.265852 26.944441 
L 180.372332 26.910385 
L 182.478812 26.929066 
L 184.585292 26.868296 
L 186.691773 26.979294 
L 188.798253 26.889312 
L 190.904733 26.971699 
L 193.011213 27.056188 
L 195.117693 27.092638 
L 197.224174 27.015853 
L 199.330654 26.909083 
L 201.437134 26.743125 
L 203.543614 26.867861 
L 205.650094 26.751126 
L 207.756575 26.757297 
L 209.863055 26.74545 
L 211.969535 26.840843 
L 214.076015 26.822305 
L 216.182495 26.84119 
L 218.288976 26.908439 
L 220.395456 26.880837 
L 222.501936 26.86491 
L 224.608416 26.854537 
L 226.714896 26.916985 
L 228.821377 26.905331 
L 230.927857 26.896483 
L 233.034337 26.881744 
L 235.140817 26.74901 
L 237.247297 26.758692 
L 239.353778 26.774612 
L 241.460258 26.73774 
L 243.566738 26.758754 
L 245.673218 26.880816 
L 247.779698 26.974765 
L 249.886179 27.07149 
L 251.992659 26.934127 
L 254.099139 26.933285 
L 256.205619 26.96251 
L 258.312099 27.065404 
L 260.41858 27.006857 
L 262.52506 26.985726 
L 264.63154 26.960227 
L 266.73802 27.060228 
" clip-path="url(#p49eff5afe8)" style="fill: none; stroke: #7f7f7f; stroke-width: 1.5; stroke-linecap: square"/>
   </g>
   <g id="line2d_21">
    <path d="M 56.09 25.97582 
L 58.19648 26.109444 
L 60.30296 26.191461 
L 62.409441 26.220391 
L 64.515921 26.269489 
L 66.622401 26.319092 
L 68.728881 26.365309 
L 70.835361 26.373718 
L 72.941842 26.436958 
L 75.048322 26.463689 
L 77.154802 26.491313 
L 79.261282 26.58973 
L 81.367762 26.554851 
L 83.474243 26.504347 
L 85.580723 26.526304 
L 87.687203 26.457135 
L 89.793683 26.475317 
L 91.900163 26.394775 
L 94.006644 26.422194 
L 96.113124 26.444896 
L 98.219604 26.480503 
L 100.326084 26.460057 
L 102.432564 26.553342 
L 104.539045 26.532244 
L 106.645525 26.514464 
L 108.752005 26.558227 
L 110.858485 26.522994 
L 112.964965 26.531078 
L 115.071446 26.495289 
L 117.177926 26.548969 
L 119.284406 26.600711 
L 121.390886 26.612852 
L 123.497366 26.631226 
L 125.603847 26.584583 
L 127.710327 26.543844 
L 129.816807 26.564411 
L 131.923287 26.567172 
L 134.029767 26.610395 
L 136.136248 26.617819 
L 138.242728 26.624244 
L 140.349208 26.606351 
L 142.455688 26.605762 
L 144.562169 26.551849 
L 146.668649 26.463099 
L 148.775129 26.505786 
L 150.881609 26.481401 
L 152.988089 26.508292 
L 155.09457 26.555303 
L 157.20105 26.524171 
L 159.30753 26.513815 
L 161.41401 26.499527 
L 163.52049 26.530553 
L 165.626971 26.414086 
L 167.733451 26.384409 
L 169.839931 26.421502 
L 171.946411 26.39794 
L 174.052891 26.510682 
L 176.159372 26.500529 
L 178.265852 26.482459 
L 180.372332 26.460342 
L 182.478812 26.497085 
L 184.585292 26.504213 
L 186.691773 26.525881 
L 188.798253 26.578296 
L 190.904733 26.598791 
L 193.011213 26.559569 
L 195.117693 26.582674 
L 197.224174 26.535851 
L 199.330654 26.520152 
L 201.437134 26.54841 
L 203.543614 26.568875 
L 205.650094 26.528113 
L 207.756575 26.527191 
L 209.863055 26.543981 
L 211.969535 26.534523 
L 214.076015 26.518547 
L 216.182495 26.505495 
L 218.288976 26.500768 
L 220.395456 26.486601 
L 222.501936 26.490128 
L 224.608416 26.512401 
L 226.714896 26.562825 
L 228.821377 26.524747 
L 230.927857 26.514282 
L 233.034337 26.556673 
L 235.140817 26.562334 
L 237.247297 26.56094 
L 239.353778 26.658071 
L 241.460258 26.581892 
L 243.566738 26.614735 
L 245.673218 26.569952 
L 247.779698 26.530905 
L 249.886179 26.545324 
L 251.992659 26.550421 
L 254.099139 26.550962 
L 256.205619 26.568847 
L 258.312099 26.586023 
L 260.41858 26.588981 
L 262.52506 26.547117 
L 264.63154 26.536793 
L 266.73802 26.557562 
" clip-path="url(#p49eff5afe8)" style="fill: none; stroke: #bcbd22; stroke-width: 1.5; stroke-linecap: square"/>
   </g>
   <g id="line2d_22">
    <path d="M 56.09 25.01242 
L 58.19648 25.261652 
L 60.30296 25.487361 
L 62.409441 25.700016 
L 64.515921 25.779294 
L 66.622401 25.862855 
L 68.728881 25.959416 
L 70.835361 25.983804 
L 72.941842 26.042516 
L 75.048322 26.156445 
L 77.154802 26.224921 
L 79.261282 26.349404 
L 81.367762 26.297991 
L 83.474243 26.305429 
L 85.580723 26.393487 
L 87.687203 26.35665 
L 89.793683 26.346927 
L 91.900163 26.34407 
L 94.006644 26.362528 
L 96.113124 26.384654 
L 98.219604 26.438478 
L 100.326084 26.392212 
L 102.432564 26.46181 
L 104.539045 26.485794 
L 106.645525 26.387625 
L 108.752005 26.407594 
L 110.858485 26.416536 
L 112.964965 26.313109 
L 115.071446 26.222291 
L 117.177926 26.262769 
L 119.284406 26.267262 
L 121.390886 26.369988 
L 123.497366 26.394971 
L 125.603847 26.342534 
L 127.710327 26.329263 
L 129.816807 26.290639 
L 131.923287 26.329162 
L 134.029767 26.380816 
L 136.136248 26.311926 
L 138.242728 26.340709 
L 140.349208 26.307457 
L 142.455688 26.30852 
L 144.562169 26.246253 
L 146.668649 26.234521 
L 148.775129 26.216259 
L 150.881609 26.212466 
L 152.988089 26.186251 
L 155.09457 26.28707 
L 157.20105 26.27353 
L 159.30753 26.301192 
L 161.41401 26.279121 
L 163.52049 26.333094 
L 165.626971 26.270964 
L 167.733451 26.281747 
L 169.839931 26.467729 
L 171.946411 26.4338 
L 174.052891 26.510438 
L 176.159372 26.495235 
L 178.265852 26.342085 
L 180.372332 26.24709 
L 182.478812 26.300129 
L 184.585292 26.237766 
L 186.691773 26.278376 
L 188.798253 26.345762 
L 190.904733 26.360526 
L 193.011213 26.346996 
L 195.117693 26.377023 
L 197.224174 26.4317 
L 199.330654 26.384732 
L 201.437134 26.403784 
L 203.543614 26.341406 
L 205.650094 26.387596 
L 207.756575 26.396925 
L 209.863055 26.381484 
L 211.969535 26.28301 
L 214.076015 26.270446 
L 216.182495 26.249893 
L 218.288976 26.219571 
L 220.395456 26.181697 
L 222.501936 26.326401 
L 224.608416 26.269708 
L 226.714896 26.321502 
L 228.821377 26.259414 
L 230.927857 26.195548 
L 233.034337 26.304252 
L 235.140817 26.347679 
L 237.247297 26.340061 
L 239.353778 26.463008 
L 241.460258 26.451357 
L 243.566738 26.46634 
L 245.673218 26.376039 
L 247.779698 26.33568 
L 249.886179 26.327775 
L 251.992659 26.258703 
L 254.099139 26.283294 
L 256.205619 26.368707 
L 258.312099 26.322168 
L 260.41858 26.352842 
L 262.52506 26.216383 
L 264.63154 26.193543 
L 266.73802 26.242025 
" clip-path="url(#p49eff5afe8)" style="fill: none; stroke: #17becf; stroke-width: 1.5; stroke-linecap: square"/>
   </g>
   <g id="line2d_23">
    <path d="M 56.09 24.192697 
L 58.19648 24.234116 
L 60.30296 24.229282 
L 62.409441 24.290921 
L 64.515921 24.348567 
L 66.622401 24.341493 
L 68.728881 24.306948 
L 70.835361 24.278095 
L 72.941842 24.262832 
L 75.048322 24.223116 
L 77.154802 24.2413 
L 79.261282 24.257441 
L 81.367762 24.283458 
L 83.474243 24.335088 
L 85.580723 24.353312 
L 87.687203 24.302133 
L 89.793683 24.298754 
L 91.900163 24.395128 
L 94.006644 24.340225 
L 96.113124 24.305501 
L 98.219604 24.254456 
L 100.326084 24.177578 
L 102.432564 24.158359 
L 104.539045 24.234875 
L 106.645525 24.225827 
L 108.752005 24.197297 
L 110.858485 24.231646 
L 112.964965 24.201732 
L 115.071446 24.248306 
L 117.177926 24.2056 
L 119.284406 24.189373 
L 121.390886 24.192381 
L 123.497366 24.188917 
L 125.603847 24.215942 
L 127.710327 24.19677 
L 129.816807 24.1942 
L 131.923287 24.176478 
L 134.029767 24.152673 
L 136.136248 24.156114 
L 138.242728 24.165089 
L 140.349208 24.120967 
L 142.455688 24.082727 
L 144.562169 24.160352 
L 146.668649 24.246337 
L 148.775129 24.222605 
L 150.881609 24.271983 
L 152.988089 24.254678 
L 155.09457 24.32134 
L 157.20105 24.344247 
L 159.30753 24.310205 
L 161.41401 24.297734 
L 163.52049 24.300442 
L 165.626971 24.294209 
L 167.733451 24.335993 
L 169.839931 24.293172 
L 171.946411 24.313954 
L 174.052891 24.207678 
L 176.159372 24.274261 
L 178.265852 24.233941 
L 180.372332 24.25401 
L 182.478812 24.299082 
L 184.585292 24.282445 
L 186.691773 24.272751 
L 188.798253 24.324934 
L 190.904733 24.294449 
L 193.011213 24.298106 
L 195.117693 24.315258 
L 197.224174 24.289907 
L 199.330654 24.336087 
L 201.437134 24.363861 
L 203.543614 24.368451 
L 205.650094 24.413263 
L 207.756575 24.347667 
L 209.863055 24.362191 
L 211.969535 24.309974 
L 214.076015 24.38652 
L 216.182495 24.401019 
L 218.288976 24.308622 
L 220.395456 24.367064 
L 222.501936 24.398176 
L 224.608416 24.359995 
L 226.714896 24.334509 
L 228.821377 24.328989 
L 230.927857 24.278932 
L 233.034337 24.242203 
L 235.140817 24.301764 
L 237.247297 24.313407 
L 239.353778 24.333032 
L 241.460258 24.327724 
L 243.566738 24.294675 
L 245.673218 24.310564 
L 247.779698 24.236906 
L 249.886179 24.147082 
L 251.992659 24.216277 
L 254.099139 24.281779 
L 256.205619 24.248191 
L 258.312099 24.268249 
L 260.41858 24.238191 
L 262.52506 24.199501 
L 264.63154 24.214247 
L 266.73802 24.144643 
" clip-path="url(#p49eff5afe8)" style="fill: none; stroke: #1f77b4; stroke-width: 1.5; stroke-linecap: square"/>
   </g>
   <g id="line2d_24">
    <path d="M 56.09 24.454769 
L 58.19648 24.45618 
L 60.30296 24.428907 
L 62.409441 24.457911 
L 64.515921 24.459775 
L 66.622401 24.463027 
L 68.728881 24.463261 
L 70.835361 24.486908 
L 72.941842 24.506437 
L 75.048322 24.445903 
L 77.154802 24.487441 
L 79.261282 24.481065 
L 81.367762 24.492902 
L 83.474243 24.46802 
L 85.580723 24.467599 
L 87.687203 24.442108 
L 89.793683 24.473351 
L 91.900163 24.486037 
L 94.006644 24.477087 
L 96.113124 24.483073 
L 98.219604 24.471164 
L 100.326084 24.430714 
L 102.432564 24.384277 
L 104.539045 24.403869 
L 106.645525 24.401298 
L 108.752005 24.399153 
L 110.858485 24.404069 
L 112.964965 24.389138 
L 115.071446 24.43214 
L 117.177926 24.401859 
L 119.284406 24.378099 
L 121.390886 24.363764 
L 123.497366 24.369003 
L 125.603847 24.369939 
L 127.710327 24.373485 
L 129.816807 24.409526 
L 131.923287 24.437941 
L 134.029767 24.427771 
L 136.136248 24.408435 
L 138.242728 24.434349 
L 140.349208 24.442868 
L 142.455688 24.447707 
L 144.562169 24.466861 
L 146.668649 24.466749 
L 148.775129 24.429429 
L 150.881609 24.478932 
L 152.988089 24.48679 
L 155.09457 24.485309 
L 157.20105 24.496593 
L 159.30753 24.46966 
L 161.41401 24.465154 
L 163.52049 24.490839 
L 165.626971 24.482065 
L 167.733451 24.467422 
L 169.839931 24.470143 
L 171.946411 24.430522 
L 174.052891 24.433886 
L 176.159372 24.419336 
L 178.265852 24.433404 
L 180.372332 24.438552 
L 182.478812 24.471438 
L 184.585292 24.480113 
L 186.691773 24.483279 
L 188.798253 24.481829 
L 190.904733 24.468848 
L 193.011213 24.451144 
L 195.117693 24.449607 
L 197.224174 24.400629 
L 199.330654 24.439908 
L 201.437134 24.47483 
L 203.543614 24.490397 
L 205.650094 24.49662 
L 207.756575 24.468602 
L 209.863055 24.506651 
L 211.969535 24.529247 
L 214.076015 24.531129 
L 216.182495 24.520176 
L 218.288976 24.508539 
L 220.395456 24.540222 
L 222.501936 24.490093 
L 224.608416 24.476233 
L 226.714896 24.48551 
L 228.821377 24.488789 
L 230.927857 24.482364 
L 233.034337 24.492531 
L 235.140817 24.485817 
L 237.247297 24.478477 
L 239.353778 24.485028 
L 241.460258 24.433884 
L 243.566738 24.443696 
L 245.673218 24.441619 
L 247.779698 24.418721 
L 249.886179 24.387226 
L 251.992659 24.399029 
L 254.099139 24.406666 
L 256.205619 24.420146 
L 258.312099 24.412715 
L 260.41858 24.394306 
L 262.52506 24.413936 
L 264.63154 24.401469 
L 266.73802 24.433966 
" clip-path="url(#p49eff5afe8)" style="fill: none; stroke: #ff7f0e; stroke-width: 1.5; stroke-linecap: square"/>
   </g>
   <g id="line2d_25">
    <path d="M 56.09 24.665737 
L 58.19648 24.66615 
L 60.30296 24.666543 
L 62.409441 24.691561 
L 64.515921 24.706986 
L 66.622401 24.688181 
L 68.728881 24.664029 
L 70.835361 24.659953 
L 72.941842 24.643879 
L 75.048322 24.652311 
L 77.154802 24.687393 
L 79.261282 24.717848 
L 81.367762 24.712721 
L 83.474243 24.718179 
L 85.580723 24.698883 
L 87.687203 24.678675 
L 89.793683 24.705632 
L 91.900163 24.719505 
L 94.006644 24.720079 
L 96.113124 24.724051 
L 98.219604 24.721899 
L 100.326084 24.69918 
L 102.432564 24.677304 
L 104.539045 24.693708 
L 106.645525 24.686651 
L 108.752005 24.688534 
L 110.858485 24.716952 
L 112.964965 24.706207 
L 115.071446 24.724012 
L 117.177926 24.698889 
L 119.284406 24.690655 
L 121.390886 24.663842 
L 123.497366 24.659717 
L 125.603847 24.663951 
L 127.710327 24.669391 
L 129.816807 24.682912 
L 131.923287 24.698472 
L 134.029767 24.680652 
L 136.136248 24.679462 
L 138.242728 24.695545 
L 140.349208 24.668227 
L 142.455688 24.624148 
L 144.562169 24.654399 
L 146.668649 24.693527 
L 148.775129 24.682463 
L 150.881609 24.681022 
L 152.988089 24.668767 
L 155.09457 24.683239 
L 157.20105 24.669043 
L 159.30753 24.670365 
L 161.41401 24.682633 
L 163.52049 24.68192 
L 165.626971 24.676903 
L 167.733451 24.715094 
L 169.839931 24.704768 
L 171.946411 24.728288 
L 174.052891 24.695955 
L 176.159372 24.698415 
L 178.265852 24.699663 
L 180.372332 24.683696 
L 182.478812 24.692364 
L 184.585292 24.693293 
L 186.691773 24.697543 
L 188.798253 24.729832 
L 190.904733 24.734432 
L 193.011213 24.747486 
L 195.117693 24.770298 
L 197.224174 24.772574 
L 199.330654 24.766025 
L 201.437134 24.779175 
L 203.543614 24.787275 
L 205.650094 24.760844 
L 207.756575 24.744606 
L 209.863055 24.748335 
L 211.969535 24.724002 
L 214.076015 24.723587 
L 216.182495 24.729361 
L 218.288976 24.719612 
L 220.395456 24.762168 
L 222.501936 24.768455 
L 224.608416 24.745614 
L 226.714896 24.739464 
L 228.821377 24.743744 
L 230.927857 24.715054 
L 233.034337 24.705929 
L 235.140817 24.73093 
L 237.247297 24.734021 
L 239.353778 24.721654 
L 241.460258 24.725184 
L 243.566738 24.707747 
L 245.673218 24.7337 
L 247.779698 24.711364 
L 249.886179 24.659324 
L 251.992659 24.683961 
L 254.099139 24.713066 
L 256.205619 24.707718 
L 258.312099 24.731523 
L 260.41858 24.759225 
L 262.52506 24.731607 
L 264.63154 24.716589 
L 266.73802 24.668122 
" clip-path="url(#p49eff5afe8)" style="fill: none; stroke: #2ca02c; stroke-width: 1.5; stroke-linecap: square"/>
   </g>
   <g id="line2d_26">
    <path d="M 56.09 24.428106 
L 58.19648 24.390336 
L 60.30296 24.376305 
L 62.409441 24.402482 
L 64.515921 24.40748 
L 66.622401 24.408721 
L 68.728881 24.390146 
L 70.835361 24.398984 
L 72.941842 24.382391 
L 75.048322 24.377196 
L 77.154802 24.348883 
L 79.261282 24.338618 
L 81.367762 24.325935 
L 83.474243 24.356789 
L 85.580723 24.383638 
L 87.687203 24.388961 
L 89.793683 24.385594 
L 91.900163 24.447929 
L 94.006644 24.454176 
L 96.113124 24.477291 
L 98.219604 24.47154 
L 100.326084 24.471358 
L 102.432564 24.408084 
L 104.539045 24.442849 
L 106.645525 24.442606 
L 108.752005 24.417772 
L 110.858485 24.441494 
L 112.964965 24.382773 
L 115.071446 24.364376 
L 117.177926 24.335506 
L 119.284406 24.329382 
L 121.390886 24.331889 
L 123.497366 24.274062 
L 125.603847 24.338469 
L 127.710327 24.36334 
L 129.816807 24.36259 
L 131.923287 24.384576 
L 134.029767 24.383917 
L 136.136248 24.336643 
L 138.242728 24.351159 
L 140.349208 24.367008 
L 142.455688 24.365541 
L 144.562169 24.385067 
L 146.668649 24.462468 
L 148.775129 24.391725 
L 150.881609 24.38816 
L 152.988089 24.386404 
L 155.09457 24.409122 
L 157.20105 24.428068 
L 159.30753 24.408964 
L 161.41401 24.371458 
L 163.52049 24.35651 
L 165.626971 24.384759 
L 167.733451 24.382426 
L 169.839931 24.414069 
L 171.946411 24.418123 
L 174.052891 24.361013 
L 176.159372 24.378156 
L 178.265852 24.34487 
L 180.372332 24.363708 
L 182.478812 24.358382 
L 184.585292 24.379522 
L 186.691773 24.338183 
L 188.798253 24.357121 
L 190.904733 24.354225 
L 193.011213 24.335664 
L 195.117693 24.316288 
L 197.224174 24.333535 
L 199.330654 24.353476 
L 201.437134 24.410435 
L 203.543614 24.363125 
L 205.650094 24.398844 
L 207.756575 24.395911 
L 209.863055 24.400613 
L 211.969535 24.370605 
L 214.076015 24.381933 
L 216.182495 24.367667 
L 218.288976 24.357612 
L 220.395456 24.362798 
L 222.501936 24.372541 
L 224.608416 24.393478 
L 226.714896 24.383318 
L 228.821377 24.387744 
L 230.927857 24.403951 
L 233.034337 24.404364 
L 235.140817 24.437582 
L 237.247297 24.429522 
L 239.353778 24.3996 
L 241.460258 24.397898 
L 243.566738 24.397912 
L 245.673218 24.357222 
L 247.779698 24.328372 
L 249.886179 24.323321 
L 251.992659 24.359997 
L 254.099139 24.355432 
L 256.205619 24.35921 
L 258.312099 24.334161 
L 260.41858 24.361684 
L 262.52506 24.375942 
L 264.63154 24.373911 
L 266.73802 24.342525 
" clip-path="url(#p49eff5afe8)" style="fill: none; stroke: #d62728; stroke-width: 1.5; stroke-linecap: square"/>
   </g>
   <g id="line2d_27">
    <path d="M 56.09 25.80939 
L 58.19648 25.695979 
L 60.30296 25.523394 
L 62.409441 25.449252 
L 64.515921 25.387602 
L 66.622401 25.389717 
L 68.728881 25.2924 
L 70.835361 25.338366 
L 72.941842 25.304691 
L 75.048322 25.312702 
L 77.154802 25.312369 
L 79.261282 25.293463 
L 81.367762 25.299038 
L 83.474243 25.318263 
L 85.580723 25.343657 
L 87.687203 25.230843 
L 89.793683 25.294105 
L 91.900163 25.315837 
L 94.006644 25.327961 
L 96.113124 25.351446 
L 98.219604 25.346651 
L 100.326084 25.320892 
L 102.432564 25.245454 
L 104.539045 25.23805 
L 106.645525 25.228606 
L 108.752005 25.249708 
L 110.858485 25.270211 
L 112.964965 25.270637 
L 115.071446 25.304288 
L 117.177926 25.206994 
L 119.284406 25.149869 
L 121.390886 25.134713 
L 123.497366 25.098077 
L 125.603847 25.173479 
L 127.710327 25.206222 
L 129.816807 25.21309 
L 131.923287 25.272958 
L 134.029767 25.164999 
L 136.136248 25.234484 
L 138.242728 25.26489 
L 140.349208 25.267419 
L 142.455688 25.283316 
L 144.562169 25.347796 
L 146.668649 25.384825 
L 148.775129 25.38514 
L 150.881609 25.379471 
L 152.988089 25.412291 
L 155.09457 25.3727 
L 157.20105 25.386272 
L 159.30753 25.330533 
L 161.41401 25.271719 
L 163.52049 25.304009 
L 165.626971 25.230724 
L 167.733451 25.266464 
L 169.839931 25.231951 
L 171.946411 25.195895 
L 174.052891 25.160845 
L 176.159372 25.169534 
L 178.265852 25.218115 
L 180.372332 25.19543 
L 182.478812 25.237267 
L 184.585292 25.303433 
L 186.691773 25.25592 
L 188.798253 25.375754 
L 190.904733 25.33654 
L 193.011213 25.276055 
L 195.117693 25.355176 
L 197.224174 25.214759 
L 199.330654 25.289837 
L 201.437134 25.405871 
L 203.543614 25.467395 
L 205.650094 25.397499 
L 207.756575 25.318674 
L 209.863055 25.441095 
L 211.969535 25.44215 
L 214.076015 25.427673 
L 216.182495 25.348183 
L 218.288976 25.324855 
L 220.395456 25.416747 
L 222.501936 25.310774 
L 224.608416 25.285672 
L 226.714896 25.334213 
L 228.821377 25.371706 
L 230.927857 25.349717 
L 233.034337 25.409272 
L 235.140817 25.434067 
L 237.247297 25.453119 
L 239.353778 25.454057 
L 241.460258 25.363785 
L 243.566738 25.402089 
L 245.673218 25.302797 
L 247.779698 25.299846 
L 249.886179 25.249998 
L 251.992659 25.326938 
L 254.099139 25.329573 
L 256.205619 25.284756 
L 258.312099 25.322731 
L 260.41858 25.312663 
L 262.52506 25.399499 
L 264.63154 25.370646 
L 266.73802 25.343667 
" clip-path="url(#p49eff5afe8)" style="fill: none; stroke: #9467bd; stroke-width: 1.5; stroke-linecap: square"/>
   </g>
   <g id="line2d_28">
    <path d="M 56.09 24.743368 
L 58.19648 24.632764 
L 60.30296 24.546931 
L 62.409441 24.56677 
L 64.515921 24.537645 
L 66.622401 24.616242 
L 68.728881 24.661251 
L 70.835361 24.556609 
L 72.941842 24.572703 
L 75.048322 24.534458 
L 77.154802 24.392671 
L 79.261282 24.268506 
L 81.367762 24.292194 
L 83.474243 24.278397 
L 85.580723 24.362719 
L 87.687203 24.381163 
L 89.793683 24.495851 
L 91.900163 24.476709 
L 94.006644 24.541684 
L 96.113124 24.544793 
L 98.219604 24.52311 
L 100.326084 24.552267 
L 102.432564 24.518091 
L 104.539045 24.594457 
L 106.645525 24.55924 
L 108.752005 24.482107 
L 110.858485 24.564813 
L 112.964965 24.655579 
L 115.071446 24.509439 
L 117.177926 24.521115 
L 119.284406 24.480997 
L 121.390886 24.387293 
L 123.497366 24.443984 
L 125.603847 24.448585 
L 127.710327 24.344469 
L 129.816807 24.299281 
L 131.923287 24.410065 
L 134.029767 24.523989 
L 136.136248 24.49964 
L 138.242728 24.565255 
L 140.349208 24.473089 
L 142.455688 24.569827 
L 144.562169 24.590853 
L 146.668649 24.493481 
L 148.775129 24.480054 
L 150.881609 24.503606 
L 152.988089 24.477072 
L 155.09457 24.507392 
L 157.20105 24.44153 
L 159.30753 24.391373 
L 161.41401 24.384323 
L 163.52049 24.242195 
L 165.626971 24.238883 
L 167.733451 24.332151 
L 169.839931 24.355099 
L 171.946411 24.390634 
L 174.052891 24.370746 
L 176.159372 24.389445 
L 178.265852 24.361149 
L 180.372332 24.389247 
L 182.478812 24.450122 
L 184.585292 24.442393 
L 186.691773 24.475229 
L 188.798253 24.440452 
L 190.904733 24.45665 
L 193.011213 24.436531 
L 195.117693 24.347683 
L 197.224174 24.383394 
L 199.330654 24.344258 
L 201.437134 24.300794 
L 203.543614 24.256711 
L 205.650094 24.236469 
L 207.756575 24.164336 
L 209.863055 24.219289 
L 211.969535 24.243648 
L 214.076015 24.269731 
L 216.182495 24.295213 
L 218.288976 24.359621 
L 220.395456 24.376532 
L 222.501936 24.402648 
L 224.608416 24.445255 
L 226.714896 24.452577 
L 228.821377 24.523474 
L 230.927857 24.499273 
L 233.034337 24.492916 
L 235.140817 24.5244 
L 237.247297 24.571543 
L 239.353778 24.465011 
L 241.460258 24.465335 
L 243.566738 24.4633 
L 245.673218 24.465324 
L 247.779698 24.396597 
L 249.886179 24.425269 
L 251.992659 24.380536 
L 254.099139 24.362527 
L 256.205619 24.408517 
L 258.312099 24.488635 
L 260.41858 24.391337 
L 262.52506 24.385789 
L 264.63154 24.503673 
L 266.73802 24.472155 
" clip-path="url(#p49eff5afe8)" style="fill: none; stroke: #8c564b; stroke-width: 1.5; stroke-linecap: square"/>
   </g>
   <g id="line2d_29">
    <path d="M 56.09 24.062437 
L 58.19648 24.026658 
L 60.30296 23.988973 
L 62.409441 23.967369 
L 64.515921 24.004085 
L 66.622401 24.048621 
L 68.728881 24.056877 
L 70.835361 24.013332 
L 72.941842 23.993892 
L 75.048322 23.992813 
L 77.154802 23.904959 
L 79.261282 23.864153 
L 81.367762 23.851011 
L 83.474243 23.892529 
L 85.580723 23.957621 
L 87.687203 24.016765 
L 89.793683 24.023724 
L 91.900163 24.046046 
L 94.006644 24.060601 
L 96.113124 24.025449 
L 98.219604 23.990376 
L 100.326084 24.011604 
L 102.432564 24.017966 
L 104.539045 24.028361 
L 106.645525 24.049886 
L 108.752005 24.041671 
L 110.858485 24.062948 
L 112.964965 24.107823 
L 115.071446 24.001053 
L 117.177926 24.011938 
L 119.284406 24.036161 
L 121.390886 23.998068 
L 123.497366 24.044102 
L 125.603847 24.030056 
L 127.710327 23.98375 
L 129.816807 23.946437 
L 131.923287 23.973824 
L 134.029767 24.002007 
L 136.136248 24.006888 
L 138.242728 24.043919 
L 140.349208 23.947729 
L 142.455688 23.968527 
L 144.562169 23.98957 
L 146.668649 23.936297 
L 148.775129 23.975988 
L 150.881609 23.99191 
L 152.988089 23.989336 
L 155.09457 24.013529 
L 157.20105 24.02642 
L 159.30753 23.984405 
L 161.41401 23.998201 
L 163.52049 23.918944 
L 165.626971 23.961886 
L 167.733451 24.002481 
L 169.839931 23.979153 
L 171.946411 23.978439 
L 174.052891 23.961139 
L 176.159372 24.002993 
L 178.265852 23.95193 
L 180.372332 23.962554 
L 182.478812 23.95296 
L 184.585292 23.958096 
L 186.691773 23.985086 
L 188.798253 23.961941 
L 190.904733 23.981816 
L 193.011213 23.977382 
L 195.117693 23.946007 
L 197.224174 23.946881 
L 199.330654 23.931047 
L 201.437134 23.889695 
L 203.543614 23.854151 
L 205.650094 23.860452 
L 207.756575 23.855978 
L 209.863055 23.858977 
L 211.969535 23.822587 
L 214.076015 23.874369 
L 216.182495 23.87909 
L 218.288976 23.869553 
L 220.395456 23.881588 
L 222.501936 23.913665 
L 224.608416 23.945946 
L 226.714896 23.918602 
L 228.821377 23.93697 
L 230.927857 23.910006 
L 233.034337 23.905883 
L 235.140817 23.979703 
L 237.247297 23.999172 
L 239.353778 23.977543 
L 241.460258 23.985282 
L 243.566738 23.984398 
L 245.673218 24.019551 
L 247.779698 23.998868 
L 249.886179 24.007874 
L 251.992659 23.963874 
L 254.099139 23.965207 
L 256.205619 23.952004 
L 258.312099 24.048132 
L 260.41858 23.987573 
L 262.52506 23.981536 
L 264.63154 24.021374 
L 266.73802 24.000658 
" clip-path="url(#p49eff5afe8)" style="fill: none; stroke: #e377c2; stroke-width: 1.5; stroke-linecap: square"/>
   </g>
   <g id="line2d_30">
    <path d="M 56.09 23.909468 
L 58.19648 23.934939 
L 60.30296 23.963316 
L 62.409441 24.009181 
L 64.515921 24.039609 
L 66.622401 24.122528 
L 68.728881 24.161631 
L 70.835361 24.15301 
L 72.941842 24.138865 
L 75.048322 24.119355 
L 77.154802 24.105221 
L 79.261282 24.062235 
L 81.367762 24.065285 
L 83.474243 24.057031 
L 85.580723 24.076577 
L 87.687203 24.126219 
L 89.793683 24.160263 
L 91.900163 24.156135 
L 94.006644 24.195455 
L 96.113124 24.177152 
L 98.219604 24.125163 
L 100.326084 24.18834 
L 102.432564 24.154766 
L 104.539045 24.141082 
L 106.645525 24.18842 
L 108.752005 24.178251 
L 110.858485 24.174357 
L 112.964965 24.217466 
L 115.071446 24.165226 
L 117.177926 24.146419 
L 119.284406 24.127707 
L 121.390886 24.124513 
L 123.497366 24.148897 
L 125.603847 24.10715 
L 127.710327 24.074638 
L 129.816807 24.099775 
L 131.923287 24.144831 
L 134.029767 24.144113 
L 136.136248 24.12395 
L 138.242728 24.150898 
L 140.349208 24.113194 
L 142.455688 24.134104 
L 144.562169 24.144258 
L 146.668649 24.154009 
L 148.775129 24.161298 
L 150.881609 24.162103 
L 152.988089 24.150574 
L 155.09457 24.143386 
L 157.20105 24.144621 
L 159.30753 24.16482 
L 161.41401 24.17297 
L 163.52049 24.093866 
L 165.626971 24.077484 
L 167.733451 24.115573 
L 169.839931 24.104085 
L 171.946411 24.149326 
L 174.052891 24.141237 
L 176.159372 24.170093 
L 178.265852 24.156197 
L 180.372332 24.11797 
L 182.478812 24.119117 
L 184.585292 24.172469 
L 186.691773 24.182988 
L 188.798253 24.15893 
L 190.904733 24.145523 
L 193.011213 24.163699 
L 195.117693 24.16718 
L 197.224174 24.153587 
L 199.330654 24.097144 
L 201.437134 24.087734 
L 203.543614 24.063572 
L 205.650094 24.076438 
L 207.756575 24.058683 
L 209.863055 24.068083 
L 211.969535 24.097609 
L 214.076015 24.118821 
L 216.182495 24.099707 
L 218.288976 24.089237 
L 220.395456 24.130166 
L 222.501936 24.119938 
L 224.608416 24.194171 
L 226.714896 24.196212 
L 228.821377 24.1986 
L 230.927857 24.207439 
L 233.034337 24.198677 
L 235.140817 24.214369 
L 237.247297 24.200708 
L 239.353778 24.17701 
L 241.460258 24.186797 
L 243.566738 24.165166 
L 245.673218 24.230613 
L 247.779698 24.193756 
L 249.886179 24.193053 
L 251.992659 24.145971 
L 254.099139 24.114473 
L 256.205619 24.135303 
L 258.312099 24.176211 
L 260.41858 24.1187 
L 262.52506 24.118924 
L 264.63154 24.162815 
L 266.73802 24.201927 
" clip-path="url(#p49eff5afe8)" style="fill: none; stroke: #7f7f7f; stroke-width: 1.5; stroke-linecap: square"/>
   </g>
   <g id="line2d_31">
    <path d="M 56.09 23.692689 
L 58.19648 23.675261 
L 60.30296 23.655957 
L 62.409441 23.601299 
L 64.515921 23.584811 
L 66.622401 23.592421 
L 68.728881 23.650061 
L 70.835361 23.541715 
L 72.941842 23.515869 
L 75.048322 23.417242 
L 77.154802 23.373251 
L 79.261282 23.362615 
L 81.367762 23.308061 
L 83.474243 23.321294 
L 85.580723 23.330821 
L 87.687203 23.421116 
L 89.793683 23.407104 
L 91.900163 23.454503 
L 94.006644 23.478684 
L 96.113124 23.47029 
L 98.219604 23.434005 
L 100.326084 23.471787 
L 102.432564 23.462194 
L 104.539045 23.462514 
L 106.645525 23.488442 
L 108.752005 23.457021 
L 110.858485 23.519321 
L 112.964965 23.578672 
L 115.071446 23.462364 
L 117.177926 23.524716 
L 119.284406 23.576995 
L 121.390886 23.559736 
L 123.497366 23.604269 
L 125.603847 23.510434 
L 127.710327 23.439259 
L 129.816807 23.424373 
L 131.923287 23.473179 
L 134.029767 23.531362 
L 136.136248 23.474253 
L 138.242728 23.517673 
L 140.349208 23.343768 
L 142.455688 23.329313 
L 144.562169 23.313278 
L 146.668649 23.243939 
L 148.775129 23.26992 
L 150.881609 23.295934 
L 152.988089 23.318154 
L 155.09457 23.345979 
L 157.20105 23.356373 
L 159.30753 23.401461 
L 161.41401 23.470006 
L 163.52049 23.345299 
L 165.626971 23.407711 
L 167.733451 23.440285 
L 169.839931 23.451535 
L 171.946411 23.473833 
L 174.052891 23.44916 
L 176.159372 23.492823 
L 178.265852 23.433325 
L 180.372332 23.408686 
L 182.478812 23.404021 
L 184.585292 23.415435 
L 186.691773 23.489319 
L 188.798253 23.407032 
L 190.904733 23.433377 
L 193.011213 23.519833 
L 195.117693 23.474295 
L 197.224174 23.470429 
L 199.330654 23.406867 
L 201.437134 23.290734 
L 203.543614 23.195274 
L 205.650094 23.237701 
L 207.756575 23.319052 
L 209.863055 23.232238 
L 211.969535 23.196354 
L 214.076015 23.279014 
L 216.182495 23.3112 
L 218.288976 23.290085 
L 220.395456 23.254545 
L 222.501936 23.314625 
L 224.608416 23.399695 
L 226.714896 23.304502 
L 228.821377 23.294896 
L 230.927857 23.332283 
L 233.034337 23.272123 
L 235.140817 23.315643 
L 237.247297 23.308522 
L 239.353778 23.324723 
L 241.460258 23.382733 
L 243.566738 23.411303 
L 245.673218 23.553311 
L 247.779698 23.494474 
L 249.886179 23.492887 
L 251.992659 23.361591 
L 254.099139 23.353005 
L 256.205619 23.393688 
L 258.312099 23.493513 
L 260.41858 23.486022 
L 262.52506 23.418327 
L 264.63154 23.467922 
L 266.73802 23.482707 
" clip-path="url(#p49eff5afe8)" style="fill: none; stroke: #bcbd22; stroke-width: 1.5; stroke-linecap: square"/>
   </g>
   <g id="line2d_32">
    <path d="M 56.09 24.836595 
L 58.19648 24.871158 
L 60.30296 24.930884 
L 62.409441 24.942547 
L 64.515921 24.921798 
L 66.622401 24.917556 
L 68.728881 24.907599 
L 70.835361 24.913991 
L 72.941842 24.907632 
L 75.048322 24.88442 
L 77.154802 24.937584 
L 79.261282 24.938834 
L 81.367762 24.929525 
L 83.474243 24.920291 
L 85.580723 24.913695 
L 87.687203 24.915385 
L 89.793683 24.872051 
L 91.900163 24.874437 
L 94.006644 24.889212 
L 96.113124 24.879507 
L 98.219604 24.892569 
L 100.326084 24.8982 
L 102.432564 24.917745 
L 104.539045 24.885803 
L 106.645525 24.904061 
L 108.752005 24.93251 
L 110.858485 24.901016 
L 112.964965 24.906495 
L 115.071446 24.908188 
L 117.177926 24.879891 
L 119.284406 24.892045 
L 121.390886 24.94837 
L 123.497366 24.93969 
L 125.603847 24.921648 
L 127.710327 24.935725 
L 129.816807 24.943354 
L 131.923287 24.934619 
L 134.029767 24.856175 
L 136.136248 24.869232 
L 138.242728 24.85392 
L 140.349208 24.883685 
L 142.455688 24.856149 
L 144.562169 24.838809 
L 146.668649 24.871337 
L 148.775129 24.85147 
L 150.881609 24.833219 
L 152.988089 24.87088 
L 155.09457 24.821642 
L 157.20105 24.838184 
L 159.30753 24.891288 
L 161.41401 24.879721 
L 163.52049 24.892902 
L 165.626971 24.878821 
L 167.733451 24.874013 
L 169.839931 24.859912 
L 171.946411 24.870025 
L 174.052891 24.858971 
L 176.159372 24.891895 
L 178.265852 24.917076 
L 180.372332 24.903936 
L 182.478812 24.886995 
L 184.585292 24.923353 
L 186.691773 24.8987 
L 188.798253 24.907556 
L 190.904733 24.878552 
L 193.011213 24.894904 
L 195.117693 24.937251 
L 197.224174 24.931326 
L 199.330654 24.953044 
L 201.437134 24.947929 
L 203.543614 24.9657 
L 205.650094 24.958252 
L 207.756575 25.019855 
L 209.863055 24.98281 
L 211.969535 24.942883 
L 214.076015 24.949666 
L 216.182495 24.913422 
L 218.288976 24.914005 
L 220.395456 24.914242 
L 222.501936 24.903635 
L 224.608416 24.938251 
L 226.714896 24.940563 
L 228.821377 24.937715 
L 230.927857 24.987485 
L 233.034337 24.958833 
L 235.140817 24.920782 
L 237.247297 24.872178 
L 239.353778 24.930068 
L 241.460258 24.947956 
L 243.566738 24.969311 
L 245.673218 24.972983 
L 247.779698 24.978837 
L 249.886179 24.978047 
L 251.992659 24.991395 
L 254.099139 24.969083 
L 256.205619 24.952792 
L 258.312099 24.934748 
L 260.41858 24.940072 
L 262.52506 24.95785 
L 264.63154 24.934718 
L 266.73802 24.987505 
" clip-path="url(#p49eff5afe8)" style="fill: none; stroke: #17becf; stroke-width: 1.5; stroke-linecap: square"/>
   </g>
   <g id="line2d_33">
    <path d="M 56.09 24.745058 
L 58.19648 24.768577 
L 60.30296 24.843711 
L 62.409441 24.854626 
L 64.515921 24.889378 
L 66.622401 24.826672 
L 68.728881 24.80386 
L 70.835361 24.890756 
L 72.941842 24.8813 
L 75.048322 24.850407 
L 77.154802 24.975443 
L 79.261282 25.003541 
L 81.367762 24.967565 
L 83.474243 24.950371 
L 85.580723 24.906347 
L 87.687203 24.982133 
L 89.793683 24.887432 
L 91.900163 24.890593 
L 94.006644 24.881661 
L 96.113124 24.79999 
L 98.219604 24.835646 
L 100.326084 24.824945 
L 102.432564 24.894053 
L 104.539045 24.811599 
L 106.645525 24.864201 
L 108.752005 24.961369 
L 110.858485 24.850364 
L 112.964965 24.847476 
L 115.071446 24.880757 
L 117.177926 24.854068 
L 119.284406 24.911068 
L 121.390886 24.99054 
L 123.497366 24.995303 
L 125.603847 24.920159 
L 127.710327 24.988795 
L 129.816807 25.053186 
L 131.923287 25.00323 
L 134.029767 24.853276 
L 136.136248 24.858825 
L 138.242728 24.844186 
L 140.349208 24.879107 
L 142.455688 24.78772 
L 144.562169 24.745998 
L 146.668649 24.797946 
L 148.775129 24.764023 
L 150.881609 24.777502 
L 152.988089 24.82158 
L 155.09457 24.751004 
L 157.20105 24.810778 
L 159.30753 24.88291 
L 161.41401 24.881815 
L 163.52049 24.962836 
L 165.626971 24.983085 
L 167.733451 24.945045 
L 169.839931 24.901718 
L 171.946411 24.828823 
L 174.052891 24.838762 
L 176.159372 24.883747 
L 178.265852 24.915213 
L 180.372332 24.915287 
L 182.478812 24.832475 
L 184.585292 24.877911 
L 186.691773 24.869937 
L 188.798253 24.884423 
L 190.904733 24.83434 
L 193.011213 24.854048 
L 195.117693 24.9593 
L 197.224174 24.931949 
L 199.330654 25.004346 
L 201.437134 25.009046 
L 203.543614 25.037276 
L 205.650094 25.008099 
L 207.756575 25.128443 
L 209.863055 25.061017 
L 211.969535 24.957133 
L 214.076015 24.950045 
L 216.182495 24.885629 
L 218.288976 24.875911 
L 220.395456 24.932914 
L 222.501936 24.880159 
L 224.608416 24.897287 
L 226.714896 24.890743 
L 228.821377 24.866336 
L 230.927857 24.910232 
L 233.034337 24.917497 
L 235.140817 24.907203 
L 237.247297 24.806532 
L 239.353778 24.917258 
L 241.460258 24.921756 
L 243.566738 24.952381 
L 245.673218 25.002133 
L 247.779698 25.040437 
L 249.886179 24.993805 
L 251.992659 25.009298 
L 254.099139 24.966481 
L 256.205619 24.906995 
L 258.312099 24.887998 
L 260.41858 24.892398 
L 262.52506 24.933363 
L 264.63154 24.868963 
L 266.73802 24.959416 
" clip-path="url(#p49eff5afe8)" style="fill: none; stroke: #1f77b4; stroke-width: 1.5; stroke-linecap: square"/>
   </g>
   <g id="patch_3">
    <path d="M 56.09 210.04 
L 56.09 10.8 
" style="fill: none; stroke: #000000; stroke-width: 0.8; stroke-linejoin: miter; stroke-linecap: square"/>
   </g>
   <g id="patch_4">
    <path d="M 268.8445 210.04 
L 268.8445 10.8 
" style="fill: none; stroke: #000000; stroke-width: 0.8; stroke-linejoin: miter; stroke-linecap: square"/>
   </g>
   <g id="patch_5">
    <path d="M 56.09 210.04 
L 268.8445 210.04 
" style="fill: none; stroke: #000000; stroke-width: 0.8; stroke-linejoin: miter; stroke-linecap: square"/>
   </g>
   <g id="patch_6">
    <path d="M 56.09 10.8 
L 268.8445 10.8 
" style="fill: none; stroke: #000000; stroke-width: 0.8; stroke-linejoin: miter; stroke-linecap: square"/>
   </g>
   <g id="legend_1">
    <g id="patch_7">
     <path d="M 257.8445 114.42 
L 261.8445 114.42 
Q 263.8445 114.42 263.8445 112.42 
L 263.8445 108.42 
Q 263.8445 106.42 261.8445 106.42 
L 257.8445 106.42 
Q 255.8445 106.42 255.8445 108.42 
L 255.8445 112.42 
Q 255.8445 114.42 257.8445 114.42 
z
" style="fill: #ffffff; opacity: 0.8; stroke: #cccccc; stroke-linejoin: miter"/>
    </g>
   </g>
  </g>
  <g id="axes_2">
   <g id="patch_8">
    <path d="M 342.9505 210.04 
L 555.705 210.04 
L 555.705 10.8 
L 342.9505 10.8 
z
" style="fill: #ffffff"/>
   </g>
   <g id="matplotlib.axis_3">
    <g id="xtick_7">
     <g id="line2d_34">
      <g>
       <use xlink:href="#m469d4ec700" x="342.9505" y="210.04" style="stroke: #000000; stroke-width: 0.8"/>
      </g>
     </g>
     <g id="text_15">
      <!-- 0 -->
      <g transform="translate(339.76925 224.638438) scale(0.1 -0.1)">
       <use xlink:href="#DejaVuSans-30"/>
      </g>
     </g>
    </g>
    <g id="xtick_8">
     <g id="line2d_35">
      <g>
       <use xlink:href="#m469d4ec700" x="385.5014" y="210.04" style="stroke: #000000; stroke-width: 0.8"/>
      </g>
     </g>
     <g id="text_16">
      <!-- 20 -->
      <g transform="translate(379.1389 224.638438) scale(0.1 -0.1)">
       <use xlink:href="#DejaVuSans-32"/>
       <use xlink:href="#DejaVuSans-30" transform="translate(63.623047 0)"/>
      </g>
     </g>
    </g>
    <g id="xtick_9">
     <g id="line2d_36">
      <g>
       <use xlink:href="#m469d4ec700" x="428.0523" y="210.04" style="stroke: #000000; stroke-width: 0.8"/>
      </g>
     </g>
     <g id="text_17">
      <!-- 40 -->
      <g transform="translate(421.6898 224.638438) scale(0.1 -0.1)">
       <use xlink:href="#DejaVuSans-34"/>
       <use xlink:href="#DejaVuSans-30" transform="translate(63.623047 0)"/>
      </g>
     </g>
    </g>
    <g id="xtick_10">
     <g id="line2d_37">
      <g>
       <use xlink:href="#m469d4ec700" x="470.6032" y="210.04" style="stroke: #000000; stroke-width: 0.8"/>
      </g>
     </g>
     <g id="text_18">
      <!-- 60 -->
      <g transform="translate(464.2407 224.638438) scale(0.1 -0.1)">
       <use xlink:href="#DejaVuSans-36"/>
       <use xlink:href="#DejaVuSans-30" transform="translate(63.623047 0)"/>
      </g>
     </g>
    </g>
    <g id="xtick_11">
     <g id="line2d_38">
      <g>
       <use xlink:href="#m469d4ec700" x="513.1541" y="210.04" style="stroke: #000000; stroke-width: 0.8"/>
      </g>
     </g>
     <g id="text_19">
      <!-- 80 -->
      <g transform="translate(506.7916 224.638438) scale(0.1 -0.1)">
       <use xlink:href="#DejaVuSans-38"/>
       <use xlink:href="#DejaVuSans-30" transform="translate(63.623047 0)"/>
      </g>
     </g>
    </g>
    <g id="xtick_12">
     <g id="line2d_39">
      <g>
       <use xlink:href="#m469d4ec700" x="555.705" y="210.04" style="stroke: #000000; stroke-width: 0.8"/>
      </g>
     </g>
     <g id="text_20">
      <!-- 100 -->
      <g transform="translate(546.16125 224.638438) scale(0.1 -0.1)">
       <use xlink:href="#DejaVuSans-31"/>
       <use xlink:href="#DejaVuSans-30" transform="translate(63.623047 0)"/>
       <use xlink:href="#DejaVuSans-30" transform="translate(127.246094 0)"/>
      </g>
     </g>
    </g>
    <g id="text_21">
     <!-- SCPH iteration 600.0 K -->
     <g transform="translate(392.404312 238.316563) scale(0.1 -0.1)">
      <use xlink:href="#DejaVuSans-53"/>
      <use xlink:href="#DejaVuSans-43" transform="translate(63.476562 0)"/>
      <use xlink:href="#DejaVuSans-50" transform="translate(133.300781 0)"/>
      <use xlink:href="#DejaVuSans-48" transform="translate(193.603516 0)"/>
      <use xlink:href="#DejaVuSans-20" transform="translate(268.798828 0)"/>
      <use xlink:href="#DejaVuSans-69" transform="translate(300.585938 0)"/>
      <use xlink:href="#DejaVuSans-74" transform="translate(328.369141 0)"/>
      <use xlink:href="#DejaVuSans-65" transform="translate(367.578125 0)"/>
      <use xlink:href="#DejaVuSans-72" transform="translate(429.101562 0)"/>
      <use xlink:href="#DejaVuSans-61" transform="translate(470.214844 0)"/>
      <use xlink:href="#DejaVuSans-74" transform="translate(531.494141 0)"/>
      <use xlink:href="#DejaVuSans-69" transform="translate(570.703125 0)"/>
      <use xlink:href="#DejaVuSans-6f" transform="translate(598.486328 0)"/>
      <use xlink:href="#DejaVuSans-6e" transform="translate(659.667969 0)"/>
      <use xlink:href="#DejaVuSans-20" transform="translate(723.046875 0)"/>
      <use xlink:href="#DejaVuSans-36" transform="translate(754.833984 0)"/>
      <use xlink:href="#DejaVuSans-30" transform="translate(818.457031 0)"/>
      <use xlink:href="#DejaVuSans-30" transform="translate(882.080078 0)"/>
      <use xlink:href="#DejaVuSans-2e" transform="translate(945.703125 0)"/>
      <use xlink:href="#DejaVuSans-30" transform="translate(977.490234 0)"/>
      <use xlink:href="#DejaVuSans-20" transform="translate(1041.113281 0)"/>
      <use xlink:href="#DejaVuSans-4b" transform="translate(1072.900391 0)"/>
     </g>
    </g>
   </g>
   <g id="matplotlib.axis_4">
    <g id="ytick_7">
     <g id="line2d_40">
      <g>
       <use xlink:href="#m165f658aff" x="342.9505" y="210.04" style="stroke: #000000; stroke-width: 0.8"/>
      </g>
     </g>
     <g id="text_22">
      <!-- 0.0000 -->
      <g transform="translate(300.959875 213.839219) scale(0.1 -0.1)">
       <use xlink:href="#DejaVuSans-30"/>
       <use xlink:href="#DejaVuSans-2e" transform="translate(63.623047 0)"/>
       <use xlink:href="#DejaVuSans-30" transform="translate(95.410156 0)"/>
       <use xlink:href="#DejaVuSans-30" transform="translate(159.033203 0)"/>
       <use xlink:href="#DejaVuSans-30" transform="translate(222.65625 0)"/>
       <use xlink:href="#DejaVuSans-30" transform="translate(286.279297 0)"/>
      </g>
     </g>
    </g>
    <g id="ytick_8">
     <g id="line2d_41">
      <g>
       <use xlink:href="#m165f658aff" x="342.9505" y="184.943885" style="stroke: #000000; stroke-width: 0.8"/>
      </g>
     </g>
     <g id="text_23">
      <!-- 0.0025 -->
      <g transform="translate(300.959875 188.743104) scale(0.1 -0.1)">
       <use xlink:href="#DejaVuSans-30"/>
       <use xlink:href="#DejaVuSans-2e" transform="translate(63.623047 0)"/>
       <use xlink:href="#DejaVuSans-30" transform="translate(95.410156 0)"/>
       <use xlink:href="#DejaVuSans-30" transform="translate(159.033203 0)"/>
       <use xlink:href="#DejaVuSans-32" transform="translate(222.65625 0)"/>
       <use xlink:href="#DejaVuSans-35" transform="translate(286.279297 0)"/>
      </g>
     </g>
    </g>
    <g id="ytick_9">
     <g id="line2d_42">
      <g>
       <use xlink:href="#m165f658aff" x="342.9505" y="159.84777" style="stroke: #000000; stroke-width: 0.8"/>
      </g>
     </g>
     <g id="text_24">
      <!-- 0.0050 -->
      <g transform="translate(300.959875 163.646989) scale(0.1 -0.1)">
       <use xlink:href="#DejaVuSans-30"/>
       <use xlink:href="#DejaVuSans-2e" transform="translate(63.623047 0)"/>
       <use xlink:href="#DejaVuSans-30" transform="translate(95.410156 0)"/>
       <use xlink:href="#DejaVuSans-30" transform="translate(159.033203 0)"/>
       <use xlink:href="#DejaVuSans-35" transform="translate(222.65625 0)"/>
       <use xlink:href="#DejaVuSans-30" transform="translate(286.279297 0)"/>
      </g>
     </g>
    </g>
    <g id="ytick_10">
     <g id="line2d_43">
      <g>
       <use xlink:href="#m165f658aff" x="342.9505" y="134.751655" style="stroke: #000000; stroke-width: 0.8"/>
      </g>
     </g>
     <g id="text_25">
      <!-- 0.0075 -->
      <g transform="translate(300.959875 138.550873) scale(0.1 -0.1)">
       <defs>
        <path id="DejaVuSans-37" d="M 525 4666 
L 3525 4666 
L 3525 4397 
L 1831 0 
L 1172 0 
L 2766 4134 
L 525 4134 
L 525 4666 
z
" transform="scale(0.015625)"/>
       </defs>
       <use xlink:href="#DejaVuSans-30"/>
       <use xlink:href="#DejaVuSans-2e" transform="translate(63.623047 0)"/>
       <use xlink:href="#DejaVuSans-30" transform="translate(95.410156 0)"/>
       <use xlink:href="#DejaVuSans-30" transform="translate(159.033203 0)"/>
       <use xlink:href="#DejaVuSans-37" transform="translate(222.65625 0)"/>
       <use xlink:href="#DejaVuSans-35" transform="translate(286.279297 0)"/>
      </g>
     </g>
    </g>
    <g id="ytick_11">
     <g id="line2d_44">
      <g>
       <use xlink:href="#m165f658aff" x="342.9505" y="109.65554" style="stroke: #000000; stroke-width: 0.8"/>
      </g>
     </g>
     <g id="text_26">
      <!-- 0.0100 -->
      <g transform="translate(300.959875 113.454758) scale(0.1 -0.1)">
       <use xlink:href="#DejaVuSans-30"/>
       <use xlink:href="#DejaVuSans-2e" transform="translate(63.623047 0)"/>
       <use xlink:href="#DejaVuSans-30" transform="translate(95.410156 0)"/>
       <use xlink:href="#DejaVuSans-31" transform="translate(159.033203 0)"/>
       <use xlink:href="#DejaVuSans-30" transform="translate(222.65625 0)"/>
       <use xlink:href="#DejaVuSans-30" transform="translate(286.279297 0)"/>
      </g>
     </g>
    </g>
    <g id="ytick_12">
     <g id="line2d_45">
      <g>
       <use xlink:href="#m165f658aff" x="342.9505" y="84.559424" style="stroke: #000000; stroke-width: 0.8"/>
      </g>
     </g>
     <g id="text_27">
      <!-- 0.0125 -->
      <g transform="translate(300.959875 88.358643) scale(0.1 -0.1)">
       <use xlink:href="#DejaVuSans-30"/>
       <use xlink:href="#DejaVuSans-2e" transform="translate(63.623047 0)"/>
       <use xlink:href="#DejaVuSans-30" transform="translate(95.410156 0)"/>
       <use xlink:href="#DejaVuSans-31" transform="translate(159.033203 0)"/>
       <use xlink:href="#DejaVuSans-32" transform="translate(222.65625 0)"/>
       <use xlink:href="#DejaVuSans-35" transform="translate(286.279297 0)"/>
      </g>
     </g>
    </g>
    <g id="ytick_13">
     <g id="line2d_46">
      <g>
       <use xlink:href="#m165f658aff" x="342.9505" y="59.463309" style="stroke: #000000; stroke-width: 0.8"/>
      </g>
     </g>
     <g id="text_28">
      <!-- 0.0150 -->
      <g transform="translate(300.959875 63.262528) scale(0.1 -0.1)">
       <use xlink:href="#DejaVuSans-30"/>
       <use xlink:href="#DejaVuSans-2e" transform="translate(63.623047 0)"/>
       <use xlink:href="#DejaVuSans-30" transform="translate(95.410156 0)"/>
       <use xlink:href="#DejaVuSans-31" transform="translate(159.033203 0)"/>
       <use xlink:href="#DejaVuSans-35" transform="translate(222.65625 0)"/>
       <use xlink:href="#DejaVuSans-30" transform="translate(286.279297 0)"/>
      </g>
     </g>
    </g>
    <g id="ytick_14">
     <g id="line2d_47">
      <g>
       <use xlink:href="#m165f658aff" x="342.9505" y="34.367194" style="stroke: #000000; stroke-width: 0.8"/>
      </g>
     </g>
     <g id="text_29">
      <!-- 0.0175 -->
      <g transform="translate(300.959875 38.166413) scale(0.1 -0.1)">
       <use xlink:href="#DejaVuSans-30"/>
       <use xlink:href="#DejaVuSans-2e" transform="translate(63.623047 0)"/>
       <use xlink:href="#DejaVuSans-30" transform="translate(95.410156 0)"/>
       <use xlink:href="#DejaVuSans-31" transform="translate(159.033203 0)"/>
       <use xlink:href="#DejaVuSans-37" transform="translate(222.65625 0)"/>
       <use xlink:href="#DejaVuSans-35" transform="translate(286.279297 0)"/>
      </g>
     </g>
    </g>
    <g id="text_30">
     <!-- $\Delta$ Parameters -->
     <g transform="translate(294.880187 144.32) rotate(-90) scale(0.1 -0.1)">
      <defs>
       <path id="DejaVuSans-394" d="M 2188 4044 
L 906 525 
L 3472 525 
L 2188 4044 
z
M 50 0 
L 1831 4666 
L 2547 4666 
L 4325 0 
L 50 0 
z
" transform="scale(0.015625)"/>
      </defs>
      <use xlink:href="#DejaVuSans-394" transform="translate(0 0.09375)"/>
      <use xlink:href="#DejaVuSans-20" transform="translate(68.408203 0.09375)"/>
      <use xlink:href="#DejaVuSans-50" transform="translate(100.195312 0.09375)"/>
      <use xlink:href="#DejaVuSans-61" transform="translate(160.498047 0.09375)"/>
      <use xlink:href="#DejaVuSans-72" transform="translate(221.777344 0.09375)"/>
      <use xlink:href="#DejaVuSans-61" transform="translate(262.890625 0.09375)"/>
      <use xlink:href="#DejaVuSans-6d" transform="translate(324.169922 0.09375)"/>
      <use xlink:href="#DejaVuSans-65" transform="translate(421.582031 0.09375)"/>
      <use xlink:href="#DejaVuSans-74" transform="translate(483.105469 0.09375)"/>
      <use xlink:href="#DejaVuSans-65" transform="translate(522.314453 0.09375)"/>
      <use xlink:href="#DejaVuSans-72" transform="translate(583.837891 0.09375)"/>
      <use xlink:href="#DejaVuSans-73" transform="translate(624.951172 0.09375)"/>
     </g>
    </g>
   </g>
   <g id="line2d_48">
    <path d="M 342.9505 19.382514 
L 345.078045 137.235119 
L 347.20559 146.365841 
L 349.333135 130.722741 
L 351.46068 142.982664 
L 353.588225 163.727929 
L 355.71577 180.504937 
L 357.843315 183.193589 
L 359.97086 172.375319 
L 362.098405 169.311944 
L 364.22595 137.693577 
L 366.353495 189.932973 
L 368.48104 167.00093 
L 370.608585 153.531377 
L 372.73613 167.9977 
L 374.863675 173.577884 
L 376.99122 143.264607 
L 379.118765 190.484966 
L 381.24631 184.386734 
L 383.373855 147.668501 
L 385.5014 177.726311 
L 387.628945 169.2433 
L 389.75649 181.023743 
L 391.884035 186.247159 
L 394.01158 134.937344 
L 396.139125 160.503505 
L 398.26667 175.941656 
L 400.394215 159.114869 
L 402.52176 174.138554 
L 404.649305 177.35947 
L 406.77685 175.529596 
L 408.904395 176.702414 
L 411.03194 166.693158 
L 413.159485 180.073219 
L 415.28703 191.032789 
L 417.414575 162.511618 
L 419.54212 170.681739 
L 421.669665 180.503731 
L 423.79721 164.045499 
L 425.924755 164.799664 
L 428.0523 178.278654 
L 430.179845 185.133387 
L 432.30739 154.346844 
L 434.434935 161.119236 
L 436.56248 172.368104 
L 438.690025 177.803433 
L 440.81757 174.06024 
L 442.945115 190.831277 
L 445.07266 181.282242 
L 447.200205 189.379797 
L 449.32775 161.553178 
L 451.455295 158.020209 
L 453.58284 170.474895 
L 455.710385 167.154168 
L 457.83793 183.785403 
L 459.965475 165.31192 
L 462.09302 151.359221 
L 464.220565 146.020374 
L 466.34811 170.728826 
L 468.475655 186.520409 
L 470.6032 177.869649 
L 472.730745 172.163287 
L 474.85829 165.765427 
L 476.985835 173.846957 
L 479.11338 159.427395 
L 481.240925 174.198232 
L 483.36847 136.951615 
L 485.496015 156.388687 
L 487.62356 168.374331 
L 489.751105 160.857356 
L 491.87865 180.326951 
L 494.006195 141.088883 
L 496.13374 171.585963 
L 498.261285 156.248776 
L 500.38883 175.807057 
L 502.516375 184.554834 
L 504.64392 180.716605 
L 506.771465 182.745556 
L 508.89901 142.37253 
L 511.026555 177.318829 
L 513.1541 185.935332 
L 515.281645 169.60819 
L 517.40919 189.182212 
L 519.536735 182.299755 
L 521.66428 179.609697 
L 523.791825 189.873332 
L 525.91937 170.18046 
L 528.046915 138.841626 
L 530.17446 181.703136 
L 532.302005 160.226727 
L 534.42955 180.061406 
L 536.557095 153.654146 
L 538.68464 128.147485 
L 540.812185 169.066815 
L 542.93973 177.053981 
L 545.067275 169.503716 
L 547.19482 176.227825 
L 549.322365 168.397486 
L 551.44991 180.54602 
L 553.577455 163.962905 
" clip-path="url(#p18dba812aa)" style="fill: none; stroke: #1f77b4; stroke-width: 1.5; stroke-linecap: square"/>
   </g>
   <g id="patch_9">
    <path d="M 342.9505 210.04 
L 342.9505 10.8 
" style="fill: none; stroke: #000000; stroke-width: 0.8; stroke-linejoin: miter; stroke-linecap: square"/>
   </g>
   <g id="patch_10">
    <path d="M 555.705 210.04 
L 555.705 10.8 
" style="fill: none; stroke: #000000; stroke-width: 0.8; stroke-linejoin: miter; stroke-linecap: square"/>
   </g>
   <g id="patch_11">
    <path d="M 342.9505 210.04 
L 555.705 210.04 
" style="fill: none; stroke: #000000; stroke-width: 0.8; stroke-linejoin: miter; stroke-linecap: square"/>
   </g>
   <g id="patch_12">
    <path d="M 342.9505 10.8 
L 555.705 10.8 
" style="fill: none; stroke: #000000; stroke-width: 0.8; stroke-linejoin: miter; stroke-linecap: square"/>
   </g>
   <g id="legend_2">
    <g id="patch_13">
     <path d="M 544.705 23.8 
L 548.705 23.8 
Q 550.705 23.8 550.705 21.8 
L 550.705 17.8 
Q 550.705 15.8 548.705 15.8 
L 544.705 15.8 
Q 542.705 15.8 542.705 17.8 
L 542.705 21.8 
Q 542.705 23.8 544.705 23.8 
z
" style="fill: #ffffff; opacity: 0.8; stroke: #cccccc; stroke-linejoin: miter"/>
    </g>
   </g>
  </g>
 </g>
 <defs>
  <clipPath id="p49eff5afe8">
   <rect x="56.09" y="10.8" width="212.7545" height="199.24"/>
  </clipPath>
  <clipPath id="p18dba812aa">
   <rect x="342.9505" y="10.8" width="212.7545" height="199.24"/>
  </clipPath>
 </defs>
</svg>
