<?xml version="1.0" encoding="utf-8" standalone="no"?>
<!DOCTYPE svg PUBLIC "-//W3C//DTD SVG 1.1//EN"
  "http://www.w3.org/Graphics/SVG/1.1/DTD/svg11.dtd">
<svg xmlns:xlink="http://www.w3.org/1999/xlink" width="576pt" height="252pt" viewBox="0 0 576 252" xmlns="http://www.w3.org/2000/svg" version="1.1">
 <metadata>
  <rdf:RDF xmlns:dc="http://purl.org/dc/elements/1.1/" xmlns:cc="http://creativecommons.org/ns#" xmlns:rdf="http://www.w3.org/1999/02/22-rdf-syntax-ns#">
   <cc:Work>
    <dc:type rdf:resource="http://purl.org/dc/dcmitype/StillImage"/>
    <dc:date>2025-11-07T13:43:16.752450</dc:date>
    <dc:format>image/svg+xml</dc:format>
    <dc:creator>
     <cc:Agent>
      <dc:title>Matplotlib v3.10.7, https://matplotlib.org/</dc:title>
     </cc:Agent>
    </dc:creator>
   </cc:Work>
  </rdf:RDF>
 </metadata>
 <defs>
  <style type="text/css">*{stroke-linejoin: round; stroke-linecap: butt}</style>
 </defs>
 <g id="figure_1">
  <g id="patch_1">
   <path d="M 0 252 
L 576 252 
L 576 0 
L 0 0 
z
" style="fill: #ffffff"/>
  </g>
  <g id="axes_1">
   <g id="patch_2">
    <path d="M 56.09 210.04 
L 271.9945 210.04 
L 271.9945 10.8 
L 56.09 10.8 
z
" style="fill: #ffffff"/>
   </g>
   <g id="matplotlib.axis_1">
    <g id="xtick_1">
     <g id="line2d_1">
      <defs>
       <path id="m2bf1fb0ba7" d="M 0 0 
L 0 3.5 
" style="stroke: #000000; stroke-width: 0.8"/>
      </defs>
      <g>
       <use xlink:href="#m2bf1fb0ba7" x="56.09" y="210.04" style="stroke: #000000; stroke-width: 0.8"/>
      </g>
     </g>
     <g id="text_1">
      <!-- 0 -->
      <g transform="translate(52.90875 224.638438) scale(0.1 -0.1)">
       <defs>
        <path id="DejaVuSans-30" d="M 2034 4250 
Q 1547 4250 1301 3770 
Q 1056 3291 1056 2328 
Q 1056 1369 1301 889 
Q 1547 409 2034 409 
Q 2525 409 2770 889 
Q 3016 1369 3016 2328 
Q 3016 3291 2770 3770 
Q 2525 4250 2034 4250 
z
M 2034 4750 
Q 2819 4750 3233 4129 
Q 3647 3509 3647 2328 
Q 3647 1150 3233 529 
Q 2819 -91 2034 -91 
Q 1250 -91 836 529 
Q 422 1150 422 2328 
Q 422 3509 836 4129 
Q 1250 4750 2034 4750 
z
" transform="scale(0.015625)"/>
       </defs>
       <use xlink:href="#DejaVuSans-30"/>
      </g>
     </g>
    </g>
    <g id="xtick_2">
     <g id="line2d_2">
      <g>
       <use xlink:href="#m2bf1fb0ba7" x="98.843366" y="210.04" style="stroke: #000000; stroke-width: 0.8"/>
      </g>
     </g>
     <g id="text_2">
      <!-- 20 -->
      <g transform="translate(92.480866 224.638438) scale(0.1 -0.1)">
       <defs>
        <path id="DejaVuSans-32" d="M 1228 531 
L 3431 531 
L 3431 0 
L 469 0 
L 469 531 
Q 828 903 1448 1529 
Q 2069 2156 2228 2338 
Q 2531 2678 2651 2914 
Q 2772 3150 2772 3378 
Q 2772 3750 2511 3984 
Q 2250 4219 1831 4219 
Q 1534 4219 1204 4116 
Q 875 4013 500 3803 
L 500 4441 
Q 881 4594 1212 4672 
Q 1544 4750 1819 4750 
Q 2544 4750 2975 4387 
Q 3406 4025 3406 3419 
Q 3406 3131 3298 2873 
Q 3191 2616 2906 2266 
Q 2828 2175 2409 1742 
Q 1991 1309 1228 531 
z
" transform="scale(0.015625)"/>
       </defs>
       <use xlink:href="#DejaVuSans-32"/>
       <use xlink:href="#DejaVuSans-30" transform="translate(63.623047 0)"/>
      </g>
     </g>
    </g>
    <g id="xtick_3">
     <g id="line2d_3">
      <g>
       <use xlink:href="#m2bf1fb0ba7" x="141.596733" y="210.04" style="stroke: #000000; stroke-width: 0.8"/>
      </g>
     </g>
     <g id="text_3">
      <!-- 40 -->
      <g transform="translate(135.234233 224.638438) scale(0.1 -0.1)">
       <defs>
        <path id="DejaVuSans-34" d="M 2419 4116 
L 825 1625 
L 2419 1625 
L 2419 4116 
z
M 2253 4666 
L 3047 4666 
L 3047 1625 
L 3713 1625 
L 3713 1100 
L 3047 1100 
L 3047 0 
L 2419 0 
L 2419 1100 
L 313 1100 
L 313 1709 
L 2253 4666 
z
" transform="scale(0.015625)"/>
       </defs>
       <use xlink:href="#DejaVuSans-34"/>
       <use xlink:href="#DejaVuSans-30" transform="translate(63.623047 0)"/>
      </g>
     </g>
    </g>
    <g id="xtick_4">
     <g id="line2d_4">
      <g>
       <use xlink:href="#m2bf1fb0ba7" x="184.350099" y="210.04" style="stroke: #000000; stroke-width: 0.8"/>
      </g>
     </g>
     <g id="text_4">
      <!-- 60 -->
      <g transform="translate(177.987599 224.638438) scale(0.1 -0.1)">
       <defs>
        <path id="DejaVuSans-36" d="M 2113 2584 
Q 1688 2584 1439 2293 
Q 1191 2003 1191 1497 
Q 1191 994 1439 701 
Q 1688 409 2113 409 
Q 2538 409 2786 701 
Q 3034 994 3034 1497 
Q 3034 2003 2786 2293 
Q 2538 2584 2113 2584 
z
M 3366 4563 
L 3366 3988 
Q 3128 4100 2886 4159 
Q 2644 4219 2406 4219 
Q 1781 4219 1451 3797 
Q 1122 3375 1075 2522 
Q 1259 2794 1537 2939 
Q 1816 3084 2150 3084 
Q 2853 3084 3261 2657 
Q 3669 2231 3669 1497 
Q 3669 778 3244 343 
Q 2819 -91 2113 -91 
Q 1303 -91 875 529 
Q 447 1150 447 2328 
Q 447 3434 972 4092 
Q 1497 4750 2381 4750 
Q 2619 4750 2861 4703 
Q 3103 4656 3366 4563 
z
" transform="scale(0.015625)"/>
       </defs>
       <use xlink:href="#DejaVuSans-36"/>
       <use xlink:href="#DejaVuSans-30" transform="translate(63.623047 0)"/>
      </g>
     </g>
    </g>
    <g id="xtick_5">
     <g id="line2d_5">
      <g>
       <use xlink:href="#m2bf1fb0ba7" x="227.103466" y="210.04" style="stroke: #000000; stroke-width: 0.8"/>
      </g>
     </g>
     <g id="text_5">
      <!-- 80 -->
      <g transform="translate(220.740966 224.638438) scale(0.1 -0.1)">
       <defs>
        <path id="DejaVuSans-38" d="M 2034 2216 
Q 1584 2216 1326 1975 
Q 1069 1734 1069 1313 
Q 1069 891 1326 650 
Q 1584 409 2034 409 
Q 2484 409 2743 651 
Q 3003 894 3003 1313 
Q 3003 1734 2745 1975 
Q 2488 2216 2034 2216 
z
M 1403 2484 
Q 997 2584 770 2862 
Q 544 3141 544 3541 
Q 544 4100 942 4425 
Q 1341 4750 2034 4750 
Q 2731 4750 3128 4425 
Q 3525 4100 3525 3541 
Q 3525 3141 3298 2862 
Q 3072 2584 2669 2484 
Q 3125 2378 3379 2068 
Q 3634 1759 3634 1313 
Q 3634 634 3220 271 
Q 2806 -91 2034 -91 
Q 1263 -91 848 271 
Q 434 634 434 1313 
Q 434 1759 690 2068 
Q 947 2378 1403 2484 
z
M 1172 3481 
Q 1172 3119 1398 2916 
Q 1625 2713 2034 2713 
Q 2441 2713 2670 2916 
Q 2900 3119 2900 3481 
Q 2900 3844 2670 4047 
Q 2441 4250 2034 4250 
Q 1625 4250 1398 4047 
Q 1172 3844 1172 3481 
z
" transform="scale(0.015625)"/>
       </defs>
       <use xlink:href="#DejaVuSans-38"/>
       <use xlink:href="#DejaVuSans-30" transform="translate(63.623047 0)"/>
      </g>
     </g>
    </g>
    <g id="xtick_6">
     <g id="line2d_6">
      <g>
       <use xlink:href="#m2bf1fb0ba7" x="269.856832" y="210.04" style="stroke: #000000; stroke-width: 0.8"/>
      </g>
     </g>
     <g id="text_6">
      <!-- 100 -->
      <g transform="translate(260.313082 224.638438) scale(0.1 -0.1)">
       <defs>
        <path id="DejaVuSans-31" d="M 794 531 
L 1825 531 
L 1825 4091 
L 703 3866 
L 703 4441 
L 1819 4666 
L 2450 4666 
L 2450 531 
L 3481 531 
L 3481 0 
L 794 0 
L 794 531 
z
" transform="scale(0.015625)"/>
       </defs>
       <use xlink:href="#DejaVuSans-31"/>
       <use xlink:href="#DejaVuSans-30" transform="translate(63.623047 0)"/>
       <use xlink:href="#DejaVuSans-30" transform="translate(127.246094 0)"/>
      </g>
     </g>
    </g>
    <g id="text_7">
     <!-- SCPH iteration 300.0 K -->
     <g transform="translate(107.118813 238.316563) scale(0.1 -0.1)">
      <defs>
       <path id="DejaVuSans-53" d="M 3425 4513 
L 3425 3897 
Q 3066 4069 2747 4153 
Q 2428 4238 2131 4238 
Q 1616 4238 1336 4038 
Q 1056 3838 1056 3469 
Q 1056 3159 1242 3001 
Q 1428 2844 1947 2747 
L 2328 2669 
Q 3034 2534 3370 2195 
Q 3706 1856 3706 1288 
Q 3706 609 3251 259 
Q 2797 -91 1919 -91 
Q 1588 -91 1214 -16 
Q 841 59 441 206 
L 441 856 
Q 825 641 1194 531 
Q 1563 422 1919 422 
Q 2459 422 2753 634 
Q 3047 847 3047 1241 
Q 3047 1584 2836 1778 
Q 2625 1972 2144 2069 
L 1759 2144 
Q 1053 2284 737 2584 
Q 422 2884 422 3419 
Q 422 4038 858 4394 
Q 1294 4750 2059 4750 
Q 2388 4750 2728 4690 
Q 3069 4631 3425 4513 
z
" transform="scale(0.015625)"/>
       <path id="DejaVuSans-43" d="M 4122 4306 
L 4122 3641 
Q 3803 3938 3442 4084 
Q 3081 4231 2675 4231 
Q 1875 4231 1450 3742 
Q 1025 3253 1025 2328 
Q 1025 1406 1450 917 
Q 1875 428 2675 428 
Q 3081 428 3442 575 
Q 3803 722 4122 1019 
L 4122 359 
Q 3791 134 3420 21 
Q 3050 -91 2638 -91 
Q 1578 -91 968 557 
Q 359 1206 359 2328 
Q 359 3453 968 4101 
Q 1578 4750 2638 4750 
Q 3056 4750 3426 4639 
Q 3797 4528 4122 4306 
z
" transform="scale(0.015625)"/>
       <path id="DejaVuSans-50" d="M 1259 4147 
L 1259 2394 
L 2053 2394 
Q 2494 2394 2734 2622 
Q 2975 2850 2975 3272 
Q 2975 3691 2734 3919 
Q 2494 4147 2053 4147 
L 1259 4147 
z
M 628 4666 
L 2053 4666 
Q 2838 4666 3239 4311 
Q 3641 3956 3641 3272 
Q 3641 2581 3239 2228 
Q 2838 1875 2053 1875 
L 1259 1875 
L 1259 0 
L 628 0 
L 628 4666 
z
" transform="scale(0.015625)"/>
       <path id="DejaVuSans-48" d="M 628 4666 
L 1259 4666 
L 1259 2753 
L 3553 2753 
L 3553 4666 
L 4184 4666 
L 4184 0 
L 3553 0 
L 3553 2222 
L 1259 2222 
L 1259 0 
L 628 0 
L 628 4666 
z
" transform="scale(0.015625)"/>
       <path id="DejaVuSans-20" transform="scale(0.015625)"/>
       <path id="DejaVuSans-69" d="M 603 3500 
L 1178 3500 
L 1178 0 
L 603 0 
L 603 3500 
z
M 603 4863 
L 1178 4863 
L 1178 4134 
L 603 4134 
L 603 4863 
z
" transform="scale(0.015625)"/>
       <path id="DejaVuSans-74" d="M 1172 4494 
L 1172 3500 
L 2356 3500 
L 2356 3053 
L 1172 3053 
L 1172 1153 
Q 1172 725 1289 603 
Q 1406 481 1766 481 
L 2356 481 
L 2356 0 
L 1766 0 
Q 1100 0 847 248 
Q 594 497 594 1153 
L 594 3053 
L 172 3053 
L 172 3500 
L 594 3500 
L 594 4494 
L 1172 4494 
z
" transform="scale(0.015625)"/>
       <path id="DejaVuSans-65" d="M 3597 1894 
L 3597 1613 
L 953 1613 
Q 991 1019 1311 708 
Q 1631 397 2203 397 
Q 2534 397 2845 478 
Q 3156 559 3463 722 
L 3463 178 
Q 3153 47 2828 -22 
Q 2503 -91 2169 -91 
Q 1331 -91 842 396 
Q 353 884 353 1716 
Q 353 2575 817 3079 
Q 1281 3584 2069 3584 
Q 2775 3584 3186 3129 
Q 3597 2675 3597 1894 
z
M 3022 2063 
Q 3016 2534 2758 2815 
Q 2500 3097 2075 3097 
Q 1594 3097 1305 2825 
Q 1016 2553 972 2059 
L 3022 2063 
z
" transform="scale(0.015625)"/>
       <path id="DejaVuSans-72" d="M 2631 2963 
Q 2534 3019 2420 3045 
Q 2306 3072 2169 3072 
Q 1681 3072 1420 2755 
Q 1159 2438 1159 1844 
L 1159 0 
L 581 0 
L 581 3500 
L 1159 3500 
L 1159 2956 
Q 1341 3275 1631 3429 
Q 1922 3584 2338 3584 
Q 2397 3584 2469 3576 
Q 2541 3569 2628 3553 
L 2631 2963 
z
" transform="scale(0.015625)"/>
       <path id="DejaVuSans-61" d="M 2194 1759 
Q 1497 1759 1228 1600 
Q 959 1441 959 1056 
Q 959 750 1161 570 
Q 1363 391 1709 391 
Q 2188 391 2477 730 
Q 2766 1069 2766 1631 
L 2766 1759 
L 2194 1759 
z
M 3341 1997 
L 3341 0 
L 2766 0 
L 2766 531 
Q 2569 213 2275 61 
Q 1981 -91 1556 -91 
Q 1019 -91 701 211 
Q 384 513 384 1019 
Q 384 1609 779 1909 
Q 1175 2209 1959 2209 
L 2766 2209 
L 2766 2266 
Q 2766 2663 2505 2880 
Q 2244 3097 1772 3097 
Q 1472 3097 1187 3025 
Q 903 2953 641 2809 
L 641 3341 
Q 956 3463 1253 3523 
Q 1550 3584 1831 3584 
Q 2591 3584 2966 3190 
Q 3341 2797 3341 1997 
z
" transform="scale(0.015625)"/>
       <path id="DejaVuSans-6f" d="M 1959 3097 
Q 1497 3097 1228 2736 
Q 959 2375 959 1747 
Q 959 1119 1226 758 
Q 1494 397 1959 397 
Q 2419 397 2687 759 
Q 2956 1122 2956 1747 
Q 2956 2369 2687 2733 
Q 2419 3097 1959 3097 
z
M 1959 3584 
Q 2709 3584 3137 3096 
Q 3566 2609 3566 1747 
Q 3566 888 3137 398 
Q 2709 -91 1959 -91 
Q 1206 -91 779 398 
Q 353 888 353 1747 
Q 353 2609 779 3096 
Q 1206 3584 1959 3584 
z
" transform="scale(0.015625)"/>
       <path id="DejaVuSans-6e" d="M 3513 2113 
L 3513 0 
L 2938 0 
L 2938 2094 
Q 2938 2591 2744 2837 
Q 2550 3084 2163 3084 
Q 1697 3084 1428 2787 
Q 1159 2491 1159 1978 
L 1159 0 
L 581 0 
L 581 3500 
L 1159 3500 
L 1159 2956 
Q 1366 3272 1645 3428 
Q 1925 3584 2291 3584 
Q 2894 3584 3203 3211 
Q 3513 2838 3513 2113 
z
" transform="scale(0.015625)"/>
       <path id="DejaVuSans-33" d="M 2597 2516 
Q 3050 2419 3304 2112 
Q 3559 1806 3559 1356 
Q 3559 666 3084 287 
Q 2609 -91 1734 -91 
Q 1441 -91 1130 -33 
Q 819 25 488 141 
L 488 750 
Q 750 597 1062 519 
Q 1375 441 1716 441 
Q 2309 441 2620 675 
Q 2931 909 2931 1356 
Q 2931 1769 2642 2001 
Q 2353 2234 1838 2234 
L 1294 2234 
L 1294 2753 
L 1863 2753 
Q 2328 2753 2575 2939 
Q 2822 3125 2822 3475 
Q 2822 3834 2567 4026 
Q 2313 4219 1838 4219 
Q 1578 4219 1281 4162 
Q 984 4106 628 3988 
L 628 4550 
Q 988 4650 1302 4700 
Q 1616 4750 1894 4750 
Q 2613 4750 3031 4423 
Q 3450 4097 3450 3541 
Q 3450 3153 3228 2886 
Q 3006 2619 2597 2516 
z
" transform="scale(0.015625)"/>
       <path id="DejaVuSans-2e" d="M 684 794 
L 1344 794 
L 1344 0 
L 684 0 
L 684 794 
z
" transform="scale(0.015625)"/>
       <path id="DejaVuSans-4b" d="M 628 4666 
L 1259 4666 
L 1259 2694 
L 3353 4666 
L 4166 4666 
L 1850 2491 
L 4331 0 
L 3500 0 
L 1259 2247 
L 1259 0 
L 628 0 
L 628 4666 
z
" transform="scale(0.015625)"/>
      </defs>
      <use xlink:href="#DejaVuSans-53"/>
      <use xlink:href="#DejaVuSans-43" transform="translate(63.476562 0)"/>
      <use xlink:href="#DejaVuSans-50" transform="translate(133.300781 0)"/>
      <use xlink:href="#DejaVuSans-48" transform="translate(193.603516 0)"/>
      <use xlink:href="#DejaVuSans-20" transform="translate(268.798828 0)"/>
      <use xlink:href="#DejaVuSans-69" transform="translate(300.585938 0)"/>
      <use xlink:href="#DejaVuSans-74" transform="translate(328.369141 0)"/>
      <use xlink:href="#DejaVuSans-65" transform="translate(367.578125 0)"/>
      <use xlink:href="#DejaVuSans-72" transform="translate(429.101562 0)"/>
      <use xlink:href="#DejaVuSans-61" transform="translate(470.214844 0)"/>
      <use xlink:href="#DejaVuSans-74" transform="translate(531.494141 0)"/>
      <use xlink:href="#DejaVuSans-69" transform="translate(570.703125 0)"/>
      <use xlink:href="#DejaVuSans-6f" transform="translate(598.486328 0)"/>
      <use xlink:href="#DejaVuSans-6e" transform="translate(659.667969 0)"/>
      <use xlink:href="#DejaVuSans-20" transform="translate(723.046875 0)"/>
      <use xlink:href="#DejaVuSans-33" transform="translate(754.833984 0)"/>
      <use xlink:href="#DejaVuSans-30" transform="translate(818.457031 0)"/>
      <use xlink:href="#DejaVuSans-30" transform="translate(882.080078 0)"/>
      <use xlink:href="#DejaVuSans-2e" transform="translate(945.703125 0)"/>
      <use xlink:href="#DejaVuSans-30" transform="translate(977.490234 0)"/>
      <use xlink:href="#DejaVuSans-20" transform="translate(1041.113281 0)"/>
      <use xlink:href="#DejaVuSans-4b" transform="translate(1072.900391 0)"/>
     </g>
    </g>
   </g>
   <g id="matplotlib.axis_2">
    <g id="ytick_1">
     <g id="line2d_7">
      <defs>
       <path id="me075dbe30f" d="M 0 0 
L -3.5 0 
" style="stroke: #000000; stroke-width: 0.8"/>
      </defs>
      <g>
       <use xlink:href="#me075dbe30f" x="56.09" y="201.124889" style="stroke: #000000; stroke-width: 0.8"/>
      </g>
     </g>
     <g id="text_8">
      <!-- −2.5 -->
      <g transform="translate(24.807188 204.924108) scale(0.1 -0.1)">
       <defs>
        <path id="DejaVuSans-2212" d="M 678 2272 
L 4684 2272 
L 4684 1741 
L 678 1741 
L 678 2272 
z
" transform="scale(0.015625)"/>
        <path id="DejaVuSans-35" d="M 691 4666 
L 3169 4666 
L 3169 4134 
L 1269 4134 
L 1269 2991 
Q 1406 3038 1543 3061 
Q 1681 3084 1819 3084 
Q 2600 3084 3056 2656 
Q 3513 2228 3513 1497 
Q 3513 744 3044 326 
Q 2575 -91 1722 -91 
Q 1428 -91 1123 -41 
Q 819 9 494 109 
L 494 744 
Q 775 591 1075 516 
Q 1375 441 1709 441 
Q 2250 441 2565 725 
Q 2881 1009 2881 1497 
Q 2881 1984 2565 2268 
Q 2250 2553 1709 2553 
Q 1456 2553 1204 2497 
Q 953 2441 691 2322 
L 691 4666 
z
" transform="scale(0.015625)"/>
       </defs>
       <use xlink:href="#DejaVuSans-2212"/>
       <use xlink:href="#DejaVuSans-32" transform="translate(83.789062 0)"/>
       <use xlink:href="#DejaVuSans-2e" transform="translate(147.412109 0)"/>
       <use xlink:href="#DejaVuSans-35" transform="translate(179.199219 0)"/>
      </g>
     </g>
    </g>
    <g id="ytick_2">
     <g id="line2d_8">
      <g>
       <use xlink:href="#me075dbe30f" x="56.09" y="165.794087" style="stroke: #000000; stroke-width: 0.8"/>
      </g>
     </g>
     <g id="text_9">
      <!-- −2.0 -->
      <g transform="translate(24.807188 169.593306) scale(0.1 -0.1)">
       <use xlink:href="#DejaVuSans-2212"/>
       <use xlink:href="#DejaVuSans-32" transform="translate(83.789062 0)"/>
       <use xlink:href="#DejaVuSans-2e" transform="translate(147.412109 0)"/>
       <use xlink:href="#DejaVuSans-30" transform="translate(179.199219 0)"/>
      </g>
     </g>
    </g>
    <g id="ytick_3">
     <g id="line2d_9">
      <g>
       <use xlink:href="#me075dbe30f" x="56.09" y="130.463285" style="stroke: #000000; stroke-width: 0.8"/>
      </g>
     </g>
     <g id="text_10">
      <!-- −1.5 -->
      <g transform="translate(24.807188 134.262504) scale(0.1 -0.1)">
       <use xlink:href="#DejaVuSans-2212"/>
       <use xlink:href="#DejaVuSans-31" transform="translate(83.789062 0)"/>
       <use xlink:href="#DejaVuSans-2e" transform="translate(147.412109 0)"/>
       <use xlink:href="#DejaVuSans-35" transform="translate(179.199219 0)"/>
      </g>
     </g>
    </g>
    <g id="ytick_4">
     <g id="line2d_10">
      <g>
       <use xlink:href="#me075dbe30f" x="56.09" y="95.132483" style="stroke: #000000; stroke-width: 0.8"/>
      </g>
     </g>
     <g id="text_11">
      <!-- −1.0 -->
      <g transform="translate(24.807188 98.931702) scale(0.1 -0.1)">
       <use xlink:href="#DejaVuSans-2212"/>
       <use xlink:href="#DejaVuSans-31" transform="translate(83.789062 0)"/>
       <use xlink:href="#DejaVuSans-2e" transform="translate(147.412109 0)"/>
       <use xlink:href="#DejaVuSans-30" transform="translate(179.199219 0)"/>
      </g>
     </g>
    </g>
    <g id="ytick_5">
     <g id="line2d_11">
      <g>
       <use xlink:href="#me075dbe30f" x="56.09" y="59.801681" style="stroke: #000000; stroke-width: 0.8"/>
      </g>
     </g>
     <g id="text_12">
      <!-- −0.5 -->
      <g transform="translate(24.807188 63.6009) scale(0.1 -0.1)">
       <use xlink:href="#DejaVuSans-2212"/>
       <use xlink:href="#DejaVuSans-30" transform="translate(83.789062 0)"/>
       <use xlink:href="#DejaVuSans-2e" transform="translate(147.412109 0)"/>
       <use xlink:href="#DejaVuSans-35" transform="translate(179.199219 0)"/>
      </g>
     </g>
    </g>
    <g id="ytick_6">
     <g id="line2d_12">
      <g>
       <use xlink:href="#me075dbe30f" x="56.09" y="24.470879" style="stroke: #000000; stroke-width: 0.8"/>
      </g>
     </g>
     <g id="text_13">
      <!-- 0.0 -->
      <g transform="translate(33.186875 28.270097) scale(0.1 -0.1)">
       <use xlink:href="#DejaVuSans-30"/>
       <use xlink:href="#DejaVuSans-2e" transform="translate(63.623047 0)"/>
       <use xlink:href="#DejaVuSans-30" transform="translate(95.410156 0)"/>
      </g>
     </g>
    </g>
    <g id="text_14">
     <!-- Parameters -->
     <g transform="translate(18.7275 139.037188) rotate(-90) scale(0.1 -0.1)">
      <defs>
       <path id="DejaVuSans-6d" d="M 3328 2828 
Q 3544 3216 3844 3400 
Q 4144 3584 4550 3584 
Q 5097 3584 5394 3201 
Q 5691 2819 5691 2113 
L 5691 0 
L 5113 0 
L 5113 2094 
Q 5113 2597 4934 2840 
Q 4756 3084 4391 3084 
Q 3944 3084 3684 2787 
Q 3425 2491 3425 1978 
L 3425 0 
L 2847 0 
L 2847 2094 
Q 2847 2600 2669 2842 
Q 2491 3084 2119 3084 
Q 1678 3084 1418 2786 
Q 1159 2488 1159 1978 
L 1159 0 
L 581 0 
L 581 3500 
L 1159 3500 
L 1159 2956 
Q 1356 3278 1631 3431 
Q 1906 3584 2284 3584 
Q 2666 3584 2933 3390 
Q 3200 3197 3328 2828 
z
" transform="scale(0.015625)"/>
       <path id="DejaVuSans-73" d="M 2834 3397 
L 2834 2853 
Q 2591 2978 2328 3040 
Q 2066 3103 1784 3103 
Q 1356 3103 1142 2972 
Q 928 2841 928 2578 
Q 928 2378 1081 2264 
Q 1234 2150 1697 2047 
L 1894 2003 
Q 2506 1872 2764 1633 
Q 3022 1394 3022 966 
Q 3022 478 2636 193 
Q 2250 -91 1575 -91 
Q 1294 -91 989 -36 
Q 684 19 347 128 
L 347 722 
Q 666 556 975 473 
Q 1284 391 1588 391 
Q 1994 391 2212 530 
Q 2431 669 2431 922 
Q 2431 1156 2273 1281 
Q 2116 1406 1581 1522 
L 1381 1569 
Q 847 1681 609 1914 
Q 372 2147 372 2553 
Q 372 3047 722 3315 
Q 1072 3584 1716 3584 
Q 2034 3584 2315 3537 
Q 2597 3491 2834 3397 
z
" transform="scale(0.015625)"/>
      </defs>
      <use xlink:href="#DejaVuSans-50"/>
      <use xlink:href="#DejaVuSans-61" transform="translate(55.802734 0)"/>
      <use xlink:href="#DejaVuSans-72" transform="translate(117.082031 0)"/>
      <use xlink:href="#DejaVuSans-61" transform="translate(158.195312 0)"/>
      <use xlink:href="#DejaVuSans-6d" transform="translate(219.474609 0)"/>
      <use xlink:href="#DejaVuSans-65" transform="translate(316.886719 0)"/>
      <use xlink:href="#DejaVuSans-74" transform="translate(378.410156 0)"/>
      <use xlink:href="#DejaVuSans-65" transform="translate(417.619141 0)"/>
      <use xlink:href="#DejaVuSans-72" transform="translate(479.142578 0)"/>
      <use xlink:href="#DejaVuSans-73" transform="translate(520.255859 0)"/>
     </g>
    </g>
   </g>
   <g id="line2d_13">
    <path d="M 56.09 138.172746 
L 58.227668 137.724368 
L 60.365337 137.477653 
L 62.503005 137.31073 
L 64.640673 137.193611 
L 66.778342 136.99747 
L 68.91601 136.946846 
L 71.053678 136.838372 
L 73.191347 136.73615 
L 75.329015 136.788943 
L 77.466683 136.702823 
L 79.604352 136.730371 
L 81.74202 136.749511 
L 83.879688 136.705337 
L 86.017356 136.641248 
L 88.155025 136.760016 
L 90.292693 136.684364 
L 92.430361 136.869979 
L 94.56803 136.725602 
L 96.705698 136.780501 
L 98.843366 136.801582 
L 100.981035 136.886542 
L 103.118703 136.835801 
L 105.256371 136.799824 
L 107.39404 136.786333 
L 109.531708 136.737717 
L 111.669376 136.780845 
L 113.807045 136.781459 
L 115.944713 136.828747 
L 118.082381 136.725724 
L 120.22005 136.752235 
L 122.357718 136.814194 
L 124.495386 136.716937 
L 126.633055 136.583679 
L 128.770723 136.672564 
L 130.908391 136.642478 
L 133.04606 136.683405 
L 135.183728 136.663173 
L 137.321396 136.74796 
L 139.459065 136.672653 
L 141.596733 136.656835 
L 143.734401 136.714743 
L 145.872069 136.722558 
L 148.009738 136.793763 
L 150.147406 136.745285 
L 152.285074 136.723912 
L 154.422743 136.769366 
L 156.560411 136.646286 
L 158.698079 136.605696 
L 160.835748 136.68499 
L 162.973416 136.77311 
L 165.111084 136.817682 
L 167.248753 136.776106 
L 169.386421 136.799207 
L 171.524089 136.779134 
L 173.661758 136.779499 
L 175.799426 136.812681 
L 177.937094 136.766646 
L 180.074763 136.715719 
L 182.212431 136.759098 
L 184.350099 136.754388 
L 186.487768 136.753232 
L 188.625436 136.829934 
L 190.763104 136.810869 
L 192.900773 136.847601 
L 195.038441 136.735754 
L 197.176109 136.62967 
L 199.313778 136.453185 
L 201.451446 136.4622 
L 203.589114 136.604374 
L 205.726782 136.603893 
L 207.864451 136.796136 
L 210.002119 136.854064 
L 212.139787 136.845892 
L 214.277456 136.798937 
L 216.415124 136.748076 
L 218.552792 136.691477 
L 220.690461 136.839351 
L 222.828129 136.951113 
L 224.965797 136.799561 
L 227.103466 136.646836 
L 229.241134 136.65169 
L 231.378802 136.729668 
L 233.516471 136.690486 
L 235.654139 136.592053 
L 237.791807 136.583702 
L 239.929476 136.590838 
L 242.067144 136.604519 
L 244.204812 136.520666 
L 246.342481 136.467672 
L 248.480149 136.353098 
L 250.617817 136.383542 
L 252.755486 136.542037 
L 254.893154 136.430727 
L 257.030822 136.492903 
L 259.168491 136.616004 
L 261.306159 136.546408 
L 263.443827 136.398 
L 265.581495 136.403956 
L 267.719164 136.478306 
L 269.856832 136.505918 
" clip-path="url(#p5383450e63)" style="fill: none; stroke: #1f77b4; stroke-width: 1.5; stroke-linecap: square"/>
   </g>
   <g id="line2d_14">
    <path d="M 56.09 200.983636 
L 58.227668 200.329358 
L 60.365337 199.927209 
L 62.503005 199.666659 
L 64.640673 199.421509 
L 66.778342 199.156716 
L 68.91601 199.084999 
L 71.053678 198.941178 
L 73.191347 198.831054 
L 75.329015 198.900882 
L 77.466683 198.785589 
L 79.604352 198.79203 
L 81.74202 198.863667 
L 83.879688 198.813984 
L 86.017356 198.689396 
L 88.155025 198.83485 
L 90.292693 198.73999 
L 92.430361 199.045463 
L 94.56803 198.834082 
L 96.705698 198.939895 
L 98.843366 198.970126 
L 100.981035 199.07167 
L 103.118703 199.020107 
L 105.256371 198.966373 
L 107.39404 198.952046 
L 109.531708 198.910754 
L 111.669376 198.983937 
L 113.807045 198.971646 
L 115.944713 199.024821 
L 118.082381 198.876953 
L 120.22005 198.889655 
L 122.357718 198.998492 
L 124.495386 198.84502 
L 126.633055 198.629976 
L 128.770723 198.71315 
L 130.908391 198.670463 
L 133.04606 198.73764 
L 135.183728 198.707599 
L 137.321396 198.836101 
L 139.459065 198.699216 
L 141.596733 198.707584 
L 143.734401 198.78005 
L 145.872069 198.746945 
L 148.009738 198.937741 
L 150.147406 198.877498 
L 152.285074 198.867315 
L 154.422743 198.868246 
L 156.560411 198.7027 
L 158.698079 198.608726 
L 160.835748 198.72512 
L 162.973416 198.875677 
L 165.111084 198.888227 
L 167.248753 198.834235 
L 169.386421 198.904832 
L 171.524089 198.924195 
L 173.661758 198.908379 
L 175.799426 198.980004 
L 177.937094 198.883421 
L 180.074763 198.789996 
L 182.212431 198.834295 
L 184.350099 198.824582 
L 186.487768 198.847463 
L 188.625436 198.929835 
L 190.763104 198.912331 
L 192.900773 198.969864 
L 195.038441 198.795431 
L 197.176109 198.629939 
L 199.313778 198.375821 
L 201.451446 198.430667 
L 203.589114 198.626423 
L 205.726782 198.628798 
L 207.864451 198.922472 
L 210.002119 199.00607 
L 212.139787 198.975923 
L 214.277456 198.857727 
L 216.415124 198.784507 
L 218.552792 198.666065 
L 220.690461 198.95255 
L 222.828129 199.135419 
L 224.965797 198.912738 
L 227.103466 198.672512 
L 229.241134 198.713825 
L 231.378802 198.829692 
L 233.516471 198.708773 
L 235.654139 198.589263 
L 237.791807 198.567226 
L 239.929476 198.601629 
L 242.067144 198.673434 
L 244.204812 198.595564 
L 246.342481 198.521938 
L 248.480149 198.370902 
L 250.617817 198.439806 
L 252.755486 198.649011 
L 254.893154 198.490548 
L 257.030822 198.559215 
L 259.168491 198.62199 
L 261.306159 198.535749 
L 263.443827 198.32798 
L 265.581495 198.359797 
L 267.719164 198.473324 
L 269.856832 198.502573 
" clip-path="url(#p5383450e63)" style="fill: none; stroke: #ff7f0e; stroke-width: 1.5; stroke-linecap: square"/>
   </g>
   <g id="line2d_15">
    <path d="M 56.09 22.516039 
L 58.227668 22.514678 
L 60.365337 22.541198 
L 62.503005 22.575221 
L 64.640673 22.568882 
L 66.778342 22.560607 
L 68.91601 22.59576 
L 71.053678 22.552479 
L 73.191347 22.54661 
L 75.329015 22.547309 
L 77.466683 22.556035 
L 79.604352 22.574709 
L 81.74202 22.539849 
L 83.879688 22.543296 
L 86.017356 22.532197 
L 88.155025 22.56863 
L 90.292693 22.550233 
L 92.430361 22.537406 
L 94.56803 22.571918 
L 96.705698 22.517833 
L 98.843366 22.499291 
L 100.981035 22.542391 
L 103.118703 22.550053 
L 105.256371 22.523488 
L 107.39404 22.508253 
L 109.531708 22.487841 
L 111.669376 22.478556 
L 113.807045 22.490882 
L 115.944713 22.487876 
L 118.082381 22.489575 
L 120.22005 22.491464 
L 122.357718 22.486106 
L 124.495386 22.518562 
L 126.633055 22.5566 
L 128.770723 22.570456 
L 130.908391 22.593662 
L 133.04606 22.581697 
L 135.183728 22.559709 
L 137.321396 22.566581 
L 139.459065 22.558481 
L 141.596733 22.541988 
L 143.734401 22.548406 
L 145.872069 22.524495 
L 148.009738 22.518768 
L 150.147406 22.525574 
L 152.285074 22.520698 
L 154.422743 22.54616 
L 156.560411 22.516584 
L 158.698079 22.547656 
L 160.835748 22.557436 
L 162.973416 22.545127 
L 165.111084 22.578547 
L 167.248753 22.581505 
L 169.386421 22.561746 
L 171.524089 22.578304 
L 173.661758 22.5772 
L 175.799426 22.587275 
L 177.937094 22.598884 
L 180.074763 22.574538 
L 182.212431 22.563191 
L 184.350099 22.57769 
L 186.487768 22.557619 
L 188.625436 22.562463 
L 190.763104 22.589132 
L 192.900773 22.570579 
L 195.038441 22.585133 
L 197.176109 22.557202 
L 199.313778 22.562528 
L 201.451446 22.53354 
L 203.589114 22.555859 
L 205.726782 22.544982 
L 207.864451 22.529778 
L 210.002119 22.51893 
L 212.139787 22.542735 
L 214.277456 22.549327 
L 216.415124 22.575542 
L 218.552792 22.566256 
L 220.690461 22.54568 
L 222.828129 22.528823 
L 224.965797 22.521032 
L 227.103466 22.553792 
L 229.241134 22.55502 
L 231.378802 22.526523 
L 233.516471 22.535596 
L 235.654139 22.572996 
L 237.791807 22.571248 
L 239.929476 22.564357 
L 242.067144 22.555769 
L 244.204812 22.539711 
L 246.342481 22.550725 
L 248.480149 22.541366 
L 250.617817 22.545335 
L 252.755486 22.532613 
L 254.893154 22.528383 
L 257.030822 22.524407 
L 259.168491 22.597166 
L 261.306159 22.587127 
L 263.443827 22.593452 
L 265.581495 22.594698 
L 267.719164 22.578518 
L 269.856832 22.587876 
" clip-path="url(#p5383450e63)" style="fill: none; stroke: #2ca02c; stroke-width: 1.5; stroke-linecap: square"/>
   </g>
   <g id="line2d_16">
    <path d="M 56.09 19.858221 
L 58.227668 19.976289 
L 60.365337 20.097876 
L 62.503005 20.238065 
L 64.640673 20.184863 
L 66.778342 20.191172 
L 68.91601 20.261336 
L 71.053678 20.27304 
L 73.191347 20.243766 
L 75.329015 20.18145 
L 77.466683 20.178634 
L 79.604352 20.272804 
L 81.74202 20.166522 
L 83.879688 20.182439 
L 86.017356 20.218771 
L 88.155025 20.285494 
L 90.292693 20.257773 
L 92.430361 20.239872 
L 94.56803 20.29762 
L 96.705698 20.151008 
L 98.843366 20.113976 
L 100.981035 20.174542 
L 103.118703 20.199751 
L 105.256371 20.011683 
L 107.39404 20.005085 
L 109.531708 19.885934 
L 111.669376 19.856364 
L 113.807045 19.868695 
L 115.944713 19.863968 
L 118.082381 19.900307 
L 120.22005 19.962332 
L 122.357718 19.934136 
L 124.495386 20.066908 
L 126.633055 20.18727 
L 128.770723 20.251825 
L 130.908391 20.281221 
L 133.04606 20.184886 
L 135.183728 20.187715 
L 137.321396 20.20726 
L 139.459065 20.291857 
L 141.596733 20.28196 
L 143.734401 20.320913 
L 145.872069 20.329107 
L 148.009738 20.206444 
L 150.147406 20.304382 
L 152.285074 20.283611 
L 154.422743 20.230501 
L 156.560411 20.149726 
L 158.698079 20.248042 
L 160.835748 20.273564 
L 162.973416 20.192944 
L 165.111084 20.288609 
L 167.248753 20.32359 
L 169.386421 20.287432 
L 171.524089 20.211765 
L 173.661758 20.17289 
L 175.799426 20.206194 
L 177.937094 20.196433 
L 180.074763 20.206496 
L 182.212431 20.265759 
L 184.350099 20.261416 
L 186.487768 20.184986 
L 188.625436 20.309961 
L 190.763104 20.354323 
L 192.900773 20.322505 
L 195.038441 20.312253 
L 197.176109 20.226132 
L 199.313778 20.21299 
L 201.451446 20.074775 
L 203.589114 20.17217 
L 205.726782 20.198188 
L 207.864451 20.131767 
L 210.002119 20.184537 
L 212.139787 20.271978 
L 214.277456 20.310938 
L 216.415124 20.37107 
L 218.552792 20.425575 
L 220.690461 20.260172 
L 222.828129 20.267944 
L 224.965797 20.283418 
L 227.103466 20.371329 
L 229.241134 20.226343 
L 231.378802 20.174107 
L 233.516471 20.236662 
L 235.654139 20.277461 
L 237.791807 20.297583 
L 239.929476 20.34092 
L 242.067144 20.247664 
L 244.204812 20.217658 
L 246.342481 20.282089 
L 248.480149 20.260941 
L 250.617817 20.237103 
L 252.755486 20.269326 
L 254.893154 20.232807 
L 257.030822 20.176756 
L 259.168491 20.394195 
L 261.306159 20.332353 
L 263.443827 20.363487 
L 265.581495 20.454116 
L 267.719164 20.45465 
L 269.856832 20.461912 
" clip-path="url(#p5383450e63)" style="fill: none; stroke: #d62728; stroke-width: 1.5; stroke-linecap: square"/>
   </g>
   <g id="line2d_17">
    <path d="M 56.09 25.411462 
L 58.227668 25.464415 
L 60.365337 25.500321 
L 62.503005 25.528349 
L 64.640673 25.550097 
L 66.778342 25.567815 
L 68.91601 25.591523 
L 71.053678 25.616917 
L 73.191347 25.630943 
L 75.329015 25.620081 
L 77.466683 25.630283 
L 79.604352 25.618361 
L 81.74202 25.610875 
L 83.879688 25.634898 
L 86.017356 25.644526 
L 88.155025 25.637983 
L 90.292693 25.652497 
L 92.430361 25.646326 
L 94.56803 25.656844 
L 96.705698 25.648844 
L 98.843366 25.63176 
L 100.981035 25.630076 
L 103.118703 25.619349 
L 105.256371 25.623779 
L 107.39404 25.615223 
L 109.531708 25.616497 
L 111.669376 25.610212 
L 113.807045 25.622474 
L 115.944713 25.611778 
L 118.082381 25.623656 
L 120.22005 25.623058 
L 122.357718 25.605778 
L 124.495386 25.618163 
L 126.633055 25.623974 
L 128.770723 25.640756 
L 130.908391 25.634851 
L 133.04606 25.625727 
L 135.183728 25.630492 
L 137.321396 25.622101 
L 139.459065 25.630498 
L 141.596733 25.640527 
L 143.734401 25.641584 
L 145.872069 25.649781 
L 148.009738 25.634762 
L 150.147406 25.619727 
L 152.285074 25.63406 
L 154.422743 25.624801 
L 156.560411 25.624289 
L 158.698079 25.643928 
L 160.835748 25.662125 
L 162.973416 25.648395 
L 165.111084 25.645821 
L 167.248753 25.648557 
L 169.386421 25.664651 
L 171.524089 25.664702 
L 173.661758 25.650269 
L 175.799426 25.669233 
L 177.937094 25.661644 
L 180.074763 25.666892 
L 182.212431 25.6731 
L 184.350099 25.678832 
L 186.487768 25.655246 
L 188.625436 25.643087 
L 190.763104 25.667795 
L 192.900773 25.661564 
L 195.038441 25.647815 
L 197.176109 25.646403 
L 199.313778 25.681544 
L 201.451446 25.669053 
L 203.589114 25.65102 
L 205.726782 25.642792 
L 207.864451 25.654165 
L 210.002119 25.650318 
L 212.139787 25.649208 
L 214.277456 25.647352 
L 216.415124 25.660692 
L 218.552792 25.657898 
L 220.690461 25.63843 
L 222.828129 25.637453 
L 224.965797 25.661836 
L 227.103466 25.668993 
L 229.241134 25.635209 
L 231.378802 25.646573 
L 233.516471 25.660874 
L 235.654139 25.675533 
L 237.791807 25.674033 
L 239.929476 25.67947 
L 242.067144 25.671217 
L 244.204812 25.672725 
L 246.342481 25.660269 
L 248.480149 25.658665 
L 250.617817 25.653761 
L 252.755486 25.656058 
L 254.893154 25.667361 
L 257.030822 25.665766 
L 259.168491 25.674178 
L 261.306159 25.687145 
L 263.443827 25.690699 
L 265.581495 25.689829 
L 267.719164 25.68322 
L 269.856832 25.695056 
" clip-path="url(#p5383450e63)" style="fill: none; stroke: #9467bd; stroke-width: 1.5; stroke-linecap: square"/>
   </g>
   <g id="line2d_18">
    <path d="M 56.09 29.634319 
L 58.227668 29.650141 
L 60.365337 29.693345 
L 62.503005 29.711875 
L 64.640673 29.738618 
L 66.778342 29.722855 
L 68.91601 29.74392 
L 71.053678 29.7634 
L 73.191347 29.773189 
L 75.329015 29.73126 
L 77.466683 29.73693 
L 79.604352 29.719005 
L 81.74202 29.704993 
L 83.879688 29.732365 
L 86.017356 29.741087 
L 88.155025 29.733915 
L 90.292693 29.754031 
L 92.430361 29.704386 
L 94.56803 29.717538 
L 96.705698 29.699343 
L 98.843366 29.680305 
L 100.981035 29.696822 
L 103.118703 29.678653 
L 105.256371 29.693651 
L 107.39404 29.687502 
L 109.531708 29.664257 
L 111.669376 29.65328 
L 113.807045 29.655965 
L 115.944713 29.670144 
L 118.082381 29.691509 
L 120.22005 29.684403 
L 122.357718 29.660987 
L 124.495386 29.660482 
L 126.633055 29.683172 
L 128.770723 29.728059 
L 130.908391 29.736835 
L 133.04606 29.741043 
L 135.183728 29.740617 
L 137.321396 29.710312 
L 139.459065 29.735767 
L 141.596733 29.746202 
L 143.734401 29.71797 
L 145.872069 29.733132 
L 148.009738 29.700658 
L 150.147406 29.670327 
L 152.285074 29.709041 
L 154.422743 29.711029 
L 156.560411 29.694844 
L 158.698079 29.729221 
L 160.835748 29.750896 
L 162.973416 29.730847 
L 165.111084 29.736007 
L 167.248753 29.751693 
L 169.386421 29.761507 
L 171.524089 29.751 
L 173.661758 29.717003 
L 175.799426 29.747071 
L 177.937094 29.744493 
L 180.074763 29.750151 
L 182.212431 29.776958 
L 184.350099 29.791501 
L 186.487768 29.770273 
L 188.625436 29.721654 
L 190.763104 29.757064 
L 192.900773 29.762891 
L 195.038441 29.743365 
L 197.176109 29.755546 
L 199.313778 29.832159 
L 201.451446 29.785483 
L 203.589114 29.758437 
L 205.726782 29.74484 
L 207.864451 29.721576 
L 210.002119 29.704354 
L 212.139787 29.706542 
L 214.277456 29.720203 
L 216.415124 29.751068 
L 218.552792 29.743809 
L 220.690461 29.692289 
L 222.828129 29.70753 
L 224.965797 29.749637 
L 227.103466 29.762609 
L 229.241134 29.709204 
L 231.378802 29.728894 
L 233.516471 29.763465 
L 235.654139 29.758849 
L 237.791807 29.765511 
L 239.929476 29.766834 
L 242.067144 29.732932 
L 244.204812 29.695179 
L 246.342481 29.685684 
L 248.480149 29.712043 
L 250.617817 29.687435 
L 252.755486 29.696879 
L 254.893154 29.701862 
L 257.030822 29.71467 
L 259.168491 29.788702 
L 261.306159 29.818225 
L 263.443827 29.821638 
L 265.581495 29.796977 
L 267.719164 29.794338 
L 269.856832 29.8127 
" clip-path="url(#p5383450e63)" style="fill: none; stroke: #8c564b; stroke-width: 1.5; stroke-linecap: square"/>
   </g>
   <g id="line2d_19">
    <path d="M 56.09 25.418414 
L 58.227668 25.448801 
L 60.365337 25.477807 
L 62.503005 25.509385 
L 64.640673 25.550572 
L 66.778342 25.556959 
L 68.91601 25.577855 
L 71.053678 25.618474 
L 73.191347 25.620471 
L 75.329015 25.607056 
L 77.466683 25.625964 
L 79.604352 25.626721 
L 81.74202 25.634413 
L 83.879688 25.649202 
L 86.017356 25.64352 
L 88.155025 25.644083 
L 90.292693 25.621543 
L 92.430361 25.600387 
L 94.56803 25.592652 
L 96.705698 25.578069 
L 98.843366 25.59452 
L 100.981035 25.563121 
L 103.118703 25.55478 
L 105.256371 25.60261 
L 107.39404 25.594608 
L 109.531708 25.601662 
L 111.669376 25.599202 
L 113.807045 25.593273 
L 115.944713 25.581008 
L 118.082381 25.588963 
L 120.22005 25.596855 
L 122.357718 25.616527 
L 124.495386 25.593085 
L 126.633055 25.58007 
L 128.770723 25.572628 
L 130.908391 25.585801 
L 133.04606 25.579226 
L 135.183728 25.594821 
L 137.321396 25.596332 
L 139.459065 25.612132 
L 141.596733 25.61781 
L 143.734401 25.62834 
L 145.872069 25.600533 
L 148.009738 25.604576 
L 150.147406 25.60687 
L 152.285074 25.616531 
L 154.422743 25.600814 
L 156.560411 25.585032 
L 158.698079 25.60346 
L 160.835748 25.594842 
L 162.973416 25.589789 
L 165.111084 25.592919 
L 167.248753 25.593835 
L 169.386421 25.600799 
L 171.524089 25.61011 
L 173.661758 25.628855 
L 175.799426 25.636624 
L 177.937094 25.624579 
L 180.074763 25.65046 
L 182.212431 25.632708 
L 184.350099 25.62456 
L 186.487768 25.621289 
L 188.625436 25.620299 
L 190.763104 25.622995 
L 192.900773 25.593169 
L 195.038441 25.608449 
L 197.176109 25.57838 
L 199.313778 25.572154 
L 201.451446 25.529765 
L 203.589114 25.525026 
L 205.726782 25.559309 
L 207.864451 25.576477 
L 210.002119 25.571734 
L 212.139787 25.568363 
L 214.277456 25.58101 
L 216.415124 25.591907 
L 218.552792 25.56709 
L 220.690461 25.574157 
L 222.828129 25.601571 
L 224.965797 25.594596 
L 227.103466 25.590051 
L 229.241134 25.600065 
L 231.378802 25.59189 
L 233.516471 25.606634 
L 235.654139 25.599193 
L 237.791807 25.577697 
L 239.929476 25.579938 
L 242.067144 25.60188 
L 244.204812 25.627914 
L 246.342481 25.64899 
L 248.480149 25.644792 
L 250.617817 25.665195 
L 252.755486 25.658691 
L 254.893154 25.604678 
L 257.030822 25.59044 
L 259.168491 25.583821 
L 261.306159 25.589397 
L 263.443827 25.570948 
L 265.581495 25.562079 
L 267.719164 25.554615 
L 269.856832 25.565455 
" clip-path="url(#p5383450e63)" style="fill: none; stroke: #e377c2; stroke-width: 1.5; stroke-linecap: square"/>
   </g>
   <g id="line2d_20">
    <path d="M 56.09 26.73884 
L 58.227668 26.863597 
L 60.365337 26.949965 
L 62.503005 27.043421 
L 64.640673 27.123406 
L 66.778342 27.216383 
L 68.91601 27.252711 
L 71.053678 27.351642 
L 73.191347 27.295231 
L 75.329015 27.305553 
L 77.466683 27.349035 
L 79.604352 27.413525 
L 81.74202 27.479936 
L 83.879688 27.582079 
L 86.017356 27.560853 
L 88.155025 27.582604 
L 90.292693 27.561694 
L 92.430361 27.472765 
L 94.56803 27.382136 
L 96.705698 27.397685 
L 98.843366 27.392462 
L 100.981035 27.352883 
L 103.118703 27.336029 
L 105.256371 27.412951 
L 107.39404 27.3828 
L 109.531708 27.389508 
L 111.669376 27.444215 
L 113.807045 27.478757 
L 115.944713 27.391449 
L 118.082381 27.32991 
L 120.22005 27.35319 
L 122.357718 27.414489 
L 124.495386 27.317121 
L 126.633055 27.32555 
L 128.770723 27.378633 
L 130.908391 27.408301 
L 133.04606 27.44285 
L 135.183728 27.443522 
L 137.321396 27.387498 
L 139.459065 27.406956 
L 141.596733 27.401191 
L 143.734401 27.401516 
L 145.872069 27.279104 
L 148.009738 27.272334 
L 150.147406 27.237872 
L 152.285074 27.307926 
L 154.422743 27.235828 
L 156.560411 27.146851 
L 158.698079 27.216532 
L 160.835748 27.180527 
L 162.973416 27.187579 
L 165.111084 27.28904 
L 167.248753 27.228788 
L 169.386421 27.316836 
L 171.524089 27.288318 
L 173.661758 27.285253 
L 175.799426 27.343832 
L 177.937094 27.372422 
L 180.074763 27.381713 
L 182.212431 27.372052 
L 184.350099 27.382838 
L 186.487768 27.370018 
L 188.625436 27.336401 
L 190.763104 27.382254 
L 192.900773 27.262594 
L 195.038441 27.310215 
L 197.176109 27.296723 
L 199.313778 27.333192 
L 201.451446 27.294586 
L 203.589114 27.184176 
L 205.726782 27.232978 
L 207.864451 27.336897 
L 210.002119 27.340133 
L 212.139787 27.385912 
L 214.277456 27.399111 
L 216.415124 27.358028 
L 218.552792 27.297461 
L 220.690461 27.319768 
L 222.828129 27.309052 
L 224.965797 27.295947 
L 227.103466 27.31426 
L 229.241134 27.385924 
L 231.378802 27.363437 
L 233.516471 27.399258 
L 235.654139 27.428229 
L 237.791807 27.331548 
L 239.929476 27.286216 
L 242.067144 27.383672 
L 244.204812 27.437498 
L 246.342481 27.565286 
L 248.480149 27.506419 
L 250.617817 27.557522 
L 252.755486 27.512552 
L 254.893154 27.416328 
L 257.030822 27.397615 
L 259.168491 27.383872 
L 261.306159 27.372404 
L 263.443827 27.32325 
L 265.581495 27.32682 
L 267.719164 27.299777 
L 269.856832 27.273553 
" clip-path="url(#p5383450e63)" style="fill: none; stroke: #7f7f7f; stroke-width: 1.5; stroke-linecap: square"/>
   </g>
   <g id="line2d_21">
    <path d="M 56.09 25.977615 
L 58.227668 26.155303 
L 60.365337 26.26597 
L 62.503005 26.372114 
L 64.640673 26.440439 
L 66.778342 26.532224 
L 68.91601 26.598352 
L 71.053678 26.648848 
L 73.191347 26.637425 
L 75.329015 26.670781 
L 77.466683 26.699571 
L 79.604352 26.704182 
L 81.74202 26.713061 
L 83.879688 26.729688 
L 86.017356 26.756127 
L 88.155025 26.770516 
L 90.292693 26.736446 
L 92.430361 26.731635 
L 94.56803 26.713659 
L 96.705698 26.721268 
L 98.843366 26.728062 
L 100.981035 26.705347 
L 103.118703 26.718908 
L 105.256371 26.720579 
L 107.39404 26.704248 
L 109.531708 26.717013 
L 111.669376 26.736425 
L 113.807045 26.747365 
L 115.944713 26.707425 
L 118.082381 26.682257 
L 120.22005 26.69575 
L 122.357718 26.729811 
L 124.495386 26.764081 
L 126.633055 26.740561 
L 128.770723 26.725971 
L 130.908391 26.726951 
L 133.04606 26.697745 
L 135.183728 26.70701 
L 137.321396 26.693188 
L 139.459065 26.69083 
L 141.596733 26.688937 
L 143.734401 26.756575 
L 145.872069 26.741309 
L 148.009738 26.722253 
L 150.147406 26.719562 
L 152.285074 26.692076 
L 154.422743 26.677831 
L 156.560411 26.66776 
L 158.698079 26.711465 
L 160.835748 26.694022 
L 162.973416 26.6993 
L 165.111084 26.73535 
L 167.248753 26.704571 
L 169.386421 26.72405 
L 171.524089 26.725275 
L 173.661758 26.726629 
L 175.799426 26.748147 
L 177.937094 26.746071 
L 180.074763 26.735598 
L 182.212431 26.722182 
L 184.350099 26.74535 
L 186.487768 26.701861 
L 188.625436 26.740894 
L 190.763104 26.755101 
L 192.900773 26.728128 
L 195.038441 26.765126 
L 197.176109 26.695821 
L 199.313778 26.685546 
L 201.451446 26.677785 
L 203.589114 26.665008 
L 205.726782 26.669366 
L 207.864451 26.739164 
L 210.002119 26.765676 
L 212.139787 26.775123 
L 214.277456 26.786161 
L 216.415124 26.786328 
L 218.552792 26.754075 
L 220.690461 26.762612 
L 222.828129 26.758439 
L 224.965797 26.758161 
L 227.103466 26.754741 
L 229.241134 26.763794 
L 231.378802 26.733262 
L 233.516471 26.740944 
L 235.654139 26.752276 
L 237.791807 26.739101 
L 239.929476 26.734147 
L 242.067144 26.771859 
L 244.204812 26.824828 
L 246.342481 26.826148 
L 248.480149 26.77882 
L 250.617817 26.827485 
L 252.755486 26.824409 
L 254.893154 26.801212 
L 257.030822 26.788281 
L 259.168491 26.765227 
L 261.306159 26.724469 
L 263.443827 26.711782 
L 265.581495 26.735348 
L 267.719164 26.687348 
L 269.856832 26.688577 
" clip-path="url(#p5383450e63)" style="fill: none; stroke: #bcbd22; stroke-width: 1.5; stroke-linecap: square"/>
   </g>
   <g id="line2d_22">
    <path d="M 56.09 25.014225 
L 58.227668 25.273855 
L 60.365337 25.45065 
L 62.503005 25.581727 
L 64.640673 25.72509 
L 66.778342 25.854796 
L 68.91601 25.907557 
L 71.053678 25.967394 
L 73.191347 26.023846 
L 75.329015 26.100728 
L 77.466683 26.15107 
L 79.604352 26.166379 
L 81.74202 26.177466 
L 83.879688 26.163194 
L 86.017356 26.190778 
L 88.155025 26.209346 
L 90.292693 26.183063 
L 92.430361 26.29384 
L 94.56803 26.262501 
L 96.705698 26.304382 
L 98.843366 26.3207 
L 100.981035 26.295761 
L 103.118703 26.316911 
L 105.256371 26.285505 
L 107.39404 26.274922 
L 109.531708 26.298456 
L 111.669376 26.318542 
L 113.807045 26.333995 
L 115.944713 26.28218 
L 118.082381 26.245042 
L 120.22005 26.265599 
L 122.357718 26.294499 
L 124.495386 26.326348 
L 126.633055 26.294439 
L 128.770723 26.238504 
L 130.908391 26.199775 
L 133.04606 26.173907 
L 135.183728 26.212257 
L 137.321396 26.238205 
L 139.459065 26.215531 
L 141.596733 26.193978 
L 143.734401 26.288872 
L 145.872069 26.310986 
L 148.009738 26.304709 
L 150.147406 26.349599 
L 152.285074 26.261728 
L 154.422743 26.277087 
L 156.560411 26.302551 
L 158.698079 26.272948 
L 160.835748 26.251923 
L 162.973416 26.252916 
L 165.111084 26.238807 
L 167.248753 26.187888 
L 169.386421 26.194686 
L 171.524089 26.194826 
L 173.661758 26.253624 
L 175.799426 26.249914 
L 177.937094 26.232606 
L 180.074763 26.249048 
L 182.212431 26.212445 
L 184.350099 26.17699 
L 186.487768 26.182649 
L 188.625436 26.229515 
L 190.763104 26.210471 
L 192.900773 26.159682 
L 195.038441 26.20057 
L 197.176109 26.185849 
L 199.313778 26.095908 
L 201.451446 26.172696 
L 203.589114 26.19191 
L 205.726782 26.199976 
L 207.864451 26.262609 
L 210.002119 26.283574 
L 212.139787 26.256744 
L 214.277456 26.295198 
L 216.415124 26.244867 
L 218.552792 26.272653 
L 220.690461 26.293318 
L 222.828129 26.264859 
L 224.965797 26.237686 
L 227.103466 26.231704 
L 229.241134 26.293168 
L 231.378802 26.252474 
L 233.516471 26.241616 
L 235.654139 26.247654 
L 237.791807 26.213658 
L 239.929476 26.208259 
L 242.067144 26.244217 
L 244.204812 26.285325 
L 246.342481 26.293421 
L 248.480149 26.2349 
L 250.617817 26.288246 
L 252.755486 26.283608 
L 254.893154 26.309893 
L 257.030822 26.28449 
L 259.168491 26.177677 
L 261.306159 26.133177 
L 263.443827 26.130951 
L 265.581495 26.159298 
L 267.719164 26.145626 
L 269.856832 26.122015 
" clip-path="url(#p5383450e63)" style="fill: none; stroke: #17becf; stroke-width: 1.5; stroke-linecap: square"/>
   </g>
   <g id="line2d_23">
    <path d="M 56.09 24.194511 
L 58.227668 24.200517 
L 60.365337 24.204053 
L 62.503005 24.2152 
L 64.640673 24.239031 
L 66.778342 24.205766 
L 68.91601 24.235323 
L 71.053678 24.230841 
L 73.191347 24.256171 
L 75.329015 24.240104 
L 77.466683 24.240174 
L 79.604352 24.220329 
L 81.74202 24.197124 
L 83.879688 24.164511 
L 86.017356 24.15952 
L 88.155025 24.141031 
L 90.292693 24.143707 
L 92.430361 24.17546 
L 94.56803 24.217624 
L 96.705698 24.18846 
L 98.843366 24.205911 
L 100.981035 24.18589 
L 103.118703 24.173232 
L 105.256371 24.193558 
L 107.39404 24.185967 
L 109.531708 24.196112 
L 111.669376 24.152145 
L 113.807045 24.146296 
L 115.944713 24.18124 
L 118.082381 24.227024 
L 120.22005 24.223344 
L 122.357718 24.21125 
L 124.495386 24.226927 
L 126.633055 24.213769 
L 128.770723 24.191531 
L 130.908391 24.163569 
L 133.04606 24.119884 
L 135.183728 24.144388 
L 137.321396 24.198592 
L 139.459065 24.215306 
L 141.596733 24.240963 
L 143.734401 24.232595 
L 145.872069 24.258748 
L 148.009738 24.253377 
L 150.147406 24.287634 
L 152.285074 24.273646 
L 154.422743 24.291676 
L 156.560411 24.328429 
L 158.698079 24.317576 
L 160.835748 24.311998 
L 162.973416 24.331771 
L 165.111084 24.277392 
L 167.248753 24.302785 
L 169.386421 24.262187 
L 171.524089 24.280324 
L 173.661758 24.321368 
L 175.799426 24.313181 
L 177.937094 24.268465 
L 180.074763 24.3102 
L 182.212431 24.300735 
L 184.350099 24.296444 
L 186.487768 24.327978 
L 188.625436 24.325676 
L 190.763104 24.300446 
L 192.900773 24.295646 
L 195.038441 24.304209 
L 197.176109 24.271799 
L 199.313778 24.242957 
L 201.451446 24.187173 
L 203.589114 24.223396 
L 205.726782 24.248255 
L 207.864451 24.234481 
L 210.002119 24.216704 
L 212.139787 24.181892 
L 214.277456 24.202469 
L 216.415124 24.224948 
L 218.552792 24.218256 
L 220.690461 24.204514 
L 222.828129 24.233697 
L 224.965797 24.228185 
L 227.103466 24.212144 
L 229.241134 24.191559 
L 231.378802 24.204866 
L 233.516471 24.188877 
L 235.654139 24.166144 
L 237.791807 24.175661 
L 239.929476 24.214891 
L 242.067144 24.19026 
L 244.204812 24.215283 
L 246.342481 24.176115 
L 248.480149 24.200501 
L 250.617817 24.222926 
L 252.755486 24.252015 
L 254.893154 24.219737 
L 257.030822 24.209032 
L 259.168491 24.217554 
L 261.306159 24.226661 
L 263.443827 24.232123 
L 265.581495 24.208371 
L 267.719164 24.206961 
L 269.856832 24.229388 
" clip-path="url(#p5383450e63)" style="fill: none; stroke: #1f77b4; stroke-width: 1.5; stroke-linecap: square"/>
   </g>
   <g id="line2d_24">
    <path d="M 56.09 24.456579 
L 58.227668 24.480002 
L 60.365337 24.470289 
L 62.503005 24.476915 
L 64.640673 24.465682 
L 66.778342 24.4742 
L 68.91601 24.474961 
L 71.053678 24.461659 
L 73.191347 24.464851 
L 75.329015 24.448424 
L 77.466683 24.432854 
L 79.604352 24.428683 
L 81.74202 24.40645 
L 83.879688 24.41607 
L 86.017356 24.407796 
L 88.155025 24.407575 
L 90.292693 24.399826 
L 92.430361 24.409 
L 94.56803 24.399107 
L 96.705698 24.387623 
L 98.843366 24.40168 
L 100.981035 24.396807 
L 103.118703 24.416916 
L 105.256371 24.419206 
L 107.39404 24.42327 
L 109.531708 24.417032 
L 111.669376 24.389476 
L 113.807045 24.377999 
L 115.944713 24.392532 
L 118.082381 24.401826 
L 120.22005 24.400017 
L 122.357718 24.388167 
L 124.495386 24.384717 
L 126.633055 24.390778 
L 128.770723 24.388724 
L 130.908391 24.380463 
L 133.04606 24.364515 
L 135.183728 24.333075 
L 137.321396 24.330638 
L 139.459065 24.360343 
L 141.596733 24.37849 
L 143.734401 24.386693 
L 145.872069 24.427948 
L 148.009738 24.434036 
L 150.147406 24.437732 
L 152.285074 24.441739 
L 154.422743 24.410025 
L 156.560411 24.448448 
L 158.698079 24.442448 
L 160.835748 24.449104 
L 162.973416 24.478831 
L 165.111084 24.486565 
L 167.248753 24.475563 
L 169.386421 24.478091 
L 171.524089 24.469116 
L 173.661758 24.455518 
L 175.799426 24.455765 
L 177.937094 24.455812 
L 180.074763 24.459284 
L 182.212431 24.447022 
L 184.350099 24.437247 
L 186.487768 24.450235 
L 188.625436 24.448846 
L 190.763104 24.454101 
L 192.900773 24.462595 
L 195.038441 24.449176 
L 197.176109 24.437799 
L 199.313778 24.427941 
L 201.451446 24.422084 
L 203.589114 24.412124 
L 205.726782 24.430116 
L 207.864451 24.431765 
L 210.002119 24.439969 
L 212.139787 24.45024 
L 214.277456 24.449806 
L 216.415124 24.453433 
L 218.552792 24.466063 
L 220.690461 24.453739 
L 222.828129 24.453109 
L 224.965797 24.464276 
L 227.103466 24.481856 
L 229.241134 24.449762 
L 231.378802 24.447589 
L 233.516471 24.43618 
L 235.654139 24.434371 
L 237.791807 24.451361 
L 239.929476 24.464717 
L 242.067144 24.447556 
L 244.204812 24.457705 
L 246.342481 24.42202 
L 248.480149 24.401285 
L 250.617817 24.403804 
L 252.755486 24.41923 
L 254.893154 24.416961 
L 257.030822 24.421062 
L 259.168491 24.441618 
L 261.306159 24.451662 
L 263.443827 24.443534 
L 265.581495 24.42243 
L 267.719164 24.410008 
L 269.856832 24.403022 
" clip-path="url(#p5383450e63)" style="fill: none; stroke: #ff7f0e; stroke-width: 1.5; stroke-linecap: square"/>
   </g>
   <g id="line2d_25">
    <path d="M 56.09 24.667546 
L 58.227668 24.651755 
L 60.365337 24.653283 
L 62.503005 24.662825 
L 64.640673 24.677907 
L 66.778342 24.673089 
L 68.91601 24.69013 
L 71.053678 24.692881 
L 73.191347 24.707787 
L 75.329015 24.720455 
L 77.466683 24.719627 
L 79.604352 24.72052 
L 81.74202 24.718594 
L 83.879688 24.681796 
L 86.017356 24.693485 
L 88.155025 24.680002 
L 90.292693 24.668242 
L 92.430361 24.666971 
L 94.56803 24.692896 
L 96.705698 24.674326 
L 98.843366 24.676154 
L 100.981035 24.691827 
L 103.118703 24.693718 
L 105.256371 24.690457 
L 107.39404 24.702329 
L 109.531708 24.705293 
L 111.669376 24.703166 
L 113.807045 24.70241 
L 115.944713 24.707968 
L 118.082381 24.708196 
L 120.22005 24.704643 
L 122.357718 24.702141 
L 124.495386 24.712589 
L 126.633055 24.703758 
L 128.770723 24.703972 
L 130.908391 24.689542 
L 133.04606 24.678448 
L 135.183728 24.674949 
L 137.321396 24.695281 
L 139.459065 24.690257 
L 141.596733 24.685283 
L 143.734401 24.682435 
L 145.872069 24.698606 
L 148.009738 24.70269 
L 150.147406 24.713264 
L 152.285074 24.72758 
L 154.422743 24.75321 
L 156.560411 24.736097 
L 158.698079 24.720367 
L 160.835748 24.725088 
L 162.973416 24.742301 
L 165.111084 24.712052 
L 167.248753 24.729192 
L 169.386421 24.719737 
L 171.524089 24.737947 
L 173.661758 24.746017 
L 175.799426 24.734577 
L 177.937094 24.707295 
L 180.074763 24.709223 
L 182.212431 24.718651 
L 184.350099 24.716464 
L 186.487768 24.715744 
L 188.625436 24.704293 
L 190.763104 24.686604 
L 192.900773 24.7159 
L 195.038441 24.72399 
L 197.176109 24.709785 
L 199.313778 24.70797 
L 201.451446 24.672271 
L 203.589114 24.689994 
L 205.726782 24.687209 
L 207.864451 24.685742 
L 210.002119 24.670393 
L 212.139787 24.660908 
L 214.277456 24.680361 
L 216.415124 24.692674 
L 218.552792 24.693664 
L 220.690461 24.686431 
L 222.828129 24.707612 
L 224.965797 24.705478 
L 227.103466 24.688267 
L 229.241134 24.686261 
L 231.378802 24.695224 
L 233.516471 24.680775 
L 235.654139 24.685141 
L 237.791807 24.695984 
L 239.929476 24.711938 
L 242.067144 24.69274 
L 244.204812 24.687655 
L 246.342481 24.685197 
L 248.480149 24.688207 
L 250.617817 24.685256 
L 252.755486 24.675222 
L 254.893154 24.665918 
L 257.030822 24.644732 
L 259.168491 24.649914 
L 261.306159 24.661405 
L 263.443827 24.679008 
L 265.581495 24.67752 
L 267.719164 24.671713 
L 269.856832 24.665546 
" clip-path="url(#p5383450e63)" style="fill: none; stroke: #2ca02c; stroke-width: 1.5; stroke-linecap: square"/>
   </g>
   <g id="line2d_26">
    <path d="M 56.09 24.429917 
L 58.227668 24.408437 
L 60.365337 24.395302 
L 62.503005 24.378332 
L 64.640673 24.361672 
L 66.778342 24.346706 
L 68.91601 24.345976 
L 71.053678 24.319916 
L 73.191347 24.342631 
L 75.329015 24.345696 
L 77.466683 24.332573 
L 79.604352 24.306869 
L 81.74202 24.293516 
L 83.879688 24.262899 
L 86.017356 24.279203 
L 88.155025 24.277184 
L 90.292693 24.28059 
L 92.430361 24.305901 
L 94.56803 24.333218 
L 96.705698 24.335393 
L 98.843366 24.337739 
L 100.981035 24.356482 
L 103.118703 24.362379 
L 105.256371 24.338984 
L 107.39404 24.348249 
L 109.531708 24.346874 
L 111.669376 24.329759 
L 113.807045 24.309055 
L 115.944713 24.334618 
L 118.082381 24.351723 
L 120.22005 24.342472 
L 122.357718 24.324542 
L 124.495386 24.362888 
L 126.633055 24.361538 
L 128.770723 24.344541 
L 130.908391 24.333423 
L 133.04606 24.314106 
L 135.183728 24.320294 
L 137.321396 24.33651 
L 139.459065 24.329739 
L 141.596733 24.326827 
L 143.734401 24.338724 
L 145.872069 24.378066 
L 148.009738 24.383849 
L 150.147406 24.387373 
L 152.285074 24.377151 
L 154.422743 24.407409 
L 156.560411 24.419981 
L 158.698079 24.392712 
L 160.835748 24.405633 
L 162.973416 24.391913 
L 165.111084 24.359315 
L 167.248753 24.384408 
L 169.386421 24.361451 
L 171.524089 24.376205 
L 173.661758 24.375108 
L 175.799426 24.352599 
L 177.937094 24.337753 
L 180.074763 24.32936 
L 182.212431 24.338103 
L 184.350099 24.33828 
L 186.487768 24.332445 
L 188.625436 24.343938 
L 190.763104 24.330935 
L 192.900773 24.370281 
L 195.038441 24.344983 
L 197.176109 24.359317 
L 199.313778 24.340006 
L 201.451446 24.361281 
L 203.589114 24.410917 
L 205.726782 24.396318 
L 207.864451 24.353841 
L 210.002119 24.354353 
L 212.139787 24.330709 
L 214.277456 24.329083 
L 216.415124 24.348054 
L 218.552792 24.360364 
L 220.690461 24.370898 
L 222.828129 24.379607 
L 224.965797 24.378098 
L 227.103466 24.365416 
L 229.241134 24.35066 
L 231.378802 24.358663 
L 233.516471 24.359282 
L 235.654139 24.350835 
L 237.791807 24.378865 
L 239.929476 24.38559 
L 242.067144 24.352045 
L 244.204812 24.328789 
L 246.342481 24.290038 
L 248.480149 24.306692 
L 250.617817 24.274225 
L 252.755486 24.274606 
L 254.893154 24.310763 
L 257.030822 24.320067 
L 259.168491 24.328967 
L 261.306159 24.326367 
L 263.443827 24.343802 
L 265.581495 24.341501 
L 267.719164 24.351703 
L 269.856832 24.362991 
" clip-path="url(#p5383450e63)" style="fill: none; stroke: #d62728; stroke-width: 1.5; stroke-linecap: square"/>
   </g>
   <g id="line2d_27">
    <path d="M 56.09 25.811186 
L 58.227668 25.725818 
L 60.365337 25.609379 
L 62.503005 25.551405 
L 64.640673 25.431369 
L 66.778342 25.391314 
L 68.91601 25.397647 
L 71.053678 25.355769 
L 73.191347 25.34539 
L 75.329015 25.295538 
L 77.466683 25.24898 
L 79.604352 25.198646 
L 81.74202 25.135765 
L 83.879688 25.104047 
L 86.017356 25.070126 
L 88.155025 25.070844 
L 90.292693 25.050178 
L 92.430361 24.989727 
L 94.56803 24.999506 
L 96.705698 24.975384 
L 98.843366 25.051096 
L 100.981035 25.058657 
L 103.118703 25.089131 
L 105.256371 25.032908 
L 107.39404 25.037428 
L 109.531708 25.064998 
L 111.669376 25.058739 
L 113.807045 25.048197 
L 115.944713 25.102222 
L 118.082381 25.134985 
L 120.22005 25.128097 
L 122.357718 25.150157 
L 124.495386 25.204433 
L 126.633055 25.181394 
L 128.770723 25.156972 
L 130.908391 25.174378 
L 133.04606 25.129336 
L 135.183728 25.080722 
L 137.321396 25.050844 
L 139.459065 25.089324 
L 141.596733 25.110151 
L 143.734401 25.134939 
L 145.872069 25.204652 
L 148.009738 25.222568 
L 150.147406 25.198215 
L 152.285074 25.170476 
L 154.422743 25.13336 
L 156.560411 25.170003 
L 158.698079 25.187354 
L 160.835748 25.22828 
L 162.973416 25.299892 
L 165.111084 25.295402 
L 167.248753 25.311067 
L 169.386421 25.309751 
L 171.524089 25.287726 
L 173.661758 25.238927 
L 175.799426 25.214325 
L 177.937094 25.21645 
L 180.074763 25.157686 
L 182.212431 25.170484 
L 184.350099 25.235413 
L 186.487768 25.198134 
L 188.625436 25.146753 
L 190.763104 25.169738 
L 192.900773 25.246467 
L 195.038441 25.24188 
L 197.176109 25.174201 
L 199.313778 25.209704 
L 201.451446 25.174382 
L 203.589114 25.151729 
L 205.726782 25.148425 
L 207.864451 25.156693 
L 210.002119 25.158404 
L 212.139787 25.179189 
L 214.277456 25.157465 
L 216.415124 25.221949 
L 218.552792 25.208108 
L 220.690461 25.196619 
L 222.828129 25.22833 
L 224.965797 25.296478 
L 227.103466 25.292347 
L 229.241134 25.19983 
L 231.378802 25.174539 
L 233.516471 25.128933 
L 235.654139 25.127802 
L 237.791807 25.195115 
L 239.929476 25.197362 
L 242.067144 25.17926 
L 244.204812 25.186666 
L 246.342481 25.143359 
L 248.480149 25.124534 
L 250.617817 25.132256 
L 252.755486 25.139187 
L 254.893154 25.126751 
L 257.030822 25.110841 
L 259.168491 25.161835 
L 261.306159 25.169947 
L 263.443827 25.181607 
L 265.581495 25.174168 
L 267.719164 25.15137 
L 269.856832 25.144188 
" clip-path="url(#p5383450e63)" style="fill: none; stroke: #9467bd; stroke-width: 1.5; stroke-linecap: square"/>
   </g>
   <g id="line2d_28">
    <path d="M 56.09 24.745175 
L 58.227668 24.62134 
L 60.365337 24.618983 
L 62.503005 24.559718 
L 64.640673 24.555732 
L 66.778342 24.549561 
L 68.91601 24.558103 
L 71.053678 24.452676 
L 73.191347 24.489341 
L 75.329015 24.48278 
L 77.466683 24.510794 
L 79.604352 24.461354 
L 81.74202 24.483467 
L 83.879688 24.492991 
L 86.017356 24.436342 
L 88.155025 24.442138 
L 90.292693 24.409029 
L 92.430361 24.422534 
L 94.56803 24.425415 
L 96.705698 24.413218 
L 98.843366 24.41583 
L 100.981035 24.440205 
L 103.118703 24.421909 
L 105.256371 24.52139 
L 107.39404 24.513242 
L 109.531708 24.54586 
L 111.669376 24.552285 
L 113.807045 24.540427 
L 115.944713 24.577521 
L 118.082381 24.57278 
L 120.22005 24.481153 
L 122.357718 24.508494 
L 124.495386 24.481797 
L 126.633055 24.480868 
L 128.770723 24.486755 
L 130.908391 24.485927 
L 133.04606 24.509055 
L 135.183728 24.485555 
L 137.321396 24.444079 
L 139.459065 24.380152 
L 141.596733 24.368653 
L 143.734401 24.386913 
L 145.872069 24.350521 
L 148.009738 24.420465 
L 150.147406 24.338531 
L 152.285074 24.355635 
L 154.422743 24.478412 
L 156.560411 24.489266 
L 158.698079 24.459523 
L 160.835748 24.453369 
L 162.973416 24.468062 
L 165.111084 24.438412 
L 167.248753 24.445631 
L 169.386421 24.476434 
L 171.524089 24.562334 
L 173.661758 24.6016 
L 175.799426 24.587333 
L 177.937094 24.627994 
L 180.074763 24.627714 
L 182.212431 24.553166 
L 184.350099 24.532333 
L 186.487768 24.532314 
L 188.625436 24.439647 
L 190.763104 24.434825 
L 192.900773 24.425929 
L 195.038441 24.457115 
L 197.176109 24.479387 
L 199.313778 24.492829 
L 201.451446 24.527653 
L 203.589114 24.536091 
L 205.726782 24.498317 
L 207.864451 24.506684 
L 210.002119 24.434418 
L 212.139787 24.427133 
L 214.277456 24.406881 
L 216.415124 24.395572 
L 218.552792 24.328469 
L 220.690461 24.429486 
L 222.828129 24.422945 
L 224.965797 24.375524 
L 227.103466 24.359496 
L 229.241134 24.462685 
L 231.378802 24.470836 
L 233.516471 24.443415 
L 235.654139 24.472259 
L 237.791807 24.466086 
L 239.929476 24.436411 
L 242.067144 24.483211 
L 244.204812 24.490392 
L 246.342481 24.495623 
L 248.480149 24.483896 
L 250.617817 24.477486 
L 252.755486 24.433871 
L 254.893154 24.438708 
L 257.030822 24.467399 
L 259.168491 24.487315 
L 261.306159 24.483733 
L 263.443827 24.455342 
L 265.581495 24.362878 
L 267.719164 24.330297 
L 269.856832 24.351207 
" clip-path="url(#p5383450e63)" style="fill: none; stroke: #8c564b; stroke-width: 1.5; stroke-linecap: square"/>
   </g>
   <g id="line2d_29">
    <path d="M 56.09 24.064252 
L 58.227668 24.01011 
L 60.365337 24.016539 
L 62.503005 23.995011 
L 64.640673 24.019591 
L 66.778342 24.006403 
L 68.91601 24.012155 
L 71.053678 23.977427 
L 73.191347 24.002342 
L 75.329015 24.007832 
L 77.466683 24.021781 
L 79.604352 23.991847 
L 81.74202 24.018956 
L 83.879688 23.99736 
L 86.017356 23.986361 
L 88.155025 23.992491 
L 90.292693 24.00274 
L 92.430361 23.977479 
L 94.56803 23.988117 
L 96.705698 24.011655 
L 98.843366 24.003419 
L 100.981035 24.013203 
L 103.118703 23.999909 
L 105.256371 24.054317 
L 107.39404 24.040365 
L 109.531708 24.048298 
L 111.669376 24.06815 
L 113.807045 24.058497 
L 115.944713 24.082206 
L 118.082381 24.093746 
L 120.22005 24.058576 
L 122.357718 24.067924 
L 124.495386 24.057882 
L 126.633055 24.056116 
L 128.770723 24.029185 
L 130.908391 24.027978 
L 133.04606 24.062536 
L 135.183728 24.06325 
L 137.321396 24.076794 
L 139.459065 24.032765 
L 141.596733 24.007932 
L 143.734401 23.993876 
L 145.872069 23.951435 
L 148.009738 23.9724 
L 150.147406 23.928487 
L 152.285074 23.936578 
L 154.422743 23.999687 
L 156.560411 24.040798 
L 158.698079 24.023984 
L 160.835748 24.004353 
L 162.973416 24.002401 
L 165.111084 23.987986 
L 167.248753 24.002404 
L 169.386421 23.980043 
L 171.524089 24.012339 
L 173.661758 24.061432 
L 175.799426 24.048791 
L 177.937094 24.066156 
L 180.074763 24.052274 
L 182.212431 24.013619 
L 184.350099 24.026182 
L 186.487768 24.02962 
L 188.625436 23.98462 
L 190.763104 23.993043 
L 192.900773 24.000289 
L 195.038441 24.012726 
L 197.176109 24.0322 
L 199.313778 24.03258 
L 201.451446 24.048639 
L 203.589114 24.047688 
L 205.726782 24.025448 
L 207.864451 24.038568 
L 210.002119 24.038871 
L 212.139787 24.012992 
L 214.277456 24.014779 
L 216.415124 24.0026 
L 218.552792 23.933981 
L 220.690461 24.006669 
L 222.828129 23.974157 
L 224.965797 23.950444 
L 227.103466 23.912303 
L 229.241134 23.982212 
L 231.378802 24.002413 
L 233.516471 23.999987 
L 235.654139 23.995134 
L 237.791807 23.981509 
L 239.929476 23.974023 
L 242.067144 23.995785 
L 244.204812 23.972588 
L 246.342481 23.972628 
L 248.480149 23.983325 
L 250.617817 23.980121 
L 252.755486 23.988143 
L 254.893154 24.022311 
L 257.030822 24.048706 
L 259.168491 24.039088 
L 261.306159 24.025592 
L 263.443827 23.999705 
L 265.581495 23.97463 
L 267.719164 23.946489 
L 269.856832 23.978458 
" clip-path="url(#p5383450e63)" style="fill: none; stroke: #e377c2; stroke-width: 1.5; stroke-linecap: square"/>
   </g>
   <g id="line2d_30">
    <path d="M 56.09 23.911284 
L 58.227668 23.939935 
L 60.365337 23.94755 
L 62.503005 23.939372 
L 64.640673 23.98902 
L 66.778342 24.00697 
L 68.91601 24.018057 
L 71.053678 24.03134 
L 73.191347 24.027695 
L 75.329015 24.057439 
L 77.466683 24.069123 
L 79.604352 24.044536 
L 81.74202 24.054223 
L 83.879688 24.073062 
L 86.017356 24.067891 
L 88.155025 24.047912 
L 90.292693 24.066302 
L 92.430361 24.054067 
L 94.56803 24.061953 
L 96.705698 24.080596 
L 98.843366 24.08163 
L 100.981035 24.062607 
L 103.118703 24.04095 
L 105.256371 24.108607 
L 107.39404 24.096321 
L 109.531708 24.140106 
L 111.669376 24.145002 
L 113.807045 24.156888 
L 115.944713 24.141768 
L 118.082381 24.143909 
L 120.22005 24.136661 
L 122.357718 24.126903 
L 124.495386 24.10214 
L 126.633055 24.069134 
L 128.770723 24.072774 
L 130.908391 24.070566 
L 133.04606 24.100445 
L 135.183728 24.089679 
L 137.321396 24.061852 
L 139.459065 24.049571 
L 141.596733 24.045393 
L 143.734401 24.036578 
L 145.872069 24.035361 
L 148.009738 24.033858 
L 150.147406 23.983592 
L 152.285074 23.988276 
L 154.422743 24.02962 
L 156.560411 24.056071 
L 158.698079 24.055297 
L 160.835748 24.060997 
L 162.973416 24.073283 
L 165.111084 24.071941 
L 167.248753 24.064586 
L 169.386421 24.076772 
L 171.524089 24.104421 
L 173.661758 24.103851 
L 175.799426 24.095587 
L 177.937094 24.108137 
L 180.074763 24.104946 
L 182.212431 24.093065 
L 184.350099 24.108226 
L 186.487768 24.098789 
L 188.625436 24.070389 
L 190.763104 24.073059 
L 192.900773 24.075629 
L 195.038441 24.075527 
L 197.176109 24.09206 
L 199.313778 24.127565 
L 201.451446 24.145069 
L 203.589114 24.113045 
L 205.726782 24.094557 
L 207.864451 24.113991 
L 210.002119 24.093685 
L 212.139787 24.081619 
L 214.277456 24.073318 
L 216.415124 24.063139 
L 218.552792 24.050432 
L 220.690461 24.07118 
L 222.828129 24.066258 
L 224.965797 24.068644 
L 227.103466 24.050097 
L 229.241134 24.060173 
L 231.378802 24.081922 
L 233.516471 24.084786 
L 235.654139 24.08541 
L 237.791807 24.083906 
L 239.929476 24.064376 
L 242.067144 24.071254 
L 244.204812 24.076058 
L 246.342481 24.030375 
L 248.480149 24.028492 
L 250.617817 24.033167 
L 252.755486 24.032572 
L 254.893154 24.049483 
L 257.030822 24.073736 
L 259.168491 24.041543 
L 261.306159 24.075571 
L 263.443827 24.064957 
L 265.581495 24.031806 
L 267.719164 24.023147 
L 269.856832 24.032792 
" clip-path="url(#p5383450e63)" style="fill: none; stroke: #7f7f7f; stroke-width: 1.5; stroke-linecap: square"/>
   </g>
   <g id="line2d_31">
    <path d="M 56.09 23.694508 
L 58.227668 23.601272 
L 60.365337 23.589153 
L 62.503005 23.521876 
L 64.640673 23.637297 
L 66.778342 23.602973 
L 68.91601 23.549546 
L 71.053678 23.520815 
L 73.191347 23.498136 
L 75.329015 23.547317 
L 77.466683 23.540639 
L 79.604352 23.529538 
L 81.74202 23.608818 
L 83.879688 23.58117 
L 86.017356 23.638184 
L 88.155025 23.596863 
L 90.292693 23.591621 
L 92.430361 23.578471 
L 94.56803 23.570976 
L 96.705698 23.651347 
L 98.843366 23.602173 
L 100.981035 23.591849 
L 103.118703 23.568216 
L 105.256371 23.699144 
L 107.39404 23.704716 
L 109.531708 23.69609 
L 111.669376 23.731289 
L 113.807045 23.713099 
L 115.944713 23.719505 
L 118.082381 23.68571 
L 120.22005 23.656328 
L 122.357718 23.648121 
L 124.495386 23.589527 
L 126.633055 23.557288 
L 128.770723 23.549161 
L 130.908391 23.527132 
L 133.04606 23.594541 
L 135.183728 23.621398 
L 137.321396 23.632683 
L 139.459065 23.5679 
L 141.596733 23.544423 
L 143.734401 23.496223 
L 145.872069 23.464422 
L 148.009738 23.476429 
L 150.147406 23.431486 
L 152.285074 23.459909 
L 154.422743 23.554016 
L 156.560411 23.55839 
L 158.698079 23.532453 
L 160.835748 23.472773 
L 162.973416 23.461934 
L 165.111084 23.427581 
L 167.248753 23.398476 
L 169.386421 23.368934 
L 171.524089 23.426938 
L 173.661758 23.480186 
L 175.799426 23.444798 
L 177.937094 23.462659 
L 180.074763 23.499544 
L 182.212431 23.490137 
L 184.350099 23.470872 
L 186.487768 23.498413 
L 188.625436 23.51556 
L 190.763104 23.456584 
L 192.900773 23.496475 
L 195.038441 23.5133 
L 197.176109 23.576869 
L 199.313778 23.568145 
L 201.451446 23.600589 
L 203.589114 23.594015 
L 205.726782 23.574899 
L 207.864451 23.596661 
L 210.002119 23.585528 
L 212.139787 23.544258 
L 214.277456 23.552274 
L 216.415124 23.487725 
L 218.552792 23.459588 
L 220.690461 23.508284 
L 222.828129 23.478801 
L 224.965797 23.444687 
L 227.103466 23.386755 
L 229.241134 23.503644 
L 231.378802 23.541117 
L 233.516471 23.554595 
L 235.654139 23.499155 
L 237.791807 23.479548 
L 239.929476 23.468418 
L 242.067144 23.494155 
L 244.204812 23.479425 
L 246.342481 23.45539 
L 248.480149 23.502579 
L 250.617817 23.493319 
L 252.755486 23.495344 
L 254.893154 23.500154 
L 257.030822 23.564832 
L 259.168491 23.521298 
L 261.306159 23.524176 
L 263.443827 23.494708 
L 265.581495 23.463974 
L 267.719164 23.428884 
L 269.856832 23.461872 
" clip-path="url(#p5383450e63)" style="fill: none; stroke: #bcbd22; stroke-width: 1.5; stroke-linecap: square"/>
   </g>
   <g id="line2d_32">
    <path d="M 56.09 24.838402 
L 58.227668 24.883416 
L 60.365337 24.865299 
L 62.503005 24.879139 
L 64.640673 24.914287 
L 66.778342 24.910326 
L 68.91601 24.915184 
L 71.053678 24.927667 
L 73.191347 24.887478 
L 75.329015 24.920086 
L 77.466683 24.908024 
L 79.604352 24.921001 
L 81.74202 24.911911 
L 83.879688 24.921857 
L 86.017356 24.93283 
L 88.155025 24.932047 
L 90.292693 24.931301 
L 92.430361 24.926863 
L 94.56803 24.923638 
L 96.705698 24.926853 
L 98.843366 24.930422 
L 100.981035 24.933509 
L 103.118703 24.930616 
L 105.256371 24.90689 
L 107.39404 24.910103 
L 109.531708 24.939855 
L 111.669376 24.932896 
L 113.807045 24.950363 
L 115.944713 24.909817 
L 118.082381 24.898617 
L 120.22005 24.937714 
L 122.357718 24.929852 
L 124.495386 24.946385 
L 126.633055 24.928753 
L 128.770723 24.925927 
L 130.908391 24.953262 
L 133.04606 24.950997 
L 135.183728 24.962682 
L 137.321396 24.960907 
L 139.459065 24.952108 
L 141.596733 24.953381 
L 143.734401 24.950944 
L 145.872069 24.963676 
L 148.009738 24.958133 
L 150.147406 24.975119 
L 152.285074 24.947112 
L 154.422743 24.923767 
L 156.560411 24.885214 
L 158.698079 24.907193 
L 160.835748 24.908411 
L 162.973416 24.911921 
L 165.111084 24.930703 
L 167.248753 24.90053 
L 169.386421 24.890314 
L 171.524089 24.873494 
L 173.661758 24.857786 
L 175.799426 24.863531 
L 177.937094 24.841401 
L 180.074763 24.827349 
L 182.212431 24.860213 
L 184.350099 24.889408 
L 186.487768 24.895532 
L 188.625436 24.92576 
L 190.763104 24.914752 
L 192.900773 24.910373 
L 195.038441 24.915618 
L 197.176109 24.904571 
L 199.313778 24.912983 
L 201.451446 24.913576 
L 203.589114 24.886597 
L 205.726782 24.894215 
L 207.864451 24.878798 
L 210.002119 24.88285 
L 212.139787 24.879821 
L 214.277456 24.881919 
L 216.415124 24.90549 
L 218.552792 24.946368 
L 220.690461 24.905518 
L 222.828129 24.91709 
L 224.965797 24.943203 
L 227.103466 24.9611 
L 229.241134 24.933875 
L 231.378802 24.89724 
L 233.516471 24.904719 
L 235.654139 24.884494 
L 237.791807 24.8917 
L 239.929476 24.865315 
L 242.067144 24.867819 
L 244.204812 24.883712 
L 246.342481 24.87598 
L 248.480149 24.887733 
L 250.617817 24.91106 
L 252.755486 24.889838 
L 254.893154 24.872599 
L 257.030822 24.874546 
L 259.168491 24.860294 
L 261.306159 24.879042 
L 263.443827 24.895632 
L 265.581495 24.924568 
L 267.719164 24.939566 
L 269.856832 24.938249 
" clip-path="url(#p5383450e63)" style="fill: none; stroke: #17becf; stroke-width: 1.5; stroke-linecap: square"/>
   </g>
   <g id="line2d_33">
    <path d="M 56.09 24.746865 
L 58.227668 24.818607 
L 60.365337 24.791615 
L 62.503005 24.843432 
L 64.640673 24.88212 
L 66.778342 24.8714 
L 68.91601 24.868295 
L 71.053678 24.914385 
L 73.191347 24.877079 
L 75.329015 24.925667 
L 77.466683 24.909299 
L 79.604352 24.941653 
L 81.74202 24.91538 
L 83.879688 24.891474 
L 86.017356 24.926286 
L 88.155025 24.946586 
L 90.292693 24.96186 
L 92.430361 24.926923 
L 94.56803 24.932764 
L 96.705698 24.928346 
L 98.843366 24.918414 
L 100.981035 24.93497 
L 103.118703 24.956993 
L 105.256371 24.910469 
L 107.39404 24.924646 
L 109.531708 24.93403 
L 111.669376 24.903418 
L 113.807045 24.923516 
L 115.944713 24.859706 
L 118.082381 24.850915 
L 120.22005 24.937875 
L 122.357718 24.902472 
L 124.495386 24.913469 
L 126.633055 24.901116 
L 128.770723 24.873637 
L 130.908391 24.923979 
L 133.04606 24.94797 
L 135.183728 24.933448 
L 137.321396 24.980807 
L 139.459065 24.976273 
L 141.596733 24.95233 
L 143.734401 24.934124 
L 145.872069 24.95264 
L 148.009738 24.940344 
L 150.147406 24.99105 
L 152.285074 24.968684 
L 154.422743 24.88954 
L 156.560411 24.877146 
L 158.698079 24.897198 
L 160.835748 24.905009 
L 162.973416 24.910144 
L 165.111084 24.96193 
L 167.248753 24.940112 
L 169.386421 24.884744 
L 171.524089 24.833142 
L 173.661758 24.811925 
L 175.799426 24.83801 
L 177.937094 24.809238 
L 180.074763 24.753723 
L 182.212431 24.771503 
L 184.350099 24.811681 
L 186.487768 24.826314 
L 188.625436 24.883354 
L 190.763104 24.898049 
L 192.900773 24.906568 
L 195.038441 24.898702 
L 197.176109 24.868248 
L 199.313778 24.866251 
L 201.451446 24.859298 
L 203.589114 24.813587 
L 205.726782 24.829184 
L 207.864451 24.813726 
L 210.002119 24.872226 
L 212.139787 24.868651 
L 214.277456 24.891947 
L 216.415124 24.932383 
L 218.552792 24.984915 
L 220.690461 24.929476 
L 222.828129 24.911049 
L 224.965797 24.946121 
L 227.103466 24.978187 
L 229.241134 24.922935 
L 231.378802 24.881817 
L 233.516471 24.907365 
L 235.654139 24.889565 
L 237.791807 24.901586 
L 239.929476 24.894533 
L 242.067144 24.879129 
L 244.204812 24.858945 
L 246.342481 24.830845 
L 248.480149 24.836179 
L 250.617817 24.85866 
L 252.755486 24.858558 
L 254.893154 24.879626 
L 257.030822 24.868562 
L 259.168491 24.824761 
L 261.306159 24.857004 
L 263.443827 24.881363 
L 265.581495 24.941568 
L 267.719164 24.959259 
L 269.856832 24.955569 
" clip-path="url(#p5383450e63)" style="fill: none; stroke: #1f77b4; stroke-width: 1.5; stroke-linecap: square"/>
   </g>
   <g id="patch_3">
    <path d="M 56.09 210.04 
L 56.09 10.8 
" style="fill: none; stroke: #000000; stroke-width: 0.8; stroke-linejoin: miter; stroke-linecap: square"/>
   </g>
   <g id="patch_4">
    <path d="M 271.9945 210.04 
L 271.9945 10.8 
" style="fill: none; stroke: #000000; stroke-width: 0.8; stroke-linejoin: miter; stroke-linecap: square"/>
   </g>
   <g id="patch_5">
    <path d="M 56.09 210.04 
L 271.9945 210.04 
" style="fill: none; stroke: #000000; stroke-width: 0.8; stroke-linejoin: miter; stroke-linecap: square"/>
   </g>
   <g id="patch_6">
    <path d="M 56.09 10.8 
L 271.9945 10.8 
" style="fill: none; stroke: #000000; stroke-width: 0.8; stroke-linejoin: miter; stroke-linecap: square"/>
   </g>
   <g id="legend_1">
    <g id="patch_7">
     <path d="M 260.9945 114.42 
L 264.9945 114.42 
Q 266.9945 114.42 266.9945 112.42 
L 266.9945 108.42 
Q 266.9945 106.42 264.9945 106.42 
L 260.9945 106.42 
Q 258.9945 106.42 258.9945 108.42 
L 258.9945 112.42 
Q 258.9945 114.42 260.9945 114.42 
z
" style="fill: #ffffff; opacity: 0.8; stroke: #cccccc; stroke-linejoin: miter"/>
    </g>
   </g>
  </g>
  <g id="axes_2">
   <g id="patch_8">
    <path d="M 339.8005 210.04 
L 555.705 210.04 
L 555.705 10.8 
L 339.8005 10.8 
z
" style="fill: #ffffff"/>
   </g>
   <g id="matplotlib.axis_3">
    <g id="xtick_7">
     <g id="line2d_34">
      <g>
       <use xlink:href="#m2bf1fb0ba7" x="339.8005" y="210.04" style="stroke: #000000; stroke-width: 0.8"/>
      </g>
     </g>
     <g id="text_15">
      <!-- 0 -->
      <g transform="translate(336.61925 224.638438) scale(0.1 -0.1)">
       <use xlink:href="#DejaVuSans-30"/>
      </g>
     </g>
    </g>
    <g id="xtick_8">
     <g id="line2d_35">
      <g>
       <use xlink:href="#m2bf1fb0ba7" x="382.9814" y="210.04" style="stroke: #000000; stroke-width: 0.8"/>
      </g>
     </g>
     <g id="text_16">
      <!-- 20 -->
      <g transform="translate(376.6189 224.638438) scale(0.1 -0.1)">
       <use xlink:href="#DejaVuSans-32"/>
       <use xlink:href="#DejaVuSans-30" transform="translate(63.623047 0)"/>
      </g>
     </g>
    </g>
    <g id="xtick_9">
     <g id="line2d_36">
      <g>
       <use xlink:href="#m2bf1fb0ba7" x="426.1623" y="210.04" style="stroke: #000000; stroke-width: 0.8"/>
      </g>
     </g>
     <g id="text_17">
      <!-- 40 -->
      <g transform="translate(419.7998 224.638438) scale(0.1 -0.1)">
       <use xlink:href="#DejaVuSans-34"/>
       <use xlink:href="#DejaVuSans-30" transform="translate(63.623047 0)"/>
      </g>
     </g>
    </g>
    <g id="xtick_10">
     <g id="line2d_37">
      <g>
       <use xlink:href="#m2bf1fb0ba7" x="469.3432" y="210.04" style="stroke: #000000; stroke-width: 0.8"/>
      </g>
     </g>
     <g id="text_18">
      <!-- 60 -->
      <g transform="translate(462.9807 224.638438) scale(0.1 -0.1)">
       <use xlink:href="#DejaVuSans-36"/>
       <use xlink:href="#DejaVuSans-30" transform="translate(63.623047 0)"/>
      </g>
     </g>
    </g>
    <g id="xtick_11">
     <g id="line2d_38">
      <g>
       <use xlink:href="#m2bf1fb0ba7" x="512.5241" y="210.04" style="stroke: #000000; stroke-width: 0.8"/>
      </g>
     </g>
     <g id="text_19">
      <!-- 80 -->
      <g transform="translate(506.1616 224.638438) scale(0.1 -0.1)">
       <use xlink:href="#DejaVuSans-38"/>
       <use xlink:href="#DejaVuSans-30" transform="translate(63.623047 0)"/>
      </g>
     </g>
    </g>
    <g id="xtick_12">
     <g id="line2d_39">
      <g>
       <use xlink:href="#m2bf1fb0ba7" x="555.705" y="210.04" style="stroke: #000000; stroke-width: 0.8"/>
      </g>
     </g>
     <g id="text_20">
      <!-- 100 -->
      <g transform="translate(546.16125 224.638438) scale(0.1 -0.1)">
       <use xlink:href="#DejaVuSans-31"/>
       <use xlink:href="#DejaVuSans-30" transform="translate(63.623047 0)"/>
       <use xlink:href="#DejaVuSans-30" transform="translate(127.246094 0)"/>
      </g>
     </g>
    </g>
    <g id="text_21">
     <!-- SCPH iteration 300.0 K -->
     <g transform="translate(390.829312 238.316563) scale(0.1 -0.1)">
      <use xlink:href="#DejaVuSans-53"/>
      <use xlink:href="#DejaVuSans-43" transform="translate(63.476562 0)"/>
      <use xlink:href="#DejaVuSans-50" transform="translate(133.300781 0)"/>
      <use xlink:href="#DejaVuSans-48" transform="translate(193.603516 0)"/>
      <use xlink:href="#DejaVuSans-20" transform="translate(268.798828 0)"/>
      <use xlink:href="#DejaVuSans-69" transform="translate(300.585938 0)"/>
      <use xlink:href="#DejaVuSans-74" transform="translate(328.369141 0)"/>
      <use xlink:href="#DejaVuSans-65" transform="translate(367.578125 0)"/>
      <use xlink:href="#DejaVuSans-72" transform="translate(429.101562 0)"/>
      <use xlink:href="#DejaVuSans-61" transform="translate(470.214844 0)"/>
      <use xlink:href="#DejaVuSans-74" transform="translate(531.494141 0)"/>
      <use xlink:href="#DejaVuSans-69" transform="translate(570.703125 0)"/>
      <use xlink:href="#DejaVuSans-6f" transform="translate(598.486328 0)"/>
      <use xlink:href="#DejaVuSans-6e" transform="translate(659.667969 0)"/>
      <use xlink:href="#DejaVuSans-20" transform="translate(723.046875 0)"/>
      <use xlink:href="#DejaVuSans-33" transform="translate(754.833984 0)"/>
      <use xlink:href="#DejaVuSans-30" transform="translate(818.457031 0)"/>
      <use xlink:href="#DejaVuSans-30" transform="translate(882.080078 0)"/>
      <use xlink:href="#DejaVuSans-2e" transform="translate(945.703125 0)"/>
      <use xlink:href="#DejaVuSans-30" transform="translate(977.490234 0)"/>
      <use xlink:href="#DejaVuSans-20" transform="translate(1041.113281 0)"/>
      <use xlink:href="#DejaVuSans-4b" transform="translate(1072.900391 0)"/>
     </g>
    </g>
   </g>
   <g id="matplotlib.axis_4">
    <g id="ytick_7">
     <g id="line2d_40">
      <g>
       <use xlink:href="#me075dbe30f" x="339.8005" y="210.04" style="stroke: #000000; stroke-width: 0.8"/>
      </g>
     </g>
     <g id="text_22">
      <!-- 0.000 -->
      <g transform="translate(304.172375 213.839219) scale(0.1 -0.1)">
       <use xlink:href="#DejaVuSans-30"/>
       <use xlink:href="#DejaVuSans-2e" transform="translate(63.623047 0)"/>
       <use xlink:href="#DejaVuSans-30" transform="translate(95.410156 0)"/>
       <use xlink:href="#DejaVuSans-30" transform="translate(159.033203 0)"/>
       <use xlink:href="#DejaVuSans-30" transform="translate(222.65625 0)"/>
      </g>
     </g>
    </g>
    <g id="ytick_8">
     <g id="line2d_41">
      <g>
       <use xlink:href="#me075dbe30f" x="339.8005" y="180.065322" style="stroke: #000000; stroke-width: 0.8"/>
      </g>
     </g>
     <g id="text_23">
      <!-- 0.002 -->
      <g transform="translate(304.172375 183.864541) scale(0.1 -0.1)">
       <use xlink:href="#DejaVuSans-30"/>
       <use xlink:href="#DejaVuSans-2e" transform="translate(63.623047 0)"/>
       <use xlink:href="#DejaVuSans-30" transform="translate(95.410156 0)"/>
       <use xlink:href="#DejaVuSans-30" transform="translate(159.033203 0)"/>
       <use xlink:href="#DejaVuSans-32" transform="translate(222.65625 0)"/>
      </g>
     </g>
    </g>
    <g id="ytick_9">
     <g id="line2d_42">
      <g>
       <use xlink:href="#me075dbe30f" x="339.8005" y="150.090644" style="stroke: #000000; stroke-width: 0.8"/>
      </g>
     </g>
     <g id="text_24">
      <!-- 0.004 -->
      <g transform="translate(304.172375 153.889862) scale(0.1 -0.1)">
       <use xlink:href="#DejaVuSans-30"/>
       <use xlink:href="#DejaVuSans-2e" transform="translate(63.623047 0)"/>
       <use xlink:href="#DejaVuSans-30" transform="translate(95.410156 0)"/>
       <use xlink:href="#DejaVuSans-30" transform="translate(159.033203 0)"/>
       <use xlink:href="#DejaVuSans-34" transform="translate(222.65625 0)"/>
      </g>
     </g>
    </g>
    <g id="ytick_10">
     <g id="line2d_43">
      <g>
       <use xlink:href="#me075dbe30f" x="339.8005" y="120.115965" style="stroke: #000000; stroke-width: 0.8"/>
      </g>
     </g>
     <g id="text_25">
      <!-- 0.006 -->
      <g transform="translate(304.172375 123.915184) scale(0.1 -0.1)">
       <use xlink:href="#DejaVuSans-30"/>
       <use xlink:href="#DejaVuSans-2e" transform="translate(63.623047 0)"/>
       <use xlink:href="#DejaVuSans-30" transform="translate(95.410156 0)"/>
       <use xlink:href="#DejaVuSans-30" transform="translate(159.033203 0)"/>
       <use xlink:href="#DejaVuSans-36" transform="translate(222.65625 0)"/>
      </g>
     </g>
    </g>
    <g id="ytick_11">
     <g id="line2d_44">
      <g>
       <use xlink:href="#me075dbe30f" x="339.8005" y="90.141287" style="stroke: #000000; stroke-width: 0.8"/>
      </g>
     </g>
     <g id="text_26">
      <!-- 0.008 -->
      <g transform="translate(304.172375 93.940506) scale(0.1 -0.1)">
       <use xlink:href="#DejaVuSans-30"/>
       <use xlink:href="#DejaVuSans-2e" transform="translate(63.623047 0)"/>
       <use xlink:href="#DejaVuSans-30" transform="translate(95.410156 0)"/>
       <use xlink:href="#DejaVuSans-30" transform="translate(159.033203 0)"/>
       <use xlink:href="#DejaVuSans-38" transform="translate(222.65625 0)"/>
      </g>
     </g>
    </g>
    <g id="ytick_12">
     <g id="line2d_45">
      <g>
       <use xlink:href="#me075dbe30f" x="339.8005" y="60.166609" style="stroke: #000000; stroke-width: 0.8"/>
      </g>
     </g>
     <g id="text_27">
      <!-- 0.010 -->
      <g transform="translate(304.172375 63.965828) scale(0.1 -0.1)">
       <use xlink:href="#DejaVuSans-30"/>
       <use xlink:href="#DejaVuSans-2e" transform="translate(63.623047 0)"/>
       <use xlink:href="#DejaVuSans-30" transform="translate(95.410156 0)"/>
       <use xlink:href="#DejaVuSans-31" transform="translate(159.033203 0)"/>
       <use xlink:href="#DejaVuSans-30" transform="translate(222.65625 0)"/>
      </g>
     </g>
    </g>
    <g id="ytick_13">
     <g id="line2d_46">
      <g>
       <use xlink:href="#me075dbe30f" x="339.8005" y="30.191931" style="stroke: #000000; stroke-width: 0.8"/>
      </g>
     </g>
     <g id="text_28">
      <!-- 0.012 -->
      <g transform="translate(304.172375 33.99115) scale(0.1 -0.1)">
       <use xlink:href="#DejaVuSans-30"/>
       <use xlink:href="#DejaVuSans-2e" transform="translate(63.623047 0)"/>
       <use xlink:href="#DejaVuSans-30" transform="translate(95.410156 0)"/>
       <use xlink:href="#DejaVuSans-31" transform="translate(159.033203 0)"/>
       <use xlink:href="#DejaVuSans-32" transform="translate(222.65625 0)"/>
      </g>
     </g>
    </g>
    <g id="text_29">
     <!-- $\Delta$ Parameters -->
     <g transform="translate(298.092687 144.32) rotate(-90) scale(0.1 -0.1)">
      <defs>
       <path id="DejaVuSans-394" d="M 2188 4044 
L 906 525 
L 3472 525 
L 2188 4044 
z
M 50 0 
L 1831 4666 
L 2547 4666 
L 4325 0 
L 50 0 
z
" transform="scale(0.015625)"/>
      </defs>
      <use xlink:href="#DejaVuSans-394" transform="translate(0 0.09375)"/>
      <use xlink:href="#DejaVuSans-20" transform="translate(68.408203 0.09375)"/>
      <use xlink:href="#DejaVuSans-50" transform="translate(100.195312 0.09375)"/>
      <use xlink:href="#DejaVuSans-61" transform="translate(160.498047 0.09375)"/>
      <use xlink:href="#DejaVuSans-72" transform="translate(221.777344 0.09375)"/>
      <use xlink:href="#DejaVuSans-61" transform="translate(262.890625 0.09375)"/>
      <use xlink:href="#DejaVuSans-6d" transform="translate(324.169922 0.09375)"/>
      <use xlink:href="#DejaVuSans-65" transform="translate(421.582031 0.09375)"/>
      <use xlink:href="#DejaVuSans-74" transform="translate(483.105469 0.09375)"/>
      <use xlink:href="#DejaVuSans-65" transform="translate(522.314453 0.09375)"/>
      <use xlink:href="#DejaVuSans-72" transform="translate(583.837891 0.09375)"/>
      <use xlink:href="#DejaVuSans-73" transform="translate(624.951172 0.09375)"/>
     </g>
    </g>
   </g>
   <g id="line2d_47">
    <path d="M 339.8005 19.725146 
L 341.959545 92.293366 
L 344.11859 122.275237 
L 346.277635 129.014428 
L 348.43668 128.425458 
L 350.595725 174.48202 
L 352.75477 153.407436 
L 354.913815 169.097834 
L 357.07286 172.866869 
L 359.231905 172.878672 
L 361.39095 177.32879 
L 363.549995 169.530657 
L 365.70904 177.22 
L 367.868085 171.644261 
L 370.02713 164.90685 
L 372.186175 178.806009 
L 374.34522 125.418218 
L 376.504265 148.71799 
L 378.66331 162.260589 
L 380.822355 185.684022 
L 382.9814 173.584675 
L 385.140445 187.874071 
L 387.29949 146.00934 
L 389.458535 198.228061 
L 391.61758 176.47719 
L 393.776625 181.719779 
L 395.93567 196.097616 
L 398.094715 173.045317 
L 400.25376 164.889044 
L 402.412805 175.987609 
L 404.57185 175.247191 
L 406.730895 152.301678 
L 408.88994 147.944138 
L 411.048985 172.891809 
L 413.20803 186.752159 
L 415.367075 172.75284 
L 417.52612 189.51279 
L 419.685165 168.320693 
L 421.84421 164.213784 
L 424.003255 195.375619 
L 426.1623 174.031132 
L 428.321345 171.937776 
L 430.48039 156.217359 
L 432.639435 168.7316 
L 434.79848 180.074003 
L 436.957525 161.570779 
L 439.11657 154.764116 
L 441.275615 170.455749 
L 443.43466 173.598757 
L 445.593705 164.950605 
L 447.75275 170.60589 
L 449.911795 181.75579 
L 452.07084 177.380713 
L 454.229885 176.685731 
L 456.38893 180.99816 
L 458.547975 182.893225 
L 460.70702 180.250769 
L 462.866065 177.639527 
L 465.02511 180.48498 
L 467.184155 188.243578 
L 469.3432 185.329497 
L 471.502245 160.541176 
L 473.66129 185.415603 
L 475.820335 170.465231 
L 477.97938 161.745865 
L 480.138425 155.756577 
L 482.29747 137.568198 
L 484.456515 165.74667 
L 486.61556 146.064286 
L 488.774605 190.145318 
L 490.93365 127.336901 
L 493.092695 176.805409 
L 495.25174 182.302384 
L 497.410785 178.41536 
L 499.56983 173.520142 
L 501.728875 166.785171 
L 503.88792 125.340296 
L 506.046965 161.186882 
L 508.20601 147.52271 
L 510.365055 143.554481 
L 512.5241 150.360669 
L 514.683145 171.466569 
L 516.84219 174.828614 
L 519.001235 171.162636 
L 521.16028 180.982359 
L 523.319325 189.350595 
L 525.47837 170.721247 
L 527.637415 175.452952 
L 529.79646 167.981697 
L 531.955505 162.313668 
L 534.11455 181.607265 
L 536.273595 151.594117 
L 538.43264 159.292283 
L 540.591685 179.591966 
L 542.75073 143.595871 
L 544.909775 177.051141 
L 547.06882 152.608005 
L 549.227865 174.49921 
L 551.38691 175.500527 
L 553.545955 192.263668 
" clip-path="url(#p07e0a48863)" style="fill: none; stroke: #1f77b4; stroke-width: 1.5; stroke-linecap: square"/>
   </g>
   <g id="patch_9">
    <path d="M 339.8005 210.04 
L 339.8005 10.8 
" style="fill: none; stroke: #000000; stroke-width: 0.8; stroke-linejoin: miter; stroke-linecap: square"/>
   </g>
   <g id="patch_10">
    <path d="M 555.705 210.04 
L 555.705 10.8 
" style="fill: none; stroke: #000000; stroke-width: 0.8; stroke-linejoin: miter; stroke-linecap: square"/>
   </g>
   <g id="patch_11">
    <path d="M 339.8005 210.04 
L 555.705 210.04 
" style="fill: none; stroke: #000000; stroke-width: 0.8; stroke-linejoin: miter; stroke-linecap: square"/>
   </g>
   <g id="patch_12">
    <path d="M 339.8005 10.8 
L 555.705 10.8 
" style="fill: none; stroke: #000000; stroke-width: 0.8; stroke-linejoin: miter; stroke-linecap: square"/>
   </g>
   <g id="legend_2">
    <g id="patch_13">
     <path d="M 544.705 23.8 
L 548.705 23.8 
Q 550.705 23.8 550.705 21.8 
L 550.705 17.8 
Q 550.705 15.8 548.705 15.8 
L 544.705 15.8 
Q 542.705 15.8 542.705 17.8 
L 542.705 21.8 
Q 542.705 23.8 544.705 23.8 
z
" style="fill: #ffffff; opacity: 0.8; stroke: #cccccc; stroke-linejoin: miter"/>
    </g>
   </g>
  </g>
 </g>
 <defs>
  <clipPath id="p5383450e63">
   <rect x="56.09" y="10.8" width="215.9045" height="199.24"/>
  </clipPath>
  <clipPath id="p07e0a48863">
   <rect x="339.8005" y="10.8" width="215.9045" height="199.24"/>
  </clipPath>
 </defs>
</svg>
