<?xml version="1.0" encoding="utf-8" standalone="no"?>
<!DOCTYPE svg PUBLIC "-//W3C//DTD SVG 1.1//EN"
  "http://www.w3.org/Graphics/SVG/1.1/DTD/svg11.dtd">
<svg xmlns:xlink="http://www.w3.org/1999/xlink" width="576pt" height="252pt" viewBox="0 0 576 252" xmlns="http://www.w3.org/2000/svg" version="1.1">
 <metadata>
  <rdf:RDF xmlns:dc="http://purl.org/dc/elements/1.1/" xmlns:cc="http://creativecommons.org/ns#" xmlns:rdf="http://www.w3.org/1999/02/22-rdf-syntax-ns#">
   <cc:Work>
    <dc:type rdf:resource="http://purl.org/dc/dcmitype/StillImage"/>
    <dc:date>2025-11-07T13:43:16.669119</dc:date>
    <dc:format>image/svg+xml</dc:format>
    <dc:creator>
     <cc:Agent>
      <dc:title>Matplotlib v3.10.7, https://matplotlib.org/</dc:title>
     </cc:Agent>
    </dc:creator>
   </cc:Work>
  </rdf:RDF>
 </metadata>
 <defs>
  <style type="text/css">*{stroke-linejoin: round; stroke-linecap: butt}</style>
 </defs>
 <g id="figure_1">
  <g id="patch_1">
   <path d="M 0 252 
L 576 252 
L 576 0 
L 0 0 
z
" style="fill: #ffffff"/>
  </g>
  <g id="axes_1">
   <g id="patch_2">
    <path d="M 56.09 210.04 
L 271.9945 210.04 
L 271.9945 10.8 
L 56.09 10.8 
z
" style="fill: #ffffff"/>
   </g>
   <g id="matplotlib.axis_1">
    <g id="xtick_1">
     <g id="line2d_1">
      <defs>
       <path id="m0ffd156086" d="M 0 0 
L 0 3.5 
" style="stroke: #000000; stroke-width: 0.8"/>
      </defs>
      <g>
       <use xlink:href="#m0ffd156086" x="56.09" y="210.04" style="stroke: #000000; stroke-width: 0.8"/>
      </g>
     </g>
     <g id="text_1">
      <!-- 0 -->
      <g transform="translate(52.90875 224.638438) scale(0.1 -0.1)">
       <defs>
        <path id="DejaVuSans-30" d="M 2034 4250 
Q 1547 4250 1301 3770 
Q 1056 3291 1056 2328 
Q 1056 1369 1301 889 
Q 1547 409 2034 409 
Q 2525 409 2770 889 
Q 3016 1369 3016 2328 
Q 3016 3291 2770 3770 
Q 2525 4250 2034 4250 
z
M 2034 4750 
Q 2819 4750 3233 4129 
Q 3647 3509 3647 2328 
Q 3647 1150 3233 529 
Q 2819 -91 2034 -91 
Q 1250 -91 836 529 
Q 422 1150 422 2328 
Q 422 3509 836 4129 
Q 1250 4750 2034 4750 
z
" transform="scale(0.015625)"/>
       </defs>
       <use xlink:href="#DejaVuSans-30"/>
      </g>
     </g>
    </g>
    <g id="xtick_2">
     <g id="line2d_2">
      <g>
       <use xlink:href="#m0ffd156086" x="98.843366" y="210.04" style="stroke: #000000; stroke-width: 0.8"/>
      </g>
     </g>
     <g id="text_2">
      <!-- 20 -->
      <g transform="translate(92.480866 224.638438) scale(0.1 -0.1)">
       <defs>
        <path id="DejaVuSans-32" d="M 1228 531 
L 3431 531 
L 3431 0 
L 469 0 
L 469 531 
Q 828 903 1448 1529 
Q 2069 2156 2228 2338 
Q 2531 2678 2651 2914 
Q 2772 3150 2772 3378 
Q 2772 3750 2511 3984 
Q 2250 4219 1831 4219 
Q 1534 4219 1204 4116 
Q 875 4013 500 3803 
L 500 4441 
Q 881 4594 1212 4672 
Q 1544 4750 1819 4750 
Q 2544 4750 2975 4387 
Q 3406 4025 3406 3419 
Q 3406 3131 3298 2873 
Q 3191 2616 2906 2266 
Q 2828 2175 2409 1742 
Q 1991 1309 1228 531 
z
" transform="scale(0.015625)"/>
       </defs>
       <use xlink:href="#DejaVuSans-32"/>
       <use xlink:href="#DejaVuSans-30" transform="translate(63.623047 0)"/>
      </g>
     </g>
    </g>
    <g id="xtick_3">
     <g id="line2d_3">
      <g>
       <use xlink:href="#m0ffd156086" x="141.596733" y="210.04" style="stroke: #000000; stroke-width: 0.8"/>
      </g>
     </g>
     <g id="text_3">
      <!-- 40 -->
      <g transform="translate(135.234233 224.638438) scale(0.1 -0.1)">
       <defs>
        <path id="DejaVuSans-34" d="M 2419 4116 
L 825 1625 
L 2419 1625 
L 2419 4116 
z
M 2253 4666 
L 3047 4666 
L 3047 1625 
L 3713 1625 
L 3713 1100 
L 3047 1100 
L 3047 0 
L 2419 0 
L 2419 1100 
L 313 1100 
L 313 1709 
L 2253 4666 
z
" transform="scale(0.015625)"/>
       </defs>
       <use xlink:href="#DejaVuSans-34"/>
       <use xlink:href="#DejaVuSans-30" transform="translate(63.623047 0)"/>
      </g>
     </g>
    </g>
    <g id="xtick_4">
     <g id="line2d_4">
      <g>
       <use xlink:href="#m0ffd156086" x="184.350099" y="210.04" style="stroke: #000000; stroke-width: 0.8"/>
      </g>
     </g>
     <g id="text_4">
      <!-- 60 -->
      <g transform="translate(177.987599 224.638438) scale(0.1 -0.1)">
       <defs>
        <path id="DejaVuSans-36" d="M 2113 2584 
Q 1688 2584 1439 2293 
Q 1191 2003 1191 1497 
Q 1191 994 1439 701 
Q 1688 409 2113 409 
Q 2538 409 2786 701 
Q 3034 994 3034 1497 
Q 3034 2003 2786 2293 
Q 2538 2584 2113 2584 
z
M 3366 4563 
L 3366 3988 
Q 3128 4100 2886 4159 
Q 2644 4219 2406 4219 
Q 1781 4219 1451 3797 
Q 1122 3375 1075 2522 
Q 1259 2794 1537 2939 
Q 1816 3084 2150 3084 
Q 2853 3084 3261 2657 
Q 3669 2231 3669 1497 
Q 3669 778 3244 343 
Q 2819 -91 2113 -91 
Q 1303 -91 875 529 
Q 447 1150 447 2328 
Q 447 3434 972 4092 
Q 1497 4750 2381 4750 
Q 2619 4750 2861 4703 
Q 3103 4656 3366 4563 
z
" transform="scale(0.015625)"/>
       </defs>
       <use xlink:href="#DejaVuSans-36"/>
       <use xlink:href="#DejaVuSans-30" transform="translate(63.623047 0)"/>
      </g>
     </g>
    </g>
    <g id="xtick_5">
     <g id="line2d_5">
      <g>
       <use xlink:href="#m0ffd156086" x="227.103466" y="210.04" style="stroke: #000000; stroke-width: 0.8"/>
      </g>
     </g>
     <g id="text_5">
      <!-- 80 -->
      <g transform="translate(220.740966 224.638438) scale(0.1 -0.1)">
       <defs>
        <path id="DejaVuSans-38" d="M 2034 2216 
Q 1584 2216 1326 1975 
Q 1069 1734 1069 1313 
Q 1069 891 1326 650 
Q 1584 409 2034 409 
Q 2484 409 2743 651 
Q 3003 894 3003 1313 
Q 3003 1734 2745 1975 
Q 2488 2216 2034 2216 
z
M 1403 2484 
Q 997 2584 770 2862 
Q 544 3141 544 3541 
Q 544 4100 942 4425 
Q 1341 4750 2034 4750 
Q 2731 4750 3128 4425 
Q 3525 4100 3525 3541 
Q 3525 3141 3298 2862 
Q 3072 2584 2669 2484 
Q 3125 2378 3379 2068 
Q 3634 1759 3634 1313 
Q 3634 634 3220 271 
Q 2806 -91 2034 -91 
Q 1263 -91 848 271 
Q 434 634 434 1313 
Q 434 1759 690 2068 
Q 947 2378 1403 2484 
z
M 1172 3481 
Q 1172 3119 1398 2916 
Q 1625 2713 2034 2713 
Q 2441 2713 2670 2916 
Q 2900 3119 2900 3481 
Q 2900 3844 2670 4047 
Q 2441 4250 2034 4250 
Q 1625 4250 1398 4047 
Q 1172 3844 1172 3481 
z
" transform="scale(0.015625)"/>
       </defs>
       <use xlink:href="#DejaVuSans-38"/>
       <use xlink:href="#DejaVuSans-30" transform="translate(63.623047 0)"/>
      </g>
     </g>
    </g>
    <g id="xtick_6">
     <g id="line2d_6">
      <g>
       <use xlink:href="#m0ffd156086" x="269.856832" y="210.04" style="stroke: #000000; stroke-width: 0.8"/>
      </g>
     </g>
     <g id="text_6">
      <!-- 100 -->
      <g transform="translate(260.313082 224.638438) scale(0.1 -0.1)">
       <defs>
        <path id="DejaVuSans-31" d="M 794 531 
L 1825 531 
L 1825 4091 
L 703 3866 
L 703 4441 
L 1819 4666 
L 2450 4666 
L 2450 531 
L 3481 531 
L 3481 0 
L 794 0 
L 794 531 
z
" transform="scale(0.015625)"/>
       </defs>
       <use xlink:href="#DejaVuSans-31"/>
       <use xlink:href="#DejaVuSans-30" transform="translate(63.623047 0)"/>
       <use xlink:href="#DejaVuSans-30" transform="translate(127.246094 0)"/>
      </g>
     </g>
    </g>
    <g id="text_7">
     <!-- SCPH iteration 10.0 K -->
     <g transform="translate(110.300063 238.316563) scale(0.1 -0.1)">
      <defs>
       <path id="DejaVuSans-53" d="M 3425 4513 
L 3425 3897 
Q 3066 4069 2747 4153 
Q 2428 4238 2131 4238 
Q 1616 4238 1336 4038 
Q 1056 3838 1056 3469 
Q 1056 3159 1242 3001 
Q 1428 2844 1947 2747 
L 2328 2669 
Q 3034 2534 3370 2195 
Q 3706 1856 3706 1288 
Q 3706 609 3251 259 
Q 2797 -91 1919 -91 
Q 1588 -91 1214 -16 
Q 841 59 441 206 
L 441 856 
Q 825 641 1194 531 
Q 1563 422 1919 422 
Q 2459 422 2753 634 
Q 3047 847 3047 1241 
Q 3047 1584 2836 1778 
Q 2625 1972 2144 2069 
L 1759 2144 
Q 1053 2284 737 2584 
Q 422 2884 422 3419 
Q 422 4038 858 4394 
Q 1294 4750 2059 4750 
Q 2388 4750 2728 4690 
Q 3069 4631 3425 4513 
z
" transform="scale(0.015625)"/>
       <path id="DejaVuSans-43" d="M 4122 4306 
L 4122 3641 
Q 3803 3938 3442 4084 
Q 3081 4231 2675 4231 
Q 1875 4231 1450 3742 
Q 1025 3253 1025 2328 
Q 1025 1406 1450 917 
Q 1875 428 2675 428 
Q 3081 428 3442 575 
Q 3803 722 4122 1019 
L 4122 359 
Q 3791 134 3420 21 
Q 3050 -91 2638 -91 
Q 1578 -91 968 557 
Q 359 1206 359 2328 
Q 359 3453 968 4101 
Q 1578 4750 2638 4750 
Q 3056 4750 3426 4639 
Q 3797 4528 4122 4306 
z
" transform="scale(0.015625)"/>
       <path id="DejaVuSans-50" d="M 1259 4147 
L 1259 2394 
L 2053 2394 
Q 2494 2394 2734 2622 
Q 2975 2850 2975 3272 
Q 2975 3691 2734 3919 
Q 2494 4147 2053 4147 
L 1259 4147 
z
M 628 4666 
L 2053 4666 
Q 2838 4666 3239 4311 
Q 3641 3956 3641 3272 
Q 3641 2581 3239 2228 
Q 2838 1875 2053 1875 
L 1259 1875 
L 1259 0 
L 628 0 
L 628 4666 
z
" transform="scale(0.015625)"/>
       <path id="DejaVuSans-48" d="M 628 4666 
L 1259 4666 
L 1259 2753 
L 3553 2753 
L 3553 4666 
L 4184 4666 
L 4184 0 
L 3553 0 
L 3553 2222 
L 1259 2222 
L 1259 0 
L 628 0 
L 628 4666 
z
" transform="scale(0.015625)"/>
       <path id="DejaVuSans-20" transform="scale(0.015625)"/>
       <path id="DejaVuSans-69" d="M 603 3500 
L 1178 3500 
L 1178 0 
L 603 0 
L 603 3500 
z
M 603 4863 
L 1178 4863 
L 1178 4134 
L 603 4134 
L 603 4863 
z
" transform="scale(0.015625)"/>
       <path id="DejaVuSans-74" d="M 1172 4494 
L 1172 3500 
L 2356 3500 
L 2356 3053 
L 1172 3053 
L 1172 1153 
Q 1172 725 1289 603 
Q 1406 481 1766 481 
L 2356 481 
L 2356 0 
L 1766 0 
Q 1100 0 847 248 
Q 594 497 594 1153 
L 594 3053 
L 172 3053 
L 172 3500 
L 594 3500 
L 594 4494 
L 1172 4494 
z
" transform="scale(0.015625)"/>
       <path id="DejaVuSans-65" d="M 3597 1894 
L 3597 1613 
L 953 1613 
Q 991 1019 1311 708 
Q 1631 397 2203 397 
Q 2534 397 2845 478 
Q 3156 559 3463 722 
L 3463 178 
Q 3153 47 2828 -22 
Q 2503 -91 2169 -91 
Q 1331 -91 842 396 
Q 353 884 353 1716 
Q 353 2575 817 3079 
Q 1281 3584 2069 3584 
Q 2775 3584 3186 3129 
Q 3597 2675 3597 1894 
z
M 3022 2063 
Q 3016 2534 2758 2815 
Q 2500 3097 2075 3097 
Q 1594 3097 1305 2825 
Q 1016 2553 972 2059 
L 3022 2063 
z
" transform="scale(0.015625)"/>
       <path id="DejaVuSans-72" d="M 2631 2963 
Q 2534 3019 2420 3045 
Q 2306 3072 2169 3072 
Q 1681 3072 1420 2755 
Q 1159 2438 1159 1844 
L 1159 0 
L 581 0 
L 581 3500 
L 1159 3500 
L 1159 2956 
Q 1341 3275 1631 3429 
Q 1922 3584 2338 3584 
Q 2397 3584 2469 3576 
Q 2541 3569 2628 3553 
L 2631 2963 
z
" transform="scale(0.015625)"/>
       <path id="DejaVuSans-61" d="M 2194 1759 
Q 1497 1759 1228 1600 
Q 959 1441 959 1056 
Q 959 750 1161 570 
Q 1363 391 1709 391 
Q 2188 391 2477 730 
Q 2766 1069 2766 1631 
L 2766 1759 
L 2194 1759 
z
M 3341 1997 
L 3341 0 
L 2766 0 
L 2766 531 
Q 2569 213 2275 61 
Q 1981 -91 1556 -91 
Q 1019 -91 701 211 
Q 384 513 384 1019 
Q 384 1609 779 1909 
Q 1175 2209 1959 2209 
L 2766 2209 
L 2766 2266 
Q 2766 2663 2505 2880 
Q 2244 3097 1772 3097 
Q 1472 3097 1187 3025 
Q 903 2953 641 2809 
L 641 3341 
Q 956 3463 1253 3523 
Q 1550 3584 1831 3584 
Q 2591 3584 2966 3190 
Q 3341 2797 3341 1997 
z
" transform="scale(0.015625)"/>
       <path id="DejaVuSans-6f" d="M 1959 3097 
Q 1497 3097 1228 2736 
Q 959 2375 959 1747 
Q 959 1119 1226 758 
Q 1494 397 1959 397 
Q 2419 397 2687 759 
Q 2956 1122 2956 1747 
Q 2956 2369 2687 2733 
Q 2419 3097 1959 3097 
z
M 1959 3584 
Q 2709 3584 3137 3096 
Q 3566 2609 3566 1747 
Q 3566 888 3137 398 
Q 2709 -91 1959 -91 
Q 1206 -91 779 398 
Q 353 888 353 1747 
Q 353 2609 779 3096 
Q 1206 3584 1959 3584 
z
" transform="scale(0.015625)"/>
       <path id="DejaVuSans-6e" d="M 3513 2113 
L 3513 0 
L 2938 0 
L 2938 2094 
Q 2938 2591 2744 2837 
Q 2550 3084 2163 3084 
Q 1697 3084 1428 2787 
Q 1159 2491 1159 1978 
L 1159 0 
L 581 0 
L 581 3500 
L 1159 3500 
L 1159 2956 
Q 1366 3272 1645 3428 
Q 1925 3584 2291 3584 
Q 2894 3584 3203 3211 
Q 3513 2838 3513 2113 
z
" transform="scale(0.015625)"/>
       <path id="DejaVuSans-2e" d="M 684 794 
L 1344 794 
L 1344 0 
L 684 0 
L 684 794 
z
" transform="scale(0.015625)"/>
       <path id="DejaVuSans-4b" d="M 628 4666 
L 1259 4666 
L 1259 2694 
L 3353 4666 
L 4166 4666 
L 1850 2491 
L 4331 0 
L 3500 0 
L 1259 2247 
L 1259 0 
L 628 0 
L 628 4666 
z
" transform="scale(0.015625)"/>
      </defs>
      <use xlink:href="#DejaVuSans-53"/>
      <use xlink:href="#DejaVuSans-43" transform="translate(63.476562 0)"/>
      <use xlink:href="#DejaVuSans-50" transform="translate(133.300781 0)"/>
      <use xlink:href="#DejaVuSans-48" transform="translate(193.603516 0)"/>
      <use xlink:href="#DejaVuSans-20" transform="translate(268.798828 0)"/>
      <use xlink:href="#DejaVuSans-69" transform="translate(300.585938 0)"/>
      <use xlink:href="#DejaVuSans-74" transform="translate(328.369141 0)"/>
      <use xlink:href="#DejaVuSans-65" transform="translate(367.578125 0)"/>
      <use xlink:href="#DejaVuSans-72" transform="translate(429.101562 0)"/>
      <use xlink:href="#DejaVuSans-61" transform="translate(470.214844 0)"/>
      <use xlink:href="#DejaVuSans-74" transform="translate(531.494141 0)"/>
      <use xlink:href="#DejaVuSans-69" transform="translate(570.703125 0)"/>
      <use xlink:href="#DejaVuSans-6f" transform="translate(598.486328 0)"/>
      <use xlink:href="#DejaVuSans-6e" transform="translate(659.667969 0)"/>
      <use xlink:href="#DejaVuSans-20" transform="translate(723.046875 0)"/>
      <use xlink:href="#DejaVuSans-31" transform="translate(754.833984 0)"/>
      <use xlink:href="#DejaVuSans-30" transform="translate(818.457031 0)"/>
      <use xlink:href="#DejaVuSans-2e" transform="translate(882.080078 0)"/>
      <use xlink:href="#DejaVuSans-30" transform="translate(913.867188 0)"/>
      <use xlink:href="#DejaVuSans-20" transform="translate(977.490234 0)"/>
      <use xlink:href="#DejaVuSans-4b" transform="translate(1009.277344 0)"/>
     </g>
    </g>
   </g>
   <g id="matplotlib.axis_2">
    <g id="ytick_1">
     <g id="line2d_7">
      <defs>
       <path id="m0acc8431ed" d="M 0 0 
L -3.5 0 
" style="stroke: #000000; stroke-width: 0.8"/>
      </defs>
      <g>
       <use xlink:href="#m0acc8431ed" x="56.09" y="201.124891" style="stroke: #000000; stroke-width: 0.8"/>
      </g>
     </g>
     <g id="text_8">
      <!-- −2.5 -->
      <g transform="translate(24.807188 204.924109) scale(0.1 -0.1)">
       <defs>
        <path id="DejaVuSans-2212" d="M 678 2272 
L 4684 2272 
L 4684 1741 
L 678 1741 
L 678 2272 
z
" transform="scale(0.015625)"/>
        <path id="DejaVuSans-35" d="M 691 4666 
L 3169 4666 
L 3169 4134 
L 1269 4134 
L 1269 2991 
Q 1406 3038 1543 3061 
Q 1681 3084 1819 3084 
Q 2600 3084 3056 2656 
Q 3513 2228 3513 1497 
Q 3513 744 3044 326 
Q 2575 -91 1722 -91 
Q 1428 -91 1123 -41 
Q 819 9 494 109 
L 494 744 
Q 775 591 1075 516 
Q 1375 441 1709 441 
Q 2250 441 2565 725 
Q 2881 1009 2881 1497 
Q 2881 1984 2565 2268 
Q 2250 2553 1709 2553 
Q 1456 2553 1204 2497 
Q 953 2441 691 2322 
L 691 4666 
z
" transform="scale(0.015625)"/>
       </defs>
       <use xlink:href="#DejaVuSans-2212"/>
       <use xlink:href="#DejaVuSans-32" transform="translate(83.789062 0)"/>
       <use xlink:href="#DejaVuSans-2e" transform="translate(147.412109 0)"/>
       <use xlink:href="#DejaVuSans-35" transform="translate(179.199219 0)"/>
      </g>
     </g>
    </g>
    <g id="ytick_2">
     <g id="line2d_8">
      <g>
       <use xlink:href="#m0acc8431ed" x="56.09" y="165.793726" style="stroke: #000000; stroke-width: 0.8"/>
      </g>
     </g>
     <g id="text_9">
      <!-- −2.0 -->
      <g transform="translate(24.807188 169.592945) scale(0.1 -0.1)">
       <use xlink:href="#DejaVuSans-2212"/>
       <use xlink:href="#DejaVuSans-32" transform="translate(83.789062 0)"/>
       <use xlink:href="#DejaVuSans-2e" transform="translate(147.412109 0)"/>
       <use xlink:href="#DejaVuSans-30" transform="translate(179.199219 0)"/>
      </g>
     </g>
    </g>
    <g id="ytick_3">
     <g id="line2d_9">
      <g>
       <use xlink:href="#m0acc8431ed" x="56.09" y="130.462562" style="stroke: #000000; stroke-width: 0.8"/>
      </g>
     </g>
     <g id="text_10">
      <!-- −1.5 -->
      <g transform="translate(24.807188 134.26178) scale(0.1 -0.1)">
       <use xlink:href="#DejaVuSans-2212"/>
       <use xlink:href="#DejaVuSans-31" transform="translate(83.789062 0)"/>
       <use xlink:href="#DejaVuSans-2e" transform="translate(147.412109 0)"/>
       <use xlink:href="#DejaVuSans-35" transform="translate(179.199219 0)"/>
      </g>
     </g>
    </g>
    <g id="ytick_4">
     <g id="line2d_10">
      <g>
       <use xlink:href="#m0acc8431ed" x="56.09" y="95.131397" style="stroke: #000000; stroke-width: 0.8"/>
      </g>
     </g>
     <g id="text_11">
      <!-- −1.0 -->
      <g transform="translate(24.807188 98.930616) scale(0.1 -0.1)">
       <use xlink:href="#DejaVuSans-2212"/>
       <use xlink:href="#DejaVuSans-31" transform="translate(83.789062 0)"/>
       <use xlink:href="#DejaVuSans-2e" transform="translate(147.412109 0)"/>
       <use xlink:href="#DejaVuSans-30" transform="translate(179.199219 0)"/>
      </g>
     </g>
    </g>
    <g id="ytick_5">
     <g id="line2d_11">
      <g>
       <use xlink:href="#m0acc8431ed" x="56.09" y="59.800233" style="stroke: #000000; stroke-width: 0.8"/>
      </g>
     </g>
     <g id="text_12">
      <!-- −0.5 -->
      <g transform="translate(24.807188 63.599452) scale(0.1 -0.1)">
       <use xlink:href="#DejaVuSans-2212"/>
       <use xlink:href="#DejaVuSans-30" transform="translate(83.789062 0)"/>
       <use xlink:href="#DejaVuSans-2e" transform="translate(147.412109 0)"/>
       <use xlink:href="#DejaVuSans-35" transform="translate(179.199219 0)"/>
      </g>
     </g>
    </g>
    <g id="ytick_6">
     <g id="line2d_12">
      <g>
       <use xlink:href="#m0acc8431ed" x="56.09" y="24.469068" style="stroke: #000000; stroke-width: 0.8"/>
      </g>
     </g>
     <g id="text_13">
      <!-- 0.0 -->
      <g transform="translate(33.186875 28.268287) scale(0.1 -0.1)">
       <use xlink:href="#DejaVuSans-30"/>
       <use xlink:href="#DejaVuSans-2e" transform="translate(63.623047 0)"/>
       <use xlink:href="#DejaVuSans-30" transform="translate(95.410156 0)"/>
      </g>
     </g>
    </g>
    <g id="text_14">
     <!-- Parameters -->
     <g transform="translate(18.7275 139.037188) rotate(-90) scale(0.1 -0.1)">
      <defs>
       <path id="DejaVuSans-6d" d="M 3328 2828 
Q 3544 3216 3844 3400 
Q 4144 3584 4550 3584 
Q 5097 3584 5394 3201 
Q 5691 2819 5691 2113 
L 5691 0 
L 5113 0 
L 5113 2094 
Q 5113 2597 4934 2840 
Q 4756 3084 4391 3084 
Q 3944 3084 3684 2787 
Q 3425 2491 3425 1978 
L 3425 0 
L 2847 0 
L 2847 2094 
Q 2847 2600 2669 2842 
Q 2491 3084 2119 3084 
Q 1678 3084 1418 2786 
Q 1159 2488 1159 1978 
L 1159 0 
L 581 0 
L 581 3500 
L 1159 3500 
L 1159 2956 
Q 1356 3278 1631 3431 
Q 1906 3584 2284 3584 
Q 2666 3584 2933 3390 
Q 3200 3197 3328 2828 
z
" transform="scale(0.015625)"/>
       <path id="DejaVuSans-73" d="M 2834 3397 
L 2834 2853 
Q 2591 2978 2328 3040 
Q 2066 3103 1784 3103 
Q 1356 3103 1142 2972 
Q 928 2841 928 2578 
Q 928 2378 1081 2264 
Q 1234 2150 1697 2047 
L 1894 2003 
Q 2506 1872 2764 1633 
Q 3022 1394 3022 966 
Q 3022 478 2636 193 
Q 2250 -91 1575 -91 
Q 1294 -91 989 -36 
Q 684 19 347 128 
L 347 722 
Q 666 556 975 473 
Q 1284 391 1588 391 
Q 1994 391 2212 530 
Q 2431 669 2431 922 
Q 2431 1156 2273 1281 
Q 2116 1406 1581 1522 
L 1381 1569 
Q 847 1681 609 1914 
Q 372 2147 372 2553 
Q 372 3047 722 3315 
Q 1072 3584 1716 3584 
Q 2034 3584 2315 3537 
Q 2597 3491 2834 3397 
z
" transform="scale(0.015625)"/>
      </defs>
      <use xlink:href="#DejaVuSans-50"/>
      <use xlink:href="#DejaVuSans-61" transform="translate(55.802734 0)"/>
      <use xlink:href="#DejaVuSans-72" transform="translate(117.082031 0)"/>
      <use xlink:href="#DejaVuSans-61" transform="translate(158.195312 0)"/>
      <use xlink:href="#DejaVuSans-6d" transform="translate(219.474609 0)"/>
      <use xlink:href="#DejaVuSans-65" transform="translate(316.886719 0)"/>
      <use xlink:href="#DejaVuSans-74" transform="translate(378.410156 0)"/>
      <use xlink:href="#DejaVuSans-65" transform="translate(417.619141 0)"/>
      <use xlink:href="#DejaVuSans-72" transform="translate(479.142578 0)"/>
      <use xlink:href="#DejaVuSans-73" transform="translate(520.255859 0)"/>
     </g>
    </g>
   </g>
   <g id="line2d_13">
    <path d="M 56.09 138.172102 
L 58.227668 137.928318 
L 60.365337 137.73039 
L 62.503005 137.550752 
L 64.640673 137.418713 
L 66.778342 137.316337 
L 68.91601 137.238288 
L 71.053678 137.165014 
L 73.191347 137.113319 
L 75.329015 137.077795 
L 77.466683 137.057199 
L 79.604352 137.036455 
L 81.74202 137.02598 
L 83.879688 137.011586 
L 86.017356 137.004375 
L 88.155025 136.97274 
L 90.292693 136.94915 
L 92.430361 136.943141 
L 94.56803 136.919798 
L 96.705698 136.917451 
L 98.843366 136.924808 
L 100.981035 136.91476 
L 103.118703 136.897143 
L 105.256371 136.908443 
L 107.39404 136.905656 
L 109.531708 136.913356 
L 111.669376 136.918577 
L 113.807045 136.920249 
L 115.944713 136.909405 
L 118.082381 136.915833 
L 120.22005 136.926684 
L 122.357718 136.915638 
L 124.495386 136.908988 
L 126.633055 136.899685 
L 128.770723 136.903725 
L 130.908391 136.908727 
L 133.04606 136.897643 
L 135.183728 136.877562 
L 137.321396 136.902901 
L 139.459065 136.9153 
L 141.596733 136.907093 
L 143.734401 136.916135 
L 145.872069 136.922436 
L 148.009738 136.909173 
L 150.147406 136.90311 
L 152.285074 136.893487 
L 154.422743 136.896494 
L 156.560411 136.899285 
L 158.698079 136.904652 
L 160.835748 136.905603 
L 162.973416 136.921941 
L 165.111084 136.92992 
L 167.248753 136.92394 
L 169.386421 136.944191 
L 171.524089 136.955403 
L 173.661758 136.96011 
L 175.799426 136.956196 
L 177.937094 136.939715 
L 180.074763 136.920665 
L 182.212431 136.911424 
L 184.350099 136.927692 
L 186.487768 136.923694 
L 188.625436 136.915407 
L 190.763104 136.919248 
L 192.900773 136.904327 
L 195.038441 136.899358 
L 197.176109 136.918748 
L 199.313778 136.926455 
L 201.451446 136.918825 
L 203.589114 136.911647 
L 205.726782 136.899421 
L 207.864451 136.896655 
L 210.002119 136.92002 
L 212.139787 136.918445 
L 214.277456 136.899159 
L 216.415124 136.883513 
L 218.552792 136.890843 
L 220.690461 136.881757 
L 222.828129 136.871525 
L 224.965797 136.888419 
L 227.103466 136.877801 
L 229.241134 136.866558 
L 231.378802 136.86633 
L 233.516471 136.860813 
L 235.654139 136.86258 
L 237.791807 136.875014 
L 239.929476 136.869302 
L 242.067144 136.868503 
L 244.204812 136.882477 
L 246.342481 136.903571 
L 248.480149 136.907132 
L 250.617817 136.897773 
L 252.755486 136.897669 
L 254.893154 136.902975 
L 257.030822 136.906058 
L 259.168491 136.915538 
L 261.306159 136.918151 
L 263.443827 136.918509 
L 265.581495 136.915536 
L 267.719164 136.927365 
L 269.856832 136.924721 
" clip-path="url(#pd4f44f5304)" style="fill: none; stroke: #1f77b4; stroke-width: 1.5; stroke-linecap: square"/>
   </g>
   <g id="line2d_14">
    <path d="M 56.09 200.983636 
L 58.227668 200.636429 
L 60.365337 200.36265 
L 62.503005 200.121797 
L 64.640673 199.940583 
L 66.778342 199.807342 
L 68.91601 199.708848 
L 71.053678 199.612229 
L 73.191347 199.55581 
L 75.329015 199.502453 
L 77.466683 199.490183 
L 79.604352 199.464244 
L 81.74202 199.453822 
L 83.879688 199.436936 
L 86.017356 199.433565 
L 88.155025 199.382325 
L 90.292693 199.340422 
L 92.430361 199.33572 
L 94.56803 199.299802 
L 96.705698 199.285949 
L 98.843366 199.29597 
L 100.981035 199.284776 
L 103.118703 199.259412 
L 105.256371 199.273737 
L 107.39404 199.266838 
L 109.531708 199.283101 
L 111.669376 199.292132 
L 113.807045 199.288511 
L 115.944713 199.266566 
L 118.082381 199.269519 
L 120.22005 199.29024 
L 122.357718 199.266332 
L 124.495386 199.263022 
L 126.633055 199.243356 
L 128.770723 199.256237 
L 130.908391 199.272238 
L 133.04606 199.251685 
L 135.183728 199.213284 
L 137.321396 199.249103 
L 139.459065 199.258662 
L 141.596733 199.24523 
L 143.734401 199.25956 
L 145.872069 199.279863 
L 148.009738 199.268306 
L 150.147406 199.246321 
L 152.285074 199.235583 
L 154.422743 199.234637 
L 156.560411 199.251131 
L 158.698079 199.267498 
L 160.835748 199.269807 
L 162.973416 199.295702 
L 165.111084 199.313059 
L 167.248753 199.306216 
L 169.386421 199.336021 
L 171.524089 199.351551 
L 173.661758 199.35774 
L 175.799426 199.363972 
L 177.937094 199.346155 
L 180.074763 199.314964 
L 182.212431 199.306009 
L 184.350099 199.321137 
L 186.487768 199.309948 
L 188.625436 199.282155 
L 190.763104 199.291754 
L 192.900773 199.262913 
L 195.038441 199.254395 
L 197.176109 199.285472 
L 199.313778 199.297747 
L 201.451446 199.273493 
L 203.589114 199.256683 
L 205.726782 199.239632 
L 207.864451 199.233594 
L 210.002119 199.269074 
L 212.139787 199.271848 
L 214.277456 199.25181 
L 216.415124 199.230926 
L 218.552792 199.244876 
L 220.690461 199.240244 
L 222.828129 199.22324 
L 224.965797 199.243986 
L 227.103466 199.221402 
L 229.241134 199.1975 
L 231.378802 199.192542 
L 233.516471 199.178866 
L 235.654139 199.177773 
L 237.791807 199.218995 
L 239.929476 199.207025 
L 242.067144 199.197458 
L 244.204812 199.228996 
L 246.342481 199.267717 
L 248.480149 199.266936 
L 250.617817 199.25613 
L 252.755486 199.264201 
L 254.893154 199.268342 
L 257.030822 199.274204 
L 259.168491 199.280402 
L 261.306159 199.286089 
L 263.443827 199.280944 
L 265.581495 199.275359 
L 267.719164 199.293683 
L 269.856832 199.297333 
" clip-path="url(#pd4f44f5304)" style="fill: none; stroke: #ff7f0e; stroke-width: 1.5; stroke-linecap: square"/>
   </g>
   <g id="line2d_15">
    <path d="M 56.09 22.514208 
L 58.227668 22.519071 
L 60.365337 22.517855 
L 62.503005 22.510384 
L 64.640673 22.512376 
L 66.778342 22.506031 
L 68.91601 22.503704 
L 71.053678 22.502731 
L 73.191347 22.489382 
L 75.329015 22.495578 
L 77.466683 22.485867 
L 79.604352 22.489699 
L 81.74202 22.48884 
L 83.879688 22.487916 
L 86.017356 22.48436 
L 88.155025 22.490231 
L 90.292693 22.502691 
L 92.430361 22.488261 
L 94.56803 22.487756 
L 96.705698 22.483127 
L 98.843366 22.48296 
L 100.981035 22.4837 
L 103.118703 22.489856 
L 105.256371 22.486802 
L 107.39404 22.493194 
L 109.531708 22.493697 
L 111.669376 22.485994 
L 113.807045 22.484251 
L 115.944713 22.488531 
L 118.082381 22.491377 
L 120.22005 22.489074 
L 122.357718 22.492388 
L 124.495386 22.487857 
L 126.633055 22.496096 
L 128.770723 22.494306 
L 130.908391 22.486816 
L 133.04606 22.49571 
L 135.183728 22.50025 
L 137.321396 22.508724 
L 139.459065 22.511504 
L 141.596733 22.513573 
L 143.734401 22.506437 
L 145.872069 22.506895 
L 148.009738 22.499429 
L 150.147406 22.50377 
L 152.285074 22.496978 
L 154.422743 22.503041 
L 156.560411 22.501895 
L 158.698079 22.491972 
L 160.835748 22.491204 
L 162.973416 22.486151 
L 165.111084 22.483244 
L 167.248753 22.484912 
L 169.386421 22.477374 
L 171.524089 22.481799 
L 173.661758 22.476437 
L 175.799426 22.469693 
L 177.937094 22.468056 
L 180.074763 22.47817 
L 182.212431 22.479319 
L 184.350099 22.482555 
L 186.487768 22.486439 
L 188.625436 22.488927 
L 190.763104 22.489427 
L 192.900773 22.499205 
L 195.038441 22.495027 
L 197.176109 22.490357 
L 199.313778 22.492077 
L 201.451446 22.496431 
L 203.589114 22.496018 
L 205.726782 22.4918 
L 207.864451 22.496412 
L 210.002119 22.49691 
L 212.139787 22.501885 
L 214.277456 22.495377 
L 216.415124 22.491169 
L 218.552792 22.491907 
L 220.690461 22.484549 
L 222.828129 22.491782 
L 224.965797 22.490887 
L 227.103466 22.496446 
L 229.241134 22.49728 
L 231.378802 22.495164 
L 233.516471 22.496994 
L 235.654139 22.499437 
L 237.791807 22.487453 
L 239.929476 22.492204 
L 242.067144 22.494721 
L 244.204812 22.48928 
L 246.342481 22.480781 
L 248.480149 22.488221 
L 250.617817 22.488575 
L 252.755486 22.484362 
L 254.893154 22.491398 
L 257.030822 22.48428 
L 259.168491 22.488962 
L 261.306159 22.487513 
L 263.443827 22.491486 
L 265.581495 22.494808 
L 267.719164 22.490586 
L 269.856832 22.483454 
" clip-path="url(#pd4f44f5304)" style="fill: none; stroke: #2ca02c; stroke-width: 1.5; stroke-linecap: square"/>
   </g>
   <g id="line2d_16">
    <path d="M 56.09 19.856364 
L 58.227668 19.921417 
L 60.365337 19.943298 
L 62.503005 19.96545 
L 64.640673 19.986275 
L 66.778342 19.999041 
L 68.91601 20.007095 
L 71.053678 20.004553 
L 73.191347 19.980896 
L 75.329015 20.007715 
L 77.466683 19.986387 
L 79.604352 19.965416 
L 81.74202 19.964291 
L 83.879688 19.958978 
L 86.017356 19.947164 
L 88.155025 19.98902 
L 90.292693 20.021162 
L 92.430361 19.996557 
L 94.56803 20.014848 
L 96.705698 20.019878 
L 98.843366 20.030673 
L 100.981035 20.027106 
L 103.118703 20.021179 
L 105.256371 20.018311 
L 107.39404 20.040659 
L 109.531708 20.024749 
L 111.669376 20.005105 
L 113.807045 20.004729 
L 115.944713 20.027533 
L 118.082381 20.048932 
L 120.22005 20.055318 
L 122.357718 20.063677 
L 124.495386 20.045111 
L 126.633055 20.065026 
L 128.770723 20.05247 
L 130.908391 20.031784 
L 133.04606 20.054333 
L 135.183728 20.076368 
L 137.321396 20.099968 
L 139.459065 20.117637 
L 141.596733 20.119358 
L 143.734401 20.103326 
L 145.872069 20.105465 
L 148.009738 20.084186 
L 150.147406 20.107772 
L 152.285074 20.075378 
L 154.422743 20.089484 
L 156.560411 20.081157 
L 158.698079 20.05287 
L 160.835748 20.039885 
L 162.973416 20.039138 
L 165.111084 20.03607 
L 167.248753 20.051078 
L 169.386421 20.02363 
L 171.524089 20.041086 
L 173.661758 20.034044 
L 175.799426 20.001586 
L 177.937094 20.004852 
L 180.074763 20.034694 
L 182.212431 20.002602 
L 184.350099 20.000906 
L 186.487768 20.017087 
L 188.625436 20.033066 
L 190.763104 20.042196 
L 192.900773 20.052996 
L 195.038441 20.042271 
L 197.176109 20.032702 
L 199.313778 20.030898 
L 201.451446 20.064101 
L 203.589114 20.069038 
L 205.726782 20.078105 
L 207.864451 20.08302 
L 210.002119 20.074269 
L 212.139787 20.07402 
L 214.277456 20.058842 
L 216.415124 20.040371 
L 218.552792 20.046237 
L 220.690461 20.014468 
L 222.828129 20.028052 
L 224.965797 20.028879 
L 227.103466 20.052169 
L 229.241134 20.081586 
L 231.378802 20.075989 
L 233.516471 20.075983 
L 235.654139 20.087849 
L 237.791807 20.047137 
L 239.929476 20.061155 
L 242.067144 20.078386 
L 244.204812 20.070661 
L 246.342481 20.024803 
L 248.480149 20.045755 
L 250.617817 20.058256 
L 252.755486 20.040894 
L 254.893154 20.038418 
L 257.030822 20.019601 
L 259.168491 20.034325 
L 261.306159 20.019295 
L 263.443827 20.027161 
L 265.581495 20.042152 
L 267.719164 20.025672 
L 269.856832 19.998523 
" clip-path="url(#pd4f44f5304)" style="fill: none; stroke: #d62728; stroke-width: 1.5; stroke-linecap: square"/>
   </g>
   <g id="line2d_17">
    <path d="M 56.09 25.409662 
L 58.227668 25.409821 
L 60.365337 25.407019 
L 62.503005 25.410146 
L 64.640673 25.412298 
L 66.778342 25.409972 
L 68.91601 25.412882 
L 71.053678 25.41444 
L 73.191347 25.41293 
L 75.329015 25.411909 
L 77.466683 25.410831 
L 79.604352 25.410505 
L 81.74202 25.40797 
L 83.879688 25.406896 
L 86.017356 25.407653 
L 88.155025 25.40884 
L 90.292693 25.411455 
L 92.430361 25.415443 
L 94.56803 25.416256 
L 96.705698 25.415835 
L 98.843366 25.414181 
L 100.981035 25.415783 
L 103.118703 25.413378 
L 105.256371 25.409356 
L 107.39404 25.409979 
L 109.531708 25.407824 
L 111.669376 25.404407 
L 113.807045 25.404174 
L 115.944713 25.407282 
L 118.082381 25.4118 
L 120.22005 25.412879 
L 122.357718 25.41182 
L 124.495386 25.411988 
L 126.633055 25.414735 
L 128.770723 25.413859 
L 130.908391 25.412756 
L 133.04606 25.414259 
L 135.183728 25.414114 
L 137.321396 25.413534 
L 139.459065 25.411798 
L 141.596733 25.415183 
L 143.734401 25.410015 
L 145.872069 25.409461 
L 148.009738 25.411511 
L 150.147406 25.414513 
L 152.285074 25.411836 
L 154.422743 25.416101 
L 156.560411 25.418719 
L 158.698079 25.419378 
L 160.835748 25.418464 
L 162.973416 25.419309 
L 165.111084 25.41507 
L 167.248753 25.419004 
L 169.386421 25.415059 
L 171.524089 25.414155 
L 173.661758 25.413215 
L 175.799426 25.410398 
L 177.937094 25.412442 
L 180.074763 25.417443 
L 182.212431 25.418438 
L 184.350099 25.416971 
L 186.487768 25.41629 
L 188.625436 25.414536 
L 190.763104 25.416194 
L 192.900773 25.415032 
L 195.038441 25.413509 
L 197.176109 25.412652 
L 199.313778 25.411674 
L 201.451446 25.414894 
L 203.589114 25.413226 
L 205.726782 25.418424 
L 207.864451 25.419982 
L 210.002119 25.41912 
L 212.139787 25.418719 
L 214.277456 25.414924 
L 216.415124 25.413332 
L 218.552792 25.416951 
L 220.690461 25.417018 
L 222.828129 25.420368 
L 224.965797 25.418569 
L 227.103466 25.42162 
L 229.241134 25.420735 
L 231.378802 25.419945 
L 233.516471 25.421117 
L 235.654139 25.424425 
L 237.791807 25.42295 
L 239.929476 25.42307 
L 242.067144 25.422702 
L 244.204812 25.416294 
L 246.342481 25.408629 
L 248.480149 25.411169 
L 250.617817 25.415788 
L 252.755486 25.415294 
L 254.893154 25.416912 
L 257.030822 25.415465 
L 259.168491 25.415451 
L 261.306159 25.413101 
L 263.443827 25.411148 
L 265.581495 25.412625 
L 267.719164 25.411783 
L 269.856832 25.411064 
" clip-path="url(#pd4f44f5304)" style="fill: none; stroke: #9467bd; stroke-width: 1.5; stroke-linecap: square"/>
   </g>
   <g id="line2d_18">
    <path d="M 56.09 29.632561 
L 58.227668 29.624319 
L 60.365337 29.610607 
L 62.503005 29.602628 
L 64.640673 29.607363 
L 66.778342 29.592091 
L 68.91601 29.589425 
L 71.053678 29.584646 
L 73.191347 29.578189 
L 75.329015 29.578713 
L 77.466683 29.573251 
L 79.604352 29.573987 
L 81.74202 29.567018 
L 83.879688 29.57007 
L 86.017356 29.571809 
L 88.155025 29.570071 
L 90.292693 29.575387 
L 92.430361 29.575198 
L 94.56803 29.575385 
L 96.705698 29.578917 
L 98.843366 29.577186 
L 100.981035 29.58303 
L 103.118703 29.580928 
L 105.256371 29.57405 
L 107.39404 29.578594 
L 109.531708 29.570121 
L 111.669376 29.561593 
L 113.807045 29.563112 
L 115.944713 29.56837 
L 118.082381 29.576619 
L 120.22005 29.582482 
L 122.357718 29.584293 
L 124.495386 29.579948 
L 126.633055 29.586128 
L 128.770723 29.582506 
L 130.908391 29.582506 
L 133.04606 29.588141 
L 135.183728 29.58634 
L 137.321396 29.587858 
L 139.459065 29.592492 
L 141.596733 29.5954 
L 143.734401 29.58928 
L 145.872069 29.583387 
L 148.009738 29.583234 
L 150.147406 29.58927 
L 152.285074 29.584019 
L 154.422743 29.586253 
L 156.560411 29.590915 
L 158.698079 29.591629 
L 160.835748 29.590471 
L 162.973416 29.59173 
L 165.111084 29.588483 
L 167.248753 29.594285 
L 169.386421 29.58175 
L 171.524089 29.582234 
L 173.661758 29.576463 
L 175.799426 29.571978 
L 177.937094 29.576935 
L 180.074763 29.581396 
L 182.212431 29.587204 
L 184.350099 29.587291 
L 186.487768 29.584723 
L 188.625436 29.581066 
L 190.763104 29.582632 
L 192.900773 29.585142 
L 195.038441 29.577942 
L 197.176109 29.572703 
L 199.313778 29.575085 
L 201.451446 29.582673 
L 203.589114 29.582523 
L 205.726782 29.591777 
L 207.864451 29.597224 
L 210.002119 29.598285 
L 212.139787 29.5951 
L 214.277456 29.583512 
L 216.415124 29.583011 
L 218.552792 29.58945 
L 220.690461 29.580157 
L 222.828129 29.587526 
L 224.965797 29.586581 
L 227.103466 29.595742 
L 229.241134 29.59534 
L 231.378802 29.597334 
L 233.516471 29.596204 
L 235.654139 29.603918 
L 237.791807 29.598005 
L 239.929476 29.597938 
L 242.067144 29.602516 
L 244.204812 29.589752 
L 246.342481 29.570621 
L 248.480149 29.57919 
L 250.617817 29.589355 
L 252.755486 29.586744 
L 254.893154 29.588279 
L 257.030822 29.583702 
L 259.168491 29.577491 
L 261.306159 29.572818 
L 263.443827 29.572998 
L 265.581495 29.577766 
L 267.719164 29.571792 
L 269.856832 29.572016 
" clip-path="url(#pd4f44f5304)" style="fill: none; stroke: #8c564b; stroke-width: 1.5; stroke-linecap: square"/>
   </g>
   <g id="line2d_19">
    <path d="M 56.09 25.416613 
L 58.227668 25.482605 
L 60.365337 25.532088 
L 62.503005 25.57617 
L 64.640673 25.611957 
L 66.778342 25.64227 
L 68.91601 25.669582 
L 71.053678 25.691104 
L 73.191347 25.703644 
L 75.329015 25.712214 
L 77.466683 25.721262 
L 79.604352 25.730606 
L 81.74202 25.72702 
L 83.879688 25.733029 
L 86.017356 25.73865 
L 88.155025 25.740053 
L 90.292693 25.745858 
L 92.430361 25.747871 
L 94.56803 25.742612 
L 96.705698 25.745143 
L 98.843366 25.74387 
L 100.981035 25.748973 
L 103.118703 25.749338 
L 105.256371 25.750382 
L 107.39404 25.751 
L 109.531708 25.753067 
L 111.669376 25.753136 
L 113.807045 25.755749 
L 115.944713 25.761805 
L 118.082381 25.753686 
L 120.22005 25.753454 
L 122.357718 25.755722 
L 124.495386 25.759109 
L 126.633055 25.761625 
L 128.770723 25.759287 
L 130.908391 25.762549 
L 133.04606 25.760889 
L 135.183728 25.760002 
L 137.321396 25.749249 
L 139.459065 25.748146 
L 141.596733 25.753705 
L 143.734401 25.751224 
L 145.872069 25.746389 
L 148.009738 25.750972 
L 150.147406 25.747641 
L 152.285074 25.754468 
L 154.422743 25.749757 
L 156.560411 25.75202 
L 158.698079 25.754216 
L 160.835748 25.762597 
L 162.973416 25.759142 
L 165.111084 25.755256 
L 167.248753 25.756246 
L 169.386421 25.766364 
L 171.524089 25.768559 
L 173.661758 25.763494 
L 175.799426 25.7583 
L 177.937094 25.759865 
L 180.074763 25.753593 
L 182.212431 25.749068 
L 184.350099 25.747286 
L 186.487768 25.747131 
L 188.625436 25.74899 
L 190.763104 25.750055 
L 192.900773 25.750353 
L 195.038441 25.745957 
L 197.176109 25.745266 
L 199.313778 25.753035 
L 201.451446 25.754759 
L 203.589114 25.756576 
L 205.726782 25.756467 
L 207.864451 25.753621 
L 210.002119 25.752975 
L 212.139787 25.755909 
L 214.277456 25.75577 
L 216.415124 25.756522 
L 218.552792 25.755861 
L 220.690461 25.759832 
L 222.828129 25.754846 
L 224.965797 25.755429 
L 227.103466 25.764127 
L 229.241134 25.753161 
L 231.378802 25.749553 
L 233.516471 25.749141 
L 235.654139 25.751396 
L 237.791807 25.754849 
L 239.929476 25.750279 
L 242.067144 25.756839 
L 244.204812 25.752124 
L 246.342481 25.75492 
L 248.480149 25.752412 
L 250.617817 25.750866 
L 252.755486 25.755343 
L 254.893154 25.762074 
L 257.030822 25.761096 
L 259.168491 25.75677 
L 261.306159 25.75265 
L 263.443827 25.751661 
L 265.581495 25.753702 
L 267.719164 25.754171 
L 269.856832 25.759288 
" clip-path="url(#pd4f44f5304)" style="fill: none; stroke: #e377c2; stroke-width: 1.5; stroke-linecap: square"/>
   </g>
   <g id="line2d_20">
    <path d="M 56.09 26.737052 
L 58.227668 26.983009 
L 60.365337 27.146851 
L 62.503005 27.294905 
L 64.640673 27.422809 
L 66.778342 27.517181 
L 68.91601 27.609036 
L 71.053678 27.676327 
L 73.191347 27.729478 
L 75.329015 27.776505 
L 77.466683 27.784418 
L 79.604352 27.831042 
L 81.74202 27.83997 
L 83.879688 27.856035 
L 86.017356 27.880696 
L 88.155025 27.877009 
L 90.292693 27.875569 
L 92.430361 27.876489 
L 94.56803 27.85163 
L 96.705698 27.854804 
L 98.843366 27.852494 
L 100.981035 27.871938 
L 103.118703 27.869941 
L 105.256371 27.878253 
L 107.39404 27.879443 
L 109.531708 27.881801 
L 111.669376 27.891815 
L 113.807045 27.892195 
L 115.944713 27.899844 
L 118.082381 27.884092 
L 120.22005 27.874848 
L 122.357718 27.879877 
L 124.495386 27.894942 
L 126.633055 27.901677 
L 128.770723 27.908166 
L 130.908391 27.923853 
L 133.04606 27.915648 
L 135.183728 27.910293 
L 137.321396 27.883732 
L 139.459065 27.880015 
L 141.596733 27.886207 
L 143.734401 27.896719 
L 145.872069 27.880496 
L 148.009738 27.895356 
L 150.147406 27.880221 
L 152.285074 27.910094 
L 154.422743 27.896373 
L 156.560411 27.889724 
L 158.698079 27.897102 
L 160.835748 27.931096 
L 162.973416 27.905138 
L 165.111084 27.890693 
L 167.248753 27.900796 
L 169.386421 27.91544 
L 171.524089 27.911561 
L 173.661758 27.89113 
L 175.799426 27.881932 
L 177.937094 27.899739 
L 180.074763 27.88944 
L 182.212431 27.890594 
L 184.350099 27.885257 
L 186.487768 27.883852 
L 188.625436 27.883787 
L 190.763104 27.90056 
L 192.900773 27.909318 
L 195.038441 27.910129 
L 197.176109 27.894081 
L 199.313778 27.9068 
L 201.451446 27.886309 
L 203.589114 27.889787 
L 205.726782 27.863743 
L 207.864451 27.86045 
L 210.002119 27.860172 
L 212.139787 27.871869 
L 214.277456 27.878976 
L 216.415124 27.88449 
L 218.552792 27.893279 
L 220.690461 27.911395 
L 222.828129 27.901338 
L 224.965797 27.908491 
L 227.103466 27.926852 
L 229.241134 27.895534 
L 231.378802 27.885128 
L 233.516471 27.889339 
L 235.654139 27.891443 
L 237.791807 27.907455 
L 239.929476 27.892794 
L 242.067144 27.89432 
L 244.204812 27.861673 
L 246.342481 27.875578 
L 248.480149 27.855104 
L 250.617817 27.853728 
L 252.755486 27.865037 
L 254.893154 27.870662 
L 257.030822 27.866728 
L 259.168491 27.85124 
L 261.306159 27.847515 
L 263.443827 27.860779 
L 265.581495 27.860702 
L 267.719164 27.873737 
L 269.856832 27.90962 
" clip-path="url(#pd4f44f5304)" style="fill: none; stroke: #7f7f7f; stroke-width: 1.5; stroke-linecap: square"/>
   </g>
   <g id="line2d_21">
    <path d="M 56.09 25.97582 
L 58.227668 26.193544 
L 60.365337 26.360646 
L 62.503005 26.502118 
L 64.640673 26.606022 
L 66.778342 26.693204 
L 68.91601 26.767741 
L 71.053678 26.831217 
L 73.191347 26.874823 
L 75.329015 26.907126 
L 77.466683 26.930256 
L 79.604352 26.948272 
L 81.74202 26.960539 
L 83.879688 26.968604 
L 86.017356 26.979748 
L 88.155025 26.997023 
L 90.292693 27.010232 
L 92.430361 27.010349 
L 94.56803 27.014387 
L 96.705698 27.012731 
L 98.843366 27.014442 
L 100.981035 27.018561 
L 103.118703 27.023269 
L 105.256371 27.024784 
L 107.39404 27.022745 
L 109.531708 27.030164 
L 111.669376 27.037305 
L 113.807045 27.034817 
L 115.944713 27.041458 
L 118.082381 27.035946 
L 120.22005 27.026534 
L 122.357718 27.026801 
L 124.495386 27.032654 
L 126.633055 27.039837 
L 128.770723 27.035004 
L 130.908391 27.039197 
L 133.04606 27.040666 
L 135.183728 27.040674 
L 137.321396 27.032526 
L 139.459065 27.020981 
L 141.596733 27.027646 
L 143.734401 27.024911 
L 145.872069 27.02727 
L 148.009738 27.03473 
L 150.147406 27.035093 
L 152.285074 27.041197 
L 154.422743 27.048126 
L 156.560411 27.041546 
L 158.698079 27.036562 
L 160.835748 27.04154 
L 162.973416 27.032978 
L 165.111084 27.019239 
L 167.248753 27.017866 
L 169.386421 27.028352 
L 171.524089 27.031407 
L 173.661758 27.029795 
L 175.799426 27.018203 
L 177.937094 27.019566 
L 180.074763 27.026058 
L 182.212431 27.016748 
L 184.350099 27.020769 
L 186.487768 27.023644 
L 188.625436 27.029689 
L 190.763104 27.037296 
L 192.900773 27.038651 
L 195.038441 27.042049 
L 197.176109 27.040027 
L 199.313778 27.041966 
L 201.451446 27.038593 
L 203.589114 27.035488 
L 205.726782 27.024685 
L 207.864451 27.029241 
L 210.002119 27.02416 
L 212.139787 27.033178 
L 214.277456 27.035134 
L 216.415124 27.028507 
L 218.552792 27.026597 
L 220.690461 27.034875 
L 222.828129 27.030565 
L 224.965797 27.034267 
L 227.103466 27.0368 
L 229.241134 27.024671 
L 231.378802 27.018982 
L 233.516471 27.033452 
L 235.654139 27.030875 
L 237.791807 27.023964 
L 239.929476 27.021974 
L 242.067144 27.024233 
L 244.204812 27.010891 
L 246.342481 27.020895 
L 248.480149 27.010499 
L 250.617817 27.007652 
L 252.755486 27.014693 
L 254.893154 27.028154 
L 257.030822 27.017132 
L 259.168491 27.021594 
L 261.306159 27.020574 
L 263.443827 27.021661 
L 265.581495 27.014582 
L 267.719164 27.019382 
L 269.856832 27.020751 
" clip-path="url(#pd4f44f5304)" style="fill: none; stroke: #bcbd22; stroke-width: 1.5; stroke-linecap: square"/>
   </g>
   <g id="line2d_22">
    <path d="M 56.09 25.01242 
L 58.227668 25.255806 
L 60.365337 25.465505 
L 62.503005 25.627791 
L 64.640673 25.741211 
L 66.778342 25.852293 
L 68.91601 25.934932 
L 71.053678 26.006864 
L 73.191347 26.06123 
L 75.329015 26.09881 
L 77.466683 26.127601 
L 79.604352 26.152094 
L 81.74202 26.17412 
L 83.879688 26.176444 
L 86.017356 26.181201 
L 88.155025 26.197306 
L 90.292693 26.202277 
L 92.430361 26.218408 
L 94.56803 26.2319 
L 96.705698 26.232894 
L 98.843366 26.234973 
L 100.981035 26.220925 
L 103.118703 26.229298 
L 105.256371 26.23693 
L 107.39404 26.228453 
L 109.531708 26.241628 
L 111.669376 26.255586 
L 113.807045 26.252286 
L 115.944713 26.258165 
L 118.082381 26.249311 
L 120.22005 26.231679 
L 122.357718 26.229426 
L 124.495386 26.241298 
L 126.633055 26.243052 
L 128.770723 26.240237 
L 130.908391 26.235237 
L 133.04606 26.230937 
L 135.183728 26.235059 
L 137.321396 26.232769 
L 139.459065 26.21612 
L 141.596733 26.214513 
L 143.734401 26.222151 
L 145.872069 26.233329 
L 148.009738 26.241596 
L 150.147406 26.24009 
L 152.285074 26.24264 
L 154.422743 26.245099 
L 156.560411 26.237345 
L 158.698079 26.22779 
L 160.835748 26.231279 
L 162.973416 26.230706 
L 165.111084 26.223626 
L 167.248753 26.218837 
L 169.386421 26.235937 
L 171.524089 26.228249 
L 173.661758 26.237426 
L 175.799426 26.229343 
L 177.937094 26.226493 
L 180.074763 26.230608 
L 182.212431 26.222121 
L 184.350099 26.215374 
L 186.487768 26.225752 
L 188.625436 26.236091 
L 190.763104 26.237986 
L 192.900773 26.229817 
L 195.038441 26.243346 
L 197.176109 26.24904 
L 199.313778 26.241541 
L 201.451446 26.236471 
L 203.589114 26.242521 
L 205.726782 26.233245 
L 207.864451 26.23276 
L 210.002119 26.223326 
L 212.139787 26.222856 
L 214.277456 26.239219 
L 216.415124 26.233654 
L 218.552792 26.22568 
L 220.690461 26.245577 
L 222.828129 26.233581 
L 224.965797 26.233795 
L 227.103466 26.223301 
L 229.241134 26.222469 
L 231.378802 26.223174 
L 233.516471 26.237649 
L 235.654139 26.217339 
L 237.791807 26.222615 
L 239.929476 26.219828 
L 242.067144 26.216954 
L 244.204812 26.224828 
L 246.342481 26.25074 
L 248.480149 26.229106 
L 250.617817 26.21392 
L 252.755486 26.221213 
L 254.893154 26.224571 
L 257.030822 26.229358 
L 259.168491 26.245439 
L 261.306159 26.250281 
L 263.443827 26.250803 
L 265.581495 26.242154 
L 267.719164 26.256462 
L 269.856832 26.257688 
" clip-path="url(#pd4f44f5304)" style="fill: none; stroke: #17becf; stroke-width: 1.5; stroke-linecap: square"/>
   </g>
   <g id="line2d_23">
    <path d="M 56.09 24.192697 
L 58.227668 24.160798 
L 60.365337 24.156551 
L 62.503005 24.146034 
L 64.640673 24.134383 
L 66.778342 24.133594 
L 68.91601 24.125768 
L 71.053678 24.121417 
L 73.191347 24.114383 
L 75.329015 24.106595 
L 77.466683 24.119891 
L 79.604352 24.108245 
L 81.74202 24.098985 
L 83.879688 24.099924 
L 86.017356 24.086385 
L 88.155025 24.09052 
L 90.292693 24.102705 
L 92.430361 24.106441 
L 94.56803 24.109851 
L 96.705698 24.112892 
L 98.843366 24.117007 
L 100.981035 24.114061 
L 103.118703 24.115544 
L 105.256371 24.111938 
L 107.39404 24.110968 
L 109.531708 24.113357 
L 111.669376 24.105882 
L 113.807045 24.111374 
L 115.944713 24.114431 
L 118.082381 24.114197 
L 120.22005 24.118648 
L 122.357718 24.121215 
L 124.495386 24.12234 
L 126.633055 24.12029 
L 128.770723 24.109535 
L 130.908391 24.103291 
L 133.04606 24.10515 
L 135.183728 24.10449 
L 137.321396 24.104461 
L 139.459065 24.106126 
L 141.596733 24.109913 
L 143.734401 24.100118 
L 145.872069 24.101228 
L 148.009738 24.101804 
L 150.147406 24.107748 
L 152.285074 24.098127 
L 154.422743 24.097328 
L 156.560411 24.104401 
L 158.698079 24.104908 
L 160.835748 24.09846 
L 162.973416 24.110552 
L 165.111084 24.113926 
L 167.248753 24.105837 
L 169.386421 24.11547 
L 171.524089 24.118637 
L 173.661758 24.124247 
L 175.799426 24.120064 
L 177.937094 24.112928 
L 180.074763 24.110483 
L 182.212431 24.104414 
L 184.350099 24.105845 
L 186.487768 24.106461 
L 188.625436 24.110492 
L 190.763104 24.10342 
L 192.900773 24.096836 
L 195.038441 24.091341 
L 197.176109 24.097693 
L 199.313778 24.099278 
L 201.451446 24.115338 
L 203.589114 24.116037 
L 205.726782 24.134631 
L 207.864451 24.130142 
L 210.002119 24.127747 
L 212.139787 24.125122 
L 214.277456 24.122411 
L 216.415124 24.117877 
L 218.552792 24.110637 
L 220.690461 24.107149 
L 222.828129 24.102964 
L 224.965797 24.097732 
L 227.103466 24.100407 
L 229.241134 24.102428 
L 231.378802 24.104456 
L 233.516471 24.099832 
L 235.654139 24.102651 
L 237.791807 24.096049 
L 239.929476 24.09893 
L 242.067144 24.11226 
L 244.204812 24.121691 
L 246.342481 24.116284 
L 248.480149 24.124389 
L 250.617817 24.12346 
L 252.755486 24.124939 
L 254.893154 24.128985 
L 257.030822 24.13236 
L 259.168491 24.139305 
L 261.306159 24.136465 
L 263.443827 24.126292 
L 265.581495 24.126868 
L 267.719164 24.122129 
L 269.856832 24.107221 
" clip-path="url(#pd4f44f5304)" style="fill: none; stroke: #1f77b4; stroke-width: 1.5; stroke-linecap: square"/>
   </g>
   <g id="line2d_24">
    <path d="M 56.09 24.454769 
L 58.227668 24.430626 
L 60.365337 24.416378 
L 62.503005 24.406455 
L 64.640673 24.399327 
L 66.778342 24.387996 
L 68.91601 24.376314 
L 71.053678 24.370344 
L 73.191347 24.371612 
L 75.329015 24.364894 
L 77.466683 24.366074 
L 79.604352 24.361581 
L 81.74202 24.361256 
L 83.879688 24.362419 
L 86.017356 24.363366 
L 88.155025 24.364971 
L 90.292693 24.37042 
L 92.430361 24.367976 
L 94.56803 24.369118 
L 96.705698 24.369424 
L 98.843366 24.368842 
L 100.981035 24.371389 
L 103.118703 24.36907 
L 105.256371 24.364856 
L 107.39404 24.369934 
L 109.531708 24.369519 
L 111.669376 24.369127 
L 113.807045 24.366851 
L 115.944713 24.362464 
L 118.082381 24.362893 
L 120.22005 24.367263 
L 122.357718 24.36362 
L 124.495386 24.358996 
L 126.633055 24.358507 
L 128.770723 24.355943 
L 130.908391 24.360579 
L 133.04606 24.363526 
L 135.183728 24.364128 
L 137.321396 24.362787 
L 139.459065 24.363286 
L 141.596733 24.358221 
L 143.734401 24.35854 
L 145.872069 24.363354 
L 148.009738 24.367079 
L 150.147406 24.36599 
L 152.285074 24.364919 
L 154.422743 24.365911 
L 156.560411 24.366675 
L 158.698079 24.368738 
L 160.835748 24.359757 
L 162.973416 24.361767 
L 165.111084 24.360075 
L 167.248753 24.359103 
L 169.386421 24.355048 
L 171.524089 24.358177 
L 173.661758 24.358062 
L 175.799426 24.358475 
L 177.937094 24.360103 
L 180.074763 24.365536 
L 182.212431 24.361771 
L 184.350099 24.362215 
L 186.487768 24.362067 
L 188.625436 24.362788 
L 190.763104 24.357191 
L 192.900773 24.359734 
L 195.038441 24.356563 
L 197.176109 24.357733 
L 199.313778 24.357175 
L 201.451446 24.362117 
L 203.589114 24.357291 
L 205.726782 24.364462 
L 207.864451 24.369109 
L 210.002119 24.368735 
L 212.139787 24.372663 
L 214.277456 24.369009 
L 216.415124 24.368319 
L 218.552792 24.368703 
L 220.690461 24.366555 
L 222.828129 24.361408 
L 224.965797 24.362347 
L 227.103466 24.361075 
L 229.241134 24.362745 
L 231.378802 24.36228 
L 233.516471 24.361596 
L 235.654139 24.364309 
L 237.791807 24.356667 
L 239.929476 24.361353 
L 242.067144 24.364089 
L 244.204812 24.3624 
L 246.342481 24.355882 
L 248.480149 24.357719 
L 250.617817 24.36053 
L 252.755486 24.367593 
L 254.893154 24.3666 
L 257.030822 24.362438 
L 259.168491 24.361097 
L 261.306159 24.364127 
L 263.443827 24.358236 
L 265.581495 24.358335 
L 267.719164 24.354971 
L 269.856832 24.35327 
" clip-path="url(#pd4f44f5304)" style="fill: none; stroke: #ff7f0e; stroke-width: 1.5; stroke-linecap: square"/>
   </g>
   <g id="line2d_25">
    <path d="M 56.09 24.665737 
L 58.227668 24.657892 
L 60.365337 24.658865 
L 62.503005 24.654521 
L 64.640673 24.651754 
L 66.778342 24.653848 
L 68.91601 24.653432 
L 71.053678 24.651854 
L 73.191347 24.651838 
L 75.329015 24.647395 
L 77.466683 24.646174 
L 79.604352 24.642943 
L 81.74202 24.64204 
L 83.879688 24.643071 
L 86.017356 24.642041 
L 88.155025 24.642169 
L 90.292693 24.643633 
L 92.430361 24.642584 
L 94.56803 24.643355 
L 96.705698 24.645794 
L 98.843366 24.647045 
L 100.981035 24.644379 
L 103.118703 24.642399 
L 105.256371 24.643856 
L 107.39404 24.644859 
L 109.531708 24.643508 
L 111.669376 24.642583 
L 113.807045 24.642105 
L 115.944713 24.644861 
L 118.082381 24.643856 
L 120.22005 24.647288 
L 122.357718 24.64649 
L 124.495386 24.648399 
L 126.633055 24.646569 
L 128.770723 24.647867 
L 130.908391 24.647026 
L 133.04606 24.648516 
L 135.183728 24.641384 
L 137.321396 24.638733 
L 139.459065 24.637065 
L 141.596733 24.640967 
L 143.734401 24.641189 
L 145.872069 24.642442 
L 148.009738 24.642334 
L 150.147406 24.640798 
L 152.285074 24.640112 
L 154.422743 24.641151 
L 156.560411 24.644996 
L 158.698079 24.644739 
L 160.835748 24.642734 
L 162.973416 24.644719 
L 165.111084 24.649 
L 167.248753 24.645302 
L 169.386421 24.64803 
L 171.524089 24.651048 
L 173.661758 24.647442 
L 175.799426 24.649922 
L 177.937094 24.643646 
L 180.074763 24.642728 
L 182.212431 24.640637 
L 184.350099 24.64327 
L 186.487768 24.642566 
L 188.625436 24.638449 
L 190.763104 24.640895 
L 192.900773 24.639829 
L 195.038441 24.640048 
L 197.176109 24.642433 
L 199.313778 24.644048 
L 201.451446 24.646502 
L 203.589114 24.646069 
L 205.726782 24.65015 
L 207.864451 24.650253 
L 210.002119 24.648198 
L 212.139787 24.645116 
L 214.277456 24.644326 
L 216.415124 24.643074 
L 218.552792 24.640915 
L 220.690461 24.643933 
L 222.828129 24.644152 
L 224.965797 24.643649 
L 227.103466 24.640734 
L 229.241134 24.639647 
L 231.378802 24.641164 
L 233.516471 24.640494 
L 235.654139 24.644058 
L 237.791807 24.643621 
L 239.929476 24.641348 
L 242.067144 24.648667 
L 244.204812 24.649126 
L 246.342481 24.645937 
L 248.480149 24.644302 
L 250.617817 24.646485 
L 252.755486 24.646401 
L 254.893154 24.652946 
L 257.030822 24.651894 
L 259.168491 24.652486 
L 261.306159 24.652683 
L 263.443827 24.652538 
L 265.581495 24.651719 
L 267.719164 24.648089 
L 269.856832 24.644083 
" clip-path="url(#pd4f44f5304)" style="fill: none; stroke: #2ca02c; stroke-width: 1.5; stroke-linecap: square"/>
   </g>
   <g id="line2d_26">
    <path d="M 56.09 24.428106 
L 58.227668 24.393993 
L 60.365337 24.375376 
L 62.503005 24.356362 
L 64.640673 24.341073 
L 66.778342 24.326368 
L 68.91601 24.31065 
L 71.053678 24.301651 
L 73.191347 24.293679 
L 75.329015 24.284943 
L 77.466683 24.287721 
L 79.604352 24.280071 
L 81.74202 24.280488 
L 83.879688 24.278053 
L 86.017356 24.273977 
L 88.155025 24.276142 
L 90.292693 24.280706 
L 92.430361 24.28094 
L 94.56803 24.291423 
L 96.705698 24.29185 
L 98.843366 24.292958 
L 100.981035 24.287723 
L 103.118703 24.287793 
L 105.256371 24.28385 
L 107.39404 24.285254 
L 109.531708 24.285121 
L 111.669376 24.283498 
L 113.807045 24.280572 
L 115.944713 24.27902 
L 118.082381 24.280171 
L 120.22005 24.282146 
L 122.357718 24.279413 
L 124.495386 24.273962 
L 126.633055 24.274426 
L 128.770723 24.274329 
L 130.908391 24.271047 
L 133.04606 24.274025 
L 135.183728 24.27652 
L 137.321396 24.284481 
L 139.459065 24.28489 
L 141.596733 24.282449 
L 143.734401 24.27763 
L 145.872069 24.28286 
L 148.009738 24.279304 
L 150.147406 24.284371 
L 152.285074 24.274197 
L 154.422743 24.27908 
L 156.560411 24.279936 
L 158.698079 24.277366 
L 160.835748 24.266456 
L 162.973416 24.273369 
L 165.111084 24.279327 
L 167.248753 24.275256 
L 169.386421 24.27019 
L 171.524089 24.274591 
L 173.661758 24.280606 
L 175.799426 24.285274 
L 177.937094 24.278569 
L 180.074763 24.282073 
L 182.212431 24.282249 
L 184.350099 24.284074 
L 186.487768 24.281347 
L 188.625436 24.282903 
L 190.763104 24.278741 
L 192.900773 24.276007 
L 195.038441 24.275695 
L 197.176109 24.281068 
L 199.313778 24.277277 
L 201.451446 24.282188 
L 203.589114 24.281559 
L 205.726782 24.290527 
L 207.864451 24.292497 
L 210.002119 24.292037 
L 212.139787 24.287729 
L 214.277456 24.285508 
L 216.415124 24.284093 
L 218.552792 24.281845 
L 220.690461 24.277205 
L 222.828129 24.282189 
L 224.965797 24.279396 
L 227.103466 24.274521 
L 229.241134 24.28138 
L 231.378802 24.282187 
L 233.516471 24.282323 
L 235.654139 24.282567 
L 237.791807 24.278096 
L 239.929476 24.281268 
L 242.067144 24.27949 
L 244.204812 24.290347 
L 246.342481 24.287439 
L 248.480149 24.292457 
L 250.617817 24.291806 
L 252.755486 24.287588 
L 254.893154 24.288585 
L 257.030822 24.288334 
L 259.168491 24.292344 
L 261.306159 24.29392 
L 263.443827 24.289015 
L 265.581495 24.28881 
L 267.719164 24.285319 
L 269.856832 24.275958 
" clip-path="url(#pd4f44f5304)" style="fill: none; stroke: #d62728; stroke-width: 1.5; stroke-linecap: square"/>
   </g>
   <g id="line2d_27">
    <path d="M 56.09 25.80939 
L 58.227668 25.627442 
L 60.365337 25.477927 
L 62.503005 25.364413 
L 64.640673 25.274476 
L 66.778342 25.195649 
L 68.91601 25.144462 
L 71.053678 25.094341 
L 73.191347 25.062455 
L 75.329015 25.022767 
L 77.466683 25.002327 
L 79.604352 24.963747 
L 81.74202 24.950305 
L 83.879688 24.946988 
L 86.017356 24.964381 
L 88.155025 24.965817 
L 90.292693 24.974562 
L 92.430361 24.953984 
L 94.56803 24.954635 
L 96.705698 24.958516 
L 98.843366 24.95722 
L 100.981035 24.958589 
L 103.118703 24.950135 
L 105.256371 24.935803 
L 107.39404 24.946888 
L 109.531708 24.93908 
L 111.669376 24.945733 
L 113.807045 24.934621 
L 115.944713 24.923474 
L 118.082381 24.930263 
L 120.22005 24.940658 
L 122.357718 24.938817 
L 124.495386 24.917267 
L 126.633055 24.91428 
L 128.770723 24.912457 
L 130.908391 24.930386 
L 133.04606 24.94162 
L 135.183728 24.926654 
L 137.321396 24.921679 
L 139.459065 24.92042 
L 141.596733 24.920724 
L 143.734401 24.921259 
L 145.872069 24.930368 
L 148.009738 24.942231 
L 150.147406 24.947754 
L 152.285074 24.938976 
L 154.422743 24.947161 
L 156.560411 24.963207 
L 158.698079 24.955793 
L 160.835748 24.93554 
L 162.973416 24.932817 
L 165.111084 24.942095 
L 167.248753 24.939985 
L 169.386421 24.926457 
L 171.524089 24.940843 
L 173.661758 24.933763 
L 175.799426 24.938924 
L 177.937094 24.935877 
L 180.074763 24.942155 
L 182.212431 24.931159 
L 184.350099 24.943644 
L 186.487768 24.932931 
L 188.625436 24.925375 
L 190.763104 24.922321 
L 192.900773 24.93509 
L 195.038441 24.921751 
L 197.176109 24.931985 
L 199.313778 24.923353 
L 201.451446 24.927651 
L 203.589114 24.911439 
L 205.726782 24.916995 
L 207.864451 24.930267 
L 210.002119 24.939012 
L 212.139787 24.948833 
L 214.277456 24.934688 
L 216.415124 24.929537 
L 218.552792 24.939484 
L 220.690461 24.931166 
L 222.828129 24.931105 
L 224.965797 24.94482 
L 227.103466 24.942143 
L 229.241134 24.940894 
L 231.378802 24.93532 
L 233.516471 24.937334 
L 235.654139 24.950753 
L 237.791807 24.931577 
L 239.929476 24.948381 
L 242.067144 24.951602 
L 244.204812 24.942291 
L 246.342481 24.923515 
L 248.480149 24.928793 
L 250.617817 24.941841 
L 252.755486 24.951198 
L 254.893154 24.952035 
L 257.030822 24.936268 
L 259.168491 24.930568 
L 261.306159 24.927483 
L 263.443827 24.923348 
L 265.581495 24.926042 
L 267.719164 24.914238 
L 269.856832 24.906033 
" clip-path="url(#pd4f44f5304)" style="fill: none; stroke: #9467bd; stroke-width: 1.5; stroke-linecap: square"/>
   </g>
   <g id="line2d_28">
    <path d="M 56.09 24.743368 
L 58.227668 24.683967 
L 60.365337 24.657731 
L 62.503005 24.614732 
L 64.640673 24.595469 
L 66.778342 24.571204 
L 68.91601 24.569294 
L 71.053678 24.565701 
L 73.191347 24.539895 
L 75.329015 24.535295 
L 77.466683 24.526369 
L 79.604352 24.533965 
L 81.74202 24.538691 
L 83.879688 24.541036 
L 86.017356 24.544715 
L 88.155025 24.520325 
L 90.292693 24.521651 
L 92.430361 24.511497 
L 94.56803 24.500917 
L 96.705698 24.487273 
L 98.843366 24.479267 
L 100.981035 24.470051 
L 103.118703 24.47353 
L 105.256371 24.46981 
L 107.39404 24.474349 
L 109.531708 24.491907 
L 111.669376 24.495635 
L 113.807045 24.496942 
L 115.944713 24.487615 
L 118.082381 24.474061 
L 120.22005 24.456112 
L 122.357718 24.461179 
L 124.495386 24.462464 
L 126.633055 24.465083 
L 128.770723 24.472664 
L 130.908391 24.47408 
L 133.04606 24.478377 
L 135.183728 24.476547 
L 137.321396 24.478353 
L 139.459065 24.461989 
L 141.596733 24.464372 
L 143.734401 24.474919 
L 145.872069 24.471775 
L 148.009738 24.475511 
L 150.147406 24.474926 
L 152.285074 24.482508 
L 154.422743 24.484453 
L 156.560411 24.475888 
L 158.698079 24.478277 
L 160.835748 24.49275 
L 162.973416 24.482595 
L 165.111084 24.479657 
L 167.248753 24.473202 
L 169.386421 24.484087 
L 171.524089 24.474039 
L 173.661758 24.466778 
L 175.799426 24.464835 
L 177.937094 24.464053 
L 180.074763 24.469189 
L 182.212431 24.497085 
L 184.350099 24.501041 
L 186.487768 24.495962 
L 188.625436 24.49009 
L 190.763104 24.473452 
L 192.900773 24.483852 
L 195.038441 24.477273 
L 197.176109 24.476859 
L 199.313778 24.484139 
L 201.451446 24.461167 
L 203.589114 24.454852 
L 205.726782 24.430351 
L 207.864451 24.437575 
L 210.002119 24.446397 
L 212.139787 24.462277 
L 214.277456 24.460882 
L 216.415124 24.471012 
L 218.552792 24.48329 
L 220.690461 24.490378 
L 222.828129 24.498996 
L 224.965797 24.497946 
L 227.103466 24.492802 
L 229.241134 24.475208 
L 231.378802 24.469506 
L 233.516471 24.476301 
L 235.654139 24.465576 
L 237.791807 24.476366 
L 239.929476 24.464293 
L 242.067144 24.462578 
L 244.204812 24.458744 
L 246.342481 24.479893 
L 248.480149 24.478902 
L 250.617817 24.48556 
L 252.755486 24.494924 
L 254.893154 24.507903 
L 257.030822 24.502843 
L 259.168491 24.500412 
L 261.306159 24.50265 
L 263.443827 24.511979 
L 265.581495 24.498911 
L 267.719164 24.51053 
L 269.856832 24.510604 
" clip-path="url(#pd4f44f5304)" style="fill: none; stroke: #8c564b; stroke-width: 1.5; stroke-linecap: square"/>
   </g>
   <g id="line2d_29">
    <path d="M 56.09 24.062437 
L 58.227668 24.069921 
L 60.365337 24.077035 
L 62.503005 24.078305 
L 64.640673 24.083613 
L 66.778342 24.083799 
L 68.91601 24.088562 
L 71.053678 24.099743 
L 73.191347 24.093519 
L 75.329015 24.09336 
L 77.466683 24.092795 
L 79.604352 24.099347 
L 81.74202 24.099762 
L 83.879688 24.103555 
L 86.017356 24.10438 
L 88.155025 24.096272 
L 90.292693 24.091106 
L 92.430361 24.089379 
L 94.56803 24.084251 
L 96.705698 24.079922 
L 98.843366 24.078111 
L 100.981035 24.077438 
L 103.118703 24.08746 
L 105.256371 24.090649 
L 107.39404 24.088819 
L 109.531708 24.093248 
L 111.669376 24.094438 
L 113.807045 24.096625 
L 115.944713 24.093591 
L 118.082381 24.088041 
L 120.22005 24.082789 
L 122.357718 24.085351 
L 124.495386 24.092289 
L 126.633055 24.087892 
L 128.770723 24.087501 
L 130.908391 24.085358 
L 133.04606 24.082191 
L 135.183728 24.086902 
L 137.321396 24.086035 
L 139.459065 24.07926 
L 141.596733 24.084137 
L 143.734401 24.083342 
L 145.872069 24.078785 
L 148.009738 24.078104 
L 150.147406 24.078969 
L 152.285074 24.084374 
L 154.422743 24.079471 
L 156.560411 24.078565 
L 158.698079 24.076838 
L 160.835748 24.083778 
L 162.973416 24.084538 
L 165.111084 24.086431 
L 167.248753 24.077307 
L 169.386421 24.083507 
L 171.524089 24.080858 
L 173.661758 24.081532 
L 175.799426 24.087851 
L 177.937094 24.077892 
L 180.074763 24.070959 
L 182.212431 24.087528 
L 184.350099 24.0927 
L 186.487768 24.091463 
L 188.625436 24.09113 
L 190.763104 24.084494 
L 192.900773 24.088753 
L 195.038441 24.090448 
L 197.176109 24.090141 
L 199.313778 24.096518 
L 201.451446 24.087783 
L 203.589114 24.09147 
L 205.726782 24.076626 
L 207.864451 24.076265 
L 210.002119 24.081997 
L 212.139787 24.084075 
L 214.277456 24.085135 
L 216.415124 24.088438 
L 218.552792 24.079717 
L 220.690461 24.087213 
L 222.828129 24.092509 
L 224.965797 24.092974 
L 227.103466 24.09045 
L 229.241134 24.086589 
L 231.378802 24.086375 
L 233.516471 24.087998 
L 235.654139 24.078712 
L 237.791807 24.080948 
L 239.929476 24.078694 
L 242.067144 24.076323 
L 244.204812 24.077683 
L 246.342481 24.095267 
L 248.480149 24.094242 
L 250.617817 24.088087 
L 252.755486 24.084529 
L 254.893154 24.091768 
L 257.030822 24.094192 
L 259.168491 24.098776 
L 261.306159 24.099632 
L 263.443827 24.102036 
L 265.581495 24.096888 
L 267.719164 24.103319 
L 269.856832 24.099317 
" clip-path="url(#pd4f44f5304)" style="fill: none; stroke: #e377c2; stroke-width: 1.5; stroke-linecap: square"/>
   </g>
   <g id="line2d_30">
    <path d="M 56.09 23.909468 
L 58.227668 23.913571 
L 60.365337 23.922208 
L 62.503005 23.929803 
L 64.640673 23.933574 
L 66.778342 23.936959 
L 68.91601 23.939603 
L 71.053678 23.94613 
L 73.191347 23.952328 
L 75.329015 23.946268 
L 77.466683 23.956499 
L 79.604352 23.964528 
L 81.74202 23.964518 
L 83.879688 23.968413 
L 86.017356 23.971633 
L 88.155025 23.961274 
L 90.292693 23.956039 
L 92.430361 23.96406 
L 94.56803 23.957538 
L 96.705698 23.955435 
L 98.843366 23.951147 
L 100.981035 23.95508 
L 103.118703 23.956963 
L 105.256371 23.953968 
L 107.39404 23.946122 
L 109.531708 23.951351 
L 111.669376 23.953359 
L 113.807045 23.958618 
L 115.944713 23.957168 
L 118.082381 23.956621 
L 120.22005 23.953706 
L 122.357718 23.951706 
L 124.495386 23.955738 
L 126.633055 23.954383 
L 128.770723 23.954817 
L 130.908391 23.955485 
L 133.04606 23.950371 
L 135.183728 23.946187 
L 137.321396 23.939593 
L 139.459065 23.935827 
L 141.596733 23.939588 
L 143.734401 23.93827 
L 145.872069 23.933237 
L 148.009738 23.935894 
L 150.147406 23.934815 
L 152.285074 23.943575 
L 154.422743 23.945187 
L 156.560411 23.946459 
L 158.698079 23.953268 
L 160.835748 23.95419 
L 162.973416 23.953464 
L 165.111084 23.946786 
L 167.248753 23.94488 
L 169.386421 23.951771 
L 171.524089 23.946849 
L 173.661758 23.950137 
L 175.799426 23.954977 
L 177.937094 23.952747 
L 180.074763 23.947934 
L 182.212431 23.958504 
L 184.350099 23.960847 
L 186.487768 23.958324 
L 188.625436 23.957183 
L 190.763104 23.954683 
L 192.900773 23.951024 
L 195.038441 23.954971 
L 197.176109 23.957822 
L 199.313778 23.957719 
L 201.451446 23.954505 
L 203.589114 23.952207 
L 205.726782 23.950959 
L 207.864451 23.950108 
L 210.002119 23.954509 
L 212.139787 23.955558 
L 214.277456 23.953533 
L 216.415124 23.958612 
L 218.552792 23.955009 
L 220.690461 23.960273 
L 222.828129 23.959275 
L 224.965797 23.95923 
L 227.103466 23.955792 
L 229.241134 23.945632 
L 231.378802 23.94876 
L 233.516471 23.951086 
L 235.654139 23.951587 
L 237.791807 23.955612 
L 239.929476 23.953759 
L 242.067144 23.949748 
L 244.204812 23.944619 
L 246.342481 23.951011 
L 248.480149 23.949042 
L 250.617817 23.949704 
L 252.755486 23.950053 
L 254.893154 23.954108 
L 257.030822 23.959034 
L 259.168491 23.955821 
L 261.306159 23.95967 
L 263.443827 23.958358 
L 265.581495 23.953887 
L 267.719164 23.955543 
L 269.856832 23.960292 
" clip-path="url(#pd4f44f5304)" style="fill: none; stroke: #7f7f7f; stroke-width: 1.5; stroke-linecap: square"/>
   </g>
   <g id="line2d_31">
    <path d="M 56.09 23.692689 
L 58.227668 23.697586 
L 60.365337 23.712704 
L 62.503005 23.715853 
L 64.640673 23.712133 
L 66.778342 23.711089 
L 68.91601 23.70117 
L 71.053678 23.711867 
L 73.191347 23.709671 
L 75.329015 23.709063 
L 77.466683 23.711309 
L 79.604352 23.727023 
L 81.74202 23.730156 
L 83.879688 23.73549 
L 86.017356 23.718318 
L 88.155025 23.705214 
L 90.292693 23.687658 
L 92.430361 23.696483 
L 94.56803 23.688926 
L 96.705698 23.687334 
L 98.843366 23.685606 
L 100.981035 23.688155 
L 103.118703 23.700221 
L 105.256371 23.714167 
L 107.39404 23.700482 
L 109.531708 23.703818 
L 111.669376 23.701303 
L 113.807045 23.71301 
L 115.944713 23.709261 
L 118.082381 23.699966 
L 120.22005 23.692512 
L 122.357718 23.696088 
L 124.495386 23.714799 
L 126.633055 23.707025 
L 128.770723 23.708119 
L 130.908391 23.701853 
L 133.04606 23.689965 
L 135.183728 23.695244 
L 137.321396 23.68991 
L 139.459065 23.686225 
L 141.596733 23.691477 
L 143.734401 23.690789 
L 145.872069 23.673099 
L 148.009738 23.666548 
L 150.147406 23.661546 
L 152.285074 23.684887 
L 154.422743 23.677759 
L 156.560411 23.656614 
L 158.698079 23.673067 
L 160.835748 23.688588 
L 162.973416 23.690202 
L 165.111084 23.68595 
L 167.248753 23.669559 
L 169.386421 23.693118 
L 171.524089 23.680164 
L 173.661758 23.686024 
L 175.799426 23.698584 
L 177.937094 23.688512 
L 180.074763 23.673625 
L 182.212431 23.695356 
L 184.350099 23.70063 
L 186.487768 23.702021 
L 188.625436 23.707708 
L 190.763104 23.697228 
L 192.900773 23.693566 
L 195.038441 23.703235 
L 197.176109 23.698964 
L 199.313778 23.709109 
L 201.451446 23.701096 
L 203.589114 23.706875 
L 205.726782 23.698522 
L 207.864451 23.691566 
L 210.002119 23.687988 
L 212.139787 23.678497 
L 214.277456 23.688198 
L 216.415124 23.700684 
L 218.552792 23.687984 
L 220.690461 23.69713 
L 222.828129 23.694135 
L 224.965797 23.688212 
L 227.103466 23.68151 
L 229.241134 23.6761 
L 231.378802 23.682687 
L 233.516471 23.686249 
L 235.654139 23.679558 
L 237.791807 23.688813 
L 239.929476 23.669364 
L 242.067144 23.669902 
L 244.204812 23.673501 
L 246.342481 23.702477 
L 248.480149 23.700744 
L 250.617817 23.686036 
L 252.755486 23.681937 
L 254.893154 23.691203 
L 257.030822 23.702479 
L 259.168491 23.701159 
L 261.306159 23.705528 
L 263.443827 23.708524 
L 265.581495 23.694386 
L 267.719164 23.703212 
L 269.856832 23.706211 
" clip-path="url(#pd4f44f5304)" style="fill: none; stroke: #bcbd22; stroke-width: 1.5; stroke-linecap: square"/>
   </g>
   <g id="line2d_32">
    <path d="M 56.09 24.836595 
L 58.227668 24.85608 
L 60.365337 24.867988 
L 62.503005 24.879941 
L 64.640673 24.885634 
L 66.778342 24.894166 
L 68.91601 24.890906 
L 71.053678 24.889224 
L 73.191347 24.900846 
L 75.329015 24.905129 
L 77.466683 24.913827 
L 79.604352 24.919954 
L 81.74202 24.917071 
L 83.879688 24.915829 
L 86.017356 24.916065 
L 88.155025 24.918912 
L 90.292693 24.918511 
L 92.430361 24.925108 
L 94.56803 24.925106 
L 96.705698 24.927475 
L 98.843366 24.925251 
L 100.981035 24.931883 
L 103.118703 24.933264 
L 105.256371 24.930788 
L 107.39404 24.923982 
L 109.531708 24.919416 
L 111.669376 24.918648 
L 113.807045 24.920474 
L 115.944713 24.921594 
L 118.082381 24.926759 
L 120.22005 24.930305 
L 122.357718 24.931043 
L 124.495386 24.929362 
L 126.633055 24.93245 
L 128.770723 24.930663 
L 130.908391 24.929314 
L 133.04606 24.92692 
L 135.183728 24.922702 
L 137.321396 24.922207 
L 139.459065 24.930477 
L 141.596733 24.927883 
L 143.734401 24.920672 
L 145.872069 24.919796 
L 148.009738 24.919203 
L 150.147406 24.918858 
L 152.285074 24.919814 
L 154.422743 24.92179 
L 156.560411 24.924072 
L 158.698079 24.92797 
L 160.835748 24.92398 
L 162.973416 24.922904 
L 165.111084 24.918811 
L 167.248753 24.919129 
L 169.386421 24.918869 
L 171.524089 24.922541 
L 173.661758 24.928022 
L 175.799426 24.928125 
L 177.937094 24.93353 
L 180.074763 24.924702 
L 182.212431 24.917919 
L 184.350099 24.920508 
L 186.487768 24.91937 
L 188.625436 24.925121 
L 190.763104 24.928951 
L 192.900773 24.923623 
L 195.038441 24.925734 
L 197.176109 24.928682 
L 199.313778 24.924267 
L 201.451446 24.931138 
L 203.589114 24.932953 
L 205.726782 24.945914 
L 207.864451 24.941643 
L 210.002119 24.938606 
L 212.139787 24.934396 
L 214.277456 24.935934 
L 216.415124 24.934134 
L 218.552792 24.933602 
L 220.690461 24.928881 
L 222.828129 24.922783 
L 224.965797 24.922215 
L 227.103466 24.923135 
L 229.241134 24.918748 
L 231.378802 24.920751 
L 233.516471 24.919125 
L 235.654139 24.928134 
L 237.791807 24.926003 
L 239.929476 24.930787 
L 242.067144 24.930624 
L 244.204812 24.929184 
L 246.342481 24.923748 
L 248.480149 24.926914 
L 250.617817 24.919848 
L 252.755486 24.918446 
L 254.893154 24.914794 
L 257.030822 24.917103 
L 259.168491 24.912434 
L 261.306159 24.91229 
L 263.443827 24.908331 
L 265.581495 24.912669 
L 267.719164 24.911307 
L 269.856832 24.916103 
" clip-path="url(#pd4f44f5304)" style="fill: none; stroke: #17becf; stroke-width: 1.5; stroke-linecap: square"/>
   </g>
   <g id="line2d_33">
    <path d="M 56.09 24.745058 
L 58.227668 24.795397 
L 60.365337 24.815111 
L 62.503005 24.844363 
L 64.640673 24.862771 
L 66.778342 24.877157 
L 68.91601 24.868537 
L 71.053678 24.87238 
L 73.191347 24.901968 
L 75.329015 24.901557 
L 77.466683 24.909608 
L 79.604352 24.923465 
L 81.74202 24.914445 
L 83.879688 24.908267 
L 86.017356 24.910508 
L 88.155025 24.922796 
L 90.292693 24.917577 
L 92.430361 24.925548 
L 94.56803 24.927091 
L 96.705698 24.930683 
L 98.843366 24.9267 
L 100.981035 24.943069 
L 103.118703 24.954593 
L 105.256371 24.957239 
L 107.39404 24.947016 
L 109.531708 24.934841 
L 111.669376 24.931335 
L 113.807045 24.927173 
L 115.944713 24.932966 
L 118.082381 24.941327 
L 120.22005 24.957103 
L 122.357718 24.950167 
L 124.495386 24.950619 
L 126.633055 24.950956 
L 128.770723 24.945879 
L 130.908391 24.945179 
L 133.04606 24.939127 
L 135.183728 24.937348 
L 137.321396 24.934906 
L 139.459065 24.950031 
L 141.596733 24.946438 
L 143.734401 24.933967 
L 145.872069 24.939714 
L 148.009738 24.934188 
L 150.147406 24.924199 
L 152.285074 24.923694 
L 154.422743 24.923741 
L 156.560411 24.940058 
L 158.698079 24.938881 
L 160.835748 24.927447 
L 162.973416 24.932264 
L 165.111084 24.928378 
L 167.248753 24.931242 
L 169.386421 24.919147 
L 171.524089 24.930508 
L 173.661758 24.936066 
L 175.799426 24.94258 
L 177.937094 24.942879 
L 180.074763 24.928051 
L 182.212431 24.912785 
L 184.350099 24.917015 
L 186.487768 24.922322 
L 188.625436 24.924638 
L 190.763104 24.940194 
L 192.900773 24.935563 
L 195.038441 24.946436 
L 197.176109 24.945133 
L 199.313778 24.945726 
L 201.451446 24.960295 
L 203.589114 24.966984 
L 205.726782 24.983946 
L 207.864451 24.980624 
L 210.002119 24.975369 
L 212.139787 24.964989 
L 214.277456 24.964554 
L 216.415124 24.956459 
L 218.552792 24.936099 
L 220.690461 24.935032 
L 222.828129 24.927018 
L 224.965797 24.925896 
L 227.103466 24.925326 
L 229.241134 24.929464 
L 231.378802 24.937672 
L 233.516471 24.931206 
L 235.654139 24.94226 
L 237.791807 24.933901 
L 239.929476 24.95146 
L 242.067144 24.947706 
L 244.204812 24.947508 
L 246.342481 24.936243 
L 248.480149 24.937465 
L 250.617817 24.919171 
L 252.755486 24.9105 
L 254.893154 24.90885 
L 257.030822 24.912114 
L 259.168491 24.911592 
L 261.306159 24.917639 
L 263.443827 24.905496 
L 265.581495 24.921309 
L 267.719164 24.911347 
L 269.856832 24.916095 
" clip-path="url(#pd4f44f5304)" style="fill: none; stroke: #1f77b4; stroke-width: 1.5; stroke-linecap: square"/>
   </g>
   <g id="patch_3">
    <path d="M 56.09 210.04 
L 56.09 10.8 
" style="fill: none; stroke: #000000; stroke-width: 0.8; stroke-linejoin: miter; stroke-linecap: square"/>
   </g>
   <g id="patch_4">
    <path d="M 271.9945 210.04 
L 271.9945 10.8 
" style="fill: none; stroke: #000000; stroke-width: 0.8; stroke-linejoin: miter; stroke-linecap: square"/>
   </g>
   <g id="patch_5">
    <path d="M 56.09 210.04 
L 271.9945 210.04 
" style="fill: none; stroke: #000000; stroke-width: 0.8; stroke-linejoin: miter; stroke-linecap: square"/>
   </g>
   <g id="patch_6">
    <path d="M 56.09 10.8 
L 271.9945 10.8 
" style="fill: none; stroke: #000000; stroke-width: 0.8; stroke-linejoin: miter; stroke-linecap: square"/>
   </g>
   <g id="legend_1">
    <g id="patch_7">
     <path d="M 260.9945 114.42 
L 264.9945 114.42 
Q 266.9945 114.42 266.9945 112.42 
L 266.9945 108.42 
Q 266.9945 106.42 264.9945 106.42 
L 260.9945 106.42 
Q 258.9945 106.42 258.9945 108.42 
L 258.9945 112.42 
Q 258.9945 114.42 260.9945 114.42 
z
" style="fill: #ffffff; opacity: 0.8; stroke: #cccccc; stroke-linejoin: miter"/>
    </g>
   </g>
  </g>
  <g id="axes_2">
   <g id="patch_8">
    <path d="M 339.8005 210.04 
L 555.705 210.04 
L 555.705 10.8 
L 339.8005 10.8 
z
" style="fill: #ffffff"/>
   </g>
   <g id="matplotlib.axis_3">
    <g id="xtick_7">
     <g id="line2d_34">
      <g>
       <use xlink:href="#m0ffd156086" x="339.8005" y="210.04" style="stroke: #000000; stroke-width: 0.8"/>
      </g>
     </g>
     <g id="text_15">
      <!-- 0 -->
      <g transform="translate(336.61925 224.638438) scale(0.1 -0.1)">
       <use xlink:href="#DejaVuSans-30"/>
      </g>
     </g>
    </g>
    <g id="xtick_8">
     <g id="line2d_35">
      <g>
       <use xlink:href="#m0ffd156086" x="382.9814" y="210.04" style="stroke: #000000; stroke-width: 0.8"/>
      </g>
     </g>
     <g id="text_16">
      <!-- 20 -->
      <g transform="translate(376.6189 224.638438) scale(0.1 -0.1)">
       <use xlink:href="#DejaVuSans-32"/>
       <use xlink:href="#DejaVuSans-30" transform="translate(63.623047 0)"/>
      </g>
     </g>
    </g>
    <g id="xtick_9">
     <g id="line2d_36">
      <g>
       <use xlink:href="#m0ffd156086" x="426.1623" y="210.04" style="stroke: #000000; stroke-width: 0.8"/>
      </g>
     </g>
     <g id="text_17">
      <!-- 40 -->
      <g transform="translate(419.7998 224.638438) scale(0.1 -0.1)">
       <use xlink:href="#DejaVuSans-34"/>
       <use xlink:href="#DejaVuSans-30" transform="translate(63.623047 0)"/>
      </g>
     </g>
    </g>
    <g id="xtick_10">
     <g id="line2d_37">
      <g>
       <use xlink:href="#m0ffd156086" x="469.3432" y="210.04" style="stroke: #000000; stroke-width: 0.8"/>
      </g>
     </g>
     <g id="text_18">
      <!-- 60 -->
      <g transform="translate(462.9807 224.638438) scale(0.1 -0.1)">
       <use xlink:href="#DejaVuSans-36"/>
       <use xlink:href="#DejaVuSans-30" transform="translate(63.623047 0)"/>
      </g>
     </g>
    </g>
    <g id="xtick_11">
     <g id="line2d_38">
      <g>
       <use xlink:href="#m0ffd156086" x="512.5241" y="210.04" style="stroke: #000000; stroke-width: 0.8"/>
      </g>
     </g>
     <g id="text_19">
      <!-- 80 -->
      <g transform="translate(506.1616 224.638438) scale(0.1 -0.1)">
       <use xlink:href="#DejaVuSans-38"/>
       <use xlink:href="#DejaVuSans-30" transform="translate(63.623047 0)"/>
      </g>
     </g>
    </g>
    <g id="xtick_12">
     <g id="line2d_39">
      <g>
       <use xlink:href="#m0ffd156086" x="555.705" y="210.04" style="stroke: #000000; stroke-width: 0.8"/>
      </g>
     </g>
     <g id="text_20">
      <!-- 100 -->
      <g transform="translate(546.16125 224.638438) scale(0.1 -0.1)">
       <use xlink:href="#DejaVuSans-31"/>
       <use xlink:href="#DejaVuSans-30" transform="translate(63.623047 0)"/>
       <use xlink:href="#DejaVuSans-30" transform="translate(127.246094 0)"/>
      </g>
     </g>
    </g>
    <g id="text_21">
     <!-- SCPH iteration 10.0 K -->
     <g transform="translate(394.010562 238.316563) scale(0.1 -0.1)">
      <use xlink:href="#DejaVuSans-53"/>
      <use xlink:href="#DejaVuSans-43" transform="translate(63.476562 0)"/>
      <use xlink:href="#DejaVuSans-50" transform="translate(133.300781 0)"/>
      <use xlink:href="#DejaVuSans-48" transform="translate(193.603516 0)"/>
      <use xlink:href="#DejaVuSans-20" transform="translate(268.798828 0)"/>
      <use xlink:href="#DejaVuSans-69" transform="translate(300.585938 0)"/>
      <use xlink:href="#DejaVuSans-74" transform="translate(328.369141 0)"/>
      <use xlink:href="#DejaVuSans-65" transform="translate(367.578125 0)"/>
      <use xlink:href="#DejaVuSans-72" transform="translate(429.101562 0)"/>
      <use xlink:href="#DejaVuSans-61" transform="translate(470.214844 0)"/>
      <use xlink:href="#DejaVuSans-74" transform="translate(531.494141 0)"/>
      <use xlink:href="#DejaVuSans-69" transform="translate(570.703125 0)"/>
      <use xlink:href="#DejaVuSans-6f" transform="translate(598.486328 0)"/>
      <use xlink:href="#DejaVuSans-6e" transform="translate(659.667969 0)"/>
      <use xlink:href="#DejaVuSans-20" transform="translate(723.046875 0)"/>
      <use xlink:href="#DejaVuSans-31" transform="translate(754.833984 0)"/>
      <use xlink:href="#DejaVuSans-30" transform="translate(818.457031 0)"/>
      <use xlink:href="#DejaVuSans-2e" transform="translate(882.080078 0)"/>
      <use xlink:href="#DejaVuSans-30" transform="translate(913.867188 0)"/>
      <use xlink:href="#DejaVuSans-20" transform="translate(977.490234 0)"/>
      <use xlink:href="#DejaVuSans-4b" transform="translate(1009.277344 0)"/>
     </g>
    </g>
   </g>
   <g id="matplotlib.axis_4">
    <g id="ytick_7">
     <g id="line2d_40">
      <g>
       <use xlink:href="#m0acc8431ed" x="339.8005" y="210.04" style="stroke: #000000; stroke-width: 0.8"/>
      </g>
     </g>
     <g id="text_22">
      <!-- 0.000 -->
      <g transform="translate(304.172375 213.839219) scale(0.1 -0.1)">
       <use xlink:href="#DejaVuSans-30"/>
       <use xlink:href="#DejaVuSans-2e" transform="translate(63.623047 0)"/>
       <use xlink:href="#DejaVuSans-30" transform="translate(95.410156 0)"/>
       <use xlink:href="#DejaVuSans-30" transform="translate(159.033203 0)"/>
       <use xlink:href="#DejaVuSans-30" transform="translate(222.65625 0)"/>
      </g>
     </g>
    </g>
    <g id="ytick_8">
     <g id="line2d_41">
      <g>
       <use xlink:href="#m0acc8431ed" x="339.8005" y="167.482299" style="stroke: #000000; stroke-width: 0.8"/>
      </g>
     </g>
     <g id="text_23">
      <!-- 0.002 -->
      <g transform="translate(304.172375 171.281518) scale(0.1 -0.1)">
       <use xlink:href="#DejaVuSans-30"/>
       <use xlink:href="#DejaVuSans-2e" transform="translate(63.623047 0)"/>
       <use xlink:href="#DejaVuSans-30" transform="translate(95.410156 0)"/>
       <use xlink:href="#DejaVuSans-30" transform="translate(159.033203 0)"/>
       <use xlink:href="#DejaVuSans-32" transform="translate(222.65625 0)"/>
      </g>
     </g>
    </g>
    <g id="ytick_9">
     <g id="line2d_42">
      <g>
       <use xlink:href="#m0acc8431ed" x="339.8005" y="124.924598" style="stroke: #000000; stroke-width: 0.8"/>
      </g>
     </g>
     <g id="text_24">
      <!-- 0.004 -->
      <g transform="translate(304.172375 128.723817) scale(0.1 -0.1)">
       <use xlink:href="#DejaVuSans-30"/>
       <use xlink:href="#DejaVuSans-2e" transform="translate(63.623047 0)"/>
       <use xlink:href="#DejaVuSans-30" transform="translate(95.410156 0)"/>
       <use xlink:href="#DejaVuSans-30" transform="translate(159.033203 0)"/>
       <use xlink:href="#DejaVuSans-34" transform="translate(222.65625 0)"/>
      </g>
     </g>
    </g>
    <g id="ytick_10">
     <g id="line2d_43">
      <g>
       <use xlink:href="#m0acc8431ed" x="339.8005" y="82.366898" style="stroke: #000000; stroke-width: 0.8"/>
      </g>
     </g>
     <g id="text_25">
      <!-- 0.006 -->
      <g transform="translate(304.172375 86.166116) scale(0.1 -0.1)">
       <use xlink:href="#DejaVuSans-30"/>
       <use xlink:href="#DejaVuSans-2e" transform="translate(63.623047 0)"/>
       <use xlink:href="#DejaVuSans-30" transform="translate(95.410156 0)"/>
       <use xlink:href="#DejaVuSans-30" transform="translate(159.033203 0)"/>
       <use xlink:href="#DejaVuSans-36" transform="translate(222.65625 0)"/>
      </g>
     </g>
    </g>
    <g id="ytick_11">
     <g id="line2d_44">
      <g>
       <use xlink:href="#m0acc8431ed" x="339.8005" y="39.809197" style="stroke: #000000; stroke-width: 0.8"/>
      </g>
     </g>
     <g id="text_26">
      <!-- 0.008 -->
      <g transform="translate(304.172375 43.608415) scale(0.1 -0.1)">
       <use xlink:href="#DejaVuSans-30"/>
       <use xlink:href="#DejaVuSans-2e" transform="translate(63.623047 0)"/>
       <use xlink:href="#DejaVuSans-30" transform="translate(95.410156 0)"/>
       <use xlink:href="#DejaVuSans-30" transform="translate(159.033203 0)"/>
       <use xlink:href="#DejaVuSans-38" transform="translate(222.65625 0)"/>
      </g>
     </g>
    </g>
    <g id="text_27">
     <!-- $\Delta$ Parameters -->
     <g transform="translate(298.092687 144.32) rotate(-90) scale(0.1 -0.1)">
      <defs>
       <path id="DejaVuSans-394" d="M 2188 4044 
L 906 525 
L 3472 525 
L 2188 4044 
z
M 50 0 
L 1831 4666 
L 2547 4666 
L 4325 0 
L 50 0 
z
" transform="scale(0.015625)"/>
      </defs>
      <use xlink:href="#DejaVuSans-394" transform="translate(0 0.09375)"/>
      <use xlink:href="#DejaVuSans-20" transform="translate(68.408203 0.09375)"/>
      <use xlink:href="#DejaVuSans-50" transform="translate(100.195312 0.09375)"/>
      <use xlink:href="#DejaVuSans-61" transform="translate(160.498047 0.09375)"/>
      <use xlink:href="#DejaVuSans-72" transform="translate(221.777344 0.09375)"/>
      <use xlink:href="#DejaVuSans-61" transform="translate(262.890625 0.09375)"/>
      <use xlink:href="#DejaVuSans-6d" transform="translate(324.169922 0.09375)"/>
      <use xlink:href="#DejaVuSans-65" transform="translate(421.582031 0.09375)"/>
      <use xlink:href="#DejaVuSans-74" transform="translate(483.105469 0.09375)"/>
      <use xlink:href="#DejaVuSans-65" transform="translate(522.314453 0.09375)"/>
      <use xlink:href="#DejaVuSans-72" transform="translate(583.837891 0.09375)"/>
      <use xlink:href="#DejaVuSans-73" transform="translate(624.951172 0.09375)"/>
     </g>
    </g>
   </g>
   <g id="line2d_45">
    <path d="M 339.8005 19.999045 
L 341.959545 62.363647 
L 344.11859 83.167844 
L 346.277635 114.171124 
L 348.43668 132.74423 
L 350.595725 149.267349 
L 352.75477 156.260393 
L 354.913815 170.355844 
L 357.07286 177.79967 
L 359.231905 191.97526 
L 361.39095 184.668415 
L 363.549995 198.800438 
L 365.70904 200.422636 
L 367.868085 197.141667 
L 370.02713 184.637871 
L 372.186175 189.974822 
L 374.34522 196.732643 
L 376.504265 192.536415 
L 378.66331 203.055745 
L 380.822355 203.851576 
L 382.9814 198.912319 
L 385.140445 197.946918 
L 387.29949 200.333122 
L 389.458535 199.305526 
L 391.61758 198.391721 
L 393.776625 199.931279 
L 395.93567 203.979943 
L 398.094715 197.775606 
L 400.25376 198.479425 
L 402.412805 196.7368 
L 404.57185 200.790587 
L 406.730895 197.290324 
L 408.88994 199.586878 
L 411.048985 202.355947 
L 413.20803 198.347556 
L 415.367075 197.824885 
L 417.52612 194.084137 
L 419.685165 191.900771 
L 421.84421 197.766723 
L 424.003255 203.021077 
L 426.1623 199.254066 
L 428.321345 198.581553 
L 430.48039 198.569449 
L 432.639435 197.974175 
L 434.79848 192.727792 
L 436.957525 202.004435 
L 439.11657 197.808641 
L 441.275615 197.334501 
L 443.43466 194.271708 
L 445.593705 196.3528 
L 447.75275 199.895683 
L 449.911795 200.545269 
L 452.07084 190.450909 
L 454.229885 198.461529 
L 456.38893 200.550968 
L 458.547975 197.150748 
L 460.70702 199.002609 
L 462.866065 192.785651 
L 465.02511 192.214031 
L 467.184155 201.152388 
L 469.3432 201.896313 
L 471.502245 198.51073 
L 473.66129 198.987145 
L 475.820335 197.108336 
L 477.97938 200.542582 
L 480.138425 196.586718 
L 482.29747 201.438801 
L 484.456515 192.060673 
L 486.61556 201.25798 
L 488.774605 192.463784 
L 490.93365 203.212506 
L 493.092695 195.70759 
L 495.25174 201.045157 
L 497.410785 197.09779 
L 499.56983 198.132499 
L 501.728875 198.534191 
L 503.88792 195.226506 
L 506.046965 199.320085 
L 508.20601 200.286425 
L 510.365055 196.716399 
L 512.5241 192.575298 
L 514.683145 203.907731 
L 516.84219 201.533376 
L 519.001235 199.149268 
L 521.16028 189.125704 
L 523.319325 197.143577 
L 525.47837 201.702361 
L 527.637415 193.096649 
L 529.79646 183.524466 
L 531.955505 197.49928 
L 534.11455 198.008935 
L 536.273595 200.546205 
L 538.43264 201.648907 
L 540.591685 200.007814 
L 542.75073 200.040159 
L 544.909775 203.614055 
L 547.06882 201.890139 
L 549.227865 199.943277 
L 551.38691 197.421118 
L 553.545955 194.640051 
" clip-path="url(#p841873908b)" style="fill: none; stroke: #1f77b4; stroke-width: 1.5; stroke-linecap: square"/>
   </g>
   <g id="patch_9">
    <path d="M 339.8005 210.04 
L 339.8005 10.8 
" style="fill: none; stroke: #000000; stroke-width: 0.8; stroke-linejoin: miter; stroke-linecap: square"/>
   </g>
   <g id="patch_10">
    <path d="M 555.705 210.04 
L 555.705 10.8 
" style="fill: none; stroke: #000000; stroke-width: 0.8; stroke-linejoin: miter; stroke-linecap: square"/>
   </g>
   <g id="patch_11">
    <path d="M 339.8005 210.04 
L 555.705 210.04 
" style="fill: none; stroke: #000000; stroke-width: 0.8; stroke-linejoin: miter; stroke-linecap: square"/>
   </g>
   <g id="patch_12">
    <path d="M 339.8005 10.8 
L 555.705 10.8 
" style="fill: none; stroke: #000000; stroke-width: 0.8; stroke-linejoin: miter; stroke-linecap: square"/>
   </g>
   <g id="legend_2">
    <g id="patch_13">
     <path d="M 544.705 23.8 
L 548.705 23.8 
Q 550.705 23.8 550.705 21.8 
L 550.705 17.8 
Q 550.705 15.8 548.705 15.8 
L 544.705 15.8 
Q 542.705 15.8 542.705 17.8 
L 542.705 21.8 
Q 542.705 23.8 544.705 23.8 
z
" style="fill: #ffffff; opacity: 0.8; stroke: #cccccc; stroke-linejoin: miter"/>
    </g>
   </g>
  </g>
 </g>
 <defs>
  <clipPath id="pd4f44f5304">
   <rect x="56.09" y="10.8" width="215.9045" height="199.24"/>
  </clipPath>
  <clipPath id="p841873908b">
   <rect x="339.8005" y="10.8" width="215.9045" height="199.24"/>
  </clipPath>
 </defs>
</svg>
